<svg width="90" height="90" viewBox="0 0 90 90" fill="none" xmlns="http://www.w3.org/2000/svg">
<path d="M74.2382 40.6606C74.2382 33.6066 71.7827 26.7188 67.324 21.2661C66.9657 20.8276 66.3193 20.7627 65.8813 21.1213C65.4428 21.4797 65.378 22.1258 65.7365 22.5641C69.8964 27.6518 72.1874 34.0785 72.1874 40.6606C72.1874 56.4361 59.3531 69.2704 43.5775 69.2704C35.8482 69.2704 28.6047 66.2342 23.1816 60.721C22.7843 60.3172 22.1352 60.3122 21.7316 60.7091C21.328 61.1062 21.3225 61.7554 21.7197 62.1592C25.7061 66.2118 30.6106 69.0152 35.9715 70.3765V76.2324C35.9715 78.3097 37.6616 80 39.739 80H47.416C49.4934 80 51.1836 78.3099 51.1836 76.2324V70.3746C56.4634 69.0328 61.3053 66.2935 65.2578 62.341C71.0489 56.5497 74.2382 48.8503 74.2382 40.6606ZM49.1328 76.2323C49.1328 77.1789 48.3627 77.9491 47.416 77.9491H39.739C38.7924 77.9491 38.0223 77.1789 38.0223 76.2323V70.8211C39.836 71.1509 41.693 71.3211 43.5775 71.3211C45.4611 71.3211 47.3183 71.1503 49.1328 70.82V76.2323Z" fill="#212121"/>
<path d="M14.9673 40.6606C14.9673 24.8851 27.8016 12.0508 43.5771 12.0508C50.5688 12.0508 57.3005 14.6017 62.5323 19.2334C62.9566 19.6087 63.6045 19.5693 63.9798 19.1454C64.3552 18.7213 64.3158 18.0732 63.8917 17.6979C58.2845 12.7338 51.07 10 43.5771 10C35.3874 10 27.6878 13.1892 21.8969 18.9804C16.1059 24.7715 12.9165 32.4709 12.9165 40.6606C12.9165 47.0472 14.8616 53.1689 18.5415 58.3638C18.8709 58.8292 19.5139 58.9329 19.9709 58.6078C20.433 58.2804 20.5424 57.6405 20.2149 57.1784C16.7819 52.3319 14.9673 46.6202 14.9673 40.6606Z" fill="#212121"/>
<path d="M43.5773 15.4595C29.6812 15.4595 18.376 26.7647 18.376 40.6608C18.376 54.5569 29.6812 65.8621 43.5773 65.8621C57.4734 65.8621 68.7786 54.5569 68.7786 40.6608C68.7786 26.7647 57.4734 15.4595 43.5773 15.4595ZM43.5773 63.8113C30.812 63.8113 20.4268 53.4261 20.4268 40.6608C20.4268 27.8955 30.812 17.5103 43.5773 17.5103C56.3426 17.5103 66.7278 27.8955 66.7278 40.6608C66.7278 53.4261 56.3426 63.8113 43.5773 63.8113Z" fill="#212121"/>
<path fill-rule="evenodd" clip-rule="evenodd" d="M55.572 41.7168C56.9749 40.544 57.8672 38.781 57.8672 36.8095C57.8672 33.2788 55.005 30.4165 51.4742 30.4165C47.9434 30.4165 45.0812 33.2788 45.0812 36.8095C45.0812 38.4449 45.6952 39.9368 46.7052 41.0673C44.7633 42.2121 43.4829 44.1727 43.4829 46.3991C43.4829 49.9299 46.703 52.7921 50.6751 52.7921C54.6472 52.7921 57.8672 49.9299 57.8672 46.3991C57.8672 44.5499 56.984 42.8841 55.572 41.7168ZM53.3923 37.289C53.3923 38.4365 52.462 39.3667 51.3145 39.3667C50.167 39.3667 49.2368 38.4365 49.2368 37.289C49.2368 36.1415 50.167 35.2113 51.3145 35.2113C52.462 35.2113 53.3923 36.1415 53.3923 37.289ZM53.0726 45.1205C53.0726 46.1797 52.2139 47.0384 51.1547 47.0384C50.0955 47.0384 49.2368 46.1797 49.2368 45.1205C49.2368 44.0612 50.0955 43.2026 51.1547 43.2026C52.2139 43.2026 53.0726 44.0612 53.0726 45.1205Z" fill="#FCB519"/>
<path d="M29.0977 36.8094L33.8924 32.0146H38.6872V46.399L41.8837 47.9972V51.1937H29.0977V47.9972H33.8924V40.0059H30.6959L29.0977 36.8094Z" fill="#FCB519"/>
<path fill-rule="evenodd" clip-rule="evenodd" d="M28.7547 48.2591C28.7547 47.1217 29.6591 46.1997 30.7748 46.1997H32.3174V40.7926C32.2461 40.8208 32.1723 40.8465 32.0961 40.8694C31.8013 40.9598 31.5005 41.003 31.2009 41.003C30.7652 41.003 30.3232 40.9121 29.9028 40.7104L29.8598 40.6898L29.8178 40.6671C29.5169 40.5048 29.1365 40.242 28.8333 39.817L27.8864 38.4897C27.265 37.6185 27.407 36.4064 28.2122 35.7089L33.5622 31.0754C33.9274 30.7591 34.3909 30.5854 34.8701 30.5854H37.3202C38.4358 30.5854 39.3402 31.5075 39.3402 32.6448V46.1997H40.4804C41.5961 46.1997 42.5005 47.1217 42.5005 48.2591V50.5397C42.5005 51.677 41.5961 52.5991 40.4804 52.5991H30.7748C29.6591 52.5991 28.7547 51.677 28.7547 50.5397V48.2591ZM31.5204 38.8953C31.6309 38.8632 31.7414 38.8028 31.8518 38.7143L33.4188 37.3794C33.7814 37.0704 34.3374 37.3517 34.3374 37.8335V48.2591H30.7748V50.5397H40.4804V48.2591H37.3202V32.6448H34.8701L29.5201 37.2784L30.467 38.6057C30.5301 38.6942 30.6288 38.7747 30.7629 38.8471C30.8971 38.9114 31.043 38.9436 31.2009 38.9436C31.3113 38.9436 31.4179 38.9275 31.5204 38.8953ZM47.9177 52.3265C46.9676 52.0071 46.1008 51.542 45.3487 50.9106L45.3363 50.9002L45.3239 50.8895C44.5811 50.2452 43.9923 49.4682 43.5697 48.5726L43.5631 48.5585L43.5566 48.5444C43.1274 47.5982 42.9321 46.5779 42.9321 45.5199C42.9321 44.1201 43.2726 42.7935 44.0634 41.6598L44.0659 41.6562C44.2317 41.4196 44.4127 41.1998 44.6071 40.9961C44.563 40.9328 44.52 40.8684 44.4781 40.8027C43.8024 39.7441 43.5121 38.5326 43.5121 37.2663C43.5121 36.3036 43.7053 35.3738 44.1079 34.5046L44.113 34.4936C44.5065 33.6569 45.0499 32.9249 45.7319 32.3095L45.7441 32.2985C46.4431 31.6778 47.2507 31.2153 48.1384 30.8959L48.1454 30.8934C49.0619 30.5675 50.0315 30.4165 51.036 30.4165C52.0388 30.4165 53.0061 30.567 53.9181 30.8946C54.8116 31.2128 55.6243 31.6758 56.322 32.3039C57.0128 32.9187 57.5609 33.6538 57.9496 34.499C58.3612 35.3682 58.5598 36.3002 58.5598 37.2663C58.5598 38.537 58.2634 39.7512 57.5774 40.8101C57.5375 40.8723 57.4967 40.9334 57.4548 40.9935C57.6493 41.1983 57.8301 41.4194 57.9953 41.6578C58.7941 42.7903 59.1398 44.1177 59.1398 45.5199C59.1398 46.5838 58.9383 47.6091 58.497 48.5583C58.0782 49.4681 57.4815 50.2526 56.7249 50.8992C55.9725 51.5403 55.0955 52.0094 54.1364 52.3285L54.1239 52.3327C53.1539 52.6483 52.1182 52.7921 51.036 52.7921C49.9533 52.7921 48.9161 52.6481 47.9421 52.3345L47.9177 52.3265ZM56.67 47.6799C56.9698 47.0363 57.1198 46.3163 57.1198 45.5199C57.1198 44.4661 56.8633 43.5772 56.3504 42.8532C56.2488 42.7059 56.1356 42.5662 56.011 42.4342C55.5163 41.9103 54.8403 41.5069 53.9832 41.2242C54.7859 40.8801 55.3996 40.3978 55.8242 39.7773C55.8463 39.7451 55.8678 39.7126 55.8888 39.6797C56.3228 39.012 56.5398 38.2075 56.5398 37.2663C56.5398 36.5906 56.4017 35.9631 56.1255 35.3839C55.8572 34.7967 55.4785 34.2859 54.9893 33.8515C54.5079 33.4171 53.9279 33.0792 53.2493 32.8379C52.5786 32.5965 51.8408 32.4759 51.036 32.4759C50.2311 32.4759 49.4894 32.5965 48.8108 32.8379C48.14 33.0792 47.5601 33.4171 47.0708 33.8515C46.5895 34.2859 46.2107 34.7967 45.9346 35.3839C45.6663 35.9631 45.5321 36.5906 45.5321 37.2663C45.5321 38.2075 45.7452 39.012 46.1713 39.6797C46.1932 39.714 46.2157 39.7479 46.2387 39.7814C46.6637 40.3999 47.2803 40.8808 48.0887 41.2242C47.2316 41.5069 46.5532 41.9102 46.0535 42.4341C45.9275 42.5662 45.8129 42.7059 45.7097 42.8532C45.2047 43.5772 44.9522 44.4661 44.9522 45.5199C44.9522 46.3163 45.0981 47.0363 45.3901 47.6799C45.6899 48.3154 46.1042 48.8624 46.6329 49.3209C47.1695 49.7714 47.8086 50.1214 48.5504 50.3707C49.3 50.6121 50.1285 50.7327 51.036 50.7327C51.9434 50.7327 52.768 50.6121 53.5097 50.3707C54.2594 50.1214 54.8985 49.7714 55.4272 49.3209C55.9638 48.8624 56.378 48.3154 56.67 47.6799ZM53.0318 43.0749C52.5752 42.725 51.9914 42.5324 51.2802 42.4971C51.2004 42.4932 51.119 42.4912 51.036 42.4912C50.953 42.4912 50.8716 42.4932 50.7918 42.4971C50.0764 42.5326 49.4872 42.7269 49.0241 43.0802C48.954 43.1336 48.8869 43.1907 48.8226 43.2514C48.2939 43.7502 48.0296 44.4903 48.0296 45.4717C48.0296 45.8819 48.0927 46.2641 48.2189 46.618C48.3531 46.972 48.5464 47.2777 48.7989 47.5351C49.0514 47.7925 49.3631 47.9936 49.734 48.1384C50.1127 48.2832 50.5467 48.3556 51.036 48.3556C51.5331 48.3556 51.9671 48.2832 52.3379 48.1384C52.7088 47.9936 53.0205 47.7925 53.273 47.5351C53.5255 47.2777 53.7149 46.972 53.8411 46.618C53.9753 46.2641 54.0424 45.8819 54.0424 45.4717C54.0424 44.4903 53.7741 43.7502 53.2375 43.2514C53.1721 43.1887 53.1035 43.1298 53.0318 43.0749ZM50.4495 46.2125C50.5602 46.2538 50.7452 46.2962 51.036 46.2962C51.3459 46.2962 51.5252 46.2505 51.6155 46.2152C51.7513 46.1622 51.8141 46.11 51.8446 46.0789C51.8811 46.0417 51.9138 45.9954 51.9427 45.9142L51.9496 45.8949L51.9568 45.8758C51.9942 45.7772 52.0223 45.6488 52.0223 45.4717C52.0223 45.1674 51.9802 44.9878 51.9464 44.8944C51.9166 44.8124 51.8904 44.7861 51.8765 44.7732L51.865 44.7625L51.8537 44.7517C51.7999 44.7001 51.6171 44.5506 51.036 44.5506C50.4566 44.5506 50.2618 44.6995 50.1955 44.7621C50.1839 44.773 50.1564 44.8 50.1259 44.8852C50.0915 44.9815 50.0496 45.1645 50.0496 45.4717C50.0496 45.652 50.0751 45.7881 50.1106 45.8945C50.1458 45.9813 50.1853 46.036 50.2273 46.0789C50.2573 46.1095 50.3184 46.1604 50.4495 46.2125ZM51.4345 40.0829C51.7459 40.0515 52.0195 39.9814 52.2551 39.8727C52.4794 39.7638 52.6748 39.6328 52.8413 39.4797C52.9208 39.4066 52.9937 39.3285 53.06 39.2453C53.2651 38.9798 53.4072 38.6822 53.4861 38.3523C53.5729 38.0145 53.6163 37.6686 53.6163 37.3146C53.6163 36.9767 53.565 36.659 53.4624 36.3613C53.3598 36.0557 53.202 35.7862 52.9889 35.5529C52.7759 35.3115 52.5076 35.1225 52.1841 34.9857C51.8606 34.8409 51.4778 34.7685 51.036 34.7685C50.5941 34.7685 50.2114 34.8409 49.8879 34.9857C49.5643 35.1225 49.296 35.3115 49.083 35.5529C48.8699 35.7862 48.7121 36.0557 48.6095 36.3613C48.507 36.659 48.4557 36.9767 48.4557 37.3146C48.4557 37.6686 48.4951 38.0145 48.574 38.3523C48.6608 38.6822 48.8068 38.9798 49.012 39.2453C49.0775 39.3275 49.1494 39.4047 49.2277 39.477C49.3948 39.6313 49.5912 39.7632 49.8168 39.8727C50.0579 39.9839 50.3386 40.0546 50.6589 40.085C50.779 40.0963 50.9047 40.102 51.036 40.102C51.1751 40.102 51.3079 40.0956 51.4345 40.0829ZM50.659 38C50.6904 38.0109 50.8021 38.0426 51.036 38.0426C51.2699 38.0426 51.3816 38.0109 51.413 38C51.4466 37.9821 51.467 37.9678 51.4778 37.9593L51.4869 37.9517C51.504 37.926 51.515 37.9002 51.5235 37.8644L51.5276 37.8474L51.5319 37.8306C51.5744 37.6653 51.5962 37.4949 51.5962 37.3146C51.5962 37.1927 51.5783 37.1072 51.5566 37.044L51.551 37.028C51.5391 36.9923 51.5274 36.9747 51.5105 36.9562L51.4989 36.9435L51.4875 36.9305L51.4794 36.9242C51.4709 36.9182 51.45 36.9048 51.4104 36.8881L51.3911 36.8799L51.372 36.8714C51.3601 36.8661 51.2662 36.8279 51.036 36.8279C50.8058 36.8279 50.7118 36.8661 50.6999 36.8714L50.6808 36.8799L50.6616 36.8881C50.622 36.9048 50.601 36.9182 50.5926 36.9242L50.5845 36.9305L50.5731 36.9435L50.5614 36.9562C50.5445 36.9747 50.5328 36.9923 50.5208 37.0279L50.5154 37.044C50.4937 37.1072 50.4757 37.1927 50.4757 37.3146C50.4757 37.4982 50.4947 37.6725 50.5312 37.8404C50.5446 37.8837 50.5617 37.9184 50.5843 37.9511L50.5941 37.9593C50.605 37.9678 50.6253 37.9821 50.659 38Z" fill="#212121"/>
</svg>
