<svg width="90" height="90" viewBox="0 0 90 90" fill="none" xmlns="http://www.w3.org/2000/svg">
<g clip-path="url(#clip0_670_33916)">
<circle cx="45" cy="60.1665" r="8.75" fill="#FCB519"/>
<ellipse cx="45" cy="60.3125" rx="3.5" ry="3.9375" fill="white"/>
<path d="M40.625 78.5417V66.875H49.375V78.5417L45 75.625L40.625 78.5417Z" fill="#FCB519"/>
<path d="M77.565 27.0855C78.1314 27.0855 78.5904 26.6265 78.5904 26.0601V17.3891C78.5904 13.3147 75.2756 10 71.2011 10H18.7979C14.7234 10 11.4087 13.3147 11.4087 17.3891V64.6317C11.4087 68.7061 14.7234 72.0207 18.7979 72.0207H39.3898V78.9746C39.3898 79.3577 39.6034 79.7086 39.9434 79.885C40.2837 80.0611 40.6934 80.0335 41.0063 79.8124L44.9995 76.9951L48.9928 79.8123C49.3063 80.0336 49.7166 80.0606 50.0557 79.8849C50.3957 79.7085 50.6092 79.3576 50.6092 78.9745V72.0205H71.2011C75.2756 72.0205 78.5904 68.7059 78.5904 64.6316V30.8452C78.5904 30.2788 78.1314 29.8198 77.565 29.8198C76.9986 29.8198 76.5396 30.2788 76.5396 30.8452V64.6317C76.5396 67.5751 74.1447 69.9699 71.2011 69.9699H50.6092V67.7325H64.5012C65.0677 67.7325 65.5266 67.2735 65.5266 66.7071C65.5266 62.6371 68.8377 59.3262 72.9075 59.3262C73.4739 59.3262 73.9329 58.8672 73.9329 58.3008V20.7673C73.9329 20.2009 73.4739 19.7419 72.9075 19.7419C70.4659 19.7419 68.4792 17.7554 68.4792 15.3136C68.4792 14.7471 68.0202 14.2882 67.4538 14.2882H22.5451C21.9787 14.2882 21.5197 14.7471 21.5197 15.3136C21.5197 17.7552 19.5332 19.7419 17.0914 19.7419C16.525 19.7419 16.066 20.2009 16.066 20.7673V51.1891C16.066 51.7556 16.525 52.2145 17.0914 52.2145C17.6578 52.2145 18.1168 51.7556 18.1168 51.1891V21.7116C20.8698 21.2719 23.0497 19.0919 23.4894 16.339H66.5096C66.9493 19.0919 69.1293 21.2719 71.8823 21.7116V57.3307C67.4988 57.8064 64.0071 61.2981 63.5313 65.6816H52.1096C53.2662 64.1728 53.9558 62.2878 53.9558 60.2441C53.9558 55.3056 49.9381 51.2878 44.9995 51.2878C40.061 51.2878 36.0432 55.3056 36.0432 60.2441C36.0432 62.2879 36.7328 64.1728 37.8896 65.6816H23.4894C23.0497 62.9287 20.8698 60.7488 18.1168 60.3091V55.9741C18.1168 55.4077 17.6578 54.9487 17.0914 54.9487C16.525 54.9487 16.066 55.4077 16.066 55.9741V61.2534C16.066 61.8198 16.525 62.2788 17.0914 62.2788C19.5331 62.2788 21.5197 64.2652 21.5197 66.707C21.5197 67.2734 21.9787 67.7324 22.5451 67.7324H39.3898V69.9698H18.7979C15.8544 69.9698 13.4595 67.575 13.4595 64.6316V17.3891C13.4595 14.4455 15.8542 12.0508 18.7979 12.0508H71.2013C74.1448 12.0508 76.5397 14.4455 76.5397 17.3891V26.0601C76.5396 26.6264 76.9987 27.0855 77.565 27.0855ZM45.5906 74.9024C45.2362 74.6522 44.7627 74.6522 44.4085 74.9024L41.4406 76.9962V68.4608C42.5322 68.9355 43.7353 69.2002 44.9995 69.2002C46.2638 69.2002 47.4669 68.9354 48.5585 68.4608V76.9962L45.5906 74.9024ZM44.9995 53.3386C48.8073 53.3386 51.9051 56.4364 51.9051 60.2441C51.9051 64.0519 48.8073 67.1495 44.9995 67.1495C41.1918 67.1495 38.094 64.0519 38.094 60.2441C38.094 56.4364 41.1918 53.3386 44.9995 53.3386Z" fill="#212121"/>
<path d="M44.9989 64.5325C47.3636 64.5325 49.2874 62.6087 49.2874 60.244C49.2874 57.8793 47.3636 55.9556 44.9989 55.9556C42.6342 55.9556 40.7104 57.8793 40.7104 60.244C40.7104 62.6087 42.6342 64.5325 44.9989 64.5325ZM44.9989 58.0063C46.2327 58.0063 47.2366 59.0103 47.2366 60.244C47.2366 61.4778 46.2327 62.4817 44.9989 62.4817C43.7652 62.4817 42.7612 61.4778 42.7612 60.244C42.7612 59.0101 43.7652 58.0063 44.9989 58.0063Z" fill="#212121"/>
<path d="M37.1547 50.4804C44.9927 50.4804 51.3694 44.1037 51.3694 36.2656C51.3694 28.4275 44.9927 22.0508 37.1547 22.0508C29.3166 22.0508 22.9399 28.4275 22.9399 36.2656C22.9399 44.1037 29.3166 50.4804 37.1547 50.4804ZM37.1547 24.1016C43.8619 24.1016 49.3186 29.5583 49.3186 36.2656C49.3186 42.9729 43.8619 48.4296 37.1547 48.4296C30.4474 48.4296 24.9907 42.9729 24.9907 36.2656C24.9907 29.5583 30.4476 24.1016 37.1547 24.1016Z" fill="#212121"/>
<path d="M37.1537 45.6457C42.3259 45.6457 46.5338 41.4377 46.5338 36.2654C46.5338 31.0932 42.3259 26.8853 37.1537 26.8853C31.9814 26.8853 27.7734 31.0932 27.7734 36.2654C27.7734 41.4377 31.9814 45.6457 37.1537 45.6457ZM30.3986 39.1091L32.7664 39.2539C33.4143 39.2934 33.9148 39.8329 33.906 40.4822L33.8738 42.8171C32.3195 42.0357 31.0789 40.7191 30.3986 39.1091ZM35.9153 43.4882L35.9563 40.5105C35.9805 38.7646 34.6341 37.3133 32.8914 37.2068L29.863 37.0217C29.781 36.2501 29.8305 35.4314 29.9973 34.6866L33.713 33.9257C35.9927 33.4588 38.3028 33.4689 40.5787 33.9559L44.3265 34.7579C44.4806 35.4817 44.5233 36.2746 44.4442 37.0217L41.4148 37.2068C39.6729 37.3135 38.3265 38.7639 38.3497 40.5087L38.3892 43.4887C37.5886 43.6295 36.7158 43.6292 35.9153 43.4882ZM40.4313 42.8185L40.4004 40.4815C40.3919 39.8328 40.8926 39.2936 41.5402 39.2539L43.909 39.1091C43.2281 40.72 41.9866 42.0372 40.4313 42.8185ZM37.1537 28.936C39.8055 28.936 42.1327 30.3516 43.4198 32.4667L41.0077 31.9505C38.4532 31.4041 35.8608 31.3929 33.3015 31.9166L30.9286 32.4025C32.2236 30.3235 34.5293 28.936 37.1537 28.936Z" fill="#212121"/>
<path d="M56.7808 34.7637H66.0337C66.6002 34.7637 67.0591 34.3047 67.0591 33.7383C67.0591 33.1719 66.6002 32.7129 66.0337 32.7129H56.7808C56.2143 32.7129 55.7554 33.1719 55.7554 33.7383C55.7554 34.3047 56.2143 34.7637 56.7808 34.7637Z" fill="#212121"/>
<path d="M56.7808 39.8184H66.0337C66.6002 39.8184 67.0591 39.3594 67.0591 38.793C67.0591 38.2265 66.6002 37.7676 66.0337 37.7676H56.7808C56.2143 37.7676 55.7554 38.2265 55.7554 38.793C55.7554 39.3594 56.2143 39.8184 56.7808 39.8184Z" fill="#212121"/>
</g>
<defs>
<clipPath id="clip0_670_33916">
<rect width="70" height="70" fill="white" transform="translate(10 10)"/>
</clipPath>
</defs>
</svg>
