<svg width="24" height="24" viewBox="0 0 24 24" fill="none" xmlns="http://www.w3.org/2000/svg">
<path fill-rule="evenodd" clip-rule="evenodd" d="M6.96342 2.5H17.0366C17.9483 2.49999 18.6832 2.49998 19.2612 2.57768C19.8612 2.65836 20.3665 2.83096 20.7678 3.23223C21.169 3.63351 21.3416 4.13876 21.4223 4.73883C21.5 5.3168 21.5 6.05168 21.5 6.96338V17.0366C21.5 17.9483 21.5 18.6832 21.4223 19.2612C21.3416 19.8612 21.169 20.3665 20.7678 20.7678C20.3665 21.169 19.8612 21.3416 19.2612 21.4223C18.6832 21.5 17.9483 21.5 17.0366 21.5H6.96338C6.05168 21.5 5.3168 21.5 4.73883 21.4223C4.13876 21.3416 3.63351 21.169 3.23223 20.7678C2.83096 20.3665 2.65836 19.8612 2.57768 19.2612C2.49998 18.6832 2.49999 17.9483 2.5 17.0366V6.96341C2.49999 6.05169 2.49998 5.31681 2.57768 4.73883C2.65836 4.13876 2.83096 3.63351 3.23223 3.23223C3.63351 2.83096 4.13876 2.65836 4.73883 2.57768C5.31681 2.49998 6.0517 2.49999 6.96342 2.5ZM11.3465 15.6653L17.8735 8.33244L17.1266 7.66756L11.1921 14.3347L7.28753 11.5909L6.71258 12.4091L11.3465 15.6653Z" fill="#202429"/>
</svg>
