<svg width="90" height="90" viewBox="0 0 90 90" fill="none" xmlns="http://www.w3.org/2000/svg">
<rect x="42.2388" y="24.29" width="5.52261" height="16.5678" rx="1" fill="#FCB519"/>
<rect x="42.2388" y="45" width="5.52261" height="5.52262" rx="1" fill="#FCB519"/>
<path d="M75.3423 37.0922C75.3352 37.0836 75.3282 37.0749 75.32 37.0672L64.8196 27.1751C64.4293 26.8075 63.815 26.8257 63.4472 27.216C63.0795 27.6063 63.0978 28.2206 63.4881 28.5884L73.2384 37.7738L49.8253 59.83C47.1194 62.38 42.8807 62.38 40.1748 59.8298L16.7617 37.7738L40.1751 15.7176C42.8807 13.1676 47.1196 13.1676 49.8255 15.7178L60.1913 25.483C60.5816 25.8506 61.1959 25.8324 61.5637 25.4421C61.9314 25.0518 61.913 24.4375 61.5228 24.0697L51.1571 14.3046C47.7047 11.0508 42.2957 11.0508 38.8436 14.3045L14.6804 37.0672C14.6722 37.0749 14.6652 37.0836 14.658 37.0922C14.4813 37.2707 14.3751 37.513 14.3751 37.7738V46.7209C14.3751 47.2571 14.8098 47.6918 15.346 47.6918C15.8821 47.6918 16.3168 47.2571 16.3168 46.7209V40.0221L36.361 58.9046L18.3725 75.8499C17.1586 75.2744 16.3167 74.0374 16.3167 72.6071V51.223C16.3167 50.6868 15.882 50.2522 15.3458 50.2522C14.8097 50.2522 14.375 50.6868 14.375 51.223V72.6071C14.375 75.6555 16.8551 78.1356 19.9035 78.1356H70.0966C73.1451 78.1356 75.6251 75.6555 75.6251 72.6071V37.7738C75.6251 37.513 75.519 37.2707 75.3423 37.0922ZM73.6835 72.6071C73.6835 74.0376 72.8416 75.2745 71.6275 75.85L59.3816 64.3138C58.9915 63.9461 58.3769 63.9644 58.0093 64.3547C57.6415 64.7449 57.6599 65.3593 58.0502 65.727L69.161 76.194H20.8389L37.7767 60.2382L38.8432 61.243C40.5696 62.8701 42.7845 63.6835 45.0001 63.6834C47.2151 63.6832 49.4308 62.8698 51.1567 61.2431L52.2233 60.2384L54.7701 62.6373C54.9576 62.814 55.1969 62.9015 55.4357 62.9015C55.6938 62.9015 55.9515 62.7991 56.1424 62.5964C56.5102 62.2062 56.4917 61.5917 56.1015 61.2241L53.6393 58.9047L73.6835 40.0221V72.6071Z" fill="#212121"/>
<path d="M49.2923 27.7615C49.2923 25.3947 47.3668 23.4692 45.0002 23.4692C42.6335 23.4692 40.708 25.3947 40.708 27.7615V37.8219C40.708 40.1887 42.6335 42.1142 45.0002 42.1142C47.3668 42.1142 49.2923 40.1887 49.2923 37.8219V27.7615ZM47.3507 37.8218C47.3507 39.1179 46.2962 40.1724 45.0002 40.1724C43.7042 40.1724 42.6497 39.1179 42.6497 37.8218V27.7613C42.6497 26.4652 43.7041 25.4108 45.0002 25.4108C46.2963 25.4108 47.3507 26.4652 47.3507 27.7613V37.8218Z" fill="#212121"/>
<path d="M45.0002 43.4932C42.6335 43.4932 40.708 45.4186 40.708 47.7854C40.708 50.1521 42.6335 52.0776 45.0002 52.0776C47.3668 52.0776 49.2923 50.1521 49.2923 47.7854C49.2923 45.4186 47.367 43.4932 45.0002 43.4932ZM45.0002 50.1358C43.7041 50.1358 42.6497 49.0814 42.6497 47.7853C42.6497 46.4891 43.7041 45.4347 45.0002 45.4347C46.2963 45.4347 47.3507 46.4891 47.3507 47.7853C47.3507 49.0814 46.2963 50.1358 45.0002 50.1358Z" fill="#212121"/>
</svg>
