<svg width="61" height="60" viewBox="0 0 61 60" fill="none" xmlns="http://www.w3.org/2000/svg">
<path d="M44.5628 20.6249C47.1516 20.6249 49.2503 18.5263 49.2503 15.9374C49.2503 13.3486 47.1516 11.2499 44.5628 11.2499C41.974 11.2499 39.8753 13.3486 39.8753 15.9374C39.8753 18.5263 41.974 20.6249 44.5628 20.6249Z" fill="#DBE1E8"/>
<path fill-rule="evenodd" clip-rule="evenodd" d="M27.2316 5.2619e-07H33.7684C39.5394 -3.15511e-05 44.062 -5.69038e-05 47.5907 0.474367C51.2026 0.959966 54.0526 1.97332 56.2897 4.21034C58.5267 6.44736 59.54 9.29742 60.0256 12.9093C60.5 16.4379 60.5 20.9605 60.5 26.7313V33.2684C60.5 39.0393 60.5 43.5621 60.0256 47.0907C59.54 50.7026 58.5267 53.5526 56.2897 55.7897C54.0526 58.0267 51.2026 59.04 47.5907 59.5256C44.0621 60 39.5395 60 33.7687 60H27.2316C21.4607 60 16.9379 60 13.4093 59.5256C9.79742 59.04 6.94736 58.0267 4.71034 55.7897C2.47332 53.5526 1.45997 50.7026 0.974367 47.0907C0.499943 43.562 0.499968 39.0394 0.500001 33.2684V26.7316C0.499968 20.9606 0.499943 16.438 0.974367 12.9093C1.45997 9.29742 2.47332 6.44736 4.71034 4.21034C6.94736 1.97332 9.79742 0.959966 13.4093 0.474367C16.938 -5.70901e-05 21.4606 -3.15511e-05 27.2316 5.2619e-07ZM13.9089 4.19093C10.7129 4.62062 8.78613 5.43785 7.36199 6.86199C5.93785 8.28613 5.12062 10.2129 4.69093 13.4089C4.25398 16.6589 4.25 20.9294 4.25 26.875V33.125C4.25 34.9522 4.25038 36.6211 4.26358 38.1509C5.21158 36.539 6.72292 35.0277 9.4292 32.3214L9.90658 31.844C14.1117 27.6389 16.2143 25.5363 18.4919 25.3441C19.6386 25.2473 20.7897 25.469 21.8184 25.9847C23.8617 27.0091 25.0503 29.7824 27.4275 35.3291C28.5452 37.937 29.104 39.241 30.04 39.7597C30.6203 40.0813 31.2879 40.2099 31.946 40.1268C33.0078 39.9928 33.9958 39.0048 35.9719 37.0287C38.6359 34.3647 39.9678 33.0328 41.5481 32.592C42.5392 32.3156 43.5832 32.2882 44.5875 32.5121C46.1887 32.8692 47.5889 34.1293 50.3891 36.6495L51.0596 37.253C53.9123 39.8204 55.5581 41.3016 56.6228 42.8675C56.7483 40.2203 56.75 37.0348 56.75 33.125V26.875C56.75 20.9294 56.746 16.6589 56.3091 13.4089C55.8794 10.2129 55.0621 8.28613 53.638 6.86199C52.2139 5.43785 50.2871 4.62062 47.0911 4.19093C43.8411 3.75398 39.5706 3.75 33.625 3.75H27.375C21.4294 3.75 17.1589 3.75398 13.9089 4.19093Z" fill="#DBE1E8"/>
</svg>
