<svg width="90" height="90" viewBox="0 0 90 90" fill="none" xmlns="http://www.w3.org/2000/svg">
<path d="M54.0913 21.5427C51.3651 19.8555 48.2212 18.9639 45 18.9639C35.4559 18.9639 27.6914 26.7284 27.6914 36.2725C27.6914 45.8164 35.4559 53.5811 45 53.5811C54.5441 53.5811 62.3086 45.8165 62.3086 36.2725C62.3086 32.0308 60.7586 27.9507 57.9441 24.7837C57.5677 24.3604 56.9198 24.322 56.4964 24.6984C56.0731 25.0745 56.035 25.7227 56.4111 26.146C58.8917 28.9372 60.2578 32.5336 60.2578 36.2725C60.2578 44.6856 53.4133 51.5303 45 51.5303C36.5867 51.5303 29.7422 44.6857 29.7422 36.2725C29.7422 27.8592 36.5867 21.0146 45 21.0146C47.8398 21.0146 50.6104 21.8002 53.0123 23.2865C53.4937 23.5846 54.1258 23.4358 54.4237 22.9541C54.7217 22.4725 54.5728 21.8407 54.0913 21.5427Z" fill="#212121"/>
<path d="M53.2858 61.2091C64.0439 57.6362 71.272 47.6147 71.272 36.272C71.272 29.2452 68.5332 22.6418 63.5601 17.678C58.5984 12.7255 52.0086 10 44.9992 10C44.9825 10 44.9657 10 44.949 10C37.9543 10.0131 31.3678 12.7672 26.4021 17.7547C21.437 22.7421 18.7116 29.3409 18.7281 36.3356C18.731 37.7203 18.844 39.114 19.0639 40.4779C19.154 41.0369 19.6803 41.4174 20.2395 41.3269C20.7986 41.2368 21.1786 40.7104 21.0886 40.1514C20.8858 38.8937 20.7816 37.6084 20.7789 36.3309C20.7637 29.8838 23.2769 23.8005 27.8554 19.2014C32.4343 14.6025 38.5061 12.0628 44.9527 12.0508H44.9992C51.4612 12.0508 57.5374 14.5638 62.1113 19.1293C66.6962 23.7056 69.2212 29.7937 69.2212 36.2719C69.2212 46.7295 62.5575 55.9688 52.6406 59.2624C51.6513 59.5897 50.8272 60.3218 50.3795 61.2712L46.5774 69.3372C46.247 70.0376 45.5082 70.4316 44.7391 70.3177C44.1646 70.2325 43.6623 69.844 43.3957 69.2787L39.6213 61.2719C39.1748 60.3229 38.3512 59.5905 37.3622 59.2628C33.9295 58.1228 30.7358 56.1807 28.1267 53.6464C25.5211 51.1157 23.4884 47.9851 22.2481 44.5931C22.0535 44.0613 21.4653 43.7877 20.9328 43.9823C20.401 44.1768 20.1274 44.7655 20.322 45.2975C21.6677 48.9776 23.8724 52.3732 26.6978 55.1176C29.5272 57.8659 32.9916 59.9723 36.7165 61.2094C37.175 61.3613 37.5573 61.7024 37.7659 62.1458L38.2191 63.1072C33.2706 64.6079 30.1389 67.652 30.1389 71.0709C30.1389 73.5655 31.7616 75.8663 34.7082 77.5496C37.474 79.1298 41.1291 80 45.0001 80C48.2395 80 51.3097 79.3986 53.8784 78.2605C54.3961 78.0311 54.6299 77.4255 54.4005 76.9076C54.1711 76.3898 53.5653 76.1559 53.0475 76.3854C50.7385 77.4085 47.9557 77.9492 45.0001 77.9492C38.056 77.9492 32.1896 74.7994 32.1896 71.0709C32.1896 68.5633 34.935 66.175 39.1037 64.9836L41.5409 70.1535C42.101 71.3405 43.1842 72.1603 44.4385 72.3463C44.6296 72.3748 44.8201 72.3886 45.0083 72.3886C46.4641 72.3886 47.7956 71.5616 48.4324 70.212L50.8968 64.9836C55.0655 66.175 57.8108 68.5633 57.8108 71.0709C57.8108 72.0551 57.4079 73.0141 56.613 73.9211C56.2398 74.347 56.2824 74.9949 56.7083 75.368C56.903 75.5386 57.1439 75.6221 57.3837 75.6221C57.6689 75.6221 57.9526 75.5039 58.1553 75.2725C59.2715 73.9989 59.8614 72.5458 59.8614 71.0708C59.8614 67.6518 56.7298 64.6078 51.7812 63.107L52.2343 62.1458C52.4435 61.7024 52.8263 61.3611 53.2858 61.2091Z" fill="#212121"/>
<path d="M43.5409 31.8748L40.6239 26.0415C39.6517 26.0415 36.4704 25.5968 34.7907 28.9581C31.8754 34.7921 38.4251 44.0857 47.9159 46.4581C53.7499 47.9164 55.2075 43.5414 55.2075 42.0831C55.2075 40.6248 49.3741 36.2497 47.9157 39.1664C46.6114 41.7752 40.6241 39.1664 40.6241 36.2497C40.6241 33.9164 42.0824 33.3331 43.5409 31.8748Z" fill="#FCB519"/>
<path d="M42.0223 34.8008L42.7358 34.4091C43.95 33.7426 44.425 32.2454 43.8173 31.0006L41.4009 26.0525C41.131 25.4998 40.6621 25.0859 40.0803 24.8868C39.4986 24.6877 38.8745 24.7272 38.3226 24.9985L36.5231 25.8829C34.3127 26.9693 33.0607 29.4264 33.4782 31.8582C33.9968 34.879 35.3396 39.1925 38.793 42.5865C42.246 45.9804 46.582 47.2486 49.6116 47.715C49.8929 47.7583 50.1739 47.7794 50.4529 47.7794C52.5933 47.7794 54.6062 46.5388 55.5331 44.567L56.3862 42.7526C56.6479 42.1962 56.6768 41.5713 56.4677 40.9931C56.2586 40.4149 55.8365 39.9531 55.2794 39.6927L50.2902 37.3624C49.0356 36.7763 47.5467 37.2769 46.901 38.5026L46.5217 39.2228C46.4484 39.362 46.3024 39.443 46.1524 39.4309C45.5838 39.3831 44.6492 39.074 43.4265 37.8722H43.4267C42.204 36.6703 41.8786 35.7414 41.8211 35.1738C41.8053 35.023 41.8846 34.8766 42.0223 34.8008ZM41.7489 32.6115L41.0353 33.0032C40.1744 33.4759 39.6818 34.4091 39.7803 35.3808C39.872 36.2845 40.3296 37.7042 41.9885 39.3348H41.9887C43.6478 40.9655 45.0751 41.3985 45.9803 41.4745C46.9524 41.556 47.8781 41.0476 48.3358 40.1785L48.7151 39.4583C48.8498 39.2027 49.1603 39.098 49.4221 39.2205L54.4112 41.5508C54.488 41.5867 54.523 41.6466 54.539 41.6906C54.555 41.7346 54.5662 41.8031 54.5303 41.8798L53.6772 43.6944C53.0134 45.1064 51.4693 45.9259 49.9233 45.688C47.192 45.2676 43.2935 44.1345 40.2303 41.1238C37.1671 38.1131 35.9668 34.2347 35.4993 31.5111C35.2345 29.969 36.0276 28.4114 37.4277 27.7233L39.2272 26.8389C39.2658 26.8199 39.3027 26.8132 39.3352 26.8132C39.3667 26.8132 39.3944 26.8193 39.4162 26.8268C39.4605 26.842 39.521 26.876 39.5582 26.9522L41.9746 31.9002C42.1013 32.1601 42.0022 32.4725 41.7489 32.6115Z" fill="#212121"/>
</svg>
