<svg width="22" height="16" viewBox="0 0 22 16" fill="none" xmlns="http://www.w3.org/2000/svg">
<g clip-path="url(#clip0_267_14954)">
<path d="M0.545532 -0.18182H22.3637V16.1818H0.545532V-0.18182Z" fill="#00008B"/>
<path d="M1.82394 -0.18182L5.98303 2.90341L10.1251 -0.18182H11.4546V0.874998L7.36371 3.92613L11.4546 6.96023V8H10.091L6.00008 4.94886L1.92621 8H0.545532V6.97727L4.6194 3.94318L0.545532 0.909089V-0.18182H1.82394Z" fill="#EEF2F5"/>
<path d="M7.77281 4.60795L11.4546 7.31818V8L6.83531 4.60795H7.77281ZM4.63644 4.94886L4.73871 5.54545L1.46599 8H0.545532L4.63644 4.94886ZM11.4546 -0.18182V-0.130684L7.21031 3.07386L7.2444 2.32386L10.6024 -0.18182H11.4546ZM0.545532 -0.18182L4.6194 2.81818H3.59667L0.545532 0.534089V-0.18182Z" fill="#FF0000"/>
<path d="M4.65349 -0.18182V8H7.38076V-0.18182H4.65349ZM0.545532 2.54545V5.27273H11.4546V2.54545H0.545532Z" fill="#EEF2F5"/>
<path d="M0.545532 3.10795V4.74432H11.4546V3.10795H0.545532ZM5.19894 -0.18182V8H6.83531V-0.18182H5.19894Z" fill="#FF0000"/>
<path d="M18.5114 13.342L17.8125 13.4307L17.8875 14.1295L17.383 13.6386L16.8819 14.133L16.95 13.4341L16.2512 13.3523L16.8409 12.9705L16.4694 12.3739L17.1375 12.5955L17.3728 11.9307L17.6148 12.592L18.2796 12.3636L17.9148 12.9636L18.508 13.342H18.5114ZM18.3853 9.34659L18.4773 8.90341L18.1432 8.59659L18.5932 8.54545L18.7807 8.13295L18.9682 8.54545L19.4182 8.59659L19.0841 8.90341L19.1762 9.34659L18.7807 9.12159L18.3853 9.34659ZM14.8364 7.30114L14.1444 7.37613L14.2057 8.06818L13.7148 7.57386L13.2103 8.05454L13.2921 7.3625L12.6034 7.27045L13.1932 6.90227L12.8353 6.30568L13.4932 6.5375L13.7387 5.88636L13.9671 6.54432L14.6284 6.32954L14.2569 6.91932L14.8398 7.30114H14.8364ZM21.7841 6.18295L21.0716 6.275L21.15 6.9875L20.6353 6.48636L20.1239 6.99091L20.1955 6.275L19.483 6.19318L20.0864 5.80114L19.708 5.19091L20.3898 5.41932L20.6284 4.74432L20.8739 5.41932L21.5523 5.18409L21.1773 5.79773L21.7841 6.18295ZM18.508 3.33636L17.8023 3.41477L17.8671 4.12386L17.3659 3.61932L16.8512 4.11023L16.933 3.40454L16.2273 3.30909L16.8307 2.93409L16.4659 2.32386L17.1375 2.55909L17.3864 1.89432L17.6182 2.56591L18.2932 2.34432L17.9148 2.94432L18.508 3.33636ZM8.52276 12.967L6.9614 13.1511L7.11821 14.7159L6.00003 13.6114L4.87503 14.7091L5.04208 13.1443L3.48071 12.9466L4.80685 12.1011L3.98867 10.758L5.47503 11.2693L6.01367 9.78977L6.54208 11.2727L8.03185 10.7716L7.20344 12.108L8.52617 12.9636L8.52276 12.967Z" fill="#EEF2F5"/>
</g>
<defs>
<clipPath id="clip0_267_14954">
<rect width="21.8182" height="16.3636" fill="white" transform="translate(0.545532 -0.18182)"/>
</clipPath>
</defs>
</svg>
