<svg width="60" height="45" viewBox="0 0 60 45" fill="none" xmlns="http://www.w3.org/2000/svg">
<g clip-path="url(#clip0_59_51087)">
<path d="M14.0719 0H45.9187V45H14.0625L14.0719 0Z" fill="white"/>
<path d="M-1.84668 0H14.0721V45H-1.84668V0ZM45.9189 0H61.8377V45H45.9283L45.9189 0ZM18.8439 21.75L17.5971 22.1625L23.3533 27.225C23.7939 28.5094 23.2033 28.8937 22.8283 29.5687L29.0721 28.7812L28.9221 35.0625L30.2252 35.0344L29.9346 28.7906L36.1877 29.5406C35.8033 28.725 35.4564 28.2937 35.8127 26.9906L41.5596 22.2094L40.5564 21.8344C39.7314 21.1969 40.9127 18.7781 41.0814 17.25C41.0814 17.25 37.7346 18.4031 37.5189 17.7938L36.6564 16.1531L33.6002 19.5094C33.2721 19.5938 33.1314 19.4625 33.0471 19.1813L34.4533 12.1688L32.2221 13.425C32.0346 13.5094 31.8471 13.4344 31.7346 13.2188L29.5783 8.90625L27.3658 13.3875C27.1971 13.5469 27.0283 13.5656 26.8971 13.4531L24.7502 12.2625L26.0346 19.2094C25.9314 19.4906 25.6877 19.5656 25.4064 19.4156L22.4814 16.1063C22.1064 16.7156 21.8439 17.7094 21.3377 17.9344C20.8314 18.15 19.1346 17.5125 18.0002 17.2781C18.3939 18.6656 19.5939 20.9906 18.8439 21.75Z" fill="#D52B1E"/>
</g>
<defs>
<clipPath id="clip0_59_51087">
<rect width="60" height="45" fill="white"/>
</clipPath>
</defs>
</svg>
