<svg width="60" height="45" viewBox="0 0 60 45" fill="none" xmlns="http://www.w3.org/2000/svg">
<g clip-path="url(#clip0_59_51165)">
<path d="M0 0H60V45H0V0Z" fill="#EE1C25"/>
<path d="M7.19997 16.65L11.2499 4.5L15.2999 16.65L4.5 9.225H17.9998L7.19997 16.65Z" fill="#FFFF00"/>
<path d="M24.7658 4.73275L20.5979 5.65639L23.3781 2.4167L23.1054 6.77689L20.7925 2.91681L24.7658 4.73275Z" fill="#FFFF00"/>
<path d="M28.9723 10.064L24.7724 9.29887L28.5914 7.39102L26.6491 11.3042L26.0142 6.84918L28.9723 10.064Z" fill="#FFFF00"/>
<path d="M28.3596 17.5427L24.8369 15.1312L29.102 14.9468L25.7325 17.7275L26.9699 13.401L28.3596 17.5427Z" fill="#FFFF00"/>
<path d="M23.0615 22.4286L20.7436 18.8436L24.7489 20.3209L20.5669 21.5844L23.3792 18.0715L23.0615 22.4286Z" fill="#FFFF00"/>
</g>
<defs>
<clipPath id="clip0_59_51165">
<rect width="60" height="45" fill="white"/>
</clipPath>
</defs>
</svg>
