<svg width="60" height="45" viewBox="0 0 60 45" fill="none" xmlns="http://www.w3.org/2000/svg">
<g clip-path="url(#clip0_59_59166)">
<path d="M0 30H60V45H0V30Z" fill="black"/>
<path d="M0 15H60V30H0V15Z" fill="white"/>
<path d="M0 0H60V15H0V0Z" fill="#CE1126"/>
<path d="M30.0602 22.6797L35.1977 27.4497L34.8302 18.7872C34.7777 17.4747 33.6377 17.7747 32.8052 18.2472C31.9727 18.7872 31.0052 18.7872 30.0002 18.4347C28.9877 18.7872 28.0277 18.7872 27.1952 18.2472C26.3702 17.7747 25.2227 17.4747 25.1702 18.7872L24.8027 27.4497L30.0602 22.6797Z" fill="white"/>
<path fill-rule="evenodd" clip-rule="evenodd" d="M25.8893 17.7991C26.3011 17.768 26.805 17.9675 27.2194 18.2048C27.2202 18.2052 27.2209 18.2057 27.2217 18.2062C28.0376 18.7354 28.9807 18.7379 29.9841 18.3886C29.9945 18.3849 30.0059 18.3849 30.0163 18.3886C31.0121 18.7379 31.9627 18.7354 32.7786 18.2062C32.7794 18.2057 32.7803 18.2052 32.7811 18.2047C33.1991 17.9675 33.703 17.768 34.1138 17.7991C34.3214 17.8149 34.5082 17.8898 34.6457 18.0509C34.7825 18.2111 34.8655 18.4505 34.8789 18.7852L35.2464 27.4475C35.2472 27.4673 35.236 27.4856 35.2181 27.4939C35.2001 27.5021 35.179 27.4988 35.1645 27.4853L30.0598 22.7458L24.8354 27.4857C24.8209 27.4989 24.7998 27.5021 24.782 27.4937C24.7642 27.4854 24.7531 27.4672 24.754 27.4475L25.1214 18.7852C25.1214 18.7851 25.1214 18.7851 25.1214 18.7851C25.1348 18.4504 25.2183 18.211 25.3557 18.0508C25.4938 17.8898 25.6813 17.8149 25.8893 17.7991ZM30.0602 22.6796L30.0933 22.6439L35.1439 27.3332L34.7815 18.7892L34.7814 18.7891C34.7686 18.4674 34.6893 18.2521 34.5716 18.1142C34.4546 17.9772 34.2945 17.9106 34.1065 17.8963C33.7265 17.8675 33.2447 18.0538 32.8305 18.2888C31.9862 18.8358 31.0081 18.8362 30.0001 18.4862C28.9848 18.8362 28.0141 18.8359 27.1698 18.2887C26.7594 18.0539 26.2776 17.8675 25.8966 17.8963C25.7081 17.9106 25.5472 17.9773 25.4297 18.1143C25.3114 18.2522 25.2317 18.4675 25.2189 18.7891L25.2189 18.7892L24.8563 27.3351L30.0274 22.6435L30.0602 22.6796Z" fill="#C09300"/>
<path d="M25.7627 18.4873L25.4027 26.9098L24.8027 27.4498L25.1702 18.7873C25.3474 18.6514 25.5483 18.5497 25.7627 18.4873ZM26.4827 19.0873L26.1827 26.1373L25.5827 26.7523L25.9427 18.6148C26.0627 18.7348 26.4152 19.0273 26.4827 19.0873ZM27.1352 19.6273L26.9027 25.5073L26.4152 25.9798L26.7152 19.2748C26.8352 19.3873 27.0752 19.5598 27.1352 19.6273ZM27.8477 19.9273L27.6152 24.9373L27.1427 25.3198L27.3752 19.7473C27.4952 19.7998 27.7277 19.9273 27.8477 19.9273ZM28.5077 19.9273L28.3352 24.1048L27.8477 24.5773L28.0352 19.9798C28.1477 19.9798 28.4552 19.9798 28.5077 19.9273Z" fill="#C09300"/>
<path d="M30.24 23.625L30.96 26.91L30.72 27.15L30.4725 26.9625L30.0675 24.0375L30.24 26.9625L30 27.2625L29.7675 26.9625L29.94 24.0375L29.5275 26.9625L29.28 27.15L29.04 26.91L29.76 23.6325H30.24V23.625Z" fill="#C09300"/>
<path fill-rule="evenodd" clip-rule="evenodd" d="M29.7271 23.5908H30.2403V23.6201L30.2805 23.6157L31.0054 26.9228L30.724 27.2042L30.4342 26.9846L30.1706 25.0808L30.2824 26.9755L29.9997 27.3287L29.7257 26.9751L29.8393 25.0484L29.5662 26.9847L29.2765 27.2042L28.9951 26.9228L29.7271 23.5908ZM30.2087 23.6733H29.7934L29.0854 26.8964L29.284 27.095L29.4893 26.9395L29.8994 24.0313L29.9814 24.0395L29.8098 26.949L30.0008 27.1954L30.1981 26.9487L30.0266 24.0395L30.1086 24.0314L30.5113 26.9395L30.7165 27.095L30.9151 26.8964L30.2087 23.6733Z" fill="#C09300"/>
<path d="M28.3876 22.1846L26.9551 27.2621L28.9276 27.5621L29.7601 23.7446L28.3876 22.1846Z" fill="white"/>
<path fill-rule="evenodd" clip-rule="evenodd" d="M28.3777 22.1408C28.3938 22.1371 28.4106 22.1425 28.4214 22.1549L29.7939 23.7149C29.8034 23.7257 29.8072 23.7403 29.8041 23.7542L28.9716 27.5717C28.9666 27.5949 28.9444 27.6102 28.9209 27.6066L26.9484 27.3066C26.9356 27.3047 26.9243 27.2974 26.9173 27.2865C26.9103 27.2757 26.9083 27.2624 26.9118 27.2499L28.3443 22.1724C28.3488 22.1566 28.3616 22.1444 28.3777 22.1408ZM28.4085 22.2765L27.0123 27.2253L28.8927 27.5113L29.7113 23.7573L28.4085 22.2765Z" fill="#C09300"/>
<path fill-rule="evenodd" clip-rule="evenodd" d="M29.0512 23.4876L28.1212 24.3726C28.1096 24.3837 28.0933 24.3883 28.0776 24.385C28.0619 24.3817 28.0488 24.3709 28.0426 24.3561L27.8701 23.9436L27.9601 23.906L28.1053 24.2532L28.984 23.417L29.0512 23.4876Z" fill="#C09300"/>
<path fill-rule="evenodd" clip-rule="evenodd" d="M28.7066 24.7025L28.5116 22.88L28.6086 22.8696L28.7905 24.5701L29.3088 23.8878L29.3864 23.9468L29.1645 24.2389L29.404 25.0743L29.5169 24.903L29.5983 24.9566L29.4394 25.1978L29.4769 25.3289L29.3832 25.3557L29.3687 25.305L28.9513 25.9382L29.1553 26.8997L29.0599 26.9199L28.8743 26.0448L28.4884 26.6364C28.4781 26.6522 28.4598 26.6606 28.4411 26.6581C28.4225 26.6556 28.407 26.6427 28.4012 26.6248L28.2011 26.0053L27.8216 26.6204C27.8114 26.637 27.7923 26.6459 27.7731 26.6431C27.7538 26.6403 27.7381 26.6263 27.733 26.6075L27.4255 25.4675C27.421 25.4509 27.4257 25.4331 27.4377 25.4208L28.0527 24.7908C28.0649 24.7783 28.0829 24.7732 28.0998 24.7776C28.1167 24.782 28.13 24.7951 28.1346 24.8119L28.2957 25.3983L28.6785 24.8856C28.6901 24.8701 28.7099 24.8629 28.7288 24.8674C28.7477 24.8718 28.7621 24.8871 28.7656 24.9062L28.9256 25.8L29.3333 25.1815L29.0909 24.3359L28.7939 24.7268C28.7818 24.7427 28.7613 24.7496 28.742 24.7443C28.7228 24.7389 28.7087 24.7224 28.7066 24.7025ZM28.8462 25.9094L28.6894 25.034L28.3141 25.5365C28.303 25.5514 28.2843 25.5587 28.266 25.5552C28.2477 25.5518 28.233 25.5382 28.2281 25.5202L28.0631 24.9197L27.5269 25.469L27.7978 26.4733L28.1736 25.8642C28.1836 25.848 28.2021 25.8391 28.2209 25.8414C28.2398 25.8437 28.2556 25.8567 28.2615 25.8748L28.4626 26.4976L28.8462 25.9094Z" fill="#C09300"/>
<path fill-rule="evenodd" clip-rule="evenodd" d="M27.7807 26.5392C27.7991 26.5423 27.8142 26.5556 27.8195 26.5735L28.0431 27.3296L28.346 26.8247C28.3558 26.8083 28.3743 26.7992 28.3933 26.8014C28.4123 26.8036 28.4283 26.8166 28.4342 26.8348L28.6667 27.5548L28.5739 27.5848L28.3743 26.9669L28.0696 27.4749C28.0596 27.4915 28.0408 27.5006 28.0216 27.4982C28.0024 27.4957 27.9865 27.4822 27.981 27.4636L27.7545 26.6976L27.4151 27.178L27.3354 27.1217L27.7329 26.5592C27.7437 26.5439 27.7623 26.5362 27.7807 26.5392Z" fill="#C09300"/>
<path d="M29.9999 29.5349C31.4999 29.5349 32.9249 29.4149 33.7649 29.1824C34.1174 29.1149 34.1174 28.9349 34.1174 28.6949C34.4774 28.5749 34.2974 28.1549 34.5449 28.1549C34.2899 28.2299 34.2449 27.7424 33.9449 27.8024C33.9449 27.3824 33.5174 27.3299 33.1649 27.4499C32.4524 27.6824 31.1924 27.7424 29.9999 27.7424C28.7999 27.6824 27.5549 27.6824 26.8349 27.4424C26.4824 27.3299 26.0624 27.3824 26.0624 27.8024C25.7624 27.7424 25.7099 28.2224 25.4624 28.1549C25.7099 28.1549 25.5224 28.5824 25.8824 28.6949C25.8824 28.9349 25.8824 29.1149 26.2424 29.1824C27.0674 29.4149 28.5074 29.5349 29.9999 29.5349Z" fill="white"/>
<path fill-rule="evenodd" clip-rule="evenodd" d="M26.2872 27.3378C26.4612 27.2776 26.6757 27.2972 26.8624 27.3568L26.8635 27.3572L26.8635 27.3572C27.2117 27.4733 27.6929 27.5328 28.2437 27.5703C28.583 27.5934 28.9435 27.6078 29.3114 27.6226C29.5399 27.6318 29.7713 27.641 30.0023 27.6526C31.1962 27.6525 32.4403 27.5917 33.1366 27.3647C33.3239 27.301 33.5401 27.2795 33.7159 27.3385C33.8054 27.3685 33.8867 27.4204 33.9453 27.5002C33.9883 27.5587 34.0164 27.6287 34.0284 27.7092C34.087 27.7155 34.1379 27.7382 34.1819 27.7697C34.2449 27.8148 34.2942 27.8787 34.3333 27.9296L34.3347 27.9314C34.3771 27.9867 34.4078 28.0267 34.4406 28.0517C34.4555 28.0631 34.4688 28.07 34.4831 28.0722C34.5029 28.0673 34.5236 28.0651 34.5451 28.0651C34.5898 28.0651 34.6278 28.098 34.6341 28.1423C34.6405 28.1865 34.6134 28.2288 34.5705 28.2414C34.5511 28.2471 34.5325 28.2506 34.5145 28.2521C34.5115 28.2545 34.5075 28.2587 34.5026 28.2672C34.4891 28.291 34.4808 28.3234 34.4677 28.3751C34.4655 28.3837 34.4632 28.3928 34.4607 28.4026C34.4449 28.4635 34.423 28.5402 34.3762 28.6101C34.3374 28.6682 34.2833 28.719 34.2074 28.7556C34.2065 28.8529 34.1998 28.9571 34.1531 29.0455C34.0915 29.1621 33.9736 29.2337 33.7856 29.2703C32.9331 29.5055 31.4999 29.6251 30.0001 29.6251C28.5082 29.6251 27.06 29.5056 26.222 29.2703C26.0311 29.2338 25.9112 29.1627 25.8484 29.0462C25.8007 28.9578 25.7937 28.8537 25.7927 28.7567C25.717 28.7212 25.6632 28.671 25.6248 28.6128C25.5785 28.5428 25.5576 28.4653 25.5429 28.4039C25.5404 28.3935 25.538 28.3837 25.5359 28.3745C25.5238 28.3232 25.5161 28.2908 25.503 28.2668C25.4977 28.2571 25.4935 28.2529 25.4907 28.251C25.474 28.2497 25.4568 28.2468 25.4389 28.2419C25.3954 28.23 25.3674 28.1878 25.3734 28.1431C25.3793 28.0984 25.4175 28.0651 25.4626 28.0651C25.4819 28.0651 25.5007 28.0669 25.5187 28.0709C25.5331 28.0687 25.547 28.0617 25.5633 28.049C25.5953 28.0241 25.6254 27.9856 25.6662 27.9335C25.6682 27.9311 25.6701 27.9286 25.672 27.9261C25.7119 27.8753 25.762 27.8123 25.8256 27.768C25.8698 27.7372 25.9208 27.7151 25.9792 27.7091C25.991 27.6289 26.0185 27.5591 26.0607 27.5007C26.1184 27.4207 26.1986 27.3685 26.2872 27.3378ZM25.6684 28.1952C25.6897 28.2401 25.7021 28.294 25.7124 28.3383C25.7143 28.3465 25.7161 28.3544 25.7179 28.3619C25.7322 28.4214 25.7474 28.4719 25.775 28.5137C25.8005 28.5523 25.8393 28.5873 25.9094 28.6092C25.947 28.6209 25.9726 28.6557 25.9726 28.6951C25.9726 28.822 25.9748 28.9014 26.0068 28.9608C26.0335 29.0104 26.0924 29.0629 26.2592 29.0941C26.2618 29.0946 26.2644 29.0952 26.267 29.096C27.0795 29.3249 28.5092 29.4451 30.0001 29.4451C31.4982 29.4451 32.9132 29.325 33.7411 29.0958C33.7434 29.0952 33.7458 29.0946 33.7481 29.0942C33.9106 29.0631 33.9677 29.0111 33.9939 28.9615C34.0254 28.9018 34.0276 28.8219 34.0276 28.6951C34.0276 28.6563 34.0524 28.622 34.0891 28.6097C34.16 28.5861 34.2 28.5499 34.2266 28.5101C34.2551 28.4674 34.2711 28.4167 34.2864 28.3576C34.2882 28.3504 34.2901 28.3428 34.2921 28.3349C34.3026 28.2926 34.3153 28.2416 34.3358 28.1981C34.3343 28.197 34.3328 28.1959 34.3313 28.1947C34.2788 28.1546 34.2347 28.0969 34.1986 28.0498C34.1959 28.0462 34.1932 28.0427 34.1906 28.0393C34.149 27.9852 34.1149 27.9432 34.0771 27.9161C34.0439 27.8923 34.0098 27.8814 33.9627 27.8908C33.9363 27.8961 33.9089 27.8893 33.888 27.8722C33.8672 27.8551 33.8551 27.8295 33.8551 27.8026C33.8551 27.7133 33.8326 27.6508 33.8002 27.6067C33.7676 27.5623 33.7201 27.5298 33.6586 27.5092C33.5327 27.4669 33.3592 27.4791 33.1941 27.5353L33.193 27.5356L33.193 27.5356C32.4647 27.7733 31.1902 27.8326 30.0001 27.8326C29.9986 27.8326 29.9971 27.8325 29.9956 27.8325C29.7679 27.8211 29.5374 27.8118 29.3086 27.8026C28.9382 27.7878 28.5726 27.7731 28.2315 27.7499C27.68 27.7124 27.1789 27.652 26.8072 27.5282C26.6416 27.4754 26.47 27.4651 26.346 27.5079C26.2856 27.5289 26.2388 27.5615 26.2067 27.606C26.1747 27.6503 26.1526 27.713 26.1526 27.8026C26.1526 27.8295 26.1405 27.8551 26.1196 27.8722C26.0988 27.8893 26.0714 27.8961 26.0449 27.8908C25.9973 27.8813 25.9623 27.8921 25.9285 27.9157C25.8902 27.9424 25.8554 27.9839 25.8137 28.0372C25.8105 28.0413 25.8072 28.0455 25.8038 28.0498C25.7679 28.0959 25.7243 28.1517 25.6738 28.1911C25.672 28.1925 25.6702 28.1938 25.6684 28.1952Z" fill="#C09300"/>
<path d="M27.9678 27.2625C28.4478 27.33 28.9878 27.3825 29.4078 27.33C29.6478 27.33 29.8203 27.7425 29.3403 27.8025C28.9278 27.855 28.2678 27.8025 27.9153 27.7425C27.4514 27.6613 26.991 27.5612 26.5353 27.4425C26.1153 27.2625 26.4153 26.9175 26.6553 26.9625C27.0834 27.0997 27.5225 27.2 27.9678 27.2625ZM32.0328 27.2625C31.5528 27.33 31.0128 27.3825 30.6078 27.33C30.3528 27.33 30.1803 27.7425 30.6603 27.8025C31.0803 27.855 31.7328 27.8025 32.0853 27.7425C32.3853 27.6825 33.0453 27.57 33.4653 27.4425C33.8853 27.2625 33.5853 26.9175 33.3453 26.9625C32.9171 27.0997 32.478 27.2001 32.0328 27.2625Z" fill="white"/>
<path fill-rule="evenodd" clip-rule="evenodd" d="M26.5511 27.3962C26.4547 27.3543 26.4071 27.3062 26.387 27.2642C26.3673 27.223 26.3706 27.1804 26.3911 27.1402C26.4121 27.0989 26.451 27.0612 26.4987 27.0364C26.5453 27.012 26.5969 27.0019 26.6434 27.0098C27.0732 27.1474 27.514 27.248 27.9609 27.3107M26.5511 27.3962C27.0043 27.5142 27.4622 27.6136 27.9235 27.6944C28.2736 27.754 28.9283 27.8057 29.334 27.7541L29.3341 27.7541C29.4477 27.7399 29.5153 27.7057 29.5527 27.6687C29.589 27.6327 29.6004 27.5907 29.5955 27.5494C29.5852 27.4621 29.5026 27.3803 29.4105 27.3787C28.984 27.4314 28.4398 27.3781 27.9609 27.3107M26.4536 26.9499C26.5166 26.9171 26.5914 26.9009 26.6642 26.9145C26.6662 26.9149 26.6681 26.9154 26.6701 26.916C27.0956 27.0523 27.532 27.1521 27.9745 27.2142L27.9677 27.2624L27.9745 27.2142C28.4543 27.2816 28.9887 27.3332 29.4016 27.2816C29.4037 27.2813 29.4057 27.2812 29.4077 27.2812C29.5545 27.2812 29.6766 27.405 29.6924 27.5379C29.7006 27.6073 29.6801 27.6797 29.6213 27.7379C29.5635 27.7951 29.4728 27.835 29.3463 27.8508C28.9272 27.9041 28.2619 27.8509 27.907 27.7905L27.9068 27.7905C27.4416 27.709 26.9799 27.6087 26.5229 27.4896C26.5205 27.489 26.5182 27.4882 26.516 27.4872C26.4046 27.4395 26.3331 27.3775 26.299 27.3062C26.2643 27.2335 26.2722 27.1588 26.3042 27.0959C26.3358 27.0341 26.3906 26.9827 26.4536 26.9499ZM33.7014 27.3062C33.6673 27.3775 33.5958 27.4395 33.4844 27.4872C33.4827 27.4879 33.4811 27.4886 33.4794 27.4891C33.1428 27.5912 32.6536 27.6838 32.3179 27.7473C32.2316 27.7637 32.1555 27.7781 32.0948 27.7902L32.0934 27.7905C31.7385 27.8509 31.0807 27.9041 30.6541 27.8508C30.5277 27.835 30.4368 27.7951 30.3792 27.7378C30.3205 27.6794 30.3006 27.6068 30.31 27.5371C30.3282 27.4031 30.455 27.2812 30.6077 27.2812C30.6098 27.2812 30.6119 27.2813 30.614 27.2816C31.0118 27.3332 31.5459 27.2817 32.0259 27.2142L32.0327 27.2624L32.0259 27.2142C32.4684 27.1521 32.9048 27.0524 33.3303 26.916C33.3322 26.9154 33.3342 26.9149 33.3362 26.9145C33.4089 26.9009 33.4838 26.9171 33.5468 26.9499C33.6097 26.9827 33.6646 27.0341 33.6961 27.0959C33.7281 27.1588 33.7361 27.2335 33.7014 27.3062ZM32.0395 27.3107C31.5608 27.378 31.0166 27.4314 30.6047 27.3787C30.5037 27.3803 30.4183 27.4638 30.4066 27.5502C30.4011 27.5912 30.4121 27.6329 30.448 27.6687C30.4851 27.7057 30.5527 27.7399 30.6662 27.7541C31.0794 27.8057 31.7261 27.754 32.0763 27.6945C32.1388 27.682 32.2162 27.6673 32.3035 27.6508C32.6385 27.5874 33.1177 27.4967 33.4484 27.3966C33.5454 27.3546 33.5932 27.3064 33.6134 27.2642C33.6331 27.223 33.6297 27.1804 33.6092 27.1402C33.5883 27.0989 33.5494 27.0612 33.5017 27.0364C33.4551 27.012 33.4035 27.0019 33.357 27.0098C32.9272 27.1474 32.4864 27.248 32.0395 27.3107" fill="#C09300"/>
<path d="M26.4753 27.0297C26.1153 26.9622 25.9503 27.3822 26.0628 27.6222C26.1153 27.5022 26.3628 27.5022 26.4153 27.3822C26.4828 27.2022 26.3628 27.2022 26.4828 27.0297H26.4753ZM27.9153 28.1322C27.9153 27.8922 28.1478 27.9222 28.1478 27.6822C28.1478 27.5697 28.0878 27.3822 27.9678 27.3822C27.9053 27.3858 27.8463 27.4122 27.802 27.4565C27.7578 27.5007 27.7313 27.5597 27.7278 27.6222C27.6753 27.8547 27.9153 27.8922 27.9153 28.1322ZM29.6178 27.4497C29.9703 27.4497 29.9328 27.9222 29.7678 28.1622C29.7678 27.9897 29.4678 27.9222 29.4678 27.8022C29.4678 27.6222 29.7378 27.6222 29.6178 27.4497ZM33.5178 27.0297C33.8853 26.9622 34.0578 27.3822 33.9378 27.6222C33.8853 27.5022 33.6378 27.5022 33.5853 27.3822C33.5178 27.2022 33.6378 27.2022 33.5178 27.0297ZM32.1003 28.1247C32.1003 27.8847 31.8603 27.9147 31.8603 27.6747C31.8603 27.5622 31.9203 27.3747 32.0403 27.3747C32.1027 27.3783 32.1617 27.4047 32.206 27.449C32.2502 27.4932 32.2767 27.5522 32.2803 27.6147C32.3328 27.8472 32.0928 27.8847 32.0928 28.1247H32.1003ZM30.3753 27.4497C30.0228 27.4497 30.0603 27.9222 30.2253 28.1622C30.2253 27.9897 30.5253 27.9222 30.5253 27.8022C30.5253 27.6222 30.2553 27.6222 30.3753 27.4497Z" fill="white"/>
<path fill-rule="evenodd" clip-rule="evenodd" d="M26.4796 26.9814C26.2779 26.9455 26.1293 27.0468 26.0494 27.1869C25.9706 27.3251 25.9546 27.5069 26.0185 27.6433C26.0267 27.6607 26.0442 27.6716 26.0633 27.6714C26.0825 27.6712 26.0997 27.6597 26.1074 27.6422C26.1147 27.6254 26.1303 27.6095 26.1575 27.5933C26.185 27.5769 26.2187 27.5633 26.257 27.5479L26.2589 27.5472C26.2951 27.5327 26.3356 27.5165 26.3703 27.4958C26.4059 27.4745 26.4409 27.4454 26.4599 27.4022C26.4602 27.4014 26.4605 27.4006 26.4608 27.3998C26.4795 27.35 26.4859 27.3106 26.4861 27.2761C26.4862 27.2495 26.4823 27.2259 26.4793 27.208C26.4786 27.2038 26.478 27.1999 26.4775 27.1964C26.4746 27.1773 26.4738 27.1627 26.4783 27.1444C26.4831 27.1251 26.4947 27.0983 26.5227 27.058C26.5331 27.0431 26.5343 27.0237 26.5259 27.0076C26.5175 26.9915 26.5008 26.9814 26.4827 26.9814H26.4796ZM26.4016 27.0717C26.2789 27.0711 26.1888 27.1394 26.1341 27.2352C26.0833 27.3242 26.0658 27.4331 26.0829 27.5258C26.0909 27.5199 26.0992 27.5145 26.1075 27.5095C26.1423 27.4888 26.1828 27.4726 26.2189 27.4581L26.2208 27.4574C26.2592 27.442 26.2929 27.4284 26.3204 27.412C26.347 27.3961 26.3625 27.3806 26.3701 27.3642C26.3847 27.3246 26.3885 27.297 26.3886 27.2757C26.3887 27.258 26.3864 27.2444 26.3837 27.2275C26.3828 27.2223 26.3819 27.2168 26.381 27.2108C26.3773 27.1858 26.3748 27.1569 26.3837 27.121C26.3875 27.1053 26.3934 27.0891 26.4016 27.0717ZM33.5177 27.0302L33.4777 27.058C33.5057 27.0983 33.5173 27.1251 33.522 27.1444C33.5266 27.1627 33.5258 27.1773 33.5229 27.1964C33.5224 27.1999 33.5217 27.2038 33.521 27.208C33.5181 27.2259 33.5142 27.2495 33.5143 27.2761C33.5144 27.3106 33.5209 27.35 33.5395 27.3998C33.5399 27.4006 33.5402 27.4014 33.5405 27.4022C33.5594 27.4454 33.5945 27.4745 33.63 27.4958C33.6648 27.5165 33.7053 27.5327 33.7414 27.5472L33.7433 27.5479C33.7817 27.5633 33.8154 27.5769 33.8429 27.5933C33.8701 27.6095 33.8857 27.6254 33.893 27.6422C33.9006 27.6595 33.9175 27.6709 33.9364 27.6714C33.9554 27.6719 33.9728 27.6614 33.9813 27.6445C34.0498 27.5074 34.0335 27.3248 33.9526 27.1865C33.8699 27.0451 33.716 26.9442 33.5089 26.9822L33.5177 27.0302ZM33.8684 27.2357C33.8133 27.1415 33.7221 27.0732 33.5988 27.0717C33.607 27.0891 33.6128 27.1053 33.6167 27.121C33.6255 27.1569 33.6231 27.1858 33.6193 27.2108C33.6185 27.2168 33.6176 27.2223 33.6167 27.2275C33.6139 27.2444 33.6117 27.258 33.6118 27.2757C33.6119 27.297 33.6157 27.3246 33.6303 27.3642C33.6379 27.3806 33.6533 27.3961 33.68 27.412C33.7075 27.4284 33.7412 27.442 33.7795 27.4574L33.7814 27.4581C33.8176 27.4726 33.8581 27.4888 33.8928 27.5095C33.9017 27.5149 33.9106 27.5207 33.9192 27.5271C33.9384 27.4345 33.9208 27.3252 33.8684 27.2357ZM31.9489 27.5045C31.9225 27.5583 31.9089 27.6258 31.9089 27.6752C31.9089 27.7261 31.9214 27.7599 31.9386 27.7864C31.9568 27.8145 31.9815 27.8366 32.0123 27.8635L32.0141 27.8651C32.0388 27.8867 32.0676 27.9118 32.0918 27.944C32.1122 27.9079 32.1362 27.8773 32.158 27.8497C32.1613 27.8455 32.1645 27.8414 32.1677 27.8373C32.1944 27.8031 32.2152 27.7743 32.2274 27.7419C32.2391 27.7112 32.2437 27.675 32.2326 27.6259C32.232 27.6233 32.2317 27.6206 32.2315 27.6179C32.2286 27.5674 32.2072 27.5197 32.1714 27.4839C32.136 27.4485 32.0889 27.4272 32.0389 27.4239C32.0081 27.4246 31.9762 27.4492 31.9489 27.5045ZM32.1457 28.0758C32.1579 28.008 32.1949 27.9608 32.237 27.907C32.2395 27.9038 32.242 27.9006 32.2446 27.8973C32.2713 27.8631 32.3006 27.824 32.3186 27.7764C32.3369 27.7282 32.3427 27.6737 32.3286 27.6083C32.3234 27.5354 32.2922 27.4667 32.2404 27.415C32.1877 27.3622 32.1174 27.3307 32.043 27.3265C32.0425 27.3265 32.042 27.3264 32.0414 27.3264C32.041 27.3264 32.0406 27.3264 32.0402 27.3264C31.9514 27.3264 31.8939 27.3956 31.8615 27.4614C31.8279 27.5295 31.8114 27.612 31.8114 27.6752C31.8114 27.7442 31.829 27.7966 31.8568 27.8395C31.883 27.8799 31.9174 27.91 31.9463 27.9352L31.9481 27.9368C31.9788 27.9638 32.0036 27.9858 32.0218 28.0139C32.0328 28.0309 32.0419 28.0509 32.047 28.0765C32.045 28.0919 32.0439 28.1081 32.0439 28.1252C32.0439 28.1521 32.0658 28.1739 32.0927 28.1739H32.1002C32.1271 28.1739 32.1489 28.1521 32.1489 28.1252C32.1489 28.1077 32.1478 28.0912 32.1457 28.0758ZM27.9649 27.334C27.9658 27.3339 27.9668 27.3339 27.9677 27.3339C28.0565 27.3339 28.114 27.4031 28.1464 27.4689C28.18 27.537 28.1964 27.6195 28.1964 27.6827C28.1964 27.7514 28.1795 27.8036 28.1526 27.8464C28.1272 27.8868 28.0939 27.917 28.0659 27.9422L28.0641 27.9438C28.0343 27.9707 28.0104 27.9927 27.9928 28.0208C27.9761 28.0473 27.9639 28.0814 27.9639 28.1327H27.8664C27.8664 28.0365 27.8225 27.9804 27.7709 27.9145C27.7684 27.9113 27.7659 27.9081 27.7633 27.9048C27.7366 27.8706 27.7072 27.8315 27.6892 27.7839C27.671 27.7357 27.6652 27.6812 27.6793 27.6158C27.6844 27.5429 27.7157 27.4742 27.7675 27.4225C27.8202 27.3697 27.8905 27.3382 27.9649 27.334ZM27.9187 27.9562C27.8978 27.918 27.8726 27.886 27.8499 27.8572C27.8466 27.853 27.8433 27.8489 27.8402 27.8448C27.8135 27.8106 27.7927 27.7818 27.7804 27.7494C27.7688 27.7187 27.7641 27.6825 27.7752 27.6334C27.7758 27.6308 27.7762 27.6281 27.7764 27.6254C27.7793 27.5749 27.8006 27.5272 27.8364 27.4914C27.8719 27.456 27.919 27.4347 27.969 27.4314C27.9997 27.4321 28.0317 27.4567 28.059 27.512C28.0854 27.5658 28.0989 27.6333 28.0989 27.6827C28.0989 27.7339 28.0868 27.768 28.0701 27.7945C28.0524 27.8226 28.0285 27.8446 27.9988 27.8715L27.997 27.8731C27.972 27.8956 27.9428 27.922 27.9187 27.9562ZM29.5745 27.4276C29.5829 27.4115 29.5995 27.4014 29.6177 27.4014C29.7177 27.4014 29.7953 27.4354 29.8492 27.495C29.9019 27.5533 29.9276 27.6311 29.9353 27.7118C29.9505 27.8721 29.8964 28.0615 29.8079 28.1903C29.7958 28.2079 29.7736 28.2155 29.7532 28.2092C29.7328 28.2029 29.7189 28.184 29.7189 28.1627C29.7189 28.135 29.7073 28.1093 29.684 28.0824C29.66 28.0548 29.6269 28.0294 29.5894 28.0027C29.5832 27.9983 29.5768 27.9938 29.5703 27.9892C29.5398 27.9677 29.5072 27.9447 29.4815 27.9211C29.451 27.893 29.4189 27.854 29.4189 27.8027C29.4189 27.6971 29.493 27.6374 29.541 27.5988C29.5465 27.5943 29.5517 27.5902 29.5564 27.5863C29.5831 27.5638 29.5946 27.5501 29.5983 27.5382C29.6006 27.5309 29.6029 27.5143 29.5777 27.478C29.5673 27.4631 29.5661 27.4437 29.5745 27.4276ZM29.6958 27.5096C29.7305 27.5203 29.7568 27.5382 29.7769 27.5604C29.8111 27.5983 29.8318 27.6536 29.8382 27.721C29.848 27.8237 29.8235 27.944 29.7779 28.0447C29.7716 28.0355 29.7648 28.0268 29.7577 28.0186C29.7253 27.9813 29.6835 27.95 29.646 27.9233C29.6386 27.918 29.6314 27.9129 29.6244 27.908C29.5941 27.8866 29.5681 27.8683 29.5476 27.8494C29.5219 27.8258 29.5164 27.8113 29.5164 27.8027C29.5164 27.746 29.552 27.7166 29.6032 27.6741C29.6083 27.6699 29.6136 27.6655 29.619 27.6609C29.6447 27.6394 29.6783 27.6094 29.6914 27.5672C29.6973 27.5482 29.6986 27.529 29.6958 27.5096ZM30.1437 27.495C30.1976 27.4354 30.2752 27.4014 30.3752 27.4014C30.3933 27.4014 30.41 27.4115 30.4184 27.4276C30.4268 27.4437 30.4256 27.4631 30.4152 27.478C30.39 27.5143 30.3923 27.5309 30.3945 27.5382C30.3983 27.5501 30.4097 27.5638 30.4365 27.5863C30.4412 27.5902 30.4464 27.5943 30.4519 27.5988C30.4999 27.6374 30.5739 27.6971 30.5739 27.8027C30.5739 27.854 30.5419 27.893 30.5113 27.9211C30.4857 27.9447 30.4531 27.9677 30.4225 27.9892C30.4161 27.9938 30.4097 27.9983 30.4035 28.0027C30.366 28.0294 30.3328 28.0548 30.3089 28.0824C30.2856 28.1093 30.2739 28.135 30.2739 28.1627C30.2739 28.184 30.26 28.2029 30.2397 28.2092C30.2193 28.2155 30.1971 28.2079 30.185 28.1903C30.0965 28.0615 30.0424 27.8721 30.0576 27.7118C30.0653 27.6311 30.091 27.5533 30.1437 27.495ZM30.215 28.0447C30.1694 27.944 30.1449 27.8237 30.1547 27.721C30.1611 27.6536 30.1818 27.5983 30.216 27.5604C30.2361 27.5382 30.2624 27.5203 30.2971 27.5096C30.2943 27.529 30.2955 27.5482 30.3015 27.5672C30.3146 27.6094 30.3481 27.6394 30.3739 27.6609C30.3793 27.6655 30.3846 27.6699 30.3897 27.6741C30.4409 27.7166 30.4764 27.746 30.4764 27.8027C30.4764 27.8113 30.471 27.8258 30.4453 27.8494C30.4248 27.8683 30.3988 27.8866 30.3685 27.908C30.3615 27.9129 30.3543 27.918 30.3469 27.9233C30.3094 27.95 30.2675 27.9813 30.2352 28.0186C30.2281 28.0268 30.2213 28.0355 30.215 28.0447Z" fill="#C09300"/>
<path d="M26.6025 27.1499C26.7225 27.1499 26.9025 27.2024 26.955 27.2699L26.6025 27.1499ZM27.195 27.3299C27.255 27.3299 27.495 27.3824 27.6075 27.4499L27.195 27.3299ZM29.34 27.5699C29.2275 27.5699 28.9875 27.5699 28.9275 27.6224L29.34 27.5624V27.5699ZM28.6875 27.5699C28.62 27.5024 28.3875 27.5024 28.2675 27.5699H28.6875ZM33.3975 27.1499C33.2703 27.1515 33.1468 27.1935 33.045 27.2699L33.3975 27.1499ZM32.8125 27.3299C32.7375 27.3299 32.5125 27.3824 32.3925 27.4499L32.8125 27.3299ZM30.66 27.5699C30.7725 27.5699 31.0125 27.5699 31.08 27.6224L30.66 27.5624V27.5699ZM31.3125 27.5699C31.38 27.5024 31.6125 27.5024 31.7325 27.5699H31.3125Z" fill="white"/>
<path fill-rule="evenodd" clip-rule="evenodd" d="M33.4309 27.1442C33.4337 27.1606 33.4242 27.1766 33.4085 27.1819L33.056 27.3019C33.0403 27.3073 33.023 27.3004 33.0153 27.2857C33.0075 27.271 33.0116 27.2529 33.0248 27.243C33.1324 27.1623 33.2628 27.1179 33.3972 27.1162C33.4138 27.116 33.428 27.1279 33.4309 27.1442ZM26.5693 27.1444C26.572 27.1282 26.5861 27.1162 26.6026 27.1162C26.6668 27.1162 26.7453 27.1301 26.8146 27.1525C26.8493 27.1638 26.8826 27.1775 26.911 27.1932C26.9391 27.2086 26.9646 27.2272 26.9817 27.2492C26.9909 27.261 26.9912 27.2774 26.9826 27.2895C26.9739 27.3017 26.9583 27.3067 26.9442 27.3019L26.5917 27.1819C26.5761 27.1766 26.5666 27.1607 26.5693 27.1444ZM27.1617 27.3252C27.1641 27.3086 27.1783 27.2962 27.1951 27.2962C27.2299 27.2962 27.3086 27.3104 27.3903 27.332C27.4725 27.3537 27.5644 27.3847 27.625 27.421C27.6395 27.4297 27.6453 27.4479 27.6385 27.4635C27.6317 27.479 27.6145 27.4871 27.5982 27.4824L27.1857 27.3624C27.1695 27.3577 27.1593 27.3418 27.1617 27.3252ZM32.6108 27.332C32.6919 27.3104 32.7704 27.2962 32.8126 27.2962C32.8294 27.2962 32.8437 27.3086 32.846 27.3253C32.8484 27.3419 32.8381 27.3578 32.8219 27.3624L32.4019 27.4824C32.3854 27.4871 32.368 27.4788 32.3615 27.463C32.3549 27.4472 32.3611 27.4289 32.3761 27.4205C32.4397 27.3848 32.5291 27.3539 32.6108 27.332ZM28.6187 27.4993C28.6544 27.5084 28.6884 27.523 28.7115 27.5461C28.7211 27.5557 28.724 27.5703 28.7188 27.5829C28.7136 27.5955 28.7013 27.6037 28.6876 27.6037H28.2676C28.2523 27.6037 28.2388 27.5934 28.235 27.5785C28.2311 27.5637 28.2377 27.5481 28.2511 27.5405C28.3178 27.503 28.4123 27.4856 28.4973 27.4856C28.5402 27.4856 28.5822 27.49 28.6187 27.4993ZM31.5029 27.4856C31.5879 27.4856 31.6824 27.503 31.7491 27.5405C31.7625 27.5481 31.7691 27.5637 31.7652 27.5785C31.7614 27.5934 31.7479 27.6037 31.7326 27.6037H31.3126C31.2989 27.6037 31.2866 27.5955 31.2814 27.5829C31.2762 27.5703 31.2791 27.5557 31.2887 27.5461C31.3118 27.523 31.3458 27.5084 31.3815 27.4993C31.418 27.49 31.46 27.4856 31.5029 27.4856ZM29.3622 27.5369C29.3696 27.5433 29.3739 27.5527 29.3739 27.5625V27.57C29.3739 27.5886 29.3587 27.6037 29.3401 27.6037C29.3253 27.6037 29.3084 27.6037 29.2902 27.6038L28.9325 27.6559C28.9177 27.658 28.9032 27.6502 28.8969 27.6366C28.8907 27.623 28.8941 27.6069 28.9054 27.5971C28.9272 27.578 28.9607 27.5667 28.9941 27.5592C29.029 27.5513 29.0699 27.5462 29.1115 27.5429C29.1709 27.5381 29.2336 27.5367 29.2851 27.5364L29.3352 27.5291C29.3449 27.5277 29.3548 27.5305 29.3622 27.5369ZM30.638 27.537C30.6454 27.5306 30.6552 27.5277 30.6649 27.5291L30.7161 27.5364C30.7674 27.5368 30.8299 27.5381 30.8897 27.5429C30.9316 27.5462 30.9732 27.5513 31.009 27.5591C31.0437 27.5667 31.0777 27.5778 31.1008 27.5958C31.1129 27.6052 31.1171 27.6216 31.1112 27.6356C31.1052 27.6497 31.0905 27.658 31.0753 27.6559L30.7111 27.6038C30.6924 27.6037 30.6752 27.6037 30.6601 27.6037C30.6415 27.6037 30.6263 27.5886 30.6263 27.57V27.5625C30.6263 27.5527 30.6306 27.5434 30.638 27.537Z" fill="#C09300"/>
<path d="M26.4975 28.0951C26.46 28.0876 26.4375 28.0501 26.4525 28.0201C26.46 27.9676 26.4975 27.9451 26.5275 27.9601C26.5575 27.9601 26.595 28.0051 26.595 28.0201L26.565 28.0726L26.55 28.0801C26.55 28.0951 26.52 28.0951 26.4975 28.0951ZM30.6225 28.3876C30.6075 28.3876 30.5775 28.3501 30.5775 28.3351C30.5775 28.3051 30.6225 28.2601 30.6525 28.2601L30.7125 28.2901C30.735 28.3126 30.735 28.3576 30.705 28.3801C30.69 28.3951 30.645 28.3951 30.6225 28.3801V28.3876ZM30.645 28.5751C30.615 28.5601 30.6075 28.5451 30.6 28.5151C30.6 28.4776 30.6 28.4701 30.6375 28.4476L30.6675 28.4326L30.6975 28.4476C30.7275 28.4626 30.75 28.4776 30.75 28.5076C30.75 28.5301 30.7275 28.5526 30.6975 28.5676C30.675 28.5826 30.6675 28.5826 30.645 28.5676V28.5751Z" fill="#C09300"/>
<path d="M26.8348 27.75C26.8048 27.75 26.7673 27.78 26.7448 27.795C26.6998 27.8025 26.6398 27.8325 26.5948 27.795C26.5498 27.7875 26.4898 27.795 26.4823 27.855C26.4898 27.9075 26.5573 27.93 26.6023 27.9C26.6323 27.8625 26.7148 27.8325 26.7298 27.9C26.6923 27.96 26.6998 28.0275 26.6698 28.08C26.6698 28.1175 26.6473 28.1475 26.6323 28.1775C26.5948 28.1775 26.5573 28.1775 26.5273 28.2C26.5041 28.2 26.4811 28.2054 26.4603 28.2158C26.4394 28.2263 26.4213 28.2414 26.4073 28.26C26.3773 28.305 26.3473 28.35 26.3398 28.41C26.3473 28.455 26.4148 28.47 26.4598 28.4775L26.6098 28.5225L26.8498 28.59C26.9698 28.6275 27.0898 28.6425 27.2098 28.6725L27.2473 28.68C27.2998 28.695 27.3223 28.6425 27.3223 28.605L27.3973 28.335C27.4123 28.2975 27.4348 28.2225 27.3673 28.2375C27.3298 28.26 27.2923 28.2975 27.2473 28.2975C27.1798 28.2975 27.2173 28.3725 27.2473 28.395C27.2473 28.44 27.2323 28.4925 27.2098 28.53C27.1648 28.5525 27.1198 28.53 27.0748 28.515C27.0373 28.515 26.9473 28.4925 26.9848 28.44L27.0223 28.305C27.0448 28.26 27.0448 28.2075 27.0598 28.155C27.0298 28.1025 26.9848 28.1775 26.9473 28.185C26.9173 28.2 26.8273 28.2075 26.8723 28.26C26.9173 28.29 26.8873 28.3425 26.8723 28.3875C26.8723 28.44 26.8123 28.4625 26.7673 28.44C26.7223 28.44 26.6548 28.4025 26.6923 28.3575L26.7298 28.2225L26.7823 28.0725C26.7823 28.02 26.8048 27.9825 26.8273 27.9375C26.8273 27.885 26.8648 27.84 26.8648 27.7875C26.8648 27.765 26.8498 27.7575 26.8348 27.7575V27.75ZM26.5573 28.2975C26.5608 28.2955 26.5646 28.2945 26.5686 28.2945C26.5725 28.2945 26.5764 28.2955 26.5798 28.2975C26.5948 28.3125 26.5948 28.3275 26.5798 28.3425L26.5573 28.3575C26.5198 28.3575 26.5123 28.35 26.5123 28.335C26.5123 28.3275 26.5123 28.32 26.5348 28.3125C26.544 28.3059 26.5541 28.3009 26.5648 28.2975H26.5573ZM26.4823 28.6725C26.4448 28.6425 26.4523 28.62 26.5048 28.575C26.5348 28.56 26.5423 28.56 26.5723 28.5825C26.6173 28.62 26.6173 28.6425 26.5723 28.68C26.5573 28.695 26.5498 28.695 26.5348 28.695C26.5123 28.695 26.5048 28.695 26.4823 28.68V28.6725ZM26.7073 28.7475C26.6906 28.7423 26.6765 28.7308 26.6681 28.7154C26.6597 28.7 26.6577 28.6819 26.6623 28.665C26.6773 28.635 26.6848 28.6275 26.7298 28.6275C26.7823 28.6275 26.7898 28.635 26.7973 28.68C26.7973 28.71 26.7973 28.7175 26.7748 28.7325C26.7665 28.7391 26.7568 28.7439 26.7465 28.7465C26.7361 28.7491 26.7253 28.7494 26.7148 28.7475H26.7073ZM33.3973 28.7475C33.3823 28.74 33.3748 28.7325 33.3748 28.71C33.3748 28.68 33.3898 28.6575 33.4348 28.6425C33.4798 28.62 33.5098 28.62 33.5248 28.6575C33.5473 28.7025 33.5473 28.7175 33.5173 28.7475C33.5023 28.77 33.4948 28.77 33.4573 28.77C33.4198 28.77 33.4123 28.77 33.3973 28.755V28.7475ZM27.0223 28.8375C26.9923 28.8375 26.9773 28.8075 26.9773 28.7775C26.9773 28.755 26.9773 28.7475 26.9923 28.7325L27.0373 28.7175L27.0823 28.725C27.1198 28.755 27.1273 28.785 27.1048 28.815C27.0823 28.845 27.0598 28.845 27.0148 28.8375H27.0223ZM28.6573 28.9125L28.6423 28.89C28.6423 28.845 28.6423 28.8075 28.6573 28.7625C28.6648 28.725 28.6573 28.6875 28.6723 28.65L28.7023 28.44C28.7023 28.4025 28.7023 28.365 28.7173 28.335C28.7248 28.275 28.7173 28.2225 28.7323 28.17C28.7323 28.1475 28.7548 28.095 28.7773 28.125C28.8073 28.17 28.8448 28.2 28.8823 28.2375C28.9123 28.26 28.8823 28.29 28.8598 28.2975C28.8298 28.305 28.8223 28.3425 28.8223 28.3725L28.8073 28.4625C28.8073 28.515 28.8073 28.56 28.7923 28.6125L28.7848 28.7475L28.7698 28.8375C28.7698 28.8675 28.7698 28.905 28.7398 28.92C28.7173 28.935 28.6798 28.935 28.6648 28.9125H28.6573ZM30.8848 28.1775L30.7873 28.2675C30.7423 28.305 30.8248 28.32 30.8323 28.35C30.8473 28.395 30.8473 28.44 30.8473 28.485C30.8623 28.53 30.8698 28.5675 30.8623 28.6125C30.8623 28.665 30.8023 28.65 30.7723 28.68C30.7348 28.695 30.7198 28.7325 30.6973 28.755C30.6795 28.7926 30.6693 28.8334 30.6673 28.875C30.6673 28.9125 30.6448 28.95 30.6673 28.98L30.6748 28.995H30.7123L30.8248 28.9875C30.9148 28.9725 31.0123 28.9725 31.1023 28.965L31.2673 28.95C31.3123 28.9575 31.3348 28.9125 31.3348 28.875C31.3048 28.8225 31.3273 28.77 31.3048 28.725C31.2898 28.665 31.2973 28.6125 31.2898 28.56C31.2898 28.515 31.2373 28.5 31.2148 28.53C31.1848 28.56 31.1398 28.5675 31.1248 28.5975C31.1023 28.6425 31.1698 28.6425 31.1848 28.6725L31.1923 28.785C31.1998 28.83 31.1548 28.83 31.1173 28.8375C31.0798 28.8525 31.0273 28.86 31.0048 28.815C30.9898 28.7775 30.9898 28.74 30.9898 28.7025C30.9898 28.6275 30.9673 28.5675 30.9673 28.5C30.9673 28.425 30.9448 28.3425 30.9448 28.26C30.9448 28.2225 30.9373 28.17 30.8848 28.1775ZM30.8398 28.7925H30.8623V28.8525L30.8398 28.86C30.83 28.8631 30.82 28.8656 30.8098 28.8675C30.8048 28.8677 30.7998 28.8677 30.7948 28.8675C30.7798 28.8525 30.7798 28.83 30.8023 28.8075L30.8398 28.7925ZM28.5898 28.1025C28.5673 28.1025 28.5298 28.155 28.4998 28.1475C28.4323 28.155 28.4398 28.2225 28.4923 28.245V28.305C28.4998 28.365 28.4623 28.4175 28.4698 28.4775C28.4698 28.5375 28.4473 28.605 28.4473 28.6725C28.4248 28.74 28.4248 28.8075 28.4173 28.875C28.4098 28.935 28.3648 28.9125 28.3273 28.8975V28.8225C28.3348 28.755 28.2898 28.74 28.2373 28.7325C28.1848 28.7325 28.1623 28.695 28.1773 28.65C28.1998 28.62 28.2523 28.6275 28.2898 28.6275C28.3648 28.6425 28.3573 28.545 28.3198 28.5075C28.2898 28.4625 28.2298 28.4325 28.2148 28.3875C28.2148 28.3275 28.1773 28.26 28.1248 28.23C28.0423 28.2225 27.9748 28.29 27.9523 28.365C27.9148 28.365 27.8773 28.38 27.8473 28.395C27.7948 28.41 27.7198 28.5 27.7948 28.5375C27.8323 28.545 27.9598 28.575 27.8998 28.6275C27.8698 28.6875 27.8098 28.6875 27.7573 28.6725C27.7048 28.6725 27.6448 28.6425 27.6448 28.5825C27.6373 28.5225 27.6373 28.4625 27.6148 28.41C27.5998 28.35 27.5323 28.365 27.5248 28.425C27.4723 28.4625 27.4798 28.53 27.5173 28.575C27.5398 28.6275 27.5173 28.695 27.4948 28.74C27.4798 28.815 27.4048 28.815 27.3523 28.83C27.3298 28.845 27.2323 28.83 27.2698 28.8825C27.3261 28.9084 27.389 28.9163 27.4498 28.905C27.5098 28.905 27.5623 28.8525 27.5998 28.8C27.6373 28.7625 27.7048 28.785 27.7648 28.785C27.8173 28.785 27.8773 28.8225 27.9373 28.7925C27.9523 28.755 28.0273 28.68 28.0498 28.755C28.0498 28.8225 28.1023 28.8525 28.1623 28.845C28.2298 28.845 28.1998 28.89 28.1998 28.935C28.1998 29.0025 28.2523 29.04 28.3123 29.07H28.3723C28.4248 29.0475 28.4848 29.025 28.5073 28.965C28.5298 28.9125 28.5298 28.8525 28.5448 28.8C28.5598 28.7175 28.5748 28.6275 28.5748 28.545C28.5973 28.47 28.5898 28.3875 28.6048 28.305L28.6273 28.1325C28.6273 28.095 28.6123 28.095 28.5898 28.1025ZM28.0873 28.41C28.0948 28.41 28.1023 28.425 28.1023 28.4475C28.1023 28.4775 28.1173 28.5 28.1398 28.5075V28.53L28.0798 28.545C28.0423 28.545 28.0123 28.53 27.9898 28.5075L27.9748 28.4925L27.9973 28.4775L28.0348 28.44C28.0573 28.4175 28.0723 28.41 28.0873 28.41ZM33.0373 27.8175C32.9942 27.8206 32.9515 27.8281 32.9098 27.84C32.8348 27.84 32.7973 27.915 32.8723 27.96C32.9173 28.0725 32.9848 27.93 33.0598 27.945C33.1648 27.96 33.1723 28.08 33.1948 28.17C33.1948 28.2525 33.2248 28.335 33.2473 28.4175C33.3223 28.5 33.1948 28.5525 33.1423 28.4925C33.0973 28.44 32.9923 28.38 32.9398 28.4475C32.8723 28.4775 32.8648 28.5675 32.8123 28.5975C32.7223 28.62 32.7148 28.5075 32.6623 28.4625C32.6173 28.395 32.5348 28.3875 32.4673 28.3725C32.4373 28.305 32.4523 28.1925 32.3923 28.1475C32.3323 28.17 32.2273 28.275 32.3173 28.3275C32.3923 28.4025 32.2798 28.4325 32.2423 28.4775C32.1823 28.545 32.1673 28.6275 32.1673 28.7025C32.0698 28.755 32.0548 28.6425 32.0398 28.575C32.0398 28.4925 31.9648 28.515 31.9123 28.545C31.8373 28.575 31.8073 28.6425 31.7623 28.695V28.845C31.7773 28.9125 31.8523 28.8825 31.8973 28.875C31.9723 28.845 32.0023 28.9275 31.9423 28.9725C31.8973 29.0175 31.7773 28.995 31.7923 29.0775H31.9123C31.9873 29.055 32.0773 28.995 32.0848 28.905C32.0998 28.83 32.2123 28.8375 32.2723 28.8225C32.3473 28.8 32.4448 28.7925 32.4673 28.8975C32.5198 28.95 32.6323 29.01 32.6923 28.935C32.7209 28.9169 32.7438 28.8911 32.7584 28.8606C32.773 28.8301 32.7787 28.7961 32.7748 28.7625C32.7673 28.7025 32.8723 28.7025 32.9023 28.74C32.9398 28.8 33.0598 28.785 33.1198 28.74C33.1798 28.7025 33.1948 28.62 33.2848 28.62L33.6898 28.5075C33.7948 28.485 33.6748 28.4175 33.6448 28.3725C33.5698 28.335 33.4948 28.5 33.4048 28.4175C33.3298 28.365 33.3373 28.2675 33.3148 28.185C33.2923 28.08 33.2998 27.96 33.2248 27.885C33.1798 27.8325 33.1048 27.8175 33.0373 27.8175ZM32.5273 28.53C32.5348 28.53 32.5498 28.53 32.5648 28.545C32.5948 28.56 32.6173 28.59 32.6173 28.62C32.6173 28.635 32.6173 28.635 32.5948 28.6425L32.5573 28.6575C32.5423 28.6575 32.5048 28.635 32.5048 28.62V28.59C32.4898 28.56 32.4898 28.56 32.5048 28.545L32.5273 28.53ZM33.0148 28.56C33.0448 28.56 33.0598 28.56 33.0748 28.5825C33.0823 28.6125 33.0748 28.6275 33.0448 28.6425L33.0073 28.6575L32.9773 28.635C32.9623 28.6275 32.9548 28.62 32.9548 28.605C32.9548 28.5825 32.9848 28.56 33.0148 28.5525V28.56ZM32.3398 28.56C32.3548 28.56 32.3623 28.56 32.3698 28.575C32.3848 28.59 32.3923 28.5975 32.3923 28.62V28.665C32.3923 28.6875 32.3923 28.68 32.3473 28.68C32.3023 28.68 32.2948 28.68 32.2948 28.635C32.2948 28.605 32.2948 28.5975 32.3173 28.5825C32.3248 28.5675 32.3398 28.5675 32.3473 28.5675L32.3398 28.56ZM31.9348 28.6725C31.9419 28.6746 31.9484 28.6785 31.9536 28.6837C31.9588 28.689 31.9627 28.6954 31.9648 28.7025C31.9648 28.725 31.9648 28.74 31.9498 28.7475C31.9273 28.755 31.8898 28.7625 31.8748 28.7475C31.8746 28.745 31.8746 28.7425 31.8748 28.74C31.8598 28.7325 31.8598 28.725 31.8748 28.7175V28.71L31.8898 28.6875C31.8945 28.6802 31.9015 28.6747 31.9097 28.672C31.9179 28.6692 31.9268 28.6694 31.9348 28.6725ZM32.6248 28.7625L32.6623 28.77V28.815H32.5723L32.5648 28.8C32.5648 28.785 32.5648 28.7775 32.5798 28.77L32.6248 28.7625ZM31.3423 29.1225C31.3348 29.1225 31.3198 29.115 31.3348 29.1075C31.3423 29.085 31.3723 29.0775 31.3948 29.0625C31.4357 29.0469 31.4719 29.0211 31.4998 28.9875C31.4998 28.9575 31.5298 28.9425 31.5298 28.9125L31.5223 28.8075C31.5122 28.776 31.4909 28.7493 31.4623 28.7325C31.4398 28.725 31.4098 28.7175 31.4023 28.6875C31.4023 28.665 31.4248 28.6425 31.4323 28.62L31.4773 28.53C31.4998 28.5075 31.5298 28.53 31.5373 28.545L31.5748 28.62C31.5973 28.6425 31.6123 28.665 31.6198 28.695C31.6348 28.725 31.6498 28.7475 31.6498 28.77L31.6648 28.8675C31.6648 28.905 31.6648 28.95 31.6498 28.9875L31.6048 29.0475C31.5823 29.07 31.5598 29.0925 31.5298 29.1C31.5073 29.1075 31.4923 29.13 31.4623 29.13H31.3498L31.3423 29.1225ZM30.8248 29.1525C30.8098 29.1375 30.8023 29.13 30.8023 29.1075C30.8023 29.085 30.8023 29.085 30.8248 29.0625C30.8548 29.0325 30.8698 29.0325 30.9298 29.0625C30.9823 29.0925 31.0048 29.0925 31.0048 29.07C31.0123 29.055 31.0423 29.0325 31.0798 29.0325C31.0937 29.033 31.107 29.0383 31.1173 29.0475C31.1323 29.0625 31.1398 29.07 31.1398 29.1C31.1398 29.1375 31.1398 29.1375 31.1173 29.16C31.0948 29.175 31.0948 29.175 31.0648 29.175C31.0515 29.1743 31.0387 29.1696 31.028 29.1616C31.0173 29.1536 31.0093 29.1426 31.0048 29.13C31.0048 29.115 31.0048 29.1075 30.9898 29.1225L30.9748 29.13C30.9598 29.13 30.9298 29.1525 30.9148 29.1675L30.8773 29.175C30.8473 29.175 30.8473 29.175 30.8248 29.1525ZM29.3398 28.485C29.2873 28.485 29.2348 28.53 29.2273 28.5825C29.2423 28.635 29.2873 28.695 29.2573 28.7475C29.2798 28.8225 29.1973 28.8525 29.1448 28.815C29.1148 28.74 29.0998 28.665 29.0473 28.59C28.9873 28.575 28.9648 28.6725 28.9198 28.71C28.9423 28.7625 29.0023 28.815 29.0098 28.8825C29.0248 28.9575 28.9798 29.0325 28.9273 29.0625C28.8748 29.115 28.7998 29.1 28.7398 29.1075C28.6648 29.1525 28.7923 29.1675 28.8298 29.1675C28.9048 29.175 28.9873 29.1675 29.0548 29.1075C29.1073 29.085 29.0998 28.98 29.1673 28.9725L29.5273 28.995C29.5873 29.01 29.6848 28.9875 29.7298 29.0325C29.7298 29.1075 29.8048 29.1675 29.8723 29.1975C29.9098 29.2125 29.9473 29.16 29.9848 29.1525C30.0598 29.13 30.0373 29.04 30.0823 29.0025H30.4573C30.4723 29.0025 30.4798 28.965 30.5023 28.95L30.4873 28.8075C30.4648 28.7475 30.4873 28.6725 30.4498 28.62C30.3823 28.605 30.3298 28.6575 30.2698 28.665C30.1948 28.695 30.1423 28.7625 30.1348 28.8375C30.0973 28.905 30.0298 28.8225 30.0598 28.7625L30.0523 28.6875C30.0148 28.65 29.9473 28.665 29.8948 28.6575L29.6698 28.6425C29.5948 28.6425 29.5273 28.65 29.4673 28.635C29.3923 28.635 29.3923 28.56 29.3923 28.5C29.3773 28.4886 29.3586 28.4832 29.3398 28.485ZM29.4898 28.7625L29.5648 28.77H29.6623C29.7373 28.785 29.8123 28.785 29.8873 28.785C29.9023 28.785 29.9173 28.8 29.9323 28.815V28.965C29.9323 28.9875 29.9323 29.0175 29.9173 29.025C29.9134 29.031 29.9083 29.0361 29.9023 29.04C29.8914 29.0381 29.8809 29.0337 29.8719 29.0272C29.8628 29.0207 29.8553 29.0123 29.8498 29.0025V28.8975C29.835 28.8849 29.8167 28.8771 29.7973 28.875L29.6023 28.8675L29.4523 28.86C29.4298 28.8525 29.3998 28.86 29.3848 28.83C29.3698 28.815 29.3923 28.785 29.4148 28.7775C29.4384 28.767 29.464 28.7618 29.4898 28.7625ZM30.3373 28.785C30.3448 28.785 30.3523 28.785 30.3523 28.8075L30.3673 28.845C30.3673 28.8525 30.3673 28.86 30.3523 28.86C30.3148 28.875 30.2773 28.875 30.2623 28.86C30.2623 28.8525 30.2623 28.8225 30.2773 28.815L30.3373 28.785Z" fill="#C09300"/>
<path d="M30.0002 24.5399C32.4452 22.6649 32.2352 19.9049 32.2352 19.9049L32.0477 19.9199C31.5302 19.9199 30.3077 19.6199 30.0227 19.2524C29.7227 19.5899 28.4627 19.9274 27.9527 19.9274L27.7652 19.9049C27.7652 19.9049 27.5477 22.6574 30.0002 24.5399Z" fill="white"/>
<path fill-rule="evenodd" clip-rule="evenodd" d="M30.0246 19.188L30.055 19.2272C30.1204 19.3115 30.2432 19.3957 30.4045 19.4748C30.5646 19.5533 30.758 19.6245 30.9595 19.6845C31.3625 19.8046 31.7923 19.8784 32.0458 19.8788L32.2729 19.8606L32.2761 19.9019L32.2349 19.905C32.2761 19.9019 32.2761 19.9018 32.2761 19.9019L32.2761 19.9025L32.2762 19.9042L32.2766 19.9105C32.277 19.916 32.2774 19.924 32.2779 19.9346C32.2789 19.9557 32.2799 19.9867 32.2804 20.0268C32.2814 20.1068 32.28 20.223 32.2707 20.3682C32.252 20.6585 32.2015 21.0649 32.0741 21.5303C31.8192 22.4612 31.2563 23.6285 30.025 24.5727L29.9999 24.592L29.9748 24.5727C28.7399 23.6248 28.1769 22.4575 27.923 21.5274C27.796 21.0625 27.7462 20.6568 27.7281 20.3671C27.7191 20.2222 27.718 20.1063 27.7191 20.0264C27.7197 19.9864 27.7209 19.9555 27.7219 19.9344C27.7224 19.9239 27.7229 19.9158 27.7232 19.9103L27.7236 19.9041L27.7238 19.9024L27.7238 19.902L27.7238 19.9018C27.7238 19.9018 27.7238 19.9018 27.7649 19.905L27.7238 19.9018L27.7272 19.8589L27.9549 19.8863C28.2043 19.8857 28.6408 19.8028 29.0542 19.6771C29.261 19.6142 29.4606 19.541 29.6266 19.463C29.7938 19.3844 29.9224 19.3029 29.9916 19.2251L30.0246 19.188ZM27.8037 19.9512C27.8029 19.9705 27.8021 19.9961 27.8016 20.0276C27.8005 20.1055 27.8015 20.2194 27.8104 20.3619C27.8282 20.6471 27.8773 21.0472 28.0025 21.5057C28.2512 22.4162 28.7999 23.5569 29.9999 24.4879C31.1963 23.5606 31.7449 22.42 31.9945 21.5085C32.1202 21.0495 32.17 20.6487 32.1884 20.3629C32.1976 20.22 32.1989 20.1059 32.1979 20.0278C32.1975 19.9953 32.1968 19.9691 32.196 19.9495L32.0491 19.9613H32.0474C31.7832 19.9613 31.344 19.8852 30.936 19.7636C30.7316 19.7027 30.5336 19.63 30.3681 19.5489C30.2238 19.4781 30.1006 19.3992 30.0205 19.3136C29.9369 19.3924 29.81 19.468 29.6617 19.5377C29.4911 19.6179 29.2876 19.6924 29.0782 19.756C28.6605 19.8831 28.2134 19.9688 27.9524 19.9688H27.95L27.8037 19.9512Z" fill="#C09300"/>
<path d="M32.04 20.0998H31.98C31.515 20.0998 30.435 19.8673 30.015 19.5073C29.58 19.8373 28.4775 20.1073 28.02 20.1073C27.9998 20.1065 27.9797 20.104 27.96 20.0998C27.9641 20.5738 28.0296 21.0452 28.155 21.5023C28.4558 22.6036 29.1026 23.5791 30 24.2848C30.8979 23.5764 31.5446 22.5984 31.845 21.4948C31.9697 21.0401 32.0352 20.5713 32.04 20.0998Z" fill="white"/>
<path fill-rule="evenodd" clip-rule="evenodd" d="M30.0167 19.4639L30.0373 19.4816C30.2413 19.6564 30.6099 19.803 30.9898 19.9059C31.3688 20.0086 31.7519 20.066 31.9804 20.066H32.0404V20.0997L32.0741 20.1C32.0694 20.5744 32.0034 21.0462 31.8779 21.5036C31.5757 22.6142 30.9249 23.5983 30.0213 24.3112L30.0004 24.3277L29.9795 24.3112C29.0765 23.601 28.4256 22.6194 28.1228 21.5111C27.9967 21.0512 27.9308 20.5769 27.9266 20.1L27.9263 20.0579L27.9674 20.0667C27.9851 20.0705 28.003 20.0727 28.021 20.0735C28.2454 20.0733 28.6316 20.0068 29.0172 19.8985C29.4037 19.7899 29.7828 19.6413 29.995 19.4803L30.0167 19.4639ZM32.0062 20.1335H31.9804C31.7439 20.1335 31.3545 20.0746 30.9722 19.971C30.6027 19.8709 30.2333 19.7274 30.0141 19.5501C29.7883 19.7127 29.411 19.858 29.0354 19.9635C28.6471 20.0725 28.2536 20.141 28.0204 20.141H28.0191L28.0191 20.1409C28.0109 20.1406 28.0028 20.14 27.9946 20.1392C28.0019 20.5968 28.0669 21.0518 28.1879 21.4933L28.1879 21.4933C28.4845 22.5791 29.1195 23.5417 30.0003 24.2417C30.8817 23.5391 31.5167 22.5739 31.8128 21.4858L31.8128 21.4858C31.9338 21.0449 31.9987 20.5905 32.0062 20.1335Z" fill="#C09300"/>
<path d="M29.205 19.8747C28.8021 20.0059 28.3833 20.0816 27.96 20.0997L27.9675 20.4072C27.9931 20.7751 28.0559 21.1395 28.155 21.4947C28.3566 22.2323 28.7147 22.9179 29.205 23.5047V19.8747ZM30.75 19.8747V23.5647C31.2638 22.9643 31.6379 22.2573 31.845 21.4947C31.9439 21.1394 32.0067 20.7751 32.0325 20.4072L32.04 20.1072H31.98C31.695 20.1072 31.2 20.0172 30.75 19.8672V19.8747Z" fill="#C09300"/>
<path d="M30.9228 18.9747C30.9753 18.9822 30.8553 18.7122 30.8553 18.7122C30.9903 18.8472 31.4853 18.8847 31.4853 18.8847C31.1853 18.7497 30.8853 17.7522 30.9228 16.9497C30.9528 16.1547 30.8103 15.8397 30.6978 15.7197C30.5478 15.5697 30.0603 15.4347 29.7453 15.4197C29.5578 15.4122 29.5953 15.5547 29.5953 15.5547C29.2578 15.4722 28.9203 15.4347 28.7703 15.5397C28.6353 15.6297 28.6053 16.1022 28.7103 16.0197C28.9578 15.8172 29.1753 16.0047 29.3253 16.2222C29.4603 16.4097 29.4528 16.9497 29.2578 17.5872C29.0851 18.0692 28.8315 18.5181 28.5078 18.9147C28.8078 18.9147 29.2278 18.6522 29.2278 18.6522L29.1303 19.0647C29.4453 18.9147 29.6928 18.6822 29.6928 18.6822L29.9928 18.9972C30.0903 18.8622 30.2928 18.6822 30.2928 18.6822C30.2928 18.6822 30.5403 18.9447 30.9228 18.9822V18.9747Z" fill="white"/>
<path fill-rule="evenodd" clip-rule="evenodd" d="M29.6215 15.3981C29.6536 15.3809 29.695 15.3727 29.7472 15.3748L29.7475 15.3748C29.9095 15.3826 30.1138 15.4209 30.2965 15.4761C30.3881 15.5037 30.4751 15.5359 30.5494 15.5711C30.6229 15.6059 30.6869 15.6451 30.7297 15.688L30.7302 15.6885L30.7307 15.689C30.8561 15.8228 30.998 16.1537 30.9679 16.9515L30.9678 16.9519C30.9494 17.3475 31.0141 17.7924 31.1208 18.1549C31.174 18.3361 31.2374 18.4952 31.305 18.6164C31.3737 18.7398 31.4428 18.8163 31.5039 18.8438L31.482 18.9297L31.4854 18.8848C31.482 18.9297 31.482 18.9297 31.482 18.9297L31.4819 18.9297L31.4815 18.9296L31.4804 18.9295L31.476 18.9292C31.4722 18.9289 31.4667 18.9284 31.4597 18.9277C31.4456 18.9264 31.4254 18.9244 31.4008 18.9215C31.3516 18.9158 31.2844 18.9068 31.2128 18.8934C31.1413 18.8801 31.0644 18.8622 30.9961 18.8388C30.9796 18.8331 30.9632 18.8269 30.9473 18.8203C30.9486 18.824 30.95 18.8277 30.9513 18.8314C30.9631 18.865 30.9744 18.9013 30.9789 18.9299C30.981 18.9429 30.9829 18.9608 30.9786 18.9771C30.977 18.9832 30.9739 18.9914 30.9679 18.9991V19.0319L30.9185 19.0271C30.7181 19.0074 30.5538 18.929 30.4402 18.8561C30.3832 18.8196 30.3386 18.7843 30.3081 18.758C30.3023 18.7529 30.297 18.7482 30.2921 18.7438C30.2915 18.7444 30.2909 18.745 30.2903 18.7456C30.27 18.7643 30.242 18.7907 30.211 18.8212C30.1485 18.8828 30.0758 18.9594 30.0294 19.0236L29.9977 19.0676L29.6904 18.7449C29.6867 18.7481 29.6828 18.7515 29.6786 18.7551C29.6499 18.7797 29.6084 18.8141 29.557 18.8531C29.4543 18.9311 29.311 19.0287 29.1497 19.1054L29.065 19.1458L29.1601 18.7433C29.1173 18.7668 29.0619 18.7956 28.9992 18.8244C28.8559 18.8904 28.6683 18.9598 28.5079 18.9598H28.4131L28.473 18.8863C28.7933 18.494 29.0442 18.0499 29.2152 17.5731C29.3116 17.2578 29.3612 16.9676 29.3704 16.7343C29.375 16.6175 29.3694 16.5158 29.3549 16.4328C29.3402 16.3491 29.3171 16.2877 29.2889 16.2486L29.2883 16.2479C29.2147 16.141 29.1284 16.0479 29.0354 16.0043C28.9897 15.9829 28.9433 15.9738 28.8956 15.98C28.8479 15.9863 28.7955 16.0083 28.7389 16.0546L28.7382 16.0552C28.7179 16.0712 28.6863 16.0838 28.6547 16.0655C28.6299 16.0511 28.6188 16.0241 28.6133 16.0047C28.6011 15.9625 28.5998 15.9017 28.6056 15.8403C28.6115 15.7777 28.6253 15.7089 28.647 15.649C28.6679 15.5914 28.699 15.5335 28.745 15.5027C28.833 15.4413 28.9679 15.4254 29.1146 15.432C29.2475 15.438 29.3983 15.463 29.5498 15.4977C29.5515 15.4881 29.5542 15.4779 29.5584 15.4676C29.569 15.4414 29.5887 15.4158 29.6215 15.3981ZM29.2041 18.6141L29.2969 18.5561L29.1965 18.9806C29.3157 18.9161 29.4216 18.8429 29.5026 18.7815C29.5524 18.7436 29.5924 18.7105 29.62 18.6868C29.6338 18.675 29.6444 18.6656 29.6515 18.6591C29.6551 18.6559 29.6578 18.6535 29.6596 18.6518L29.6615 18.65L29.6621 18.6495M29.2041 18.6141L29.2038 18.6143L29.203 18.6148L29.1997 18.6168C29.1967 18.6187 29.1921 18.6214 29.1863 18.6249C29.1745 18.6319 29.1573 18.6419 29.1356 18.654C29.0923 18.6782 29.0315 18.7105 28.9616 18.7427C28.8525 18.7929 28.7251 18.8412 28.6085 18.8607C28.9042 18.4808 29.1377 18.0561 29.3003 17.6025L29.3006 17.6015L29.3009 17.6005C29.3993 17.2787 29.4508 16.9805 29.4604 16.7378C29.4651 16.6165 29.4595 16.5082 29.4435 16.4173C29.4278 16.3272 29.4014 16.251 29.3622 16.1964C29.2859 16.0858 29.1885 15.9766 29.0735 15.9228C29.0151 15.8954 28.9514 15.882 28.884 15.8908C28.822 15.8989 28.7597 15.9254 28.6979 15.9724C28.6919 15.9453 28.6902 15.9013 28.6952 15.8487C28.7005 15.7922 28.713 15.7311 28.7316 15.6797C28.751 15.6262 28.7741 15.5914 28.7954 15.5772L28.7962 15.5767C28.8582 15.5333 28.9669 15.5154 29.1106 15.5219C29.2518 15.5283 29.4174 15.5576 29.5847 15.5985L29.6582 15.6165L29.639 15.5437C29.639 15.5437 29.639 15.5436 29.639 15.5435C29.6389 15.5431 29.6387 15.5423 29.6385 15.5412C29.6381 15.5388 29.6376 15.5351 29.6374 15.5307C29.637 15.5214 29.638 15.5108 29.6418 15.5014C29.6452 15.4929 29.6513 15.4843 29.6642 15.4773C29.6778 15.47 29.702 15.4631 29.7434 15.4648C29.8965 15.4721 30.0933 15.5087 30.2705 15.5622C30.359 15.589 30.4416 15.6196 30.5108 15.6524C30.5803 15.6854 30.6334 15.7191 30.6656 15.7511C30.7651 15.8578 30.9077 16.1571 30.8779 16.9479C30.8589 17.3548 30.9254 17.8097 31.0344 18.1803C31.0889 18.3657 31.1545 18.5314 31.2264 18.6603C31.2609 18.7223 31.298 18.7776 31.3372 18.8226" fill="#C09300"/>
<path fill-rule="evenodd" clip-rule="evenodd" d="M29.9292 17.0293L29.9779 17.0322C30.0266 17.0351 30.0266 17.0351 30.0266 17.0351L30.0263 17.0388L30.0257 17.0495C30.025 17.0589 30.0241 17.0726 30.0229 17.0902C30.0204 17.1254 30.0167 17.1761 30.0115 17.2382C30.0011 17.3622 29.9851 17.5319 29.9625 17.7141C29.9399 17.8963 29.9107 18.0916 29.8737 18.2668C29.837 18.4408 29.7919 18.5992 29.736 18.705L29.6498 18.6594C29.6989 18.5664 29.7419 18.4193 29.7783 18.2466C29.8145 18.0752 29.8434 17.8828 29.8658 17.7021C29.8882 17.5216 29.904 17.3533 29.9143 17.2301C29.9195 17.1685 29.9232 17.1182 29.9256 17.0834C29.9269 17.066 29.9278 17.0524 29.9284 17.0432L29.929 17.0328L29.9292 17.0293ZM29.6596 17.0632L29.7079 17.0697C29.7562 17.0762 29.7562 17.0762 29.7562 17.0762L29.7561 17.0772L29.7557 17.0799L29.7542 17.0904C29.7529 17.0996 29.751 17.1131 29.7484 17.1304C29.7432 17.165 29.7355 17.2147 29.7253 17.2754C29.7048 17.3967 29.6741 17.5622 29.6335 17.7388C29.593 17.9151 29.5423 18.1033 29.4816 18.2698C29.4214 18.4348 29.3494 18.584 29.2639 18.6776L29.1919 18.6118C29.2639 18.5329 29.3307 18.3989 29.39 18.2364C29.4488 18.0751 29.4984 17.8912 29.5385 17.7169C29.5785 17.5428 29.6088 17.3792 29.6291 17.2592C29.6393 17.1992 29.6469 17.1501 29.652 17.116C29.6545 17.099 29.6564 17.0858 29.6577 17.0768L29.6591 17.0666L29.6595 17.064L29.6596 17.0632ZM30.1616 17.0847C30.1616 17.0847 30.1616 17.0847 30.2104 17.0847C30.2591 17.0847 30.2591 17.0847 30.2591 17.0847L30.2592 17.1C30.2592 17.11 30.2592 17.1248 30.2593 17.1436C30.2594 17.1813 30.2597 17.2355 30.2603 17.3012C30.2615 17.4326 30.2638 17.6102 30.2685 17.795C30.2732 17.9799 30.2802 18.1716 30.2907 18.3313C30.2959 18.4112 30.302 18.4826 30.309 18.541C30.3162 18.6003 30.324 18.643 30.3318 18.6672L30.239 18.6972C30.2281 18.6633 30.2194 18.6125 30.2122 18.5526C30.2049 18.4918 30.1987 18.4185 30.1934 18.3377C30.1828 18.1761 30.1757 17.9829 30.171 17.7975C30.1663 17.612 30.164 17.4338 30.1628 17.3021C30.1622 17.2362 30.1619 17.1818 30.1618 17.144C30.1617 17.1251 30.1617 17.1103 30.1617 17.1002L30.1616 17.0847ZM30.4617 17.1548C30.4617 17.1548 30.4617 17.1547 30.5104 17.1522L30.5591 17.1497L30.5591 17.1504L30.5592 17.1528L30.5598 17.1623C30.5603 17.1707 30.5611 17.183 30.5622 17.199C30.5643 17.2309 30.5678 17.277 30.5728 17.3337C30.5828 17.447 30.5991 17.6023 30.6242 17.7703C30.6494 17.9384 30.6833 18.1184 30.7282 18.2815C30.7735 18.4454 30.8289 18.5882 30.8955 18.6845L30.8153 18.7399C30.7393 18.63 30.6804 18.4746 30.6343 18.3074C30.5878 18.1392 30.5533 17.955 30.5278 17.7847C30.5023 17.6143 30.4858 17.4569 30.4757 17.3422C30.4706 17.2849 30.4671 17.2381 30.4649 17.2056C30.4638 17.1894 30.463 17.1767 30.4625 17.1681L30.4619 17.1582L30.4618 17.1557L30.4617 17.1548Z" fill="#C09300"/>
<path d="M29.4005 16.4699C29.3937 16.3829 29.3681 16.2984 29.3255 16.2224C29.1755 15.9974 28.9579 15.8174 28.7104 16.0199C28.7104 16.0199 28.7929 15.7574 28.9804 15.7499C29.1154 15.7424 29.4379 15.8549 29.7229 16.3349C29.7229 16.3349 29.5129 16.2899 29.4604 16.3349C29.3704 16.4099 29.408 16.4699 29.408 16.4699H29.4005Z" fill="#C09300"/>
<path fill-rule="evenodd" clip-rule="evenodd" d="M29.7003 16.3191C29.4199 15.8595 29.1085 15.754 28.9811 15.7611L28.981 15.7611C28.8927 15.7646 28.828 15.8283 28.7846 15.8939C28.763 15.9265 28.7471 15.9589 28.7367 15.9832C28.7361 15.9846 28.7355 15.9859 28.7349 15.9873C28.7871 15.9508 28.8384 15.9303 28.8883 15.9233C28.9483 15.9149 29.0056 15.9259 29.0593 15.9506C29.1662 15.9997 29.2595 16.1031 29.3349 16.2161L29.3353 16.2169C29.3658 16.2711 29.3876 16.3295 29.4004 16.39C29.4099 16.3704 29.4263 16.3488 29.4532 16.3263C29.4693 16.3125 29.4955 16.3068 29.5228 16.3047C29.5508 16.3025 29.5827 16.304 29.6125 16.3068C29.6424 16.3096 29.6706 16.3139 29.6913 16.3175C29.6945 16.318 29.6975 16.3185 29.7003 16.3191ZM29.4176 16.4639L29.4175 16.4637C29.4173 16.4635 29.417 16.463 29.4167 16.4623C29.4161 16.461 29.4152 16.4588 29.4143 16.456C29.4125 16.4503 29.4109 16.4419 29.4117 16.4314C29.4133 16.4106 29.4245 16.3795 29.4677 16.3435L29.4678 16.3434C29.478 16.3347 29.4977 16.3292 29.5245 16.3271C29.5507 16.3251 29.5811 16.3264 29.6104 16.3292C29.6395 16.332 29.6671 16.3362 29.6875 16.3396C29.6976 16.3414 29.7059 16.3429 29.7117 16.3441C29.7146 16.3446 29.7168 16.3451 29.7184 16.3454L29.7201 16.3458L29.7205 16.3458L29.7206 16.3459L29.7458 16.3513L29.7327 16.3291C29.4465 15.8471 29.1207 15.7309 28.98 15.7386C28.8807 15.7426 28.8105 15.814 28.7658 15.8815C28.7433 15.9155 28.7268 15.9491 28.716 15.9743C28.7106 15.9869 28.7065 15.9974 28.7038 16.0047C28.7025 16.0084 28.7015 16.0113 28.7008 16.0133L28.7 16.0156L28.6998 16.0163L28.6998 16.0164C28.6998 16.0164 28.6998 16.0165 28.7105 16.0199L28.6998 16.0164L28.6885 16.0524L28.7176 16.0286C28.7782 15.979 28.8364 15.9533 28.8915 15.9456C28.9466 15.9378 28.9995 15.9479 29.0499 15.971C29.151 16.0175 29.2413 16.1165 29.3159 16.2283C29.3577 16.3028 29.3827 16.3855 29.3893 16.4707L29.3901 16.4811H29.4283L29.4176 16.4639C29.4176 16.4639 29.4176 16.4639 29.4176 16.4639Z" fill="#C09300"/>
<path d="M28.6802 15.6972C28.7027 15.6222 28.7327 15.5622 28.7777 15.5397C28.9277 15.4347 29.2577 15.4647 29.5952 15.5547C29.5952 15.5547 29.5652 15.4122 29.7452 15.4197C30.0602 15.4347 30.5402 15.5697 30.6902 15.7197C30.7382 15.7725 30.7763 15.8334 30.8027 15.8997C30.7277 15.7947 30.5177 15.8022 30.4652 15.8097C30.3902 15.8172 30.3377 15.8097 30.2327 15.8397C30.1802 15.8547 30.1052 15.8697 30.0602 15.8997C30.0302 15.9297 30.0002 16.0197 29.9552 16.0197C29.8802 16.0197 29.8802 16.0047 29.8577 15.9822C29.8352 15.9447 29.8202 15.8997 29.7902 15.9072C29.7152 15.9147 29.5802 15.8547 29.4152 15.7197C29.2427 15.5847 29.1752 15.5547 28.9652 15.5697C28.7402 15.5847 28.6802 15.7122 28.6802 15.7122V15.6972Z" fill="#C09300"/>
<path fill-rule="evenodd" clip-rule="evenodd" d="M29.6062 15.5524L29.6062 15.5522L29.606 15.5513C29.6058 15.5504 29.6056 15.549 29.6054 15.5473C29.605 15.5438 29.6046 15.5387 29.6046 15.5326C29.6046 15.5203 29.6063 15.5044 29.613 15.4889C29.6196 15.4736 29.6312 15.4585 29.6512 15.4475C29.6714 15.4365 29.7011 15.4292 29.7447 15.431C29.9011 15.4384 30.0989 15.4757 30.2763 15.5299C30.365 15.5569 30.4483 15.5882 30.5187 15.6218C30.5891 15.6555 30.6459 15.6914 30.6821 15.7275C30.716 15.7648 30.7449 15.8064 30.7681 15.851C30.7277 15.8233 30.6759 15.8088 30.6272 15.8014C30.5578 15.791 30.4912 15.7947 30.4638 15.7986C30.4639 15.7986 30.464 15.7986 30.4641 15.7985L30.4652 15.8097L30.4636 15.7986C30.4637 15.7986 30.4638 15.7986 30.4638 15.7986M29.8667 15.9753C29.8623 15.968 29.8583 15.9604 29.8542 15.9528C29.8534 15.9513 29.8526 15.9498 29.8518 15.9483C29.8468 15.939 29.8416 15.9296 29.836 15.9215C29.8305 15.9135 29.8241 15.9059 29.8162 15.901C29.8081 15.8959 29.7987 15.8938 29.7883 15.8961C29.754 15.8993 29.704 15.8872 29.6414 15.8568C29.5786 15.8263 29.5043 15.7781 29.4223 15.711L29.4223 15.711L29.4221 15.7109C29.3359 15.6434 29.2746 15.601 29.208 15.5779C29.1411 15.5546 29.0699 15.551 28.9644 15.5585C28.8498 15.5662 28.7763 15.6026 28.7314 15.6378C28.7204 15.6463 28.7112 15.6548 28.7035 15.6627C28.7115 15.641 28.7203 15.6213 28.7302 15.6045C28.7455 15.5783 28.7629 15.5597 28.7827 15.5498L28.7835 15.5494L28.7841 15.549C28.856 15.4987 28.9728 15.4798 29.1157 15.4854C29.258 15.4909 29.424 15.5207 29.5923 15.5656L29.61 15.5703L29.6062 15.5524L29.6062 15.5524L29.6062 15.5524M28.6914 15.6989C28.6952 15.6863 28.6992 15.6742 28.7035 15.6627C28.6954 15.671 28.689 15.6787 28.6841 15.6853C28.681 15.6894 28.6785 15.693 28.6765 15.6961L28.6694 15.694C28.6808 15.6561 28.6942 15.6214 28.7108 15.5931C28.7272 15.5652 28.7471 15.5427 28.7719 15.5301C28.7717 15.5302 28.7715 15.5304 28.7712 15.5305L28.7777 15.5397L28.7727 15.5297C28.7724 15.5298 28.7722 15.5299 28.7719 15.5301C28.8501 15.4757 28.973 15.4572 29.1166 15.4629C29.2566 15.4684 29.4184 15.4969 29.5822 15.5397C29.5824 15.5437 29.5828 15.5472 29.5831 15.55C29.5833 15.5521 29.5836 15.5538 29.5838 15.555L29.5841 15.5564L29.5841 15.5568L29.5842 15.557L29.5842 15.557L29.5842 15.557C29.5842 15.557 29.5842 15.5571 29.5952 15.5547L29.5981 15.5439C29.5928 15.5425 29.5875 15.5411 29.5822 15.5397C29.5821 15.5375 29.5821 15.5351 29.5821 15.5326C29.5821 15.5184 29.5841 15.4992 29.5924 15.48C29.6008 15.4606 29.6155 15.4414 29.6404 15.4278C29.6652 15.4142 29.6993 15.4066 29.7457 15.4085L29.7457 15.4085V15.4085C29.9043 15.4161 30.104 15.4538 30.2829 15.5084C30.3723 15.5357 30.4568 15.5673 30.5284 15.6015C30.5999 15.6358 30.6593 15.673 30.6982 15.7118L30.6985 15.7122L30.6985 15.7122C30.7475 15.7659 30.7863 15.828 30.8132 15.8956L30.7935 15.9063C30.7588 15.8577 30.6916 15.8339 30.6238 15.8237C30.5566 15.8135 30.4921 15.8173 30.4668 15.8209L30.4663 15.8209L30.4663 15.8209C30.4441 15.8232 30.4241 15.8241 30.4045 15.825C30.3561 15.8273 30.3096 15.8295 30.2358 15.8506C30.2244 15.8538 30.2126 15.8569 30.2003 15.8601C30.1831 15.8646 30.1651 15.8693 30.1469 15.8749C30.1166 15.884 30.0884 15.8947 30.0674 15.9085C30.0612 15.9149 30.0545 15.9248 30.0471 15.937C30.0444 15.9414 30.0415 15.9462 30.0386 15.9511C30.0335 15.9596 30.0282 15.9687 30.0228 15.9771C30.0142 15.9904 30.0047 16.0036 29.994 16.0135C29.9833 16.0233 29.9704 16.031 29.9552 16.031C29.9174 16.031 29.8962 16.0273 29.8814 16.0193C29.8739 16.0153 29.8685 16.0104 29.8637 16.0053C29.8615 16.003 29.8597 16.0009 29.8579 15.999C29.8555 15.9962 29.8531 15.9936 29.8497 15.9902L29.8488 15.9892L29.848 15.988C29.8432 15.9799 29.8386 15.9713 29.8343 15.9633C29.8335 15.9619 29.8327 15.9604 29.832 15.959C29.8269 15.9496 29.8223 15.9412 29.8175 15.9342C29.8127 15.9272 29.8083 15.9226 29.8043 15.92C29.8006 15.9178 29.7972 15.9171 29.7929 15.9182L29.7921 15.9184L29.7913 15.9184C29.7507 15.9225 29.6959 15.9083 29.6315 15.877C29.5668 15.8456 29.4911 15.7964 29.4082 15.7285C29.322 15.6611 29.2633 15.6209 29.2006 15.5991C29.138 15.5774 29.0705 15.5735 28.966 15.581L28.9659 15.581C28.8556 15.5883 28.7865 15.6232 28.7453 15.6555C28.7246 15.6717 28.7107 15.6873 28.7021 15.6988C28.6978 15.7046 28.6948 15.7093 28.6929 15.7125C28.692 15.7141 28.6913 15.7153 28.6909 15.7161L28.6904 15.7169L28.6904 15.717C28.6904 15.717 28.6904 15.717 28.6903 15.717L28.6689 15.7122V15.6972H28.6758C28.6761 15.6969 28.6763 15.6965 28.6765 15.6961L28.6802 15.6972M28.9644 15.5585C28.9644 15.5585 28.9644 15.5585 28.9644 15.5585L28.9652 15.5697L28.9644 15.5585C28.9644 15.5585 28.9644 15.5585 28.9644 15.5585ZM29.7883 15.8961C29.7881 15.8962 29.7878 15.8963 29.7875 15.8963L29.7902 15.9072L29.7891 15.896C29.7888 15.8961 29.7886 15.8961 29.7883 15.8961ZM29.8667 15.9753C29.8669 15.9757 29.8671 15.9761 29.8673 15.9765L29.8577 15.9822L29.8657 15.9743C29.866 15.9746 29.8663 15.975 29.8667 15.9753Z" fill="#C09300"/>
<path d="M29.9103 15.8924C29.96 15.8924 30.0003 15.8521 30.0003 15.8024C30.0003 15.7527 29.96 15.7124 29.9103 15.7124C29.8606 15.7124 29.8203 15.7527 29.8203 15.8024C29.8203 15.8521 29.8606 15.8924 29.9103 15.8924Z" fill="white"/>
</g>
<defs>
<clipPath id="clip0_59_59166">
<rect width="60" height="45" fill="white"/>
</clipPath>
</defs>
</svg>
