<svg width="60" height="45" viewBox="0 0 60 45" fill="none" xmlns="http://www.w3.org/2000/svg">
<g clip-path="url(#clip0_59_61066)">
<path fill-rule="evenodd" clip-rule="evenodd" d="M62.2896 45.12H-2.16504V0H62.2896V45.12Z" fill="#BA0000"/>
<path fill-rule="evenodd" clip-rule="evenodd" d="M29.1456 21.8376C29.1456 21.8376 24.5984 19.8812 25.2505 14.8052C25.8762 12.3641 26.9954 10.6986 29.0134 9.79089C29.9652 9.50007 30.9346 9.36789 31.9216 9.28857C31.6572 9.53532 31.4457 9.78207 31.3311 10.0817C31.1196 10.6457 31.2783 11.1744 31.5691 11.712C31.9304 12.3289 32.1507 12.9634 32.2212 13.7918C32.2874 14.3562 32.2033 14.9282 31.9774 15.4497C31.7514 15.9713 31.3917 16.4238 30.9346 16.7616C30.353 17.211 29.6656 17.3696 29.1016 17.8808C28.6609 18.3038 28.3966 18.7356 28.3084 19.4758C28.2908 20.8946 28.6698 21.0973 29.1456 21.8376Z" fill="white"/>
<path fill-rule="evenodd" clip-rule="evenodd" d="M28.3657 14.4702V14.4967H28.1807V14.4702H28.3657Z" fill="black"/>
<path fill-rule="evenodd" clip-rule="evenodd" d="M27.3578 17.809C27.372 19.1405 27.7721 20.4841 28.6254 21.2392L28.5027 21.3778C27.5935 20.5732 27.1872 19.1672 27.1728 17.811C27.1655 17.1306 27.2566 16.4568 27.4358 15.8685C27.6146 15.2813 27.8831 14.773 28.2351 14.4302L28.3642 14.5628C28.0421 14.8765 27.7862 15.353 27.6128 15.9224C27.4397 16.4907 27.3507 17.1455 27.3578 17.809Z" fill="#BA0000"/>
<path fill-rule="evenodd" clip-rule="evenodd" d="M29.3838 13.6154L29.6746 14.1001L29.1459 13.8797L28.7317 14.3204L28.8022 13.7476L28.2734 13.5272L28.8462 13.3951L28.9168 12.8311L29.2076 13.3157L29.7892 13.1836" fill="#BA0000"/>
<path fill-rule="evenodd" clip-rule="evenodd" d="M29.5337 21.5027C29.5337 21.5027 30.0624 16.5765 35.112 15.7129C37.6324 15.6071 39.5535 16.1799 41.0164 17.8543C41.5716 18.6739 41.9769 19.5639 42.3383 20.4804C42.0298 20.3042 41.739 20.172 41.4041 20.1544C40.8137 20.1103 40.3466 20.4187 39.9236 20.8505C39.4297 21.3974 38.8138 21.82 38.1259 22.0843C37.6062 22.3141 37.035 22.4025 36.4702 22.3406C35.9054 22.2787 35.3669 22.0687 34.9093 21.7318C34.3101 21.3 33.9576 20.6919 33.3054 20.3042C32.7755 19.9891 32.1473 19.8823 31.5429 20.0045C30.177 20.4099 30.1065 20.8329 29.5337 21.5027Z" fill="white"/>
<path fill-rule="evenodd" clip-rule="evenodd" d="M36.3189 18.6162H36.2925V18.4312H36.3189V18.6162Z" fill="black"/>
<path fill-rule="evenodd" clip-rule="evenodd" d="M32.8607 18.614C31.5914 19.0178 30.4216 19.7944 29.9436 20.8359L29.7754 20.7587C30.2844 19.6498 31.5115 18.849 32.8046 18.4377C33.4532 18.2313 34.1238 18.121 34.7382 18.1196C35.3516 18.1182 35.9155 18.2253 36.3457 18.46L36.2571 18.6225C35.8634 18.4077 35.3334 18.3033 34.7387 18.3047C34.145 18.3061 33.4932 18.4128 32.8607 18.614Z" fill="#BA0000"/>
<path fill-rule="evenodd" clip-rule="evenodd" d="M37.4647 19.3257L37.0857 19.7399L37.1386 19.1671L36.6099 18.9027L37.165 18.8146L37.2179 18.2241L37.5175 18.7529L38.0815 18.6471L37.7026 19.0613L37.9934 19.5901" fill="#BA0000"/>
<path fill-rule="evenodd" clip-rule="evenodd" d="M29.8682 21.855C29.8682 21.855 34.715 20.7975 37.1297 25.3183C38.0374 27.6712 38.099 29.6717 36.9798 31.584C36.3806 32.3771 35.658 33.038 34.9089 33.6814C34.9794 33.3289 35.0059 33.0116 34.9177 32.6944C34.7767 32.1127 34.3361 31.769 33.7897 31.5047C33.1118 31.2082 32.5138 30.7552 32.0448 30.1828C31.6647 29.7628 31.4018 29.2502 31.2826 28.6963C31.1635 28.1425 31.1924 27.5671 31.3663 27.0279C31.5778 26.3229 32.0449 25.7942 32.2035 25.0539C32.3354 24.4529 32.2379 23.8243 31.9303 23.2914C31.1107 22.1282 30.6877 22.1899 29.8682 21.855Z" fill="white"/>
<path fill-rule="evenodd" clip-rule="evenodd" d="M34.8389 27.3276L34.8565 27.3453L34.8389 27.3276Z" fill="#BA0000"/>
<path fill-rule="evenodd" clip-rule="evenodd" d="M34.7911 27.4107L34.7734 27.3931L34.9043 27.2622L34.9219 27.2798L34.7911 27.4107Z" fill="black"/>
<path fill-rule="evenodd" clip-rule="evenodd" d="M33.6677 24.0972C32.883 23.0211 31.7778 22.1588 30.6426 22.035L30.6626 21.8511C31.8716 21.9829 33.0179 22.8919 33.8173 23.9881C34.2182 24.538 34.5354 25.1395 34.7319 25.723C34.9281 26.3054 35.006 26.8759 34.9209 27.3611L34.7386 27.3291C34.8165 26.8846 34.7468 26.3469 34.5566 25.7821C34.3667 25.2183 34.0588 24.6334 33.6677 24.0972Z" fill="#BA0000"/>
<path fill-rule="evenodd" clip-rule="evenodd" d="M34.4511 28.6935L33.9312 28.4643L34.504 28.3321L34.5745 27.7417L34.8477 28.244L35.4205 28.1118L35.0239 28.5525L35.2883 29.0548L34.7772 28.8256L34.3806 29.2751" fill="#BA0000"/>
<path fill-rule="evenodd" clip-rule="evenodd" d="M29.7628 22.3574C29.7628 22.3574 32.1333 26.7108 28.485 30.2887C26.4757 31.8221 24.5722 32.4478 22.422 31.9102C21.4966 31.5577 20.6595 31.0554 19.8223 30.509C20.1748 30.4826 20.5008 30.4209 20.7828 30.2446C21.294 29.945 21.4966 29.4251 21.6024 28.8346C21.6941 28.0983 21.96 27.3944 22.3779 26.7813C22.6736 26.2975 23.0916 25.9002 23.5898 25.6295C24.088 25.3587 24.6487 25.2241 25.2155 25.2391C25.9558 25.2479 26.5903 25.5564 27.3481 25.5035C27.9562 25.4242 28.4321 25.2568 28.9696 24.728C29.8509 23.6264 29.6746 23.2299 29.7628 22.3486V22.3574Z" fill="white"/>
<path fill-rule="evenodd" clip-rule="evenodd" d="M25.9029 28.667L25.894 28.6846L25.9029 28.667Z" fill="#BA0000"/>
<path fill-rule="evenodd" clip-rule="evenodd" d="M25.811 28.6431L25.8198 28.6255L25.9854 28.7083L25.9766 28.7259L25.811 28.6431Z" fill="black"/>
<path fill-rule="evenodd" clip-rule="evenodd" d="M28.6779 26.6299C29.4898 25.5735 30.004 24.2672 29.7949 23.1407L29.9768 23.1069C30.1996 24.3069 29.6518 25.6664 28.8246 26.7427C28.4097 27.2826 27.921 27.7559 27.4156 28.1073C26.9111 28.458 26.3846 28.6907 25.8945 28.7413L25.8755 28.5572C26.324 28.5109 26.8208 28.2953 27.3099 27.9553C27.7981 27.6159 28.2733 27.1563 28.6779 26.6299Z" fill="#BA0000"/>
<path fill-rule="evenodd" clip-rule="evenodd" d="M24.4839 28.6758L24.5633 28.1118L24.8541 28.6141L25.4357 28.526L25.0303 28.9314L25.3211 29.4337L24.7836 29.1781L24.3782 29.5835L24.4487 29.0195L23.9111 28.7639" fill="#BA0000"/>
<path fill-rule="evenodd" clip-rule="evenodd" d="M29.2253 22.2603C29.2253 22.2603 25.9118 25.944 21.3116 23.7056C19.1966 22.322 17.9805 20.727 17.7778 18.5238C17.8043 17.528 17.9893 16.5763 18.2273 15.6157C18.3771 15.933 18.5445 16.215 18.8001 16.4265C19.2495 16.8054 19.8135 16.823 20.4128 16.7261C21.132 16.5686 21.8787 16.5867 22.5895 16.779C23.146 16.8961 23.6617 17.1584 24.0842 17.5391C24.5067 17.9198 24.821 18.4055 24.9953 18.9468C25.2332 19.643 25.1539 20.348 25.4623 21.0442C25.7267 21.5906 26.044 21.9783 26.7225 22.3132C28.062 22.7803 28.3705 22.4807 29.2253 22.2692V22.2603Z" fill="white"/>
<path fill-rule="evenodd" clip-rule="evenodd" d="M21.9898 20.7271L21.9722 20.7183L21.9898 20.7271Z" fill="#BA0000"/>
<path fill-rule="evenodd" clip-rule="evenodd" d="M22.0139 20.6353L22.0315 20.6441L21.9488 20.8096L21.9312 20.8008L22.0139 20.6353Z" fill="black"/>
<path fill-rule="evenodd" clip-rule="evenodd" d="M24.8346 22.6592C26.1007 23.074 27.5021 23.1264 28.4919 22.5589L28.5839 22.7195C27.5293 23.3241 26.0666 23.2576 24.777 22.8351C24.1301 22.6232 23.5211 22.32 23.0213 21.9609C22.5224 21.6024 22.1272 21.1843 21.9155 20.7403L22.0826 20.6606C22.2763 21.067 22.6455 21.463 23.1293 21.8106C23.6121 22.1576 24.2038 22.4526 24.8346 22.6592Z" fill="#BA0000"/>
<path fill-rule="evenodd" clip-rule="evenodd" d="M21.5141 19.3876L22.0693 19.273L21.6904 19.7137L21.9635 20.2336L21.4524 19.9869L21.0735 20.4275L21.1352 19.8282L20.6152 19.5815L21.1704 19.4669L21.2321 18.8677" fill="#BA0000"/>
</g>
<defs>
<clipPath id="clip0_59_61066">
<rect width="60" height="45" fill="white"/>
</clipPath>
</defs>
</svg>
