<svg width="60" height="45" viewBox="0 0 60 45" fill="none" xmlns="http://www.w3.org/2000/svg">
<g clip-path="url(#clip0_59_61412)">
<path d="M0 0H60V15H0V0Z" fill="#FF9933"/>
<path d="M0 15H60V30H0V15Z" fill="white"/>
<path d="M0 30H60V45H0V30Z" fill="#128807"/>
<path d="M30 28.5C33.3137 28.5 36 25.8137 36 22.5C36 19.1863 33.3137 16.5 30 16.5C26.6863 16.5 24 19.1863 24 22.5C24 25.8137 26.6863 28.5 30 28.5Z" fill="#000088"/>
<path d="M30 27.75C32.8995 27.75 35.25 25.3995 35.25 22.5C35.25 19.6005 32.8995 17.25 30 17.25C27.1005 17.25 24.75 19.6005 24.75 22.5C24.75 25.3995 27.1005 27.75 30 27.75Z" fill="white"/>
<path d="M30.0002 23.5502C30.5801 23.5502 31.0502 23.0801 31.0502 22.5002C31.0502 21.9203 30.5801 21.4502 30.0002 21.4502C29.4203 21.4502 28.9502 21.9203 28.9502 22.5002C28.9502 23.0801 29.4203 23.5502 30.0002 23.5502Z" fill="#000088"/>
<path d="M35.1694 23.4549C35.3172 23.4744 35.4528 23.3703 35.4723 23.2225C35.4918 23.0746 35.3877 22.939 35.2399 22.9195C35.092 22.9001 34.9564 23.0041 34.9369 23.152C34.9175 23.2998 35.0215 23.4354 35.1694 23.4549Z" fill="#000088"/>
<path d="M29.9998 27.7501L30.1798 24.6001L29.9998 23.1001L29.8198 24.6001L29.9998 27.7501Z" fill="#000088"/>
</g>
<defs>
<clipPath id="clip0_59_61412">
<rect width="60" height="45" fill="white"/>
</clipPath>
</defs>
</svg>
