<svg width="60" height="45" viewBox="0 0 60 45" fill="none" xmlns="http://www.w3.org/2000/svg">
<g clip-path="url(#clip0_59_61899)">
<path d="M0 0H60V45H0V0Z" fill="#032EA1"/>
<path d="M0 11.25H60V33.75H0V11.25Z" fill="#E00025"/>
<path d="M23.6621 21.2061H36.4646V26.1336H23.6621V21.2061Z" fill="white"/>
<path fill-rule="evenodd" clip-rule="evenodd" d="M23.606 21.2062L23.6622 21.1499H36.4647L36.521 21.2062V26.1337L36.4647 26.1899H23.6622L23.606 26.1337V21.2062ZM23.7185 21.2624V26.0774H36.4085V21.2624H23.7185Z" fill="black"/>
<path d="M35.8121 23.9175H36.2059V25.7737H35.8121V23.9175ZM23.6621 23.0063H36.4646V23.5688H23.6621V23.0063ZM23.6621 22.2188H36.4646V22.7362H23.6621V22.2188Z" fill="white"/>
<path fill-rule="evenodd" clip-rule="evenodd" d="M23.606 22.2188L23.6622 22.1626H36.4647L36.521 22.2188V22.7363L36.4647 22.7926H23.6622L23.606 22.7363V22.2188ZM23.7185 22.2751V22.6801H36.4085V22.2751H23.7185ZM23.606 23.0063L23.6622 22.9501H36.4647L36.521 23.0063V23.5688L36.4647 23.6251H23.6622L23.606 23.5688V23.0063ZM23.7185 23.0626V23.5126H36.4085V23.0626H23.7185ZM35.756 23.9176L35.8122 23.8613H36.206L36.2622 23.9176V25.7738L36.206 25.8301H35.8122L35.756 25.7738V23.9176ZM35.8685 23.9738V25.7176H36.1497V23.9738H35.8685Z" fill="black"/>
<path d="M23.6621 21.4536H36.4646V21.9374H23.6621V21.4536Z" fill="white"/>
<path fill-rule="evenodd" clip-rule="evenodd" d="M23.6113 21.4535L23.662 21.4028H36.4645L36.5151 21.4535V21.9372L36.4645 21.9878H23.662L23.6113 21.9372V21.4535ZM23.7126 21.5041V21.8866H36.4138V21.5041H23.7126Z" fill="black"/>
<path d="M27.0369 23.9175H27.4419V25.7737H27.0369V23.9175ZM32.5494 23.9175H32.9544V25.7737H32.5494V23.9175ZM23.7744 23.9175H24.1682V25.7737H23.7744V23.9175ZM24.5619 23.9175H24.9557V25.7737H24.5619V23.9175ZM25.4057 23.9175H25.7994V25.7737H25.4057V23.9175ZM26.2494 23.9175H26.6432V25.7737H26.2494V23.9175ZM33.3144 23.9175H33.7194V25.7737H33.3144V23.9175ZM34.1582 23.9175H34.5632V25.7737H34.1582V23.9175ZM35.0019 23.9175H35.4069V25.7737H35.0019V23.9175Z" fill="white"/>
<path fill-rule="evenodd" clip-rule="evenodd" d="M23.7183 23.9176L23.7745 23.8613H24.1683L24.2245 23.9176V25.7738L24.1683 25.8301H23.7745L23.7183 25.7738V23.9176ZM23.8308 23.9738V25.7176H24.112V23.9738H23.8308ZM24.5058 23.9176L24.562 23.8613H24.9558L25.012 23.9176V25.7738L24.9558 25.8301H24.562L24.5058 25.7738V23.9176ZM24.6183 23.9738V25.7176H24.8995V23.9738H24.6183ZM25.3495 23.9176L25.4058 23.8613H25.7995L25.8558 23.9176V25.7738L25.7995 25.8301H25.4058L25.3495 25.7738V23.9176ZM25.462 23.9738V25.7176H25.7433V23.9738H25.462ZM26.1933 23.9176L26.2495 23.8613H26.6433L26.6995 23.9176V25.7738L26.6433 25.8301H26.2495L26.1933 25.7738V23.9176ZM26.3058 23.9738V25.7176H26.587V23.9738H26.3058ZM26.9808 23.9176L27.037 23.8613H27.442L27.4983 23.9176V25.7738L27.442 25.8301H27.037L26.9808 25.7738V23.9176ZM27.0933 23.9738V25.7176H27.3858V23.9738H27.0933ZM32.4933 23.9176L32.5495 23.8613H32.9545L33.0108 23.9176V25.7738L32.9545 25.8301H32.5495L32.4933 25.7738V23.9176ZM32.6058 23.9738V25.7176H32.8983V23.9738H32.6058ZM33.2583 23.9176L33.3145 23.8613H33.7195L33.7758 23.9176V25.7738L33.7195 25.8301H33.3145L33.2583 25.7738V23.9176ZM33.3708 23.9738V25.7176H33.6633V23.9738H33.3708ZM34.102 23.9176L34.1583 23.8613H34.5633L34.6195 23.9176V25.7738L34.5633 25.8301H34.1583L34.102 25.7738V23.9176ZM34.2145 23.9738V25.7176H34.507V23.9738H34.2145ZM34.9458 23.9176L35.002 23.8613H35.407L35.4633 23.9176V25.7738L35.407 25.8301H35.002L34.9458 25.7738V23.9176ZM35.0583 23.9738V25.7176H35.3508V23.9738H35.0583Z" fill="black"/>
<path d="M18.6558 26.3809C18.891 26.2529 19.0682 26.0395 19.1508 25.7847H40.8745C40.9571 26.0395 41.1343 26.2529 41.3695 26.3809H18.6558Z" fill="white"/>
<path fill-rule="evenodd" clip-rule="evenodd" d="M19.1099 25.7285H40.9154L40.9281 25.7674C41.0062 26.0085 41.1739 26.2104 41.3964 26.3316L41.3696 26.4373H18.6558L18.6289 26.3316C18.8515 26.2104 19.0191 26.0085 19.0973 25.7674L19.1099 25.7285ZM19.1909 25.841C19.121 26.0321 18.9998 26.1992 18.8421 26.3248H41.1833C41.0255 26.1992 40.9044 26.0321 40.8345 25.841H19.1909Z" fill="black"/>
<path d="M29.7374 13.7025C29.7374 13.7025 29.7262 13.2412 29.9962 13.23C30.2549 13.23 30.2437 13.7025 30.2437 13.7025H29.7374ZM28.3312 19.8337V19.215C28.3312 18.9 28.0162 18.8775 28.0162 18.6525C28.0162 18.6525 27.9712 18.315 28.0612 18.1575C28.1849 18.6075 28.3987 18.5287 28.3987 18.3375C28.3987 18.18 28.2862 18.0225 28.0274 17.6287C27.9374 17.505 27.9937 17.1112 28.1062 16.965C28.1512 17.3025 28.2074 17.4712 28.3537 17.4712C28.4437 17.4712 28.5112 17.415 28.5112 17.2462C28.5112 17.0212 28.3649 16.9087 28.2862 16.7062C28.2474 16.6055 28.2384 16.4956 28.2604 16.3899C28.2823 16.2842 28.3342 16.187 28.4099 16.11C28.4662 16.4475 28.4549 16.5825 28.6012 16.5825C28.9049 16.4812 28.6012 16.0425 28.5337 15.93C28.4662 15.8062 28.6462 15.5475 28.6462 15.5475C28.7362 15.8512 28.7587 15.8737 28.8712 15.84C29.0062 15.8062 28.9837 15.615 28.8262 15.4575C28.7249 15.345 28.7362 15.1987 28.8487 15.0862C28.9612 15.3 29.0962 15.2887 29.1074 15.1537L29.0174 14.6587H30.9749L30.8737 15.1425C30.8512 15.2775 31.0312 15.3112 31.1437 15.0862C31.2562 15.1987 31.2674 15.3562 31.1662 15.4575C31.0087 15.615 30.9862 15.8062 31.1212 15.84C31.2337 15.8737 31.2562 15.84 31.3462 15.5475C31.3462 15.5475 31.5149 15.7162 31.4587 15.93C31.3912 16.0425 31.0874 16.4925 31.3912 16.5825C31.5374 16.5825 31.5262 16.4475 31.5824 16.11C31.6562 16.1882 31.706 16.286 31.7259 16.3916C31.7459 16.4973 31.7351 16.6065 31.6949 16.7062C31.6274 16.9087 31.4699 17.0212 31.4699 17.2462C31.4699 17.415 31.5487 17.4712 31.6387 17.4712C31.7849 17.4712 31.8412 17.3137 31.8862 16.965C31.9987 17.1112 32.0549 17.505 31.9649 17.64C31.7062 18.0225 31.5824 18.18 31.5824 18.3375C31.5824 18.5287 31.8074 18.6075 31.9199 18.1575C32.0212 18.315 31.9762 18.6525 31.9762 18.6525C31.9762 18.8775 31.6724 18.9 31.6612 19.215V19.8337H28.3312ZM29.1412 14.6587L29.0962 14.31H30.8849L30.8399 14.6587H29.1412ZM29.2537 14.2987L29.2312 14.0175H30.7499L30.7162 14.2987H29.2537ZM29.5124 14.0062L29.4787 13.7137H30.4912L30.4799 14.0062H29.5124ZM33.2249 26.3812C32.9999 26.3025 32.6624 26.055 32.6624 25.8187V23.085L32.9549 22.7025H27.0374L27.3187 23.085V25.8187C27.3187 26.055 27.0937 26.3025 26.8687 26.3812H33.2249Z" fill="white"/>
<path d="M28.0723 23.9175H28.4773V25.7737H28.0723V23.9175ZM31.4923 23.9175H31.8973V25.7737H31.4923V23.9175Z" fill="white"/>
<path fill-rule="evenodd" clip-rule="evenodd" d="M28.0161 23.9176L28.0724 23.8613H28.4774L28.5336 23.9176V25.7738L28.4774 25.8301H28.0724L28.0161 25.7738V23.9176ZM28.1286 23.9738V25.7176H28.4211V23.9738H28.1286ZM31.4361 23.9176L31.4924 23.8613H31.8974L31.9536 23.9176V25.7738L31.8974 25.8301H31.4924L31.4361 25.7738V23.9176ZM31.5486 23.9738V25.7176H31.8411V23.9738H31.5486Z" fill="black"/>
<path d="M26.9248 19.5977V22.7027H32.9998V19.5977C32.9296 19.6233 32.8665 19.6652 32.8157 19.72C32.7648 19.7747 32.7277 19.8408 32.7073 19.9127V21.2402H27.2286V19.9127C27.2286 19.9127 27.1611 19.6877 26.9136 19.5977H26.9248Z" fill="white"/>
<path fill-rule="evenodd" clip-rule="evenodd" d="M33.0562 19.5171V22.7588H26.8687V19.5975H26.9037L26.9137 19.5413H26.9812V19.5646C27.0908 19.6157 27.1636 19.691 27.2099 19.7563C27.2362 19.7934 27.2541 19.8276 27.2655 19.8527C27.2712 19.8653 27.2753 19.8758 27.2781 19.8832C27.2794 19.887 27.2805 19.89 27.2812 19.8922L27.2821 19.8949L27.2824 19.8958L27.2825 19.8961L27.2825 19.8962C27.2825 19.8963 27.2825 19.8964 27.2287 19.9125L27.2825 19.8964L27.2849 19.9043V21.1838H32.6512V19.9047L32.6533 19.8972C32.6761 19.8167 32.7176 19.7428 32.7745 19.6816C32.8314 19.6203 32.9021 19.5734 32.9806 19.5447L33.0562 19.5171ZM27.1724 19.9219C27.1705 19.9167 27.1674 19.9089 27.163 19.8992C27.154 19.8793 27.1395 19.8516 27.1181 19.8213C27.0877 19.7784 27.0436 19.7307 26.9812 19.6922V22.6463H32.9437V19.687C32.9118 19.7066 32.8826 19.7305 32.857 19.7581C32.8139 19.8045 32.782 19.8601 32.7637 19.9206V21.2963H27.1724V19.9219Z" fill="black"/>
<path d="M32.1671 26.3815C31.9646 26.3027 31.5371 26.0552 31.5371 25.819V22.759C31.5821 22.5902 31.8071 22.489 31.9534 22.3765H27.9371C28.1284 22.489 28.3421 22.5677 28.4209 22.759V25.819C28.4209 26.0552 28.0834 26.3027 27.8809 26.3815H32.1671Z" fill="white"/>
<path fill-rule="evenodd" clip-rule="evenodd" d="M27.7305 22.3198H32.1187L31.9876 22.4207C31.9491 22.4502 31.9059 22.4788 31.8639 22.5065L31.8629 22.5072C31.8205 22.5351 31.7792 22.5624 31.7411 22.5911C31.6654 22.6482 31.6124 22.704 31.5933 22.7664V25.8186C31.5933 25.8607 31.6126 25.9088 31.652 25.9613C31.6911 26.0134 31.7466 26.0654 31.8103 26.1142C31.9379 26.212 32.0907 26.291 32.1874 26.3286L32.167 26.4373H27.8808L27.8604 26.3286C27.9547 26.292 28.0838 26.2143 28.1886 26.1176C28.2957 26.0187 28.3645 25.9119 28.3645 25.8186V22.7702C28.3304 22.6943 28.2695 22.6372 28.1901 22.5847C28.1486 22.5573 28.1034 22.5319 28.0554 22.5058C28.0457 22.5006 28.0359 22.4953 28.026 22.4899C27.9874 22.4691 27.9474 22.4475 27.9085 22.4246L27.7305 22.3198ZM28.1551 22.4323C28.1881 22.4509 28.2209 22.4702 28.2521 22.4909C28.3437 22.5514 28.4273 22.6267 28.4728 22.7372L28.477 22.7474V25.8186C28.477 25.9615 28.3771 26.0966 28.2649 26.2002C28.215 26.2462 28.1602 26.2884 28.1052 26.3248H31.9249C31.8635 26.2893 31.8004 26.2483 31.7419 26.2035C31.6734 26.1511 31.6094 26.092 31.562 26.0288C31.5149 25.966 31.4808 25.8945 31.4808 25.8186V22.7512L31.4827 22.7441C31.5103 22.6404 31.5913 22.5632 31.6733 22.5013C31.7053 22.4772 31.7391 22.4542 31.7721 22.4323H28.1551Z" fill="black"/>
<path d="M32.7073 22.41V20.205H32.156V19.9912H27.791V20.2162H27.2285V22.41H32.7073ZM31.3123 26.3812C31.1098 26.3025 30.8285 26.055 30.8285 25.8187V23.2087L30.986 22.9725H28.9948L29.1635 23.1975V25.8187C29.1635 26.055 28.871 26.3025 28.6798 26.3812H31.3123Z" fill="white"/>
<path fill-rule="evenodd" clip-rule="evenodd" d="M27.7349 19.9351H32.2124V20.1488H32.7636V22.4663H27.1724V20.1601H27.7349V19.9351ZM27.8474 20.0476V20.2726H27.2849V22.3538H32.6511V20.2613H32.0999V20.0476H27.8474ZM28.8824 22.9163H31.0912L30.8849 23.2258V25.8188C30.8849 25.9158 30.9438 26.0235 31.0354 26.1205C31.1261 26.2164 31.2402 26.2929 31.3328 26.3289L31.3124 26.4376H28.6799L28.6584 26.3293C28.746 26.2932 28.8606 26.2164 28.9528 26.1202C29.0463 26.0226 29.1074 25.9152 29.1074 25.8188V23.2163L28.8824 22.9163ZM29.1074 23.0288L29.2199 23.1788V25.8188C29.2199 25.9587 29.1346 26.0931 29.0341 26.198C28.9891 26.2449 28.9392 26.288 28.8886 26.3251H31.0988C31.0477 26.2879 30.998 26.2447 30.9537 26.1977C30.8541 26.0923 30.7724 25.958 30.7724 25.8188V23.1918L30.881 23.0288H29.1074Z" fill="black"/>
<path d="M29.4785 22.9727H30.491V26.3814H29.4785V22.9727Z" fill="white"/>
<path fill-rule="evenodd" clip-rule="evenodd" d="M29.4224 22.916H30.5474V26.4373H29.4224V22.916ZM29.5349 23.0285V26.3248H30.4349V23.0285H29.5349Z" fill="black"/>
<path d="M31.02 22.2185C31.02 21.9935 31.6725 21.9823 32.01 21.791H27.96C28.2975 21.9823 28.9387 21.9935 28.9387 22.2185L29.0737 22.6573L30.7612 22.7248L31.02 22.2185Z" fill="white"/>
<path fill-rule="evenodd" clip-rule="evenodd" d="M27.9321 21.8401L27.9599 21.7349H32.0099L32.0376 21.8401C31.9474 21.8912 31.8383 21.9292 31.7284 21.961C31.6597 21.9809 31.5878 21.9991 31.5191 22.0166C31.4788 22.0268 31.4397 22.0367 31.4028 22.0466C31.3 22.074 31.2137 22.1011 31.1537 22.1333C31.092 22.1665 31.0761 22.1948 31.0761 22.2186L31.0699 22.2442L30.8112 22.7505L30.7589 22.7811L29.0714 22.7136L29.0198 22.6739L28.8848 22.2352L28.8824 22.2186C28.8824 22.1944 28.8665 22.1661 28.8062 22.1332C28.7473 22.101 28.6625 22.074 28.5611 22.0465C28.5243 22.0365 28.4851 22.0265 28.4448 22.0161C28.3774 21.9988 28.3069 21.9807 28.2394 21.9609C28.1306 21.9291 28.0222 21.8911 27.9321 21.8401ZM28.252 21.8474C28.2583 21.8492 28.2646 21.8511 28.271 21.853C28.3372 21.8723 28.4037 21.8894 28.4695 21.9063C28.5102 21.9167 28.5506 21.9271 28.5905 21.9379C28.6916 21.9653 28.7882 21.9952 28.8601 22.0344C28.9281 22.0715 28.9903 22.1263 28.9946 22.2094L29.1157 22.6028L30.7274 22.6672L30.9642 22.2039C30.9711 22.1234 31.0333 22.0703 31.1005 22.0342C31.1733 21.9951 31.2713 21.9652 31.3738 21.9379C31.4136 21.9272 31.454 21.917 31.4947 21.9067C31.5618 21.8897 31.6297 21.8725 31.6971 21.8529C31.7035 21.8511 31.7098 21.8492 31.7161 21.8474H28.252Z" fill="black"/>
<path d="M31.8074 19.8336C31.8074 19.2824 31.8299 19.0799 31.9987 19.0799V20.8124C31.5824 20.9699 31.2899 21.4874 31.2899 21.4874H28.6799C28.6799 21.4874 28.3874 20.9699 27.9712 20.8124V19.0686C28.1737 19.0686 28.1737 19.2936 28.1737 19.8224L31.8074 19.8336ZM31.9987 19.6086C31.9987 18.9786 32.5499 18.9111 32.5499 18.9111V19.4736C32.3362 19.4624 32.2349 19.6536 32.2349 19.9236C32.2349 20.2049 32.4037 20.2049 32.4037 20.2049V21.8024H31.9987V19.6086Z" fill="white"/>
<path fill-rule="evenodd" clip-rule="evenodd" d="M32.6058 18.8477V19.533L32.5466 19.5299C32.4605 19.5254 32.4006 19.56 32.3591 19.6239C32.3153 19.6913 32.2908 19.7943 32.2908 19.9237C32.2908 20.0527 32.329 20.105 32.3549 20.1266C32.3688 20.1382 32.3824 20.1437 32.392 20.1464C32.3968 20.1477 32.4006 20.1483 32.4027 20.1486C32.4034 20.1486 32.404 20.1487 32.4043 20.1487H32.4595V21.8587H31.9421V20.8987C31.7793 20.981 31.6376 21.1182 31.5309 21.2452C31.47 21.3178 31.4216 21.3857 31.3886 21.4353C31.3721 21.4601 31.3594 21.4803 31.351 21.4942C31.3467 21.5011 31.3436 21.5065 31.3415 21.5101L31.3392 21.514L31.3386 21.515L31.3385 21.5151L31.3224 21.5437H28.6467L28.6306 21.5152L28.6305 21.515L28.6299 21.514L28.6276 21.5101C28.6255 21.5065 28.6224 21.5011 28.6181 21.4942C28.6097 21.4803 28.597 21.4601 28.5805 21.4353C28.5475 21.3857 28.4991 21.3178 28.4382 21.2452C28.3152 21.0987 28.1456 20.9387 27.9509 20.8651L27.9146 20.8513V19.0125H27.9708C28.0328 19.0125 28.0867 19.0302 28.1282 19.073C28.1676 19.1136 28.1895 19.1705 28.2031 19.2359C28.2279 19.3559 28.2295 19.533 28.2295 19.7664L31.7509 19.7773C31.7517 19.5328 31.7581 19.3558 31.7845 19.2379C31.7987 19.1742 31.8203 19.1201 31.8562 19.0818C31.8944 19.0409 31.9434 19.0237 31.9983 19.0237H32.0546V19.1735C32.1078 19.0879 32.1745 19.0243 32.2419 18.9775C32.3166 18.9257 32.391 18.8953 32.4466 18.8779C32.4745 18.8692 32.4979 18.8636 32.5146 18.8602C32.523 18.8585 32.5297 18.8574 32.5344 18.8566C32.5368 18.8562 32.5387 18.8559 32.5401 18.8557L32.5418 18.8555L32.5424 18.8554L32.5426 18.8554C32.5426 18.8554 32.5427 18.8554 32.5496 18.9112L32.5427 18.8554L32.6058 18.8477ZM32.4933 18.9813C32.4891 18.9826 32.4847 18.9839 32.4802 18.9853C32.4325 19.0002 32.3691 19.0262 32.306 19.0699C32.1822 19.1559 32.0546 19.3135 32.0546 19.6087V21.7462H32.347V20.25C32.3277 20.243 32.3052 20.2316 32.2829 20.213C32.2245 20.1643 32.1783 20.076 32.1783 19.9237C32.1783 19.7832 32.2044 19.6555 32.2647 19.5626C32.3172 19.4817 32.3944 19.4297 32.4933 19.419V18.9813ZM31.9421 19.1549C31.9408 19.1561 31.9395 19.1574 31.9383 19.1587C31.9225 19.1755 31.9068 19.2066 31.8943 19.2624C31.8692 19.3747 31.8633 19.5564 31.8633 19.8337V19.8901L28.1171 19.8785V19.8225C28.1171 19.555 28.1167 19.3739 28.0929 19.2587C28.0811 19.2018 28.0651 19.1694 28.0475 19.1513C28.0418 19.1454 28.0351 19.1402 28.0271 19.1361V20.7746C28.2325 20.8632 28.404 21.0296 28.5243 21.1729C28.5886 21.2493 28.6394 21.3207 28.6742 21.373C28.6899 21.3967 28.7025 21.4165 28.7115 21.4312H31.2576C31.2666 21.4165 31.2792 21.3967 31.2949 21.373C31.3297 21.3207 31.3805 21.2493 31.4448 21.1729C31.5651 21.0296 31.7366 20.8632 31.9421 20.7746V19.1549Z" fill="black"/>
<path d="M27.9712 19.6086C27.9712 18.9786 27.4199 18.9111 27.4199 18.9111V19.4736C27.6337 19.4624 27.7349 19.6536 27.7349 19.9236C27.7349 20.2049 27.5662 20.2049 27.5662 20.2049V21.8024H27.9712V19.6086Z" fill="white"/>
<path fill-rule="evenodd" clip-rule="evenodd" d="M27.4264 18.8554L27.4195 18.9112C27.4264 18.8554 27.4263 18.8554 27.4264 18.8554L27.4265 18.8554L27.4267 18.8554L27.4273 18.8555L27.429 18.8557C27.4303 18.8559 27.4323 18.8562 27.4346 18.8566C27.4394 18.8574 27.4461 18.8585 27.4545 18.8602C27.4712 18.8636 27.4946 18.8692 27.5225 18.8779C27.5781 18.8953 27.6525 18.9257 27.7272 18.9775C27.879 19.0828 28.027 19.2739 28.027 19.6087V21.8587H27.5095V20.1487H27.5648C27.5651 20.1487 27.5657 20.1486 27.5664 20.1486C27.5685 20.1483 27.5723 20.1477 27.5771 20.1464C27.5867 20.1437 27.6003 20.1382 27.6141 20.1266C27.6401 20.105 27.6783 20.0527 27.6783 19.9237C27.6783 19.7943 27.6538 19.6913 27.61 19.6239C27.5685 19.56 27.5086 19.5254 27.4225 19.5299L27.3633 19.533V18.8477L27.4264 18.8554ZM27.622 20.25V21.7462H27.9145V19.6087C27.9145 19.3135 27.7869 19.1559 27.6631 19.0699C27.6 19.0262 27.5366 19.0002 27.4889 18.9853C27.4844 18.9839 27.48 18.9826 27.4758 18.9813V19.419C27.5747 19.4297 27.6518 19.4817 27.7044 19.5626C27.7647 19.6555 27.7908 19.7832 27.7908 19.9237C27.7908 20.076 27.7446 20.1643 27.6862 20.213C27.6639 20.2316 27.6414 20.243 27.622 20.25Z" fill="black"/>
<path fill-rule="evenodd" clip-rule="evenodd" d="M30.9749 15.3H29.0399V15.21H30.9749V15.3ZM31.1774 15.9075H28.8149V15.8175H31.1774V15.9075ZM31.3912 16.6387H28.5899V16.5487H31.3912V16.6387ZM31.6724 17.5275H28.3537V17.4375H31.6724V17.5275ZM31.6949 18.54H28.2749V18.45H31.6949V18.54Z" fill="black"/>
<path fill-rule="evenodd" clip-rule="evenodd" d="M28.916 21.8811H27.2397V21.7686H32.7072V21.8811H31.0535V22.6236H28.916V21.8811ZM29.0285 21.8811V22.5111H30.941V21.8811H29.0285Z" fill="black"/>
<path d="M28.7246 20.16C29.0621 20.565 29.0171 21.2513 29.0171 21.6563H30.9746C30.9746 21.2513 30.9296 20.565 31.2671 20.16H28.7246ZM29.8159 15.5475L29.5459 15.4013V15.0075C29.6584 15.0413 29.7709 15.0525 29.7934 15.2325C29.8271 14.9738 29.9059 14.9963 30.0071 14.895C30.1196 14.9963 30.1759 14.9738 30.2209 15.2325C30.2209 15.0525 30.3559 15.0413 30.4571 15.0075V15.4013L30.1984 15.5363L29.8159 15.5475Z" fill="white"/>
<path fill-rule="evenodd" clip-rule="evenodd" d="M30.005 14.8174L30.0447 14.8531C30.0675 14.8736 30.0874 14.8883 30.1073 14.903C30.1099 14.9049 30.1125 14.9068 30.1151 14.9088C30.1371 14.9251 30.1606 14.9431 30.182 14.968C30.2011 14.9902 30.217 15.0163 30.2308 15.0495C30.2432 15.037 30.2568 15.0265 30.2708 15.0176C30.3 14.999 30.3318 14.987 30.3603 14.9779C30.3735 14.9737 30.3868 14.9698 30.399 14.9663L30.4022 14.9654C30.4156 14.9614 30.4278 14.9579 30.4393 14.954L30.5133 14.9294V15.4352L30.2129 15.592L29.8024 15.6041L29.4896 15.4346V14.9318L29.562 14.9535C29.5713 14.9563 29.5822 14.9594 29.5936 14.9626C29.6112 14.9675 29.6301 14.9728 29.6461 14.9779C29.6749 14.9872 29.7056 14.9993 29.7342 15.018C29.7503 15.0286 29.7649 15.0408 29.7781 15.0549C29.7932 15.0183 29.8116 14.9901 29.8337 14.9663C29.8554 14.9429 29.8792 14.9255 29.9 14.9104C29.9008 14.9098 29.9017 14.9091 29.9026 14.9085C29.9246 14.8924 29.9454 14.8771 29.9673 14.8551L30.005 14.8174ZM30.0084 14.9693C29.9942 14.9809 29.9808 14.9907 29.9689 14.9994C29.9459 15.0161 29.9301 15.0278 29.9161 15.0429C29.891 15.0699 29.8653 15.1155 29.8491 15.2397L29.7375 15.2394C29.7279 15.1627 29.7013 15.131 29.6725 15.1121C29.656 15.1013 29.6361 15.0929 29.6115 15.085C29.6083 15.084 29.6052 15.083 29.6021 15.082V15.3676L29.8293 15.4907L30.1838 15.4803L30.4008 15.367V15.0831C30.3988 15.0837 30.3967 15.0844 30.3946 15.085C30.3694 15.0931 30.3484 15.1016 30.3312 15.1125C30.3147 15.123 30.3021 15.1355 30.2932 15.1524C30.2842 15.1695 30.2771 15.1945 30.2771 15.2324L30.1654 15.242C30.1434 15.1152 30.1201 15.0687 30.0966 15.0412C30.0842 15.0267 30.0697 15.0152 30.0481 14.9991C30.0457 14.9973 30.0432 14.9955 30.0406 14.9936C30.0309 14.9864 30.0201 14.9784 30.0084 14.9693ZM28.6045 20.1036H31.3872L31.3103 20.1959C31.1519 20.3859 31.0806 20.6457 31.0502 20.9144C31.0258 21.1289 31.028 21.3427 31.0299 21.5249C31.0304 21.5708 31.0308 21.6147 31.0308 21.6561V21.7124H28.9608V21.6561C28.9608 21.6147 28.9613 21.5708 28.9618 21.5249C28.9636 21.3427 28.9658 21.1289 28.9415 20.9144C28.911 20.6457 28.8397 20.3859 28.6814 20.1959L28.6045 20.1036ZM28.8358 20.2161C28.9667 20.4171 29.0262 20.6627 29.0533 20.9017C29.0785 21.1239 29.0762 21.3468 29.0743 21.5292C29.074 21.5535 29.0738 21.5771 29.0736 21.5999H30.9181C30.9179 21.5771 30.9177 21.5535 30.9174 21.5292C30.9155 21.3468 30.9132 21.1239 30.9384 20.9017C30.9655 20.6627 31.025 20.4171 31.1559 20.2161H28.8358Z" fill="black"/>
<path d="M29.7937 16.1887L29.3438 15.8736V15.5249C29.5125 15.5587 29.6812 15.5812 29.7037 15.7724C29.7487 15.4912 29.85 15.3562 30.0075 15.2437C30.1537 15.3562 30.255 15.4912 30.3113 15.7724C30.3225 15.5812 30.5025 15.5587 30.6488 15.5249V15.8849L30.21 16.1887H29.7937Z" fill="white"/>
<path fill-rule="evenodd" clip-rule="evenodd" d="M30.0083 15.1738L30.0414 15.1993C30.1185 15.2585 30.1857 15.3253 30.2408 15.4156C30.273 15.4685 30.3006 15.5286 30.3238 15.5986C30.3471 15.5738 30.3744 15.5548 30.403 15.5399C30.4642 15.5079 30.5389 15.4916 30.6014 15.4779C30.6133 15.4753 30.6248 15.4728 30.6357 15.4703L30.7046 15.4544V15.9146L30.2272 16.2451H29.7756L29.2871 15.9031V15.4565L29.3544 15.4699C29.3633 15.4717 29.3724 15.4735 29.3816 15.4753C29.4553 15.4897 29.5373 15.5057 29.6038 15.5397C29.6332 15.5547 29.661 15.5738 29.6849 15.5987C29.7061 15.5288 29.7326 15.4687 29.765 15.4156C29.8206 15.3245 29.8914 15.2574 29.9744 15.1981L30.0083 15.1738ZM29.8611 15.4742C29.8152 15.5493 29.7806 15.6459 29.7589 15.7815L29.6475 15.7792C29.6428 15.7397 29.6311 15.7119 29.616 15.6912C29.6007 15.6704 29.5798 15.6537 29.5526 15.6399C29.5105 15.6183 29.4591 15.6058 29.3996 15.5936V15.8446L29.8111 16.1326H30.192L30.5921 15.8556V15.5953C30.5409 15.607 30.4944 15.6191 30.455 15.6396C30.4284 15.6535 30.4081 15.67 30.3938 15.6903C30.3798 15.7103 30.3693 15.7372 30.367 15.7759L30.2557 15.7836C30.2285 15.6476 30.1911 15.5502 30.1447 15.4742C30.1061 15.411 30.0603 15.3608 30.0059 15.315C29.9472 15.361 29.8995 15.4112 29.8611 15.4742Z" fill="black"/>
<path d="M29.7596 17.1899L29.2534 16.7399V16.2112C29.4334 16.2562 29.6359 16.2787 29.6584 16.5599C29.7146 16.1662 29.8271 15.9524 29.9959 15.7949C30.1759 15.9524 30.2884 16.1662 30.3559 16.5599C30.3784 16.2787 30.5809 16.2562 30.7609 16.2112V16.7399L30.2434 17.1899H29.7596ZM30.7046 17.7862L30.2546 18.4274H29.7259L29.2646 17.7862H30.7046ZM28.9946 18.8549C29.2196 18.9787 29.3096 19.2374 29.3321 19.7099H30.6371C30.6596 19.2374 30.7496 18.9787 30.9746 18.8549H28.9946Z" fill="white"/>
<path fill-rule="evenodd" clip-rule="evenodd" d="M29.9949 15.7192L30.0332 15.7527C30.1904 15.8903 30.2969 16.0668 30.3681 16.3443C30.3958 16.3044 30.4305 16.2734 30.4702 16.2491C30.5418 16.2054 30.6292 16.1848 30.7049 16.167C30.7196 16.1635 30.7339 16.1601 30.7475 16.1567L30.8174 16.1392V16.7657L30.2647 17.2463H29.7385L29.1974 16.7653V16.1392L29.2673 16.1567C29.2809 16.1601 29.2952 16.1635 29.3099 16.167C29.3856 16.1848 29.473 16.2054 29.5445 16.2491C29.5824 16.2722 29.6157 16.3015 29.6427 16.3387C29.7076 16.0647 29.8117 15.8903 29.9578 15.7539L29.9949 15.7192ZM29.9974 15.8729C29.8606 16.0161 29.7649 16.214 29.7143 16.568L29.6026 16.5645C29.5926 16.4403 29.5451 16.3813 29.4859 16.3451C29.4361 16.3147 29.3769 16.2989 29.3099 16.2827V16.7148L29.7813 17.1338H30.2226L30.7049 16.7144V16.2827C30.6378 16.2989 30.5787 16.3147 30.5289 16.3451C30.4696 16.3813 30.4221 16.4403 30.4122 16.5645L30.3007 16.5695C30.2397 16.2137 30.1428 16.016 29.9974 15.8729ZM29.1551 17.73H30.8131L30.2841 18.4838H29.6973L29.1551 17.73ZM29.3746 17.8425L29.755 18.3713H30.2256L30.5967 17.8425H29.3746ZM28.9678 18.9043L28.9949 18.7988H30.9749L31.002 18.9043C30.806 19.0121 30.716 19.2406 30.6936 19.7127L30.691 19.7663H29.2787L29.2762 19.7127C29.2537 19.2406 29.1638 19.0121 28.9678 18.9043ZM29.1588 18.9113C29.3029 19.0644 29.3646 19.307 29.3857 19.6538H30.5841C30.6051 19.307 30.6669 19.0644 30.8109 18.9113H29.1588Z" fill="black"/>
<path d="M30.9972 17.7751V17.1451C30.9003 17.1657 30.8103 17.2106 30.7355 17.2755C30.6607 17.3404 30.6037 17.4233 30.5697 17.5163C30.5697 17.2913 30.2884 16.8076 29.9847 16.5601C29.6809 16.8301 29.3884 17.2801 29.3997 17.5051C29.3434 17.3363 29.1972 17.2013 28.9722 17.1451V17.7863L30.9972 17.7751Z" fill="white"/>
<path fill-rule="evenodd" clip-rule="evenodd" d="M29.9474 16.5182L30.0203 16.5166C30.1785 16.6455 30.3288 16.8339 30.4394 17.0178C30.4948 17.11 30.5411 17.2022 30.5736 17.2867C30.5815 17.3074 30.5887 17.3278 30.5951 17.3478C30.6248 17.3058 30.6595 17.2672 30.6987 17.2332C30.7807 17.162 30.8794 17.1128 30.9855 17.0902L31.0535 17.1452V17.7752L30.9976 17.8315L28.9726 17.8427L28.916 17.7865V17.1452L28.9859 17.0906C29.1561 17.1332 29.2876 17.2191 29.3724 17.3328C29.378 17.3154 29.3844 17.2978 29.3913 17.2801C29.4235 17.1979 29.4703 17.1089 29.5265 17.0196C29.6388 16.8412 29.7912 16.657 29.9474 16.5182ZM29.9861 16.6352C29.8511 16.762 29.7202 16.9231 29.6218 17.0795C29.5682 17.1646 29.5251 17.2472 29.4961 17.3211C29.4667 17.396 29.4537 17.4577 29.4559 17.5024L29.3464 17.523C29.3029 17.3925 29.197 17.2811 29.0285 17.2209V17.7299L30.941 17.7193V17.2195C30.8794 17.2416 30.8222 17.275 30.7725 17.3181C30.7049 17.3768 30.6533 17.4517 30.6226 17.5358L30.5135 17.5165C30.5135 17.4703 30.4987 17.4053 30.4686 17.3271C30.4389 17.2499 30.3958 17.1636 30.343 17.0758C30.246 16.9146 30.1186 16.7524 29.9861 16.6352Z" fill="black"/>
<path d="M31.0873 18.8551V18.2251C30.8511 18.2926 30.6936 18.4164 30.6261 18.5964C30.6261 18.3714 30.3223 17.8876 29.9848 17.6401C29.6473 17.9214 29.3323 18.3601 29.3436 18.5964C29.2873 18.4276 29.1186 18.2926 28.8823 18.2251V18.8664L31.0873 18.8551Z" fill="white"/>
<path fill-rule="evenodd" clip-rule="evenodd" d="M29.9489 17.5969L30.0182 17.5947C30.1936 17.7234 30.3583 17.9117 30.4791 18.0958C30.5397 18.1881 30.59 18.2804 30.6253 18.3651C30.6351 18.3885 30.6438 18.4116 30.6514 18.4342C30.7444 18.3103 30.8884 18.2235 31.072 18.171L31.1437 18.2251V18.8551L31.0877 18.9113L28.8827 18.9226L28.8262 18.8663V18.2251L28.8979 18.171C29.0755 18.2218 29.223 18.3109 29.3156 18.429C29.3226 18.4078 29.3308 18.3864 29.3398 18.3649C29.3749 18.2818 29.4259 18.1926 29.4871 18.1033C29.6096 17.9246 29.7762 17.7408 29.9489 17.5969ZM29.9869 17.7123C29.8343 17.8449 29.6885 18.0085 29.5799 18.1669C29.5216 18.2519 29.4748 18.3343 29.4435 18.4087C29.4118 18.4839 29.3976 18.5466 29.3999 18.5937L29.2903 18.6141C29.2474 18.4853 29.1246 18.3716 28.9387 18.3026V18.8098L31.0312 18.7991V18.3024C30.8478 18.3694 30.7316 18.4755 30.6788 18.6161L30.5699 18.5963C30.5699 18.5509 30.5541 18.4866 30.5215 18.4085C30.4894 18.3315 30.4427 18.2452 30.3851 18.1575C30.278 17.9944 30.1362 17.8301 29.9869 17.7123Z" fill="black"/>
<path d="M31.3573 20.1711V19.4286C31.1231 19.5018 30.9207 19.6525 30.7836 19.8561C30.7836 19.4623 30.3336 18.8436 29.9848 18.6523C29.6248 18.8548 29.1861 19.4848 29.1861 19.8561C29.0455 19.6511 28.8391 19.5003 28.6011 19.4286V20.1711H31.3573Z" fill="white"/>
<path fill-rule="evenodd" clip-rule="evenodd" d="M29.9573 18.6033L30.012 18.603C30.197 18.7045 30.4027 18.9148 30.5615 19.1465C30.6855 19.3275 30.7863 19.5295 30.824 19.7116C30.9613 19.5546 31.1398 19.4376 31.3407 19.3749L31.4137 19.4286V20.1711L31.3574 20.2273H28.6012L28.5449 20.1711V19.4286L28.6174 19.3747C28.8227 19.4366 29.0056 19.5544 29.1463 19.7137C29.1839 19.5388 29.2821 19.3399 29.4039 19.1595C29.5612 18.9265 29.7668 18.7105 29.9573 18.6033ZM29.9852 18.7175C29.8226 18.8181 29.6412 19.009 29.4972 19.2224C29.3442 19.4491 29.2424 19.6878 29.2424 19.8561L29.1398 19.8879C29.0209 19.7146 28.8525 19.5822 28.6574 19.5073V20.1148H31.3012V19.5082C31.1102 19.5841 30.9458 19.7161 30.8303 19.8875L30.7274 19.8561C30.7274 19.6765 30.6228 19.435 30.4687 19.2101C30.3237 18.9985 30.1428 18.813 29.9852 18.7175Z" fill="black"/>
<path d="M31.1995 21.8248V21.0598C30.9295 21.1611 30.862 21.4086 30.772 21.5886C30.8058 20.8123 30.3445 19.9911 29.9845 19.7773C29.6245 19.9911 29.152 20.8348 29.197 21.5773C29.107 21.4198 29.0283 21.1611 28.7695 21.0598V21.8136L31.1995 21.8248Z" fill="white"/>
<path fill-rule="evenodd" clip-rule="evenodd" d="M29.3882 20.4549C29.5476 20.1205 29.7618 19.8443 29.9559 19.729H30.0133C30.2074 19.8442 30.4188 20.1147 30.5769 20.448C30.7034 20.7148 30.7989 21.0281 30.8237 21.3463C30.8931 21.2134 30.9933 21.0772 31.1799 21.0072L31.2559 21.0599V21.8249L31.1994 21.8811L28.7694 21.8699L28.7134 21.8136V21.0599L28.7901 21.0075C28.934 21.0638 29.0266 21.1638 29.0938 21.2668C29.1115 21.294 29.1276 21.3216 29.1424 21.3487C29.1638 21.0376 29.26 20.7239 29.3882 20.4549ZM29.4898 20.5033C29.3351 20.8279 29.2315 21.2149 29.2533 21.574L29.1483 21.6053C29.1301 21.5734 29.1122 21.5373 29.0942 21.5011C29.089 21.4905 29.0837 21.48 29.0785 21.4695C29.0546 21.422 29.0294 21.374 28.9995 21.3283C28.9545 21.2592 28.8998 21.1965 28.8259 21.1506V21.7576L31.1434 21.7684V21.1482C30.9975 21.2325 30.9339 21.3722 30.8698 21.513C30.8544 21.5468 30.839 21.5806 30.8224 21.6138L30.7159 21.5862C30.7323 21.2093 30.6284 20.8191 30.4752 20.4962C30.3299 20.1898 30.1445 19.9527 29.9847 19.8441C29.8246 19.9532 29.6366 20.1953 29.4898 20.5033Z" fill="black"/>
<path d="M31.0197 22.9725V22.2075C30.7385 22.275 30.7272 22.3763 30.6372 22.545C30.671 22.0838 30.3447 21.555 29.9847 21.3525C29.6247 21.555 29.3097 22.0838 29.3322 22.545C29.2422 22.3763 29.231 22.275 28.9497 22.2075V22.9725H31.0197Z" fill="white"/>
<path fill-rule="evenodd" clip-rule="evenodd" d="M29.9848 21.2881L30.0124 21.3036C30.2032 21.4109 30.3814 21.6021 30.5076 21.824C30.5977 21.9824 30.6629 22.1595 30.6864 22.3368C30.6951 22.3245 30.7045 22.3125 30.715 22.3008C30.7747 22.2342 30.8602 22.1881 31.0067 22.1529L31.0761 22.1363V23.0289H28.8936V22.1363L28.9629 22.1529C29.1094 22.1881 29.1949 22.2342 29.2546 22.3008C29.2663 22.3138 29.2767 22.3273 29.2861 22.341C29.3111 22.1626 29.3762 21.9841 29.4661 21.8243C29.5907 21.6025 29.7661 21.4111 29.9572 21.3036L29.9848 21.2881ZM29.5642 21.8794C29.447 22.0878 29.3779 22.3248 29.3885 22.5424L29.2827 22.5716C29.271 22.5497 29.2607 22.5291 29.2512 22.51C29.2504 22.5083 29.2495 22.5066 29.2487 22.505C29.2401 22.4877 29.2323 22.4719 29.2244 22.457C29.2072 22.4244 29.191 22.3984 29.1709 22.376C29.1396 22.3411 29.0938 22.3094 29.0061 22.2815V22.9164H30.9636V22.2815C30.8758 22.3094 30.83 22.3411 30.7987 22.376C30.7786 22.3984 30.7624 22.4244 30.7452 22.457C30.7373 22.4719 30.7295 22.4876 30.7209 22.505C30.7201 22.5066 30.7193 22.5083 30.7184 22.51C30.7089 22.5291 30.6986 22.5497 30.6869 22.5716L30.5812 22.541C30.5971 22.3244 30.5283 22.088 30.4098 21.8796C30.2978 21.6826 30.1442 21.5159 29.9848 21.4179C29.8259 21.5158 29.675 21.6822 29.5642 21.8794Z" fill="black"/>
<path d="M19.162 25.7849V23.4899C19.0833 23.1974 18.8245 22.9274 18.6445 22.8824V20.8574L19.0608 21.0824L19.5445 23.2087V25.7962L19.162 25.7849Z" fill="white"/>
<path fill-rule="evenodd" clip-rule="evenodd" d="M18.5884 20.7632L19.1101 21.0452L19.6009 23.2025V25.8542L19.1059 25.8396V23.4976C19.0684 23.3638 18.9901 23.2335 18.8992 23.1307C18.8054 23.0247 18.705 22.9556 18.631 22.9371L18.5884 22.9264V20.7632ZM18.7009 20.9519V22.8416C18.7953 22.8782 18.8964 22.9578 18.9835 23.0562C19.085 23.171 19.1744 23.3191 19.2164 23.4754L19.2184 23.4826V25.7304L19.4884 25.7383V23.2151L19.0117 21.1199L18.7009 20.9519Z" fill="black"/>
<path d="M19.162 25.7959V23.4897C19.0833 23.1972 18.8245 22.9272 18.6445 22.8822V20.7222C18.9258 20.7222 19.0608 21.0822 19.0608 21.0822L19.5445 23.2084V25.7847L19.162 25.7959Z" fill="white"/>
<path fill-rule="evenodd" clip-rule="evenodd" d="M18.5884 20.666H18.6446C18.8113 20.666 18.9299 20.7727 19.0029 20.8681C19.04 20.9166 19.0675 20.9648 19.0856 21.0007C19.0947 21.0187 19.1016 21.0338 19.1062 21.0445C19.1085 21.0499 19.1103 21.0542 19.1115 21.0573L19.1129 21.0609L19.1133 21.062L19.1135 21.0623L19.1135 21.0624C19.1135 21.0624 19.1135 21.0625 19.0609 21.0823L19.1135 21.0624L19.1149 21.0661L19.6009 23.2022V25.8394L19.1059 25.8539V23.4973C19.0684 23.3636 18.9901 23.2332 18.8992 23.1305C18.8054 23.0245 18.705 22.9553 18.631 22.9368L18.5884 22.9262V20.666ZM19.007 21.0989C19.0061 21.0966 19.0047 21.0933 19.0029 21.0891C18.999 21.0801 18.9931 21.0671 18.9852 21.0514C18.9692 21.0198 18.9453 20.978 18.9136 20.9365C18.8598 20.8662 18.789 20.8038 18.7009 20.7846V22.8414C18.7953 22.878 18.8964 22.9575 18.9835 23.0559C19.085 23.1707 19.1744 23.3189 19.2164 23.4751L19.2184 23.4823V25.7381L19.4884 25.7301V23.2148L19.007 21.0989Z" fill="black"/>
<path d="M18.8584 26.3809C19.0496 26.3021 19.3309 26.0546 19.3309 25.8184V22.9384L19.1959 22.7134H24.1121L23.9209 22.9384V25.8184C23.9292 25.9376 23.9689 26.0525 24.0361 26.1513C24.1033 26.2502 24.1956 26.3294 24.3034 26.3809H18.8584Z" fill="white"/>
<path fill-rule="evenodd" clip-rule="evenodd" d="M19.0965 22.6572H24.2337L23.9771 22.9592V25.8165C23.9849 25.9251 24.0213 26.0297 24.0826 26.1198C24.1442 26.2104 24.2287 26.283 24.3276 26.3302L24.3033 26.4372H18.8583L18.8369 26.329C18.9241 26.2931 19.0357 26.2166 19.1251 26.1205C19.2156 26.0233 19.2746 25.9156 19.2746 25.8185V22.9541L19.0965 22.6572ZM19.2952 22.7697L19.3871 22.9229V25.8185C19.3871 25.9576 19.3055 26.0918 19.2075 26.1971C19.1636 26.2442 19.1148 26.2875 19.0649 26.3247H24.1156C24.0678 26.2834 24.0254 26.2358 23.9895 26.1831C23.9167 26.076 23.8737 25.9515 23.8647 25.8224L23.8646 25.8204V22.9178L23.9904 22.7697H19.2952Z" fill="black"/>
<path d="M23.3019 26.3809C23.1107 26.3021 22.8294 26.0546 22.8294 25.8184V23.0847L23.2344 22.7021H19.9044L20.3094 23.0847V25.8184C20.3094 26.0546 20.0282 26.3021 19.8369 26.3809H23.3019Z" fill="white"/>
<path fill-rule="evenodd" clip-rule="evenodd" d="M19.7632 22.646H23.3761L22.8859 23.109V25.8185C22.8859 25.9156 22.9449 26.0233 23.0354 26.1205C23.1248 26.2166 23.2364 26.2931 23.3236 26.329L23.3022 26.4372H19.8372L19.8157 26.329C19.903 26.2931 20.0145 26.2166 20.104 26.1205C20.1944 26.0233 20.2534 25.9156 20.2534 25.8185V23.109L19.7632 22.646ZM20.0461 22.7585L20.3659 23.0605V25.8185C20.3659 25.9576 20.2843 26.0918 20.1863 26.1971C20.1425 26.2442 20.0936 26.2875 20.0437 26.3247H23.0956C23.0457 26.2875 22.9969 26.2442 22.953 26.1971C22.855 26.0918 22.7734 25.9576 22.7734 25.8185V23.0605L23.0932 22.7585H20.0461Z" fill="black"/>
<path d="M22.8408 26.3809C22.6496 26.3022 22.3571 26.0547 22.3571 25.8184V23.3434L22.6271 22.9722H20.5121L20.7821 23.3434V25.8184C20.7821 26.0547 20.5008 26.3022 20.2983 26.3809H22.8408Z" fill="white"/>
<path fill-rule="evenodd" clip-rule="evenodd" d="M20.4015 22.916H22.7374L22.4132 23.3618V25.8185C22.4132 25.9149 22.4742 26.0223 22.5677 26.1199C22.66 26.2162 22.7745 26.2929 22.8621 26.329L22.8407 26.4373H20.2982L20.2778 26.3286C20.3704 26.2926 20.4845 26.2161 20.5751 26.1202C20.6668 26.0232 20.7257 25.9155 20.7257 25.8185V23.3618L20.4015 22.916ZM20.6224 23.0285L20.8382 23.3252V25.8185C20.8382 25.9577 20.7565 26.092 20.6569 26.1974C20.6125 26.2444 20.5629 26.2876 20.5118 26.3248H22.632C22.5814 26.2877 22.5315 26.2446 22.4865 26.1977C22.386 26.0928 22.3007 25.9584 22.3007 25.8185V23.3252L22.5165 23.0285H20.6224Z" fill="black"/>
<path d="M21.0747 22.9722H22.076V26.3922H21.0635L21.0747 22.9722Z" fill="white"/>
<path fill-rule="evenodd" clip-rule="evenodd" d="M21.0185 22.916H22.132V26.4485H21.0068L21.0185 22.916ZM21.1306 23.0285L21.1197 26.336H22.0195V23.0285H21.1306Z" fill="black"/>
<path d="M19.691 23.9172H20.096V25.7734H19.691V23.9172ZM23.156 23.9172H23.5498V25.7734H23.1448L23.156 23.9172ZM19.3423 20.7897H19.8373V22.7022H19.3423V20.7897ZM19.3423 20.4297H19.826V20.7897H19.3423V20.4297ZM23.3473 21.2059H24.0335V22.6684H23.3473V21.2059Z" fill="white"/>
<path fill-rule="evenodd" clip-rule="evenodd" d="M19.2856 20.4298L19.3419 20.3735H19.8256L19.8819 20.4298V20.7785L19.8931 20.7898V22.7023L19.8369 22.7585H19.3419L19.2856 22.7023V20.4298ZM19.3981 20.846V22.646H19.7806V20.846H19.3981ZM19.7694 20.7335H19.3981V20.486H19.7694V20.7335ZM23.2906 21.206L23.3469 21.1498H24.0331L24.0894 21.206V22.6685L24.0331 22.7248H23.3469L23.2906 22.6685V21.206ZM23.4031 21.2623V22.6123H23.9769V21.2623H23.4031ZM19.6344 23.9173L19.6906 23.861H20.0956L20.1519 23.9173V25.7735L20.0956 25.8298H19.6906L19.6344 25.7735V23.9173ZM19.7469 23.9735V25.7173H20.0394V23.9735H19.7469ZM23.0994 23.9169L23.1556 23.861H23.5494L23.6056 23.9173V25.7735L23.5494 25.8298H23.1444L23.0881 25.7732L23.0994 23.9169ZM23.2116 23.9735L23.201 25.7173H23.4931V23.9735H23.2116Z" fill="black"/>
<path d="M19.8261 22.6797V19.4172C19.9611 19.4172 19.9836 19.9009 20.2986 19.9009C20.4673 19.9009 20.4561 19.6984 20.3548 19.5409C20.2761 19.3947 20.1748 19.2034 20.3098 18.8322C20.4111 19.1134 20.6586 19.2034 20.6136 19.0347C20.5348 18.7309 20.2986 18.6747 20.4786 18.2134C20.5348 18.5959 20.7823 18.5847 20.7261 18.3597C20.6586 18.1009 20.5123 17.9884 20.6923 17.6284C20.7936 18.0447 20.9173 18.0222 20.9173 17.7634C20.9173 17.3809 20.9173 16.9759 21.3898 16.8297C21.3898 16.8297 21.4236 16.4922 21.6036 16.4922C21.7723 16.4922 21.8061 16.8297 21.8061 16.8297C22.2898 16.9759 22.2786 17.3922 22.2786 17.7634C22.2786 18.0222 22.4023 18.0447 22.5036 17.6284C22.6836 17.9884 22.5373 18.1009 22.4698 18.3597C22.4136 18.5847 22.6611 18.5959 22.7173 18.2134C22.8973 18.6747 22.6611 18.7309 22.5823 19.0347C22.5373 19.2034 22.7848 19.1134 22.8861 18.8322C23.0211 19.2034 22.9198 19.3947 22.8411 19.5409C22.7511 19.6984 22.7286 19.9009 22.8973 19.9009C23.2123 19.9009 23.2348 19.4284 23.3698 19.4284V22.6797H19.8261ZM19.0498 20.2159V22.7022H19.3311V20.2159C19.2298 20.1597 19.1398 20.1597 19.0498 20.2159Z" fill="white"/>
<path fill-rule="evenodd" clip-rule="evenodd" d="M21.4454 16.8354L21.4417 16.8725L21.406 16.8835C21.1872 16.9513 21.0823 17.0758 21.029 17.2268C20.9738 17.3833 20.9732 17.5699 20.9732 17.7635C20.9732 17.8312 20.9653 17.8897 20.948 17.9316C20.9394 17.9524 20.9264 17.9744 20.9057 17.9896C20.8823 18.0068 20.8534 18.0118 20.8251 18.0027C20.8001 17.9946 20.7801 17.9771 20.7646 17.9587C20.7485 17.9396 20.7335 17.9152 20.7193 17.8865C20.7071 17.8618 20.695 17.8327 20.6831 17.799C20.656 17.8904 20.6578 17.9588 20.671 18.0204C20.6812 18.0681 20.6985 18.1136 20.719 18.1667L20.7211 18.1718C20.7408 18.2227 20.7629 18.2795 20.7801 18.3456L20.7802 18.3461C20.7962 18.4101 20.7937 18.4703 20.7668 18.5148C20.7529 18.5377 20.7327 18.5559 20.7072 18.5657C20.6818 18.5755 20.6547 18.5757 20.6293 18.5687C20.5796 18.5552 20.5351 18.515 20.5005 18.4588C20.4923 18.4454 20.4844 18.4308 20.477 18.4149C20.4718 18.4443 20.4691 18.4709 20.4685 18.4952C20.4668 18.5608 20.4798 18.6126 20.5004 18.6613C20.5162 18.6985 20.5353 18.7321 20.557 18.7702C20.5653 18.7847 20.5739 18.7998 20.5828 18.816C20.6142 18.8731 20.6462 18.9382 20.6676 19.0205C20.6801 19.0679 20.6809 19.1308 20.6275 19.1623C20.6039 19.1763 20.5778 19.1778 20.5557 19.1747C20.5334 19.1716 20.511 19.1632 20.4898 19.152C20.4338 19.1223 20.3726 19.0653 20.3219 18.9855C20.2956 19.098 20.2952 19.1878 20.3073 19.262C20.3238 19.3634 20.3639 19.44 20.4029 19.5125C20.4571 19.5975 20.4905 19.6988 20.4836 19.7846C20.4801 19.8286 20.4655 19.8728 20.4325 19.9064C20.3987 19.9407 20.3521 19.9573 20.2982 19.9573C20.1048 19.9573 20.0064 19.8061 19.9443 19.6848C19.931 19.6587 19.9186 19.6325 19.9072 19.6084C19.905 19.6036 19.9028 19.599 19.9006 19.5945C19.8941 19.5807 19.8879 19.5678 19.8819 19.5558V22.6235H23.3132V19.5645C23.3071 19.5762 23.3009 19.589 23.2942 19.6026C23.2921 19.6071 23.2899 19.6116 23.2877 19.6162C23.2762 19.6398 23.2639 19.6654 23.2505 19.6909C23.1881 19.81 23.0896 19.9573 22.8969 19.9573C22.843 19.9573 22.7965 19.9407 22.7633 19.9055C22.7312 19.8714 22.7182 19.8268 22.7156 19.7835C22.7105 19.6984 22.7437 19.5976 22.7915 19.5138C22.8307 19.4409 22.8712 19.364 22.8878 19.262C22.8999 19.1878 22.8995 19.098 22.8732 18.9855C22.8225 19.0653 22.7613 19.1223 22.7053 19.152C22.6841 19.1632 22.6617 19.1716 22.6394 19.1747C22.6173 19.1778 22.5912 19.1763 22.5676 19.1623C22.5141 19.1308 22.5149 19.0678 22.5275 19.0205C22.5489 18.9382 22.5809 18.8731 22.6123 18.816C22.6212 18.7998 22.6298 18.7847 22.6381 18.7702C22.6598 18.7321 22.6789 18.6985 22.6946 18.6613C22.7152 18.6126 22.7283 18.5608 22.7266 18.4952C22.726 18.4709 22.7233 18.4443 22.7181 18.4149C22.7107 18.4308 22.7028 18.4454 22.6945 18.4588C22.66 18.515 22.6155 18.5552 22.5658 18.5687C22.5403 18.5757 22.5133 18.5755 22.4879 18.5657C22.4624 18.5559 22.4422 18.5377 22.4283 18.5148C22.4014 18.4703 22.3988 18.4101 22.4148 18.3461L22.415 18.3456C22.4322 18.2795 22.4543 18.2227 22.474 18.1718L22.476 18.1667C22.4966 18.1136 22.5139 18.0681 22.5241 18.0204C22.5372 17.9588 22.5391 17.8904 22.512 17.799C22.5001 17.8327 22.4879 17.8618 22.4757 17.8865C22.4616 17.9152 22.4466 17.9396 22.4305 17.9587C22.4149 17.9771 22.395 17.9946 22.37 18.0027C22.3416 18.0118 22.3127 18.0068 22.2894 17.9896C22.2687 17.9744 22.2556 17.9524 22.2471 17.9316C22.2298 17.8897 22.2219 17.8312 22.2219 17.7635C22.2219 17.7565 22.2219 17.7495 22.2219 17.7425C22.222 17.561 22.2221 17.3826 22.1701 17.2305C22.1181 17.0784 22.0134 16.9514 21.7894 16.8836L21.7534 16.8728L21.7497 16.8354L21.7496 16.8349L21.7494 16.8325C21.7491 16.8304 21.7487 16.8271 21.7481 16.8228C21.747 16.8144 21.7451 16.802 21.7424 16.7872C21.7369 16.7573 21.7281 16.7181 21.7146 16.6796C21.7009 16.6404 21.6836 16.6056 21.6631 16.5814C21.6434 16.5582 21.624 16.5485 21.6032 16.5485C21.5781 16.5485 21.5564 16.5595 21.5356 16.5826C21.5139 16.6068 21.4959 16.6415 21.4816 16.6804C21.4675 16.7187 21.4584 16.7577 21.4528 16.7875C21.45 16.8023 21.4481 16.8145 21.4469 16.823C21.4464 16.8272 21.446 16.8304 21.4457 16.8326L21.4454 16.8349L21.4454 16.8354ZM21.8566 16.7871C21.8556 16.781 21.8544 16.7742 21.8531 16.7669C21.847 16.7335 21.8368 16.6883 21.8208 16.6425C21.805 16.5973 21.7821 16.5477 21.7489 16.5086C21.7148 16.4686 21.6667 16.436 21.6032 16.436C21.5382 16.436 21.4882 16.4672 21.452 16.5074C21.4168 16.5466 21.3926 16.5962 21.376 16.6417C21.3591 16.6877 21.3486 16.7331 21.3422 16.7666C21.3408 16.7741 21.3396 16.781 21.3386 16.7873C21.1072 16.8685 20.9848 17.0141 20.9229 17.1893C20.8607 17.3658 20.8607 17.5708 20.8607 17.7582V17.7635C20.8607 17.8189 20.8546 17.8579 20.8467 17.8813C20.8392 17.8714 20.8302 17.8569 20.8202 17.8367C20.7969 17.7894 20.7714 17.7171 20.7466 17.6152L20.7103 17.466L20.6416 17.6034C20.5471 17.7923 20.5353 17.9234 20.561 18.0439C20.5733 18.1017 20.594 18.1553 20.6142 18.2073L20.6156 18.211C20.6356 18.2626 20.6556 18.3141 20.6712 18.3737C20.6832 18.422 20.6759 18.4476 20.6705 18.4565C20.6693 18.4586 20.6682 18.4596 20.6677 18.4601C20.6675 18.4603 20.6673 18.4604 20.6671 18.4605C20.6669 18.4607 20.6667 18.4607 20.6666 18.4608C20.6666 18.4608 20.6644 18.4617 20.6589 18.4602C20.6467 18.4569 20.6224 18.4422 20.5964 18.4C20.5711 18.3587 20.5471 18.2954 20.5338 18.2054L20.5029 17.9953L20.4258 18.1931C20.3792 18.3124 20.3582 18.409 20.356 18.4923C20.3538 18.5764 20.371 18.6441 20.3968 18.7051C20.4153 18.7489 20.4392 18.7909 20.462 18.8308C20.4696 18.8442 20.4771 18.8574 20.4843 18.8703C20.5136 18.9236 20.5407 18.9794 20.5587 19.0489L20.5588 19.0493C20.56 19.0539 20.5609 19.0577 20.5614 19.0609C20.5563 19.0592 20.5499 19.0565 20.5425 19.0526C20.4882 19.0238 20.4092 18.9433 20.3623 18.8132L20.3097 18.667L20.2566 18.8131C20.1863 19.0062 20.1762 19.1566 20.1962 19.2801C20.2162 19.4028 20.2655 19.4945 20.3049 19.5677L20.3059 19.5696L20.3071 19.5715C20.3535 19.6436 20.3758 19.7214 20.3715 19.7756C20.3694 19.802 20.3615 19.8182 20.3523 19.8275C20.3439 19.836 20.3286 19.8448 20.2982 19.8448C20.1765 19.8448 20.1062 19.7541 20.0445 19.6335C20.032 19.6092 20.0205 19.5848 20.0091 19.5607C20.0068 19.5559 20.0045 19.5511 20.0023 19.5462C19.9889 19.518 19.9752 19.4897 19.9609 19.4649C19.9469 19.4405 19.9305 19.4159 19.9102 19.397C19.8893 19.3774 19.8611 19.361 19.8257 19.361H19.7694V22.736H23.4257V19.3723H23.3694C23.3344 19.3723 23.3064 19.3881 23.2853 19.4073C23.265 19.4259 23.2485 19.45 23.2344 19.4739C23.2202 19.4982 23.2064 19.5259 23.193 19.5535C23.1908 19.5582 23.1885 19.5629 23.1862 19.5676C23.1748 19.5912 23.1633 19.6149 23.1508 19.6387C23.0895 19.7558 23.0192 19.8448 22.8969 19.8448C22.8665 19.8448 22.8525 19.8361 22.8452 19.8284C22.837 19.8196 22.8295 19.8037 22.8279 19.7767C22.8246 19.7214 22.8475 19.6425 22.8895 19.5689L22.8899 19.5683L22.8902 19.5677C22.9296 19.4945 22.9789 19.4028 22.9988 19.2801C23.0189 19.1566 23.0088 19.0062 22.9385 18.8131L22.8854 18.667L22.8327 18.8132C22.7859 18.9433 22.7069 19.0238 22.6526 19.0526C22.6451 19.0565 22.6388 19.0592 22.6336 19.0609C22.6342 19.0577 22.635 19.0539 22.6363 19.0493L22.6364 19.0489C22.6544 18.9794 22.6814 18.9236 22.7108 18.8703C22.7179 18.8574 22.7254 18.8442 22.7331 18.8308C22.7558 18.7909 22.7797 18.7489 22.7982 18.7051C22.8241 18.6441 22.8412 18.5764 22.8391 18.4923C22.8369 18.409 22.8159 18.3124 22.7693 18.1931L22.6921 17.9953L22.6613 18.2054C22.648 18.2954 22.624 18.3587 22.5987 18.4C22.5727 18.4422 22.5484 18.4569 22.5362 18.4602C22.5307 18.4617 22.5285 18.4608 22.5284 18.4608C22.5284 18.4607 22.5283 18.4607 22.5281 18.4606C22.5279 18.4605 22.5277 18.4604 22.5274 18.4601C22.5268 18.4596 22.5258 18.4586 22.5246 18.4565C22.5192 18.4476 22.5119 18.422 22.5239 18.3737C22.5395 18.3141 22.5595 18.2626 22.5795 18.211L22.5809 18.2073C22.6011 18.1553 22.6218 18.1017 22.6341 18.0439C22.6598 17.9234 22.6479 17.7923 22.5535 17.6034L22.4848 17.466L22.4485 17.6152C22.4237 17.7171 22.3982 17.7894 22.3748 17.8367C22.3649 17.8569 22.3559 17.8714 22.3483 17.8813C22.3405 17.8579 22.3344 17.8189 22.3344 17.7635C22.3344 17.7543 22.3344 17.7451 22.3344 17.7358C22.3346 17.5602 22.3348 17.3645 22.2765 17.1941C22.2161 17.0171 22.0934 16.8685 21.8566 16.7871ZM22.6331 19.075C22.633 19.075 22.6328 19.0745 22.6327 19.0732C22.6331 19.0742 22.6332 19.0749 22.6331 19.075ZM20.562 19.075C20.5619 19.0749 20.562 19.0742 20.5624 19.0732C20.5623 19.0745 20.5621 19.075 20.562 19.075ZM20.575 19.0636C20.5751 19.0636 20.5751 19.0636 20.5751 19.0636L20.575 19.0636ZM19.1858 20.1176C19.244 20.1176 19.3012 20.1353 19.358 20.1669L19.3869 20.1829V22.7585H18.9932V20.1849L19.0196 20.1683C19.0721 20.1355 19.1273 20.1176 19.1858 20.1176ZM19.1057 20.2492V22.646H19.2744V20.2507C19.2419 20.2364 19.2127 20.2301 19.1858 20.2301C19.1597 20.2301 19.1333 20.236 19.1057 20.2492Z" fill="black"/>
<path d="M19.0723 21.8249C19.421 22.0049 19.7698 22.2187 19.8598 22.7024H19.0723V21.8249ZM23.9323 21.0824V22.7024H24.1573V21.0824C24.0898 21.0487 23.9885 21.0374 23.9323 21.0824Z" fill="white"/>
<path fill-rule="evenodd" clip-rule="evenodd" d="M24.0426 20.9968C24.0916 20.9985 24.1417 21.0118 24.1825 21.0322L24.2136 21.0477V22.7588H23.8761V21.0555L23.8972 21.0386C23.9397 21.0046 23.9943 20.9951 24.0426 20.9968ZM23.9886 21.1154V22.6463H24.1011V21.1203C24.0812 21.114 24.0596 21.1099 24.0387 21.1092C24.0186 21.1085 24.0018 21.1109 23.9886 21.1154ZM19.0161 21.7327L19.0982 21.775C19.448 21.9556 19.8199 22.1801 19.9152 22.6922L19.9275 22.7588H19.0161V21.7327ZM19.1286 21.9182V22.6463H19.7901C19.6958 22.2712 19.4271 22.0789 19.1286 21.9182Z" fill="black"/>
<path d="M24.1571 21.8246C23.8084 21.9933 23.4596 22.1958 23.3696 22.6908H24.1571V21.8246ZM21.8396 18.0333L22.0421 17.8646V17.6396C21.9746 17.6396 21.9296 17.6733 21.8734 17.7521C21.8515 17.6798 21.8154 17.6127 21.767 17.5547C21.7187 17.4967 21.6592 17.4491 21.5921 17.4146C21.524 17.4466 21.463 17.492 21.4128 17.548C21.3625 17.6041 21.3241 17.6696 21.2996 17.7408C21.2434 17.6621 21.2096 17.6508 21.1309 17.6283V17.8533L21.3334 18.0333H21.8396Z" fill="white"/>
<path fill-rule="evenodd" clip-rule="evenodd" d="M21.5933 17.3521L21.6179 17.3647C21.6918 17.4027 21.7572 17.4551 21.8104 17.5189C21.8425 17.5574 21.8697 17.5996 21.8915 17.6445C21.9012 17.6354 21.9113 17.6272 21.9218 17.62C21.9584 17.595 21.9977 17.5835 22.0422 17.5835H22.0985V17.8911L21.8601 18.0897H21.3121L21.0747 17.8787V17.5539L21.1464 17.5744C21.1845 17.5853 21.2202 17.5955 21.2531 17.6156C21.2636 17.6221 21.2736 17.6293 21.2831 17.6375C21.307 17.5918 21.3365 17.5492 21.371 17.5107C21.4263 17.449 21.4933 17.3991 21.5683 17.3638L21.5933 17.3521ZM21.5911 17.4783C21.5399 17.506 21.4937 17.5423 21.4548 17.5858C21.4095 17.6362 21.3749 17.6952 21.3529 17.7593L21.3174 17.8626L21.2539 17.7737C21.2281 17.7375 21.2108 17.7216 21.1944 17.7116C21.1921 17.7102 21.1897 17.7088 21.1872 17.7075V17.8282L21.3548 17.9772H21.8193L21.986 17.8384V17.7125C21.9858 17.7126 21.9856 17.7127 21.9854 17.7129C21.9667 17.7256 21.946 17.7475 21.9192 17.7849L21.8527 17.878L21.8196 17.7685C21.8 17.7035 21.7674 17.6431 21.7239 17.5909C21.6864 17.5459 21.6415 17.5078 21.5911 17.4783ZM24.2135 21.735V22.7472H23.3023L23.3144 22.6809C23.4097 22.1568 23.7823 21.9436 24.1327 21.7741L24.2135 21.735ZM23.4391 22.6347H24.101V21.9152C23.8021 22.0665 23.5331 22.2508 23.4391 22.6347Z" fill="black"/>
<path d="M21.9521 18.5847L22.0421 18.371V18.0897C21.9746 18.0897 21.9296 18.1235 21.8734 18.2022C21.8515 18.13 21.8154 18.0629 21.767 18.0049C21.7187 17.9469 21.6592 17.8993 21.5921 17.8647C21.524 17.8968 21.463 17.9422 21.4128 17.9982C21.3625 18.0543 21.3241 18.1198 21.2996 18.191C21.2434 18.1122 21.2096 18.101 21.1309 18.0897V18.371L21.2209 18.5847H21.9521Z" fill="white"/>
<path fill-rule="evenodd" clip-rule="evenodd" d="M21.5933 17.8022L21.6179 17.8149C21.6918 17.8529 21.7572 17.9053 21.8104 17.9691C21.8425 18.0076 21.8697 18.0498 21.8915 18.0946C21.9012 18.0856 21.9113 18.0774 21.9218 18.0702C21.9584 18.0452 21.9977 18.0337 22.0422 18.0337H22.0985V18.3825L21.9896 18.6412H21.1836L21.0747 18.3825V18.0251L21.1389 18.0342C21.1784 18.0399 21.2158 18.0465 21.2511 18.0661C21.2624 18.0723 21.2729 18.0796 21.283 18.088C21.3068 18.0422 21.3364 17.9995 21.371 17.9609C21.4263 17.8992 21.4933 17.8493 21.5683 17.814L21.5933 17.8022ZM21.5911 17.9285C21.5399 17.9562 21.4937 17.9925 21.4548 18.036C21.4095 18.0864 21.3749 18.1454 21.3529 18.2095L21.3174 18.3128L21.2539 18.2239C21.2278 18.1873 21.2111 18.1726 21.1965 18.1644C21.1935 18.1628 21.1905 18.1613 21.1872 18.1599V18.3598L21.2583 18.5287H21.9149L21.986 18.3598V18.1627C21.9858 18.1628 21.9856 18.1629 21.9854 18.1631C21.9667 18.1758 21.946 18.1977 21.9192 18.2351L21.8527 18.3282L21.8196 18.2187C21.8 18.1537 21.7674 18.0933 21.7239 18.0411C21.6864 17.9961 21.6415 17.958 21.5911 17.9285Z" fill="black"/>
<path d="M21.9745 19.3274L22.267 18.9561V18.5961C22.1545 18.5961 22.0983 18.6524 22.0195 18.7761C21.9408 18.5174 21.7945 18.4724 21.592 18.3486C21.3783 18.4611 21.232 18.5174 21.1645 18.7649C21.0745 18.6411 21.0183 18.6074 20.9058 18.5961V18.9561L21.2095 19.3274H21.9745Z" fill="white"/>
<path fill-rule="evenodd" clip-rule="evenodd" d="M21.5942 18.2837L21.6214 18.3004C21.6496 18.3175 21.6778 18.3338 21.7056 18.3498C21.7714 18.3877 21.8348 18.4242 21.888 18.4681C21.9468 18.5165 21.9958 18.575 22.0345 18.657C22.0539 18.6331 22.0741 18.6122 22.0962 18.595C22.1451 18.557 22.1998 18.5396 22.2671 18.5396H22.3234V18.9753L22.0019 19.3833H21.183L20.8496 18.9759V18.5337L20.9115 18.5399C20.9726 18.546 21.0245 18.5588 21.0741 18.5907C21.099 18.6067 21.1221 18.6267 21.1449 18.6511C21.1807 18.5704 21.2284 18.5113 21.2878 18.4624C21.3525 18.4091 21.4312 18.3684 21.5154 18.3249C21.532 18.3162 21.5489 18.3075 21.5659 18.2986L21.5942 18.2837ZM21.3593 18.5493C21.2971 18.6005 21.2497 18.6662 21.2189 18.7794L21.188 18.8925L21.1191 18.7977C21.0754 18.7376 21.0438 18.705 21.0133 18.6854C20.9979 18.6755 20.9816 18.6681 20.9621 18.6626V18.9358L21.2363 19.2708H21.9473L22.2109 18.9364V18.6596C22.1938 18.6649 22.1791 18.673 22.1652 18.6838C22.1355 18.707 22.1061 18.7447 22.0671 18.8061L22.0014 18.9092L21.9658 18.7922C21.9295 18.6729 21.8792 18.6066 21.8165 18.5549C21.7707 18.5172 21.7202 18.4881 21.6589 18.4529C21.6374 18.4405 21.6146 18.4274 21.5902 18.4129C21.5812 18.4175 21.5725 18.422 21.5639 18.4265C21.4799 18.4701 21.4139 18.5043 21.3593 18.5493Z" fill="black"/>
<path d="M22.0535 20.0587C22.0535 20.0587 22.4135 19.755 22.4248 19.5862V19.1925C22.2898 19.2037 22.166 19.2375 22.0648 19.4063C21.9748 19.08 21.8398 18.99 21.5923 18.8438C21.3335 18.99 21.1985 19.08 21.1198 19.4063C21.0073 19.2375 20.8948 19.2038 20.7485 19.1813V19.5862C20.843 19.7647 20.9688 19.9247 21.1198 20.0587H22.0535Z" fill="white"/>
<path fill-rule="evenodd" clip-rule="evenodd" d="M21.5925 18.7788L21.6205 18.7953C21.7434 18.868 21.8461 18.9308 21.9284 19.0192C21.9931 19.0887 22.0435 19.1719 22.0846 19.2842C22.1222 19.2429 22.1628 19.2124 22.2061 19.1903C22.2762 19.1544 22.3494 19.1423 22.4197 19.1365L22.4806 19.1314V19.5881L22.4805 19.59C22.4767 19.6479 22.4446 19.709 22.4082 19.7628C22.3705 19.8185 22.3222 19.8748 22.2755 19.9244C22.2286 19.9742 22.1822 20.0184 22.1476 20.0501C22.1303 20.066 22.1158 20.0788 22.1057 20.0877C22.1006 20.0922 22.0966 20.0956 22.0938 20.098L22.0906 20.1007L22.0898 20.1015L22.0895 20.1017L22.0894 20.1018C22.0894 20.1018 22.0894 20.1018 22.0531 20.0588L22.0894 20.1018L22.0737 20.115H21.098L21.0821 20.1008C20.926 19.9624 20.7961 19.797 20.6984 19.6126L20.6919 19.6002V19.1157L20.7567 19.1257C20.8312 19.1371 20.9038 19.1523 20.973 19.1893C21.0162 19.2125 21.0567 19.2433 21.0955 19.2848C21.1332 19.1726 21.182 19.089 21.247 19.0192C21.3297 18.9304 21.4357 18.8675 21.5642 18.7948L21.5925 18.7788ZM22.0322 20.0025C22.0418 19.9942 22.0553 19.9821 22.0716 19.9672C22.1048 19.9367 22.1491 19.8945 22.1936 19.8472C22.2383 19.7998 22.2821 19.7485 22.3151 19.6998C22.3486 19.6501 22.3658 19.6106 22.3681 19.5841V19.2559C22.3282 19.2625 22.2916 19.2729 22.2574 19.2904C22.2075 19.3159 22.1586 19.3586 22.1126 19.4352L22.0451 19.5478L22.0102 19.4212C21.9668 19.2642 21.9142 19.169 21.846 19.0959C21.7818 19.0269 21.7013 18.9744 21.5913 18.9088C21.476 18.9746 21.3934 19.0271 21.3293 19.0959C21.2618 19.1684 21.2119 19.2628 21.1741 19.4195L21.1439 19.5445L21.0726 19.4375C21.0204 19.3592 20.9707 19.3157 20.9199 19.2885C20.8848 19.2697 20.8473 19.2577 20.8044 19.2485V19.5722C20.8916 19.7335 21.0054 19.879 21.141 20.0025H22.0322Z" fill="black"/>
<path d="M22.1998 21.4083C22.1998 21.4083 22.6948 20.8796 22.706 20.6658V20.0583C22.526 20.0808 22.346 20.2046 22.211 20.4633C22.0985 19.9571 21.9185 19.6083 21.5923 19.3608C21.2548 19.6083 21.0748 19.9571 20.9623 20.4633C20.8273 20.2046 20.6585 20.0808 20.4785 20.0583V20.6658C20.5123 20.8796 20.9735 21.4083 20.9735 21.4083H22.1998Z" fill="white"/>
<path fill-rule="evenodd" clip-rule="evenodd" d="M21.5929 19.291L21.6264 19.3164C21.9365 19.5517 22.1175 19.8736 22.2335 20.3169C22.3652 20.1252 22.529 20.0241 22.6991 20.0029L22.7624 19.995V20.6677L22.7623 20.6691C22.7587 20.7379 22.7185 20.8217 22.6704 20.9014C22.6207 20.9839 22.5562 21.0721 22.493 21.1524C22.4296 21.2329 22.3666 21.3065 22.3196 21.3599C22.2961 21.3866 22.2765 21.4084 22.2627 21.4234C22.2559 21.431 22.2504 21.4369 22.2467 21.4409L22.2425 21.4455L22.2413 21.4467L22.241 21.4471C22.241 21.4471 22.2409 21.4471 22.1999 21.4087L22.241 21.4471L22.2243 21.4649H20.948L20.9312 21.4457L20.9736 21.4087C20.9312 21.4457 20.9312 21.4457 20.9312 21.4457L20.9298 21.444L20.9258 21.4394C20.9224 21.4354 20.9173 21.4296 20.9109 21.422C20.8981 21.407 20.8798 21.3853 20.8577 21.3586C20.8135 21.3052 20.7543 21.2318 20.6938 21.1514C20.6335 21.0712 20.5714 20.9834 20.522 20.9014C20.4739 20.8216 20.4334 20.7402 20.4231 20.675L20.4224 20.6706V19.995L20.4856 20.0029C20.6563 20.0242 20.8117 20.1258 20.9402 20.316C21.0564 19.8731 21.2384 19.551 21.5591 19.3158L21.5929 19.291ZM20.9994 21.3524H22.1752C22.1766 21.3509 22.1781 21.3493 22.1796 21.3477C22.193 21.333 22.2121 21.3117 22.2352 21.2856C22.2813 21.2331 22.3428 21.1612 22.4046 21.0828C22.4665 21.0042 22.5278 20.9201 22.5741 20.8433C22.6215 20.7647 22.6473 20.7028 22.6499 20.6645V20.1272C22.5123 20.1656 22.3726 20.2757 22.261 20.4897L22.1897 20.6264L22.1562 20.4759C22.0493 19.9951 21.8828 19.667 21.5918 19.4321C21.2908 19.667 21.1242 19.9948 21.0173 20.4759L20.9838 20.6264L20.9125 20.4897C20.8005 20.275 20.6691 20.1657 20.5349 20.1274V20.6614C20.5426 20.7031 20.572 20.7664 20.6184 20.8433C20.665 20.9207 20.7245 21.0051 20.7837 21.0838C20.8428 21.1623 20.9009 21.2344 20.9444 21.2869C20.966 21.3131 20.984 21.3344 20.9965 21.3491C20.9975 21.3502 20.9985 21.3514 20.9994 21.3524Z" fill="black"/>
<path d="M22.1998 22.2073C22.1998 22.2073 22.616 21.7911 22.706 21.6111V21.0036C22.526 21.0261 22.346 21.1498 22.211 21.3973C22.1809 21.1926 22.1108 20.9958 22.0046 20.8182C21.8984 20.6407 21.7583 20.4857 21.5923 20.3623C21.2548 20.6098 21.0748 20.8911 20.9623 21.3973C20.8273 21.1498 20.6585 21.0261 20.4785 21.0036V21.6111C20.591 21.7911 20.9735 22.2073 20.9735 22.2073H22.1998Z" fill="white"/>
<path fill-rule="evenodd" clip-rule="evenodd" d="M21.5926 20.2925L21.6259 20.3173C21.7979 20.4451 21.943 20.6055 22.053 20.7895C22.1381 20.9319 22.2009 21.0862 22.2394 21.2471C22.3702 21.0671 22.5317 20.9688 22.6991 20.9478L22.7624 20.9399V21.6244L22.7564 21.6363C22.731 21.6871 22.6849 21.7508 22.6329 21.8155C22.5802 21.8811 22.5189 21.9509 22.4608 22.0147C22.4027 22.0785 22.3474 22.1365 22.3068 22.1786C22.2864 22.1997 22.2697 22.2168 22.258 22.2286C22.2522 22.2346 22.2476 22.2392 22.2445 22.2423L22.2409 22.2459L22.2397 22.2471L22.2396 22.2472C22.2396 22.2472 22.2396 22.2472 22.1999 22.2074L22.2396 22.2472L22.2232 22.2637H20.9489L20.9322 22.2455L20.9736 22.2074C20.9322 22.2455 20.9322 22.2455 20.9322 22.2455L20.9278 22.2406L20.9154 22.227C20.9046 22.2152 20.8892 22.1982 20.8703 22.1772C20.8325 22.1351 20.7809 22.0772 20.7258 22.0136C20.6167 21.8877 20.4899 21.7353 20.4309 21.641L20.4224 21.6273V20.9399L20.4856 20.9478C20.6559 20.9691 20.8111 21.0702 20.9396 21.2535C20.9921 21.0571 21.0583 20.8945 21.1451 20.7534C21.2508 20.5815 21.3857 20.4442 21.5591 20.317L21.5926 20.2925ZM20.9984 22.1512H22.1764C22.1769 22.1507 22.1774 22.1502 22.1779 22.1497C22.1893 22.1381 22.2058 22.1212 22.2259 22.1005C22.266 22.0589 22.3205 22.0016 22.3777 21.9389C22.4349 21.8761 22.4945 21.8081 22.5452 21.745C22.5918 21.6869 22.6288 21.6356 22.6499 21.5973V21.0722C22.5119 21.1104 22.3721 21.2197 22.2605 21.4243L22.1799 21.572L22.1555 21.4056C22.1264 21.2082 22.0588 21.0184 21.9564 20.8472C21.8612 20.6879 21.7377 20.5475 21.592 20.4329C21.4445 20.5459 21.3309 20.6661 21.2409 20.8123C21.1439 20.9699 21.0726 21.1604 21.0173 21.4096L20.9848 21.5559L20.913 21.4243C20.801 21.219 20.6695 21.1105 20.5349 21.0723V21.5947C20.5919 21.6815 20.7061 21.8191 20.8108 21.9399C20.8654 22.0029 20.9165 22.0603 20.9539 22.1019C20.9726 22.1227 20.9878 22.1395 20.9984 22.1512Z" fill="black"/>
<path d="M22.3685 22.68C22.256 22.1513 22.1435 21.7575 21.5698 21.3638C20.9848 21.7575 20.8835 22.1513 20.7598 22.68H22.3685Z" fill="white"/>
<path fill-rule="evenodd" clip-rule="evenodd" d="M21.5697 21.2954L21.6012 21.317C21.8945 21.5183 22.0726 21.7216 22.1914 21.9445C22.3094 22.1659 22.3669 22.4036 22.4232 22.668L22.4376 22.7359H20.6885L20.7046 22.6668C20.7663 22.4034 20.8239 22.1657 20.9418 21.9445C21.0606 21.7215 21.2389 21.5181 21.538 21.3168L21.5697 21.2954ZM20.8304 22.6234H22.2985C22.2469 22.3883 22.1924 22.1855 22.0921 21.9974C21.9872 21.8005 21.8306 21.6168 21.5691 21.4318C21.3026 21.6169 21.146 21.8005 21.0411 21.9974C20.9408 22.1855 20.8864 22.388 20.8304 22.6234Z" fill="black"/>
<path d="M22.6723 22.9723V22.2073C22.4023 22.3198 22.166 22.4661 22.076 22.6348C21.986 22.2073 21.7948 22.0273 21.5585 21.7686C21.3223 22.0273 21.1648 22.2186 21.0635 22.6348C20.9735 22.4661 20.7373 22.3086 20.4785 22.2073V22.9723H22.6723Z" fill="white"/>
<path fill-rule="evenodd" clip-rule="evenodd" d="M21.5586 21.6851L21.6002 21.7306C21.6184 21.7506 21.6365 21.7702 21.6544 21.7896C21.8442 21.9956 22.0075 22.1727 22.1015 22.5025C22.1493 22.4488 22.2087 22.3992 22.2748 22.3536C22.3831 22.279 22.5134 22.2125 22.6507 22.1553L22.7286 22.1229V23.0285H20.4224V22.1248L20.4991 22.1549C20.632 22.2069 20.76 22.2736 20.867 22.3499C20.9333 22.397 20.9929 22.4488 21.0406 22.5042C21.1457 22.153 21.301 21.9672 21.5171 21.7306L21.5586 21.6851ZM21.5588 21.8519C21.3486 22.0851 21.2104 22.2694 21.1183 22.648L21.0834 22.7914L21.014 22.6612C20.9747 22.5875 20.9007 22.512 20.8018 22.4415C20.7237 22.3859 20.6322 22.3349 20.5349 22.2917V22.916H22.6161V22.293C22.5134 22.3397 22.4187 22.3911 22.3387 22.4462C22.2382 22.5155 22.1648 22.5881 22.1257 22.6612L22.0529 22.7977L22.0211 22.6463C21.9413 22.2673 21.7814 22.0937 21.5706 21.8647C21.5667 21.8605 21.5628 21.8562 21.5588 21.8519Z" fill="black"/>
<path d="M16.2034 29.1712H43.7997V30.5774H16.2034V29.1712ZM15.4722 30.5774H44.5309V31.9837H15.4722V30.5774ZM17.6547 27.0562H42.3372V27.9674H17.6547V27.0562Z" fill="white"/>
<path fill-rule="evenodd" clip-rule="evenodd" d="M17.5985 27H42.3935V28.0237H17.5985V27ZM17.711 27.1125V27.9112H42.281V27.1125H17.711ZM16.1473 29.115H43.856V30.5212H44.5873V32.04H15.416V30.5212H16.1473V29.115ZM16.2598 30.5212H43.7435V29.2275H16.2598V30.5212ZM15.5285 30.6337V31.9275H44.4748V30.6337H15.5285Z" fill="black"/>
<path d="M16.9346 27.9676H43.0796V29.1601H16.9346V27.9676ZM18.0821 26.3589H41.9321V27.0564H18.0821V26.3589Z" fill="white"/>
<path fill-rule="evenodd" clip-rule="evenodd" d="M18.0259 26.3022H41.9884V27.1122H18.0259V26.3022ZM18.1384 26.4147V26.9997H41.8759V26.4147H18.1384ZM16.8784 27.911H43.1359V29.216H16.8784V27.911ZM16.9909 28.0235V29.1035H43.0234V28.0235H16.9909Z" fill="black"/>
<path d="M20.6699 26.3589H22.4699V31.9839H20.6699V26.3589Z" fill="white"/>
<path fill-rule="evenodd" clip-rule="evenodd" d="M20.6133 26.3022H22.5258V32.0397H20.6133V26.3022ZM20.7258 26.4147V31.9272H22.4133V26.4147H20.7258Z" fill="black"/>
<path d="M21.0747 26.3589H22.076V31.9839H21.0635L21.0747 26.3589ZM29.0622 26.3589H30.8622V31.9839H29.0622V26.3589Z" fill="white"/>
<path fill-rule="evenodd" clip-rule="evenodd" d="M21.0188 26.3022H22.1324V32.0397H21.0073L21.0188 26.3022ZM21.1311 26.4147L21.12 31.9272H22.0199V26.4147H21.1311ZM29.0062 26.3022H30.9187V32.0397H29.0062V26.3022ZM29.1187 26.4147V31.9272H30.8062V26.4147H29.1187Z" fill="black"/>
<path d="M29.4785 26.3589H30.491V31.9839H29.4785V26.3589ZM37.5223 26.3589H39.3223V31.9839H37.5223V26.3589Z" fill="white"/>
<path fill-rule="evenodd" clip-rule="evenodd" d="M29.4224 26.3022H30.5474V32.0397H29.4224V26.3022ZM29.5349 26.4147V31.9272H30.4349V26.4147H29.5349ZM37.4661 26.3022H39.3786V32.0397H37.4661V26.3022ZM37.5786 26.4147V31.9272H39.2661V26.4147H37.5786Z" fill="black"/>
<path d="M37.916 26.3589H38.9285V31.9839H37.916V26.3589Z" fill="white"/>
<path fill-rule="evenodd" clip-rule="evenodd" d="M37.8599 26.3022H38.9849V32.0397H37.8599V26.3022ZM37.9724 26.4147V31.9272H38.8724V26.4147H37.9724Z" fill="black"/>
<path fill-rule="evenodd" clip-rule="evenodd" d="M40.8746 25.841H19.1621V25.7285H40.8746V25.841ZM22.0871 27.1123H21.0521V26.9998H22.0871V27.1123ZM30.4571 27.1123H29.4896V26.9998H30.4571V27.1123ZM38.9396 27.1123H37.9046V26.9998H38.9396V27.1123ZM22.0871 27.8098H21.0521V27.6973H22.0871V27.8098ZM30.4571 27.8098H29.4896V27.6973H30.4571V27.8098ZM38.9396 27.8098H37.9046V27.6973H38.9396V27.8098ZM22.0871 28.5185H21.0521V28.406H22.0871V28.5185ZM30.4571 28.5185H29.4896V28.406H30.4571V28.5185ZM38.9396 28.5185H37.9046V28.406H38.9396V28.5185ZM22.0871 29.216H21.0521V29.1035H22.0871V29.216ZM30.4571 29.216H29.4896V29.1035H30.4571V29.216ZM38.9396 29.216H37.9046V29.1035H38.9396V29.216ZM22.0871 29.9248H21.0521V29.8123H22.0871V29.9248ZM30.4571 29.9248H29.4896V29.8123H30.4571V29.9248ZM38.9396 29.9248H37.9046V29.8123H38.9396V29.9248ZM22.0871 30.6223H21.0521V30.5098H22.0871V30.6223ZM30.4571 30.6223H29.4896V30.5098H30.4571V30.6223ZM38.9396 30.6223H37.9046V30.5098H38.9396V30.6223ZM22.0871 31.331H21.0521V31.2185H22.0871V31.331ZM30.4571 31.331H29.4896V31.2185H30.4571V31.331ZM38.9396 31.331H37.9046V31.2185H38.9396V31.331Z" fill="black"/>
</g>
<defs>
<clipPath id="clip0_59_61899">
<rect width="60" height="45" fill="white"/>
</clipPath>
</defs>
</svg>
