<svg width="60" height="45" viewBox="0 0 60 45" fill="none" xmlns="http://www.w3.org/2000/svg">
<g clip-path="url(#clip0_59_62221)">
<path fill-rule="evenodd" clip-rule="evenodd" d="M-3.75 0H63.75V45H-3.75V0Z" fill="#CE1126"/>
<path fill-rule="evenodd" clip-rule="evenodd" d="M-3.75 11.1846H63.75V33.8158H-3.75V11.1846Z" fill="#002868"/>
<path fill-rule="evenodd" clip-rule="evenodd" d="M39.6937 22.4999C39.6937 25.0708 38.6723 27.5365 36.8544 29.3544C35.0365 31.1723 32.5708 32.1937 29.9999 32.1937C27.429 32.1937 24.9633 31.1723 23.1454 29.3544C21.3275 27.5365 20.3062 25.0708 20.3062 22.4999C20.3062 19.929 21.3275 17.4633 23.1454 15.6454C24.9633 13.8275 27.429 12.8062 29.9999 12.8062C32.5708 12.8062 35.0365 13.8275 36.8544 15.6454C38.6723 17.4633 39.6937 19.929 39.6937 22.4999Z" fill="white"/>
</g>
<defs>
<clipPath id="clip0_59_62221">
<rect width="60" height="45" fill="white"/>
</clipPath>
</defs>
</svg>
