<svg width="60" height="45" viewBox="0 0 60 45" fill="none" xmlns="http://www.w3.org/2000/svg">
<g clip-path="url(#clip0_59_62304)">
<path d="M0 0H60V45H0V0Z" fill="#FFB700"/>
<path d="M2.50293 22.4998L10.7529 2.50293H19.0029V42.4967H10.7529L2.50293 22.4998Z" fill="#FF5B00"/>
<path d="M2.50293 2.50293H10.7529V42.4967H2.50293V2.50293Z" fill="#005641"/>
<path d="M21.4971 2.50293H57.7502V42.4967H21.4971V2.50293Z" fill="#8D2029"/>
<path d="M54.3096 38.3062C54.3096 38.3062 54.6471 38.9905 55.0221 39.2812C55.5846 39.6937 56.7096 39.6562 57.2064 40.153C57.7783 40.7249 57.1596 41.4843 57.1596 41.5593L57.1971 41.953C57.1971 41.953 56.8033 41.953 56.6346 41.9812C56.3908 42.0187 56.2971 42.2249 55.8283 42.1968C54.6752 42.1218 54.7221 41.0718 54.6564 40.1812C54.6002 39.8437 54.4689 39.3937 54.3846 39.0562C54.3189 38.7749 54.3096 38.3062 54.3096 38.3062Z" fill="#FFB700"/>
<path fill-rule="evenodd" clip-rule="evenodd" d="M54.3094 38.3064C54.2578 38.3075 54.2578 38.3075 54.2578 38.3075L54.2578 38.3089L54.2579 38.313C54.258 38.3166 54.2582 38.3218 54.2584 38.3286C54.2587 38.3421 54.2594 38.3617 54.2603 38.3861C54.2623 38.4348 54.2655 38.5027 54.2708 38.5795C54.2814 38.7323 54.3003 38.9232 54.3341 39.0681L54.3343 39.0689C54.3579 39.1633 54.3849 39.2656 54.4129 39.3714C54.4856 39.6469 54.5645 39.9458 54.605 40.1876C54.6106 40.264 54.6154 40.3421 54.6202 40.4211C54.6432 40.7956 54.6674 41.1896 54.786 41.5129C54.8586 41.7109 54.9678 41.8861 55.1362 42.0165C55.3047 42.1469 55.5285 42.2292 55.8248 42.2485L55.825 42.2485C56.0688 42.2631 56.218 42.2166 56.3375 42.1605C56.3668 42.1468 56.394 42.1327 56.4197 42.1192C56.4217 42.1181 56.4238 42.117 56.4259 42.116C56.4495 42.1036 56.4715 42.0921 56.4938 42.0814C56.5416 42.0584 56.5881 42.0407 56.6422 42.0324L56.6428 42.0323C56.7232 42.0189 56.8605 42.0119 56.9804 42.0084C57.0398 42.0066 57.0939 42.0057 57.1333 42.0053C57.1529 42.0051 57.1689 42.005 57.1799 42.0049L57.1925 42.0049L57.1966 42.0049L57.2536 42.0049L57.2115 41.5629C57.2119 41.5617 57.2125 41.5604 57.2132 41.5587C57.2168 41.5508 57.2223 41.54 57.2301 41.5257C57.2367 41.5136 57.2444 41.4999 57.2531 41.4844C57.2546 41.4817 57.2561 41.4789 57.2577 41.4761C57.2682 41.4572 57.28 41.4361 57.2925 41.4131C57.3422 41.3212 57.4035 41.198 57.4465 41.0579C57.5329 40.7771 57.5472 40.4214 57.2427 40.1168C57.1116 39.9857 56.9409 39.8917 56.7534 39.8175C56.5658 39.7433 56.3581 39.6879 56.1513 39.6357C56.1185 39.6275 56.0858 39.6193 56.0531 39.6111C55.8786 39.5675 55.7067 39.5246 55.5465 39.4727C55.3566 39.4113 55.187 39.3384 55.0529 39.2402C54.8731 39.1007 54.6992 38.8637 54.5686 38.6574C54.5037 38.5548 54.4503 38.4612 54.4132 38.3932C54.3947 38.3592 54.3802 38.3317 54.3704 38.3127C54.3655 38.3032 54.3618 38.2959 54.3593 38.291L54.3565 38.2854L54.3558 38.284L54.3556 38.2837L54.2578 38.3075L54.3094 38.3064ZM54.3708 38.5287C54.3717 38.5429 54.3727 38.5575 54.3737 38.5724C54.3842 38.7242 54.4027 38.908 54.4345 39.0443C54.4573 39.1355 54.4837 39.2356 54.5112 39.3399C54.5846 39.6179 54.6659 39.9257 54.7071 40.1729L54.7075 40.1753L54.7077 40.1776C54.7136 40.2581 54.7186 40.3393 54.7236 40.4206C54.7467 40.7948 54.7699 41.1697 54.8828 41.4773C54.9507 41.6625 55.0502 41.8195 55.1993 41.9349C55.3483 42.0503 55.5511 42.1273 55.8313 42.1456C56.0563 42.1591 56.1883 42.1166 56.2937 42.0672C56.3207 42.0545 56.3462 42.0413 56.3718 42.0279L56.3782 42.0245C56.4015 42.0123 56.4252 41.9999 56.4492 41.9884C56.502 41.9631 56.5586 41.941 56.6262 41.9305C56.7146 41.9158 56.8584 41.9088 56.9774 41.9053C57.0375 41.9035 57.0924 41.9026 57.1321 41.9022C57.1349 41.9021 57.1376 41.9021 57.1402 41.9021L57.1078 41.562V41.5595C57.1078 41.5495 57.1102 41.5406 57.112 41.535C57.1139 41.5288 57.1165 41.5225 57.1191 41.5166C57.1244 41.5049 57.1315 41.4911 57.1395 41.4764C57.1464 41.4637 57.1545 41.4494 57.1631 41.4339C57.1646 41.4312 57.1662 41.4285 57.1677 41.4257C57.1782 41.407 57.1897 41.3864 57.2018 41.3641C57.2502 41.2746 57.3078 41.1582 57.348 41.0276C57.4281 40.767 57.4371 40.4571 57.1698 40.1898C57.0525 40.0725 56.8962 39.9849 56.7155 39.9134C56.5348 39.842 56.3329 39.7879 56.1261 39.7357C56.0938 39.7276 56.0614 39.7195 56.0289 39.7114C55.8545 39.6678 55.6787 39.6239 55.5147 39.5709C55.3202 39.5079 55.1385 39.4309 54.9914 39.323L54.9908 39.3226L54.9903 39.3222C54.7953 39.171 54.6132 38.9208 54.4814 38.7125C54.4394 38.6461 54.4021 38.5834 54.3708 38.5287Z" fill="black"/>
<path d="M34.0779 31.8561L34.2936 31.7248L34.3873 31.8561C34.5092 32.0248 34.8561 32.0154 35.0811 31.8561L35.2592 31.7154L35.4092 31.8467C35.5967 32.0248 35.9529 32.0248 36.1873 31.8467C36.3467 31.7342 36.3748 31.7248 36.4686 31.8186C36.5342 31.8748 36.7217 31.9311 36.8811 31.9592C37.1811 31.9967 37.1811 31.9967 37.3498 31.7342C37.4998 31.5186 37.5186 31.4342 37.4904 31.2186C37.4642 31.0539 37.4455 30.8881 37.4342 30.7217C37.4154 30.4779 37.4248 30.4779 37.7717 30.3467C37.9439 30.2939 38.1129 30.2313 38.2779 30.1592C38.4186 30.0748 38.8123 29.6154 38.8123 29.5217C38.8123 29.5029 38.6623 29.4654 38.4748 29.4467C37.7248 29.3529 37.6029 28.9592 38.0904 28.2279C38.8686 27.0092 39.3467 25.8373 39.3467 25.0967C39.3467 24.7592 39.3748 24.6467 39.4123 24.7217C39.5904 25.0123 39.2717 26.2592 38.8029 27.1592L38.6154 27.5154L38.7936 27.4779C38.8873 27.4498 39.4873 27.1967 40.1061 26.9154C41.8123 26.1467 42.3936 25.9967 43.4998 26.0436C44.4279 26.0811 44.8123 26.2592 45.4686 26.9436C45.8154 27.3186 46.1529 27.5717 46.7623 27.9561C48.0561 28.7623 48.1123 28.8373 48.1779 29.7936C48.2436 30.7592 48.2061 30.8154 47.4748 30.9748C46.8467 31.1154 46.4529 31.4061 46.3498 31.8186C46.2936 32.0248 46.4154 32.0342 46.7248 31.8279L46.9592 31.6779L47.0623 31.8279C47.2029 32.0248 47.4842 32.0248 47.7186 31.8279L47.9061 31.6873L48.0936 31.8279C48.3748 32.0623 48.7498 32.0061 48.8623 31.7154C48.8811 31.6686 48.9373 31.6779 49.0498 31.7811C49.2654 31.9686 49.7998 32.0436 49.8561 31.8936C49.8748 31.8373 49.8373 31.7061 49.7623 31.5936C49.4529 31.1248 49.3498 30.9092 49.3498 30.6561C49.3498 30.2998 49.4436 30.1217 49.8561 29.8404C50.3436 29.4842 50.4936 29.0342 50.1186 29.0342C49.8936 29.0342 49.6592 28.8279 49.5092 28.4998C49.2092 27.8248 49.2748 27.0748 49.7248 25.8186C50.0698 25.0794 50.2429 24.2717 50.2311 23.4561C50.2311 22.7623 50.2123 22.6498 50.0623 22.2654C49.945 21.9982 49.8005 21.7437 49.6311 21.5061L49.3686 21.1592L49.6967 20.8779C50.7092 20.0436 50.5029 18.6748 49.2842 18.1498C48.9092 17.9811 48.8154 17.9717 48.1592 17.9717C47.7842 17.9717 47.1748 18.0279 46.8467 18.0936C46.4062 18.1633 45.9613 18.2009 45.5154 18.2061C44.8779 18.2061 44.7654 18.1873 44.5217 18.0561C44.2686 17.9248 44.2217 17.8592 44.1748 17.5404C44.1703 17.5104 44.1585 17.4819 44.1406 17.4574C44.1226 17.4329 44.099 17.4131 44.0717 17.3998C43.9779 17.3717 43.5842 17.7186 43.5279 17.8686C43.4904 17.9529 43.4717 17.9436 43.3873 17.8404C43.3078 17.7383 43.2445 17.6244 43.1998 17.5029C43.1061 17.1936 43.2279 16.9686 43.5936 16.7904L43.8748 16.6592L43.7061 16.5561C43.3686 16.3404 42.7873 16.4904 42.5811 16.8373C42.5154 16.9311 42.4498 17.0248 42.4311 17.0248C42.4123 17.0248 42.2998 16.9311 42.1873 16.8092C41.7467 16.3779 41.8967 15.7404 42.4873 15.5529C42.7967 15.4498 43.0779 15.5248 43.1342 15.7404C43.2279 16.0498 43.4904 15.6373 43.4436 15.2529C43.4154 14.9998 43.4154 14.9904 43.5936 14.9904C43.8373 14.9904 44.3436 15.3092 44.5123 15.5529C44.6998 15.8436 44.6811 16.3029 44.4748 16.6404L44.3154 16.9029L44.5311 16.8654C44.8311 16.7998 45.1311 16.6123 45.2811 16.3779C45.3601 16.2287 45.4045 16.0635 45.411 15.8947C45.4175 15.7259 45.3859 15.5578 45.3186 15.4029C45.1779 15.1498 45.1967 15.1123 45.4029 15.1967C45.7404 15.3373 45.9279 15.4967 46.0592 15.7686C46.1904 16.0123 46.1998 16.0686 46.1342 16.3311C46.0893 16.4909 46.0197 16.6427 45.9279 16.7811C45.8154 16.9311 45.8061 16.9592 45.8998 16.9592C46.0686 16.9592 46.4061 16.7998 46.5279 16.6779C46.5936 16.6029 46.6873 16.4436 46.7342 16.3029L46.8279 16.0686L46.9217 16.2561C47.0623 16.5092 47.3436 16.7436 47.6811 16.8936C48.0467 17.0436 48.1967 17.0529 48.0092 16.9123C47.8779 16.8186 47.6342 16.1154 47.7186 16.0498C48.1232 16.2764 48.4927 16.5606 48.8154 16.8936C49.3498 17.3717 49.6873 17.5311 50.1748 17.5311C50.8029 17.5311 51.1686 16.9873 50.8873 16.4717C50.7279 16.1717 50.3623 16.1248 50.1373 16.3779C50.0436 16.4998 50.0154 16.5936 50.0436 16.7248C50.0811 16.8748 50.0717 16.8936 49.9311 16.8936C49.7436 16.8936 49.3873 16.6592 48.7498 16.1248C47.8625 15.3612 46.8424 14.7669 45.7404 14.3717C44.9939 14.1991 44.223 14.1579 43.4623 14.2498C42.8623 14.3623 42.1498 14.7092 41.7561 15.0748C41.0717 15.7311 41.0623 16.6029 41.7279 17.3998L41.9154 17.6248L41.7936 17.8311C41.7019 17.9788 41.6565 18.1506 41.6631 18.3243C41.6698 18.498 41.7283 18.6658 41.8311 18.8061C41.9248 18.9373 42.0186 19.0404 42.0467 19.0404C42.0654 19.0404 42.0842 18.9561 42.0936 18.8529C42.1123 18.5998 42.2248 18.4311 42.4123 18.3654C42.5811 18.2998 42.6936 18.3373 43.4623 18.6467C44.2779 18.9654 45.6186 18.9842 47.0436 18.7029C47.6612 18.5603 48.3039 18.5667 48.9186 18.7217C49.5936 19.0029 49.7436 19.7248 49.2561 20.2686C49.0404 20.5123 48.8436 20.6061 48.1592 20.7936C47.5633 20.9507 46.9439 20.9983 46.3311 20.9342C45.3186 20.9248 44.9529 20.9436 44.5498 21.0279C44.0904 21.1217 43.8186 21.1311 42.5061 21.1029L40.9779 21.0654L41.1467 21.1967C41.237 21.2769 41.3343 21.3491 41.4373 21.4123C41.5592 21.4779 41.5498 21.4873 41.3811 21.5529C41.2873 21.5904 41.0623 21.6186 40.8842 21.6186H40.5748L40.5373 21.8811C40.512 22.0048 40.512 22.1323 40.5373 22.2561C40.5748 22.3498 40.5561 22.3686 40.4623 22.3311C40.3967 22.3029 40.2186 22.2561 40.0592 22.2279C39.8984 22.1935 39.7414 22.1432 39.5904 22.0779C39.4123 21.9842 39.3936 21.9842 39.3279 22.1061C39.2717 22.1998 38.7467 22.5936 38.6717 22.5936C38.6378 22.3503 38.5683 22.1134 38.4654 21.8904C38.3717 21.6936 38.2873 21.4686 38.2592 21.4029C38.2311 21.2998 38.2123 21.2904 38.1654 21.3748C38.1373 21.4217 38.0998 21.5623 38.0717 21.6748C38.0388 21.8267 37.9819 21.9723 37.9029 22.1061L37.7623 22.3123L37.6686 22.1342C37.5748 21.9467 37.4248 21.7404 37.3686 21.7404C37.3498 21.7404 37.3217 21.7967 37.3029 21.8811C37.2561 22.0311 36.8904 22.4717 36.7967 22.4717C36.7686 22.4717 36.7404 22.3498 36.7404 22.1904C36.7404 22.0498 36.7123 21.9186 36.6748 21.9186C36.6373 21.9186 36.6092 21.9654 36.6092 22.0123C36.6092 22.1248 36.2998 22.4811 36.1873 22.4811C36.1498 22.4811 36.0748 22.5186 36.0279 22.5748C35.9154 22.6967 35.8217 22.6779 35.8686 22.5373C35.8817 22.4172 35.8689 22.2958 35.8311 22.1811L35.7373 21.8811C35.7186 21.8342 35.6061 21.8529 35.3623 21.9279C34.9873 22.0498 34.8561 22.0217 35.0529 21.8717C35.1279 21.8154 35.2404 21.6186 35.2967 21.4404C35.3623 21.2529 35.4561 21.0936 35.5029 21.0748C35.5686 21.0561 35.5686 21.0748 35.4842 21.1873C35.4299 21.2586 35.3944 21.3425 35.3811 21.4311C35.3811 21.4779 35.3342 21.5998 35.2873 21.7029C35.2311 21.7967 35.1936 21.8904 35.2029 21.8998C35.2123 21.9092 35.3623 21.8529 35.5311 21.7779L35.8311 21.6279V21.7592C35.8311 21.8342 35.8686 22.0217 35.9154 22.1811L35.9998 22.4623L36.2061 22.3686C36.4123 22.2748 36.6092 21.9373 36.6092 21.6654C36.6092 21.5342 36.6842 21.5529 36.7217 21.6936C36.7217 21.7311 36.7779 21.8904 36.8154 22.0404L36.9092 22.3029L37.0498 22.1342C37.1342 22.0404 37.2279 21.8529 37.2654 21.7311C37.3404 21.5061 37.4529 21.4029 37.4529 21.5717C37.4529 21.6842 37.7717 22.1154 37.8279 22.0779C37.8654 22.0592 37.9217 21.8998 37.9686 21.7217C38.0623 21.3467 38.2029 21.1029 38.2967 21.1592C38.3342 21.1779 38.3436 21.2154 38.3248 21.2529C38.3061 21.2717 38.3811 21.5154 38.4936 21.7779C38.5751 21.9747 38.6563 22.1716 38.7373 22.3686C38.7748 22.4623 38.8123 22.4623 39.0467 22.2467C39.1873 22.1154 39.3279 21.9748 39.3373 21.9279C39.3654 21.8529 39.3936 21.8623 39.5248 21.9467C39.8012 22.0927 40.104 22.182 40.4154 22.2092C40.4342 22.1904 40.4529 22.0217 40.4529 21.8342L40.4623 21.4873L40.6498 21.5248C40.7436 21.5529 40.9592 21.5529 41.1186 21.5248L41.3998 21.4873L41.1467 21.2998C41.0061 21.2061 40.8654 21.0842 40.8279 21.0279C40.7998 20.9717 40.6686 20.9154 40.5279 20.9061C40.1436 20.8686 39.4592 20.4936 39.4592 20.3061C39.4592 20.2686 39.5529 20.3342 39.6654 20.4373C39.9279 20.6717 40.2842 20.8123 40.6029 20.8123H40.8279L40.6873 20.6248C40.5871 20.4794 40.5228 20.3124 40.4998 20.1373C40.4811 19.8561 40.4529 19.8186 40.1623 19.6217C39.9938 19.5023 39.8368 19.3673 39.6936 19.2186L39.5342 19.0404L39.4498 19.2561C39.4029 19.3779 39.3561 19.4717 39.3279 19.4717C39.3092 19.4717 39.2154 19.3967 39.1404 19.3123C39.0877 19.2512 39.0241 19.2004 38.9529 19.1623C38.9248 19.1623 38.8592 19.2748 38.7842 19.4154L38.6529 19.6686L38.5592 19.5279C38.4758 19.413 38.3816 19.3062 38.2779 19.2092C38.1654 19.1154 38.1186 19.0404 38.1561 19.0404C38.1936 19.0404 38.3154 19.1342 38.4373 19.2561L38.6436 19.4717L38.7373 19.3123C38.7915 19.2019 38.8079 19.0767 38.7842 18.9561C38.7467 18.7873 38.7561 18.7779 38.8123 18.8904C38.8932 18.9963 38.9877 19.0908 39.0936 19.1717L39.2998 19.3404L39.4404 19.0873C39.5811 18.8248 39.5811 18.8248 39.6373 18.9842C39.7311 19.1811 40.3404 19.6873 40.8561 19.9779C40.9498 20.0248 40.9123 19.8748 40.7623 19.5092C40.7173 19.389 40.6919 19.2624 40.6873 19.1342C40.6873 18.9654 40.6404 18.8904 40.4248 18.7217C40.2908 18.636 40.1786 18.5202 40.0972 18.3834C40.0158 18.2467 39.9675 18.0929 39.9561 17.9342C39.9279 17.7748 39.8717 17.6061 39.8248 17.5498C39.7686 17.4561 39.7498 17.5123 39.7686 17.7936C39.7873 17.9904 39.7592 18.2342 39.7123 18.3373L39.6373 18.5248L39.5811 18.3654C39.5436 18.2811 39.3936 18.1311 39.2529 18.0373C39.1123 17.9436 39.0092 17.8498 39.0279 17.8311C39.0467 17.8123 39.1967 17.8967 39.3561 18.0186C39.6092 18.2154 39.6561 18.2342 39.6936 18.1498C39.7311 18.0561 39.6936 17.6248 39.6186 17.3248C39.5811 17.1748 39.5811 17.1748 39.7686 17.3623C39.8998 17.4936 39.9748 17.6623 40.0404 17.9436C40.1154 18.2998 40.1529 18.3654 40.4811 18.6561C40.6779 18.8342 40.8561 18.9654 40.8654 18.9561C40.8842 18.9373 40.9029 18.4873 40.9217 17.9436C40.9592 16.9029 40.9217 16.6498 40.6686 16.3311L40.5373 16.1623L40.7436 15.9467C40.9746 15.7257 41.129 15.4366 41.1842 15.1217L41.2217 14.8686L40.9967 15.0842C40.8092 15.2623 40.7154 15.2998 40.4998 15.2998C40.2842 15.2998 40.1998 15.2623 40.0592 15.1123C39.8401 14.9014 39.5731 14.747 39.2811 14.6623C39.1686 14.6248 39.1311 14.6436 39.1311 14.7186C39.1311 14.7748 39.0748 14.9248 38.9998 15.0654L38.8686 15.3092L38.5873 15.0279C38.4092 14.8686 38.2123 14.7279 38.0529 14.6904C37.6686 14.5967 37.6498 14.5967 37.6498 14.8873C37.6498 15.3279 37.4623 15.4123 37.1248 15.1217C36.8623 14.8967 36.6561 14.8404 36.1592 14.9061L35.7842 14.9436L35.8498 15.1123C35.9061 15.2529 35.8967 15.3186 35.7748 15.4779C35.5779 15.7404 35.3248 15.8529 34.9311 15.8529C34.7436 15.8529 34.5186 15.8904 34.4248 15.9373C34.3311 15.9842 34.0873 16.0311 33.8904 16.0498C33.7029 16.0686 33.4873 16.1061 33.4217 16.1248C33.3279 16.1623 33.3279 16.1248 33.3561 15.9186C33.4029 15.5998 33.1686 15.3561 32.8217 15.3561C32.3623 15.3561 32.1561 15.7686 32.3342 16.3123C32.3706 16.4296 32.4019 16.5485 32.4279 16.6686C32.5511 16.903 32.7163 17.1127 32.9154 17.2873C33.1592 17.5311 33.3842 17.7842 33.4217 17.8498C33.4971 17.9476 33.5932 18.0276 33.7029 18.0842L33.9092 18.1967L33.8811 17.9717C33.8529 17.7279 33.8998 17.6904 34.0311 17.8686C34.0779 17.9248 34.1998 18.0279 34.2936 18.0842C34.4529 18.1779 34.4811 18.1779 34.4811 18.1029C34.4811 18.0467 34.5092 17.9248 34.5467 17.8311L34.6123 17.6623L34.7342 17.8967C34.7998 18.0279 35.0154 18.3186 35.2123 18.5529C35.5967 18.9936 35.8404 19.4904 35.7186 19.6029C35.6623 19.6498 35.5311 19.6498 35.2498 19.5936C35.0436 19.5561 34.7811 19.5279 34.6686 19.5467C34.4529 19.5748 34.4342 19.5467 34.5748 19.3779C34.7154 19.1904 34.6873 19.1623 34.4061 19.1623C34.0779 19.1623 33.2623 19.0029 32.9436 18.8811C32.6436 18.7592 32.5686 18.7873 32.4748 19.0779L32.3154 19.6029L32.2217 19.8842L32.5592 19.8561C32.7332 19.8379 32.9055 19.8065 33.0748 19.7623C33.1412 19.7402 33.2112 19.7307 33.2811 19.7342C33.2998 19.7436 33.2529 19.8561 33.1873 19.9873L33.0561 20.2123L33.2623 20.1748C33.3748 20.1467 33.5436 20.0904 33.6373 20.0436C33.8061 19.9686 33.8248 19.9686 33.9561 20.1842C34.1154 20.4373 34.2373 20.4279 34.2654 20.1561C34.2936 19.8748 34.3873 19.9123 34.5654 20.2873C34.7342 20.6436 34.9029 20.7748 34.9404 20.5686C34.9498 20.4936 35.0342 20.3811 35.1373 20.3061C35.3436 20.1654 35.4936 20.2123 35.5779 20.4279C35.6717 20.6623 35.4654 20.8967 34.8842 21.2529C34.3459 21.5501 33.8827 21.9665 33.5301 22.4703C33.1775 22.974 32.9448 23.5517 32.8498 24.1592C32.6717 25.2654 33.2248 26.4092 34.3123 27.2436C34.8373 27.6373 35.6717 28.0498 35.6154 27.8998C35.3904 27.2154 35.3998 25.9311 35.6248 25.7154C35.6623 25.6779 35.6529 25.8092 35.5967 26.0061C35.4092 26.7467 35.5029 27.3279 35.9717 28.6967C36.3842 29.9342 36.3279 30.4686 35.7279 30.8154C35.5404 30.9279 35.4186 30.9467 34.9029 30.9373C34.3404 30.9373 34.2748 30.9373 34.0967 31.0873C33.8813 31.3073 33.7403 31.5893 33.6936 31.8936C33.6936 32.0154 33.8248 31.9967 34.0686 31.8561H34.0779Z" fill="#FFB700"/>
<path d="M43.1717 31.8282L43.4061 31.6782L43.5655 31.8282C43.7717 32.0251 44.0248 32.0157 44.2217 31.8188C44.3155 31.7251 44.3905 31.6688 44.3998 31.6782L44.4842 31.8282C44.5311 31.9126 44.6342 31.9501 44.8217 31.9688C45.0373 31.9782 45.103 31.9688 45.1967 31.8376L45.2905 31.6782L45.5248 31.8282C46.1623 32.2407 46.4998 31.8095 46.2092 30.9563C46.0686 30.5251 46.153 30.2813 46.6123 29.7376C46.8092 29.5032 46.9686 29.2501 46.9686 29.1751C46.9686 29.072 46.9311 29.0532 46.6686 29.0626C46.4248 29.0626 46.3498 29.0345 46.2186 28.8938C46.003 28.6595 46.0217 28.3876 46.2561 28.0876L46.4436 27.8532L46.1061 27.6282C45.8367 27.4292 45.5857 27.2064 45.3561 26.9626C45.1515 26.7211 44.9012 26.5222 44.6197 26.3775C44.3382 26.2327 44.0309 26.1448 43.7155 26.1188L43.2748 26.072V26.4095C43.2748 26.8313 43.4811 27.2438 44.0248 27.9376C44.6436 28.7251 44.6811 28.847 44.7092 29.8782L44.7373 30.7501L44.5498 30.9188C44.3905 31.0688 44.3248 31.097 43.7998 31.1251C43.303 31.1532 43.1905 31.1813 43.0498 31.3126C42.8853 31.4326 42.7716 31.6098 42.7311 31.8094C42.703 31.9501 42.7123 31.9782 42.8155 31.9782C42.8811 31.9782 43.0405 31.9126 43.1717 31.8282ZM29.8405 29.5782C29.8972 29.4949 29.9296 29.3976 29.9342 29.297C29.9342 29.2032 29.9905 29.1657 30.2342 29.1282L30.5248 29.0907L30.3373 28.9313C30.103 28.7438 30.0748 28.6032 30.2811 28.6032C30.4873 28.6032 30.8248 28.397 30.8811 28.2376C30.9092 28.1626 30.8811 28.0688 30.8436 28.022C30.7311 27.8907 30.5155 27.9094 30.478 28.0594C30.4311 28.2094 30.3655 28.2094 30.1967 28.0594C29.9623 27.8251 29.953 27.347 30.1967 27.0657C30.2998 26.9345 30.2998 26.9344 30.1592 26.7938C30.0092 26.6438 29.8967 26.3626 29.9717 26.2876C29.9905 26.2688 30.1123 26.2876 30.2342 26.3345C30.4217 26.3907 30.4873 26.3907 30.5623 26.3345C30.778 26.1563 30.5436 25.9313 30.1873 25.9876C30.0373 26.0063 29.9811 25.9876 29.9623 25.9126C29.9436 25.8563 29.8217 25.7813 29.6811 25.7438C29.428 25.6782 29.428 25.6782 29.428 25.8563C29.428 26.0438 29.3155 26.0813 29.1092 25.9595C28.9405 25.8657 28.7811 25.9407 28.7811 26.1188C28.7811 26.2876 28.9405 26.3626 29.2498 26.3438C29.4748 26.3345 29.4842 26.5032 29.2686 26.7469L29.1092 26.9344L29.2311 27.1126C29.4186 27.3751 29.3998 27.8157 29.203 28.0407L29.0436 28.2095L28.9405 28.0688C28.7905 27.8813 28.5936 27.8907 28.5373 28.097C28.5092 28.2282 28.5373 28.2844 28.7061 28.4344C28.8186 28.5282 28.9873 28.6032 29.0717 28.6032C29.2873 28.6032 29.278 28.7813 29.053 28.9501L28.8655 29.0907L29.1467 29.1282C29.2967 29.1563 29.428 29.1938 29.428 29.222C29.428 29.3438 29.6155 29.7094 29.6717 29.7094C29.7092 29.7094 29.7842 29.6438 29.8405 29.5688V29.5782Z" fill="#FFB700"/>
<path d="M33.4216 28.0218C33.6747 27.928 34.2185 27.4593 34.2185 27.3562C34.2185 27.3187 34.0685 27.1499 33.881 26.9812C33.506 26.6437 33.0841 26.053 32.9716 25.7155C32.9153 25.528 32.6435 25.228 31.8747 24.478L30.8528 23.4937L30.5622 23.5687C30.3935 23.6062 30.1966 23.6437 30.1216 23.6437C29.981 23.6437 29.981 23.6437 30.1685 23.7937L30.356 23.9437L30.6372 23.7937C30.8903 23.6437 30.8997 23.6437 30.9278 23.7655C30.9466 23.8312 30.9091 23.953 30.8341 24.0374C30.7685 24.1218 30.731 24.2249 30.7403 24.253C30.7685 24.2812 30.7028 24.3468 30.5997 24.403C30.4122 24.4968 30.2716 24.8062 30.4216 24.8062C30.5622 24.8062 30.8622 24.4312 30.8247 24.3093C30.806 24.2437 30.8247 24.178 30.8435 24.1593C30.9653 24.0937 30.956 24.3843 30.8435 24.5343C30.7685 24.6093 30.731 24.703 30.7497 24.7405C30.7685 24.7687 30.7028 24.8343 30.5997 24.8905C30.4122 24.9843 30.2716 25.2937 30.4216 25.2937C30.5716 25.2937 30.8622 24.9374 30.8341 24.8062C30.8153 24.7405 30.8153 24.6655 30.8435 24.6468C30.9278 24.6093 30.9653 24.8343 30.8997 24.9468C30.8825 24.9784 30.8735 25.0139 30.8735 25.0499C30.8735 25.0859 30.8825 25.1214 30.8997 25.153C30.9653 25.2749 30.8997 25.4999 30.7778 25.5749C30.731 25.603 30.7591 25.6687 30.8903 25.7624C31.0778 25.8937 31.0778 25.9124 31.0778 26.5124C31.0778 27.0187 31.0966 27.1499 31.1903 27.2343C31.2841 27.328 31.3028 27.328 31.3028 27.2343C31.3028 27.1405 31.4903 27.0093 31.631 27.0093C31.6778 27.0093 31.9497 27.2437 32.2403 27.5249C32.531 27.8062 32.8403 28.0593 32.9247 28.0687L33.131 28.1062C33.1591 28.1062 33.2903 28.078 33.4216 28.0124V28.0218ZM30.2997 25.5749C30.2997 25.4155 29.9622 25.2374 29.5591 25.1999C29.231 25.153 29.231 25.1624 29.231 25.3218C29.231 25.453 29.2778 25.5093 29.5122 25.603C29.8685 25.7624 30.2997 25.7437 30.2997 25.5749Z" fill="#FFB700"/>
<path d="M30.6655 25.5564C30.8343 25.4064 30.9093 25.2376 30.8061 25.2376C30.6936 25.2376 30.3936 25.5001 30.3936 25.6126C30.3936 25.7626 30.4499 25.7533 30.6749 25.5564H30.6655ZM30.3186 25.0783C30.328 24.9845 30.2718 24.9283 30.103 24.8439C29.728 24.6845 29.2968 24.6001 29.1936 24.6845C28.9968 24.8439 29.128 25.0501 29.4374 25.0876C29.5686 25.097 29.7374 25.1345 29.8218 25.172C30.0655 25.2658 30.2905 25.2189 30.3186 25.0783ZM30.3186 24.5814C30.3374 24.4595 30.253 24.4126 29.5686 24.1689C29.053 23.9814 28.828 24.0751 28.9968 24.3845C29.053 24.4876 29.1468 24.5345 29.3624 24.572C29.5218 24.5908 29.7374 24.6376 29.8405 24.6751C30.1218 24.7689 30.2905 24.7314 30.3093 24.5814H30.3186ZM30.6561 24.122C30.7593 24.0189 30.8436 23.897 30.8436 23.8408C30.8436 23.7001 30.4405 23.9626 30.3843 24.1501C30.328 24.3658 30.4311 24.3564 30.6655 24.122H30.6561ZM30.3186 24.0939C30.3374 23.9439 30.0936 23.8126 29.6061 23.7095C29.2405 23.6251 29.0811 23.672 29.1093 23.8408C29.128 23.9345 29.2499 24.0001 29.578 24.1033C30.1311 24.272 30.2905 24.272 30.3186 24.0939ZM30.7874 23.4001C31.4249 23.1189 31.4718 22.4158 30.8811 22.2283C30.6374 22.1533 30.4874 22.2001 30.3936 22.3595C30.3186 22.4908 30.3655 22.7158 30.4593 22.7158C30.4968 22.7158 30.5249 22.7626 30.5249 22.8095C30.5249 23.0626 29.5686 23.1658 29.1749 22.9689C29.0343 22.9033 28.9874 22.7158 29.0905 22.7158C29.1843 22.7158 29.2405 22.5283 29.1936 22.4064C29.1374 22.2189 28.9499 22.1626 28.6968 22.2376C28.1061 22.3876 28.1249 23.0814 28.7249 23.3626C29.3887 23.6063 30.1152 23.6195 30.7874 23.4001Z" fill="#FFB700"/>
<path d="M30.4032 22.8562C30.4407 22.8187 30.422 22.7624 30.3657 22.7249C30.2345 22.6218 30.2438 22.4624 30.3845 22.2843C30.497 22.153 30.5063 21.9468 30.5438 19.9312C30.6095 16.453 30.872 13.8374 31.2095 13.1999C31.3501 12.9562 31.3313 12.9562 30.9751 13.1999C30.5077 13.5255 30.1304 13.9641 29.8782 14.4749C29.297 15.553 29.1001 17.0062 29.1001 20.1187C29.1001 21.8812 29.1095 22.1155 29.2126 22.2749C29.3063 22.4437 29.3063 22.4999 29.2501 22.6687C29.2032 22.7718 29.1845 22.8843 29.2032 22.903C29.3345 23.0249 30.272 22.9968 30.4032 22.8562ZM35.6626 19.5374C35.6907 19.5093 35.6438 19.3499 35.5688 19.1999C35.4563 18.9562 35.4095 18.9187 35.2501 18.9187C34.5005 18.8535 33.7694 18.6501 33.0938 18.3187C32.6157 18.103 32.4376 18.0562 32.3907 18.1124C32.2407 18.253 32.4845 18.5812 32.8595 18.7593C33.4113 18.9581 33.9893 19.075 34.5751 19.1062C34.8282 19.1062 34.8376 19.1062 34.6876 19.3218L34.5938 19.4718H34.8751L35.3438 19.528C35.6251 19.5937 35.6251 19.5937 35.6626 19.5374Z" fill="#FFB700"/>
<path d="M38.6247 21.1029C38.6247 21.0092 38.3528 20.7748 38.0903 20.6154C37.8747 20.4936 37.8372 20.4842 37.8372 20.5873C37.8372 20.7373 37.706 21.1217 37.6497 21.1217C37.6216 21.1217 37.5747 21.0467 37.556 20.9623C37.5278 20.8686 37.4247 20.6811 37.3216 20.5592L37.1341 20.3248L37.0028 20.5404C36.8716 20.7467 36.6372 20.9436 36.5341 20.9436C36.5153 20.9436 36.506 20.8311 36.5341 20.7092C36.5435 20.5592 36.5341 20.4467 36.4872 20.4279C36.4497 20.3998 36.4122 20.4092 36.4122 20.4467C36.4122 20.5217 36.0935 20.8779 36.0372 20.8779C35.9997 20.8779 35.9622 20.7842 35.9435 20.6529L35.8685 20.2029C35.8497 20.0904 35.8966 20.1654 35.9622 20.3904L36.1122 20.7748L36.2622 20.5404C36.3301 20.4436 36.3809 20.3357 36.4122 20.2217C36.4122 20.1748 36.4403 20.1561 36.4778 20.1748C36.5153 20.1936 36.5622 20.3529 36.581 20.5217L36.6278 20.8404L36.7966 20.6529C36.8849 20.5589 36.9664 20.4586 37.0403 20.3529C37.106 20.2404 37.1153 20.2404 37.256 20.3529C37.331 20.4279 37.4528 20.5873 37.5278 20.7186C37.6028 20.8498 37.6685 20.9436 37.6778 20.9342L37.7341 20.6342L37.7716 20.3529C37.781 20.3061 38.2778 20.6342 38.4653 20.7936C38.5778 20.8967 38.6903 20.9717 38.7091 20.9529C38.7278 20.9342 38.7466 20.7842 38.7466 20.6061C38.7466 20.3436 38.7185 20.2686 38.5591 20.1279C38.3716 19.9592 38.3716 19.9592 38.2966 20.0811C38.2028 20.2404 38.0997 20.2404 38.0997 20.0811C38.0997 19.9686 37.7435 19.5279 37.6591 19.5279C37.631 19.5279 37.556 19.6217 37.4903 19.7436C37.4247 19.8654 37.3497 19.9592 37.331 19.9592C37.2372 19.9592 36.7403 19.3967 36.7403 19.3029C36.7403 19.2279 36.7778 19.2467 36.8622 19.3779C36.946 19.5011 37.0435 19.6143 37.1528 19.7154C37.3403 19.8842 37.4153 19.8467 37.4903 19.5186C37.5185 19.4248 37.556 19.3498 37.5841 19.3498C37.6591 19.3498 38.0903 19.8092 38.1466 19.9592L38.2122 20.1092L38.2591 19.9404C38.3153 19.7342 38.381 19.7342 38.4747 19.9217C38.5122 19.9967 38.6997 20.1654 38.8872 20.2779L39.2341 20.5029L39.2997 20.2779C39.3372 20.1561 39.3935 20.0904 39.4122 20.1279C39.4497 20.1748 39.356 20.5498 39.2903 20.6248C39.2903 20.6342 39.1685 20.5686 39.0466 20.4842L38.8122 20.3154V20.6154C38.8122 20.7748 38.7935 20.9717 38.7747 21.0467C38.7278 21.1967 38.6153 21.2342 38.6153 21.1029H38.6247ZM36.8903 18.7217C36.4778 18.3842 36.4216 18.3092 36.4216 18.1404L36.431 17.9717L36.4591 18.1311C36.4778 18.2248 36.5903 18.3748 36.7216 18.4873L36.9653 18.6748L37.106 18.5061C37.1903 18.4123 37.256 18.2998 37.256 18.2623C37.256 18.1498 37.2747 18.1592 37.556 18.4029C37.7997 18.6186 37.8091 18.6186 37.8372 18.4779C37.8653 18.4029 37.856 18.2529 37.8372 18.1498C37.7435 17.8686 37.7622 17.8311 37.8841 17.9998L38.1091 18.2623C38.2028 18.3654 38.2122 18.3654 38.2497 18.2342C38.2778 18.1498 38.2966 18.0092 38.2966 17.9154V17.7373L38.5122 17.9904C38.7278 18.2342 38.7466 18.2436 38.8028 18.1217C38.8497 18.0561 38.8778 17.8967 38.8778 17.7748C38.8778 17.6061 38.8966 17.5686 38.9341 17.6248C39.0091 17.7373 38.9622 18.0186 38.831 18.2623L38.7372 18.4498L38.6153 18.2529C38.456 18.0092 38.3997 18.0092 38.306 18.2717C38.2122 18.5248 38.1466 18.5436 38.0528 18.3467C37.9966 18.2248 37.9778 18.2436 37.9403 18.5061L37.8935 18.7873L37.6122 18.5717L37.331 18.3561L37.1903 18.4967C37.1247 18.5811 37.0685 18.6842 37.0685 18.7217C37.0685 18.8154 36.9935 18.8154 36.8903 18.7217ZM40.5466 17.4467C40.406 17.3154 40.3028 17.1842 40.3216 17.1654C40.3497 17.1373 40.3685 17.1279 40.3778 17.1467C40.4686 17.2434 40.5624 17.3372 40.6591 17.4279C40.9778 17.7654 40.9122 17.7748 40.556 17.4467H40.5466ZM35.6716 16.9404C35.5403 16.7529 35.5497 16.6404 35.7185 16.4342C35.831 16.2936 35.8872 16.2748 36.0935 16.3029C36.2341 16.3123 36.5247 16.4342 36.7403 16.5654C37.052 16.7516 37.4086 16.8489 37.7716 16.8467L37.6122 16.5842C37.406 16.2748 37.406 16.2373 37.6497 16.4248C37.8935 16.6217 38.1841 16.6779 38.8403 16.6592L39.1591 16.6498L38.9716 16.4623C38.7185 16.2092 38.7935 16.1811 39.0841 16.4342C39.3466 16.6686 39.3372 16.6873 38.7653 16.7436C38.5269 16.7676 38.2861 16.7518 38.0528 16.6967C37.7341 16.6029 37.7153 16.6123 37.781 16.7154C37.8185 16.7811 37.8747 16.8279 37.9028 16.8279C37.9403 16.8279 37.9685 16.8654 37.9685 16.9029C37.9685 17.0248 37.2747 16.9123 36.9372 16.7529C36.1872 16.3686 36.0935 16.3311 35.906 16.3873C35.856 16.4065 35.8104 16.4355 35.7718 16.4725C35.7332 16.5095 35.7023 16.5539 35.681 16.6029C35.5591 16.9123 35.9997 17.1561 36.1778 16.8842C36.2341 16.7998 36.2247 16.7529 36.131 16.6498C35.9997 16.5186 36.0185 16.4998 36.1872 16.5561C36.3091 16.6029 36.3185 16.8936 36.206 17.0061C36.0841 17.1279 35.7841 17.0998 35.6716 16.9404Z" fill="black"/>
<path d="M38.6624 16.1809C38.5686 16.0872 38.6436 16.0684 39.0655 16.0591C39.5905 16.0497 39.9092 15.9653 40.2842 15.7215C40.5842 15.534 40.6686 15.5715 40.378 15.7684C40.1249 15.9559 39.7217 16.0872 39.3186 16.1247L38.8405 16.1903C38.7655 16.209 38.6811 16.1997 38.653 16.1809H38.6624Z" fill="black"/>
</g>
<defs>
<clipPath id="clip0_59_62304">
<rect width="60" height="45" fill="white"/>
</clipPath>
</defs>
</svg>
