<svg width="60" height="45" viewBox="0 0 60 45" fill="none" xmlns="http://www.w3.org/2000/svg">
<g clip-path="url(#clip0_59_64047)">
<path d="M0 0H60V22.5H0V0Z" fill="#0038A8"/>
<path d="M0 22.5H60V45H0V22.5Z" fill="#CE1126"/>
<path d="M38.9719 22.5L0 45V0" fill="white"/>
<path d="M2.50313 3.9751L3.84375 5.15635L5.4 4.29385L4.70625 5.93447L6.01875 7.15322L4.2375 7.00322L3.47812 8.61572L3.075 6.88135L1.3125 6.65635L2.84062 5.71885L2.50313 3.9751ZM32.8594 20.1282L32.8969 21.9095L34.5844 22.5001L32.8969 23.0813L32.8594 24.8626L31.7812 23.447L30.075 23.9626L31.0875 22.5001L30.075 21.0376L31.7812 21.5532L32.8594 20.1282ZM3.4875 36.3845L4.2375 37.997L6.01875 37.847L4.71562 39.0657L5.40938 40.7063L3.85312 39.8532L2.50313 41.0157L2.84062 39.2626L1.3125 38.3438L3.08438 38.1189L3.4875 36.3845ZM14.1937 13.0407L13.6125 13.622L13.9031 18.0282L13.6219 18.0563L13.0875 14.0345L12.6094 14.5032L13.3219 18.1032C12.7457 18.2166 12.1977 18.4428 11.7094 18.7688L9.675 15.7313H9L11.475 18.947C11.398 19.007 11.3229 19.0695 11.25 19.1345L8.33438 15.8063H7.50937V16.6313L10.8281 19.5376L10.6406 19.772L7.425 17.3063V17.972L10.4719 20.0063C10.1531 20.4938 9.91875 21.0376 9.80625 21.6188L6.21563 20.9063L5.7375 21.3751L9.75937 21.9095C9.74062 22.0032 9.73125 22.1063 9.73125 22.2001L5.325 21.9188L4.74375 22.5001L5.325 23.0813L9.73125 22.7907L9.75937 23.0813L5.7375 23.6157L6.20625 24.0845L9.80625 23.372C9.91964 23.9481 10.1459 24.4961 10.4719 24.9845L7.425 27.0188V27.6938L10.6406 25.2282C10.7007 25.3052 10.7632 25.3803 10.8281 25.4532L7.50937 28.3595V29.1845H8.34375L11.25 25.8657L11.4844 26.0532L9 29.2688H9.675L11.7094 26.222C12.1875 26.5407 12.7406 26.7751 13.3219 26.8876L12.6094 30.4876L13.0781 30.9563L13.6125 26.9345C13.7062 26.9532 13.8 26.9626 13.9031 26.9626L13.6219 31.3688L14.1937 31.9501L14.7844 31.3688L14.4938 26.9626L14.775 26.9345L15.3094 30.9657L15.7875 30.4876L15.075 26.8876C15.6511 26.7742 16.1991 26.548 16.6875 26.222L18.7219 29.2688H19.3969L16.9219 26.0532C16.9989 25.9932 17.0739 25.9306 17.1469 25.8657L20.0625 29.1845H20.8875V28.3595L17.5687 25.4532L17.7562 25.2282L20.9719 27.6938V27.0188L17.925 24.9845C18.2437 24.5063 18.4781 23.9532 18.5906 23.372L22.1813 24.0845L22.6594 23.6157L18.6375 23.0813C18.6562 22.9876 18.6656 22.8938 18.6656 22.7907L23.0719 23.072L23.6531 22.5001L23.0719 21.9188L18.6656 22.2001L18.6375 21.9188L22.6594 21.3845L22.1906 20.9157L18.5906 21.6188C18.4772 21.0427 18.251 20.4947 17.925 20.0063L20.9719 17.972V17.3063L17.7562 19.772C17.6962 19.695 17.6337 19.6199 17.5687 19.547L20.8875 16.6407V15.8063H20.0625L17.1562 19.1345C17.0802 19.0694 17.0021 19.0069 16.9219 18.947L19.3969 15.7313H18.7219L16.6875 18.7688C16.2094 18.4501 15.6562 18.2157 15.075 18.1032L15.7875 14.5126L15.3187 14.0438L14.7844 18.0563L14.4938 18.0282L14.775 13.622L14.1937 13.0407Z" fill="#FCD116"/>
</g>
<defs>
<clipPath id="clip0_59_64047">
<rect width="60" height="45" fill="white"/>
</clipPath>
</defs>
</svg>
