<svg width="60" height="45" viewBox="0 0 60 45" fill="none" xmlns="http://www.w3.org/2000/svg">
<g clip-path="url(#clip0_59_66366)">
<path fill-rule="evenodd" clip-rule="evenodd" d="M-3.75 30.0059H63.75V37.5029H-3.75V30.0059Z" fill="#FFE700"/>
<path fill-rule="evenodd" clip-rule="evenodd" d="M-3.75 22.5H63.75V29.9971H-3.75V22.5Z" fill="black"/>
<path fill-rule="evenodd" clip-rule="evenodd" d="M-3.75 15.0029H63.75V22.5H-3.75V15.0029Z" fill="#DE3908"/>
<path fill-rule="evenodd" clip-rule="evenodd" d="M-3.75 7.50586H63.75V15.0029H-3.75V7.50586Z" fill="#FFE700"/>
<path fill-rule="evenodd" clip-rule="evenodd" d="M-3.75 0H63.75V7.49707H-3.75V0Z" fill="black"/>
<path fill-rule="evenodd" clip-rule="evenodd" d="M37.0049 22.5C37.0049 24.3578 36.2669 26.1395 34.9532 27.4532C33.6395 28.7669 31.8578 29.5049 30 29.5049C28.1422 29.5049 26.3605 28.7669 25.0468 27.4532C23.7331 26.1395 22.9951 24.3578 22.9951 22.5C22.9951 20.6422 23.7331 18.8605 25.0468 17.5468C26.3605 16.2331 28.1422 15.4951 30 15.4951C31.8578 15.4951 33.6395 16.2331 34.9532 17.5468C36.2669 18.8605 37.0049 20.6422 37.0049 22.5Z" fill="#FFFDFF"/>
<path fill-rule="evenodd" clip-rule="evenodd" d="M30 15.5391C28.1538 15.5391 26.3833 16.2724 25.0779 17.5779C23.7724 18.8833 23.0391 20.6538 23.0391 22.5C23.0391 24.3462 23.7724 26.1167 25.0779 27.4221C26.3833 28.7276 28.1538 29.4609 30 29.4609C31.8462 29.4609 33.6167 28.7276 34.9221 27.4221C36.2276 26.1167 36.9609 24.3462 36.9609 22.5C36.9609 20.6538 36.2276 18.8833 34.9221 17.5779C33.6167 16.2724 31.8462 15.5391 30 15.5391ZM25.0157 17.5157C26.3376 16.1938 28.1305 15.4512 30 15.4512C31.8695 15.4512 33.6624 16.1938 34.9843 17.5157C36.3062 18.8376 37.0488 20.6305 37.0488 22.5C37.0488 24.3695 36.3062 26.1624 34.9843 27.4843C33.6624 28.8062 31.8695 29.5488 30 29.5488C28.1305 29.5488 26.3376 28.8062 25.0157 27.4843C23.6938 26.1624 22.9512 24.3695 22.9512 22.5C22.9512 20.6305 23.6938 18.8376 25.0157 17.5157Z" fill="black"/>
<path fill-rule="evenodd" clip-rule="evenodd" d="M28.7695 17.1299L28.3125 16.2949C28.4883 16.1191 28.7783 15.9785 29.2529 15.9785L29.2002 16.9014L28.7607 17.1299H28.7695Z" fill="#DE3108"/>
<path fill-rule="evenodd" clip-rule="evenodd" d="M28.3673 16.3033L28.7856 17.0675L29.1579 16.8739L29.2065 16.0229C28.7898 16.0314 28.5297 16.1532 28.3673 16.3033ZM28.8278 17.1446L29.2428 16.9288L29.2996 15.9346H29.2531C28.7693 15.9346 28.4672 16.0782 28.2816 16.2638L28.2583 16.2871L28.7311 17.151L28.7525 17.1393L28.7609 17.1738H28.8438L28.8278 17.1446Z" fill="black"/>
<path fill-rule="evenodd" clip-rule="evenodd" d="M29.209 16.9015L29.2705 15.9787C29.2705 15.9787 30.2109 15.9259 30.7207 16.5412L30.2197 17.2619L29.2002 16.9103L29.209 16.9015Z" fill="#FFE700"/>
<path fill-rule="evenodd" clip-rule="evenodd" d="M29.3119 16.0216L29.2545 16.8825L30.2028 17.2095L30.6655 16.5439C30.4208 16.2644 30.081 16.1331 29.7955 16.0722C29.6489 16.0409 29.5178 16.0285 29.4235 16.0239C29.3764 16.0216 29.3385 16.0213 29.3125 16.0215C29.3123 16.0215 29.3121 16.0216 29.3119 16.0216ZM29.1665 16.8821L29.2295 15.937L29.2683 15.9348L29.2707 15.9787C29.2683 15.9348 29.2682 15.9348 29.2683 15.9348L29.2684 15.9348L29.2686 15.9348L29.2692 15.9347L29.2715 15.9346C29.2734 15.9345 29.2763 15.9344 29.2799 15.9343C29.2873 15.9341 29.298 15.9338 29.3117 15.9337C29.3392 15.9334 29.3788 15.9338 29.4278 15.9361C29.5257 15.9409 29.6616 15.9538 29.8138 15.9862C30.1175 16.051 30.491 16.1948 30.7548 16.5131L30.7761 16.5388L30.2371 17.3143L29.1196 16.9289L29.1665 16.8821Z" fill="black"/>
<path fill-rule="evenodd" clip-rule="evenodd" d="M30.2285 17.2529L30.6943 16.5322C31.002 16.8574 31.1338 17.0859 31.1777 17.4375C31.1865 17.4463 30.4482 17.6221 30.4482 17.6133L30.2285 17.2529Z" fill="#DE3108"/>
<path fill-rule="evenodd" clip-rule="evenodd" d="M30.6877 16.4614L30.7262 16.5021C31.037 16.8307 31.1752 17.0671 31.221 17.4299C31.2221 17.4357 31.2219 17.442 31.2204 17.4483C31.2175 17.4601 31.2106 17.4672 31.2083 17.4695C31.2032 17.4744 31.198 17.4771 31.1966 17.4778L31.1965 17.4779C31.1927 17.4799 31.1885 17.4814 31.1858 17.4824C31.1795 17.4847 31.171 17.4873 31.1611 17.4902C31.1411 17.496 31.1125 17.5037 31.0784 17.5125C31.01 17.5302 30.9183 17.5528 30.8264 17.5748C30.7346 17.5968 30.6423 17.6183 30.5729 17.6337C30.5383 17.6414 30.5091 17.6477 30.4884 17.6518C30.4781 17.6538 30.4694 17.6554 30.4629 17.6564C30.4599 17.6568 30.4562 17.6573 30.4526 17.6575C30.4513 17.6576 30.4474 17.6578 30.4427 17.6571C30.4409 17.6569 30.4349 17.656 30.4281 17.6525C30.4236 17.6502 30.4147 17.6442 30.4091 17.6337L30.1909 17.2759L30.2284 17.253L30.1915 17.2291L30.6877 16.4614ZM30.2803 17.2537L30.4706 17.5657C30.4708 17.5657 30.4711 17.5656 30.4714 17.5655C30.491 17.5617 30.5194 17.5556 30.5538 17.5479C30.6226 17.5326 30.7144 17.5112 30.806 17.4893C30.8976 17.4674 30.9888 17.4449 31.0564 17.4274C31.0861 17.4197 31.111 17.4131 31.1293 17.4079C31.0847 17.1026 30.9667 16.8919 30.7006 16.6034L30.2803 17.2537ZM30.4868 17.5923L30.485 17.5894C30.4857 17.5903 30.4863 17.5913 30.4868 17.5923Z" fill="black"/>
<path fill-rule="evenodd" clip-rule="evenodd" d="M28.9979 29.1007C28.9979 29.1007 29.8681 28.1076 31.5556 28.3185C31.3007 27.9054 30.4745 27.9581 30.4745 27.9581C30.4745 27.9581 30.2284 26.0246 30.4218 25.9191C30.6151 25.8136 31.4765 25.9279 31.4765 25.9279C31.5819 25.9279 31.7753 25.629 31.6171 25.4357C31.4677 25.2423 31.0194 24.5128 31.204 24.3634C31.3886 24.2228 32.3817 24.4513 32.3817 24.4513L29.5692 20.8478C29.5692 20.8478 29.2792 19.4855 29.8593 18.8263C30.5536 18.255 30.4745 17.631 30.4569 17.6398C30.3603 17.007 29.4022 16.5587 28.7519 17.1388C28.3739 17.5958 28.6288 17.9474 28.6288 17.9474C28.6288 17.9474 27.6181 18.2199 27.5829 18.3956C27.539 18.5714 28.7167 18.3693 28.7167 18.3693L28.6024 19.1691C28.6024 19.1691 26.3173 21.2433 28.0751 23.0363L28.1278 22.966C28.1278 22.966 28.7431 23.7218 29.3847 23.8888C29.9999 24.504 29.9384 24.4162 29.9384 24.4162C29.9384 24.4162 30.0526 25.3917 29.9384 25.5851C29.789 25.5412 28.2421 25.4796 28.0136 25.5675C27.8026 25.6378 27.0116 25.5939 27.205 26.8947L27.495 26.2355C27.495 26.2355 27.4687 26.7013 27.662 26.8683C27.6269 26.3761 27.8466 26.0421 27.8466 26.0421C27.8466 26.0421 27.8817 26.5871 28.0048 26.6574C28.1278 26.7453 28.1278 25.7785 28.7958 25.8663C29.4462 25.9454 29.9296 25.9191 29.9296 25.9191C29.9296 25.9191 30.1493 27.7999 30.079 27.9757C29.6044 27.8615 28.4618 28.0197 28.3915 28.3097C29.0595 28.2658 29.3671 28.3449 29.3671 28.3449C29.3671 28.3449 28.831 28.8283 28.9979 29.1007Z" fill="black"/>
<path fill-rule="evenodd" clip-rule="evenodd" d="M30.4943 17.6235C30.4392 17.2938 30.1647 17.0182 29.8253 16.8972C29.4807 16.7744 29.0629 16.8083 28.7255 17.1093C28.724 17.1106 28.7226 17.112 28.7213 17.1136C28.5256 17.3502 28.4916 17.5631 28.5093 17.7189C28.5181 17.7962 28.5394 17.8584 28.5588 17.9015C28.5622 17.9093 28.5657 17.9164 28.5689 17.9229C28.5415 17.9307 28.5038 17.9415 28.459 17.9548C28.3634 17.9832 28.2353 18.0229 28.1059 18.0683C27.9769 18.1135 27.8453 18.1647 27.7433 18.2161C27.6924 18.2418 27.6475 18.2682 27.6135 18.2948C27.5817 18.3197 27.552 18.3505 27.5443 18.387C27.5391 18.4088 27.5433 18.4304 27.5569 18.4482C27.5692 18.4645 27.587 18.4747 27.6042 18.4816C27.6385 18.4955 27.6863 18.5022 27.7393 18.5052C27.8467 18.5111 27.9924 18.502 28.1372 18.4877C28.2825 18.4734 28.429 18.4535 28.5391 18.4372C28.5927 18.4293 28.6378 18.4222 28.6699 18.4171L28.5652 19.1496C28.5612 19.1534 28.556 19.1583 28.5498 19.1642C28.5332 19.1801 28.5092 19.2036 28.4794 19.234C28.4198 19.2948 28.3367 19.3836 28.2425 19.4957C28.0544 19.7198 27.8215 20.038 27.6438 20.4134C27.4661 20.7887 27.3428 21.223 27.3764 21.6785C27.4101 22.1349 27.6012 22.6094 28.0468 23.0639C28.0549 23.0722 28.0662 23.0765 28.0777 23.0757C28.0892 23.075 28.0998 23.0692 28.1067 23.06L28.1297 23.0294C28.1478 23.0503 28.1732 23.0791 28.2049 23.1135C28.2732 23.1876 28.3711 23.2882 28.4892 23.3942C28.7219 23.6029 29.0377 23.8361 29.3642 23.9243C29.6665 24.2265 29.8039 24.3574 29.8659 24.4127C29.8815 24.4266 29.8928 24.4362 29.9009 24.4426C29.9011 24.4428 29.9014 24.4429 29.9016 24.4431C29.9022 24.4487 29.9029 24.4552 29.9037 24.4626C29.9066 24.4896 29.9106 24.5283 29.915 24.5753C29.9239 24.6695 29.9346 24.7969 29.9417 24.9302C29.9488 25.0637 29.9523 25.2023 29.947 25.3191C29.9444 25.3775 29.9396 25.4297 29.9322 25.4726C29.9274 25.5002 29.9218 25.5226 29.9156 25.5399C29.892 25.536 29.8614 25.5323 29.8261 25.5287C29.7683 25.523 29.6942 25.5173 29.6092 25.512C29.439 25.5013 29.2239 25.4923 29.0065 25.4873C28.7891 25.4824 28.5689 25.4815 28.3884 25.4875C28.2982 25.4904 28.2174 25.4951 28.1517 25.5019C28.0878 25.5085 28.0343 25.5174 28.0003 25.5302C27.9769 25.5379 27.9446 25.5444 27.9027 25.5525L27.8987 25.5533C27.8583 25.5612 27.8112 25.5704 27.7611 25.5833C27.6575 25.6101 27.5389 25.6537 27.4329 25.7388C27.2176 25.9115 27.0681 26.2428 27.1658 26.9005C27.1684 26.9179 27.1822 26.9315 27.1997 26.9338C27.2171 26.9362 27.234 26.9267 27.2411 26.9106L27.4588 26.4158C27.4607 26.4407 27.4633 26.4671 27.4667 26.4943C27.4758 26.5647 27.4911 26.6417 27.5172 26.7126C27.5432 26.7832 27.5808 26.8504 27.6361 26.8982C27.6482 26.9087 27.6654 26.9108 27.6797 26.9036C27.694 26.8965 27.7026 26.8814 27.7014 26.8655C27.6843 26.6259 27.7292 26.4248 27.7784 26.2836C27.7923 26.2439 27.8064 26.209 27.8196 26.1793C27.8247 26.2241 27.8316 26.2763 27.8405 26.3299C27.8527 26.4032 27.8691 26.4803 27.8906 26.5442C27.9014 26.5761 27.9139 26.606 27.9285 26.6308C27.9425 26.6545 27.9603 26.6769 27.9835 26.6907C27.9986 26.7009 28.018 26.7063 28.0387 26.6996C28.0573 26.6936 28.0701 26.6799 28.0786 26.6684C28.0955 26.6452 28.1099 26.6097 28.1235 26.5719C28.1316 26.5495 28.1399 26.525 28.1486 26.4991C28.1711 26.4324 28.197 26.3558 28.232 26.2781C28.2803 26.1707 28.3436 26.0673 28.4324 25.9961C28.5198 25.9259 28.6342 25.885 28.7906 25.9055L28.791 25.9056C29.1178 25.9453 29.4027 25.9586 29.6059 25.9619C29.7075 25.9636 29.7888 25.9627 29.8447 25.9615C29.8646 25.961 29.8812 25.9606 29.8945 25.9601C29.8959 25.9722 29.8976 25.9872 29.8996 26.0047C29.9054 26.0564 29.9137 26.1305 29.9235 26.22C29.943 26.3989 29.9682 26.6393 29.9912 26.8852C30.0143 27.1311 30.0351 27.382 30.0458 27.5823C30.0511 27.6825 30.0539 27.7694 30.0532 27.8364C30.0528 27.87 30.0516 27.898 30.0495 27.9199C30.0492 27.923 30.0489 27.9259 30.0486 27.9286C29.8007 27.8797 29.4143 27.8934 29.0768 27.9521C28.8983 27.9832 28.7307 28.0272 28.6024 28.0828C28.5382 28.1105 28.4824 28.1418 28.4396 28.1768C28.3972 28.2116 28.3646 28.2526 28.353 28.3004C28.3501 28.3126 28.3531 28.3255 28.3612 28.3351C28.3693 28.3448 28.3815 28.35 28.3941 28.3492C28.7261 28.3273 28.9679 28.3361 29.1262 28.3502C29.1943 28.3562 29.247 28.3633 29.2847 28.3693C29.2763 28.3778 29.2671 28.3871 29.2574 28.3972C29.209 28.4476 29.1459 28.5179 29.0879 28.5973C29.0302 28.6763 28.9761 28.7662 28.9475 28.8556C28.9189 28.945 28.9141 29.0396 28.9642 29.1214L28.9979 29.1007C29.0277 29.1268 29.0277 29.1268 29.0276 29.1268L29.0277 29.1267L29.0281 29.1263L29.0298 29.1244C29.0313 29.1227 29.0337 29.1201 29.0369 29.1167C29.0434 29.1098 29.0532 29.0996 29.0664 29.0866C29.0927 29.0606 29.1325 29.0234 29.1855 28.9792C29.2916 28.8909 29.4508 28.7751 29.6621 28.6656C30.0845 28.4469 30.7159 28.2534 31.5506 28.3577C31.5657 28.3596 31.5806 28.3527 31.5888 28.3399C31.597 28.3271 31.5972 28.3107 31.5892 28.2977C31.4519 28.0752 31.1655 27.983 30.9257 27.9443C30.8042 27.9247 30.691 27.9183 30.6083 27.9168C30.5669 27.916 30.533 27.9165 30.5094 27.9171C30.5093 27.9171 30.5093 27.9171 30.5092 27.9171C30.5077 27.9045 30.5058 27.8887 30.5035 27.8701C30.4972 27.8172 30.4884 27.7414 30.4784 27.65C30.4583 27.4674 30.4337 27.2229 30.415 26.9752C30.3964 26.7272 30.3839 26.4772 30.3879 26.283C30.39 26.1857 30.3962 26.104 30.4074 26.0442C30.413 26.0142 30.4195 25.9914 30.4266 25.9753C30.4341 25.9584 30.44 25.9542 30.4407 25.9538C30.4591 25.9438 30.4885 25.9349 30.529 25.9282C30.5689 25.9216 30.6166 25.9175 30.6696 25.9155C30.7756 25.9114 30.8999 25.9157 31.0191 25.9234C31.1381 25.931 31.2512 25.9419 31.3346 25.951C31.3763 25.9555 31.4105 25.9595 31.4343 25.9624C31.4461 25.9639 31.4554 25.965 31.4617 25.9658L31.4688 25.9667L31.4706 25.967L31.4711 25.967L31.4712 25.9671C31.4729 25.9673 31.4747 25.9674 31.4764 25.9674C31.5192 25.9674 31.5609 25.9389 31.5934 25.9059C31.6276 25.871 31.6594 25.8233 31.6821 25.7697C31.7269 25.6634 31.7395 25.5233 31.648 25.4111C31.575 25.3164 31.4273 25.0884 31.3209 24.866C31.2676 24.7544 31.2259 24.6467 31.2084 24.5591C31.1997 24.5152 31.1975 24.4787 31.2017 24.4502C31.2058 24.4225 31.2155 24.4052 31.2284 24.3945C31.2438 24.383 31.2716 24.3727 31.3138 24.3659C31.3556 24.3591 31.407 24.3565 31.4653 24.3574C31.5818 24.359 31.7213 24.3741 31.8563 24.3937C31.9911 24.4134 32.1203 24.4374 32.2159 24.4566C32.2636 24.4661 32.3029 24.4745 32.3303 24.4804C32.3439 24.4834 32.3546 24.4857 32.3619 24.4874L32.3701 24.4892L32.3722 24.4897L32.3727 24.4898L32.3728 24.4898C32.3891 24.4936 32.4061 24.4867 32.4151 24.4725C32.4241 24.4584 32.4232 24.4402 32.4129 24.427L29.6061 20.8308C29.6057 20.829 29.6053 20.827 29.6049 20.8247C29.603 20.8148 29.6002 20.8001 29.5968 20.7811C29.5901 20.743 29.5811 20.6878 29.5722 20.6195C29.5542 20.4827 29.5362 20.2935 29.5362 20.0842C29.5362 19.6642 29.6086 19.173 29.8869 18.8548C30.2387 18.5645 30.3963 18.2596 30.4631 18.0264C30.4965 17.9098 30.5071 17.8112 30.5081 17.7417C30.5086 17.707 30.5067 17.679 30.5039 17.6592C30.5025 17.6496 30.5007 17.6405 30.4983 17.6331C30.4976 17.6309 30.4964 17.6274 30.4943 17.6235ZM29.5692 20.8478C29.5305 20.856 29.5305 20.856 29.5305 20.856L29.5304 20.8557L29.5303 20.8549L29.5296 20.8518C29.5291 20.8491 29.5283 20.8451 29.5273 20.8399C29.5252 20.8295 29.5224 20.8143 29.5189 20.7948C29.512 20.7558 29.5029 20.6994 29.4937 20.6298C29.4754 20.4905 29.4571 20.2979 29.4571 20.0842C29.4571 19.6594 29.5294 19.1412 29.8295 18.8002C29.8309 18.7986 29.8325 18.7971 29.8341 18.7957C30.1749 18.5154 30.3243 18.2235 30.387 18.0046C30.4184 17.8949 30.4281 17.8034 30.429 17.7405C30.4295 17.709 30.4277 17.6853 30.4256 17.6704C30.4251 17.6668 30.4246 17.664 30.4242 17.6619C30.4209 17.6571 30.4187 17.6516 30.4178 17.6457C30.3722 17.3472 30.1215 17.0868 29.7987 16.9717C29.4783 16.8575 29.093 16.889 28.7804 17.1663C28.5999 17.3857 28.5727 17.5763 28.5879 17.71C28.5956 17.7777 28.6143 17.832 28.6309 17.8691C28.6393 17.8877 28.647 17.9019 28.6526 17.9112C28.6553 17.9159 28.6576 17.9193 28.659 17.9215C28.6597 17.9226 28.6602 17.9234 28.6606 17.9238L28.6608 17.9242C28.6684 17.9347 28.6704 17.9483 28.6661 17.9606C28.6617 17.9728 28.6516 17.9822 28.6391 17.9856L28.6384 17.9858L28.6363 17.9863L28.6279 17.9886C28.6206 17.9906 28.6098 17.9936 28.596 17.9975C28.5684 18.0053 28.529 18.0165 28.4815 18.0306C28.3866 18.0588 28.2598 18.0982 28.1321 18.1429C28.0041 18.1878 27.8763 18.2376 27.7789 18.2867C27.7301 18.3114 27.6903 18.3351 27.6623 18.357C27.634 18.3792 27.6241 18.3946 27.622 18.4022C27.6222 18.4023 27.6225 18.4025 27.6228 18.4027C27.6251 18.4043 27.6287 18.4062 27.6338 18.4083C27.6554 18.417 27.6924 18.4233 27.7437 18.4262C27.8447 18.4318 27.9853 18.4233 28.1294 18.409C28.273 18.3948 28.4182 18.3751 28.5275 18.359C28.5822 18.3509 28.6279 18.3437 28.6598 18.3386C28.6758 18.336 28.6884 18.3339 28.6969 18.3325L28.7067 18.3308L28.7099 18.3303C28.7224 18.3281 28.7352 18.3321 28.7442 18.3409C28.7533 18.3497 28.7576 18.3623 28.7558 18.3749L28.6416 19.1747C28.6403 19.1838 28.6358 19.1922 28.629 19.1983L28.6287 19.1986L28.6275 19.1997L28.6229 19.204C28.6187 19.2079 28.6126 19.2137 28.6045 19.2214C28.5885 19.2367 28.5651 19.2596 28.5359 19.2894C28.4774 19.349 28.3957 19.4363 28.3031 19.5466C28.1177 19.7675 27.8892 20.0799 27.7153 20.4472C27.5414 20.8146 27.423 21.235 27.4553 21.6727C27.4868 22.0985 27.661 22.5438 28.0713 22.9754L28.0962 22.9422C28.1035 22.9325 28.1148 22.9266 28.127 22.9264C28.1392 22.9262 28.1508 22.9315 28.1585 22.941L28.1588 22.9414L28.1601 22.9429C28.1607 22.9437 28.1616 22.9448 28.1627 22.946C28.1634 22.9469 28.1643 22.948 28.1652 22.9491C28.1697 22.9545 28.1765 22.9626 28.1855 22.9729C28.2033 22.9936 28.2295 23.0235 28.263 23.0598C28.3301 23.1326 28.4262 23.2314 28.542 23.3353C28.7748 23.5441 29.0832 23.7695 29.3946 23.8505C29.4014 23.8523 29.4076 23.8558 29.4126 23.8608C29.7203 24.1685 29.858 24.2996 29.9185 24.3537C29.9309 24.3647 29.9397 24.3722 29.946 24.3773C29.9557 24.3792 29.9647 24.3848 29.9707 24.3935L29.9383 24.4161L29.9005 24.4206C29.9005 24.4206 29.9005 24.4206 29.9005 24.4206L29.9383 24.4161C29.9707 24.3935 29.9707 24.3934 29.9707 24.3935L29.9708 24.3935L29.9709 24.3937L29.9711 24.3939L29.9715 24.3945C29.9717 24.3948 29.9719 24.3952 29.9722 24.3956C29.9723 24.3958 29.9725 24.3961 29.9727 24.3964C29.9734 24.3976 29.9751 24.4004 29.9765 24.404C29.9772 24.4058 29.9785 24.4093 29.9792 24.4138C29.9795 24.4158 29.98 24.4201 29.9792 24.4255C29.98 24.4326 29.9811 24.4422 29.9824 24.4542C29.9853 24.4814 29.9893 24.5204 29.9938 24.5679C30.0027 24.6627 30.0135 24.7913 30.0207 24.926C30.0279 25.0606 30.0315 25.2021 30.0261 25.3226C30.0233 25.3829 30.0183 25.4387 30.0101 25.4861C30.0021 25.5326 29.9904 25.5747 29.9724 25.6052C29.9632 25.6208 29.9446 25.6281 29.9272 25.623C29.9127 25.6188 29.876 25.6133 29.8182 25.6075C29.7618 25.6018 29.6888 25.5962 29.6042 25.5909C29.4352 25.5804 29.2212 25.5713 29.0047 25.5664C28.7881 25.5615 28.5695 25.5606 28.391 25.5665C28.3017 25.5695 28.223 25.574 28.1598 25.5806C28.0953 25.5872 28.0509 25.5955 28.0277 25.6044C28.0272 25.6046 28.0266 25.6048 28.026 25.605C27.9967 25.6148 27.9584 25.6223 27.9179 25.6302L27.9144 25.6309C27.8737 25.6388 27.8286 25.6476 27.7809 25.6599C27.6829 25.6853 27.5763 25.7252 27.4824 25.8005C27.3118 25.9373 27.1714 26.2013 27.2264 26.7477L27.4588 26.2195C27.4665 26.202 27.4856 26.1925 27.5042 26.197C27.5228 26.2015 27.5355 26.2186 27.5345 26.2377M27.5345 26.2377L27.5345 26.2379L27.5344 26.2388L27.5342 26.2424C27.5341 26.2457 27.5339 26.2505 27.5338 26.2569C27.5334 26.2695 27.5332 26.2878 27.5334 26.3104C27.534 26.3556 27.5367 26.4175 27.5452 26.4842C27.5538 26.5511 27.5681 26.6219 27.5914 26.6853C27.5995 26.7073 27.6086 26.7281 27.6187 26.7473C27.6205 26.5491 27.6606 26.3815 27.7037 26.2576C27.7297 26.1831 27.7568 26.1243 27.7776 26.0839C27.788 26.0637 27.7968 26.0481 27.8031 26.0374C27.8062 26.032 27.8088 26.0279 27.8105 26.025C27.8114 26.0236 27.8121 26.0225 27.8126 26.0217L27.8132 26.0208L27.8135 26.0204C27.8135 26.0204 27.8135 26.0204 27.8465 26.0421L27.8135 26.0204C27.8228 26.0062 27.8402 25.9995 27.8567 26.0039C27.8731 26.0082 27.8849 26.0226 27.886 26.0396L27.886 26.0399L27.8861 26.041L27.8864 26.0454C27.8867 26.0493 27.8871 26.0551 27.8877 26.0625C27.8889 26.0773 27.8907 26.0986 27.8933 26.1244C27.8985 26.1761 27.9066 26.2455 27.9185 26.3169C27.9305 26.3885 27.946 26.4608 27.9656 26.5189C27.9754 26.5479 27.9858 26.5722 27.9967 26.5907C28.0045 26.6038 28.0115 26.6125 28.0174 26.6178C28.0261 26.6043 28.0363 26.5805 28.0491 26.545C28.0563 26.5251 28.064 26.5023 28.0724 26.4774C28.0952 26.4099 28.1231 26.3272 28.1598 26.2456C28.2104 26.1333 28.28 26.0169 28.3829 25.9344C28.4872 25.8507 28.6232 25.8038 28.8007 25.8271C29.1242 25.8664 29.4062 25.8795 29.6072 25.8828C29.7077 25.8845 29.788 25.8836 29.843 25.8824C29.8705 25.8818 29.8917 25.8811 29.906 25.8805C29.9131 25.8802 29.9185 25.88 29.9221 25.8798L29.9261 25.8796L29.9271 25.8796L29.9273 25.8796C29.9482 25.8784 29.9664 25.8937 29.9688 25.9145L29.9296 25.9191C29.9688 25.9145 29.9688 25.9145 29.9688 25.9145L29.9713 25.9357C29.9729 25.9495 29.9752 25.9699 29.9782 25.9958C29.984 26.0476 29.9923 26.1218 30.0021 26.2114C30.0216 26.3906 30.0469 26.6314 30.07 26.8778C30.0931 27.124 30.114 27.3762 30.1248 27.5781C30.1302 27.679 30.133 27.7678 30.1323 27.8373C30.1319 27.872 30.1306 27.9024 30.1282 27.9274C30.1259 27.9514 30.1223 27.9738 30.1157 27.9904C30.1084 28.0086 30.0888 28.0188 30.0697 28.0142C29.84 27.9589 29.4418 27.9689 29.0904 28.0301C28.9152 28.0605 28.7543 28.1032 28.6338 28.1554C28.5735 28.1815 28.5248 28.2093 28.4898 28.238C28.4782 28.2475 28.4684 28.2568 28.4603 28.2659C28.7599 28.2494 28.9825 28.258 29.1333 28.2714C29.2145 28.2786 29.2749 28.2873 29.3152 28.2942C29.3354 28.2976 29.3506 28.3007 29.3608 28.3029C29.3659 28.3039 29.3698 28.3048 29.3725 28.3055L29.3756 28.3062L29.3765 28.3064L29.3767 28.3065L29.3768 28.3065C29.3769 28.3065 29.3769 28.3065 29.3671 28.3448L29.3768 28.3065C29.3909 28.3102 29.402 28.3213 29.4055 28.3354C29.4089 28.3495 29.4044 28.3645 29.3935 28.3742C29.3935 28.3742 29.3935 28.3742 29.3935 28.3742L29.3933 28.3745L29.3922 28.3754L29.388 28.3793C29.3842 28.3828 29.3787 28.388 29.3717 28.3947C29.3577 28.4081 29.3378 28.4277 29.3144 28.452C29.2675 28.5008 29.207 28.5684 29.1518 28.6439C29.0963 28.7199 29.0477 28.8019 29.0228 28.8797C29.005 28.9354 29.0001 28.986 29.0109 29.0302C29.0388 29.0027 29.0801 28.964 29.1349 28.9184C29.2447 28.8271 29.4086 28.7078 29.6257 28.5954C30.0445 28.3785 30.661 28.187 31.4683 28.2688C31.3373 28.1262 31.1188 28.0556 30.9131 28.0224C30.7963 28.0036 30.687 27.9974 30.6068 27.9959C30.5668 27.9951 30.5341 27.9956 30.5116 27.9962C30.5003 27.9965 30.4915 27.9969 30.4857 27.9971C30.4838 27.9972 30.4822 27.9973 30.4809 27.9974L30.479 27.9975L30.4774 27.9976L30.4771 27.9976C30.4562 27.9989 30.4379 27.9838 30.4352 27.9631L30.4745 27.9581C30.4352 27.9631 30.4352 27.9631 30.4352 27.9631L30.4352 27.963L30.4352 27.9628L30.4345 27.9575L30.4325 27.9412C30.4307 27.927 30.4282 27.9061 30.425 27.8795C30.4186 27.8263 30.4098 27.7503 30.3997 27.6587C30.3796 27.4755 30.3549 27.23 30.3362 26.9811C30.3175 26.7325 30.3047 26.4794 30.3089 26.2813C30.3109 26.1825 30.3172 26.0958 30.3296 26.0297C30.3358 25.9967 30.3437 25.9672 30.3543 25.9434C30.3644 25.9204 30.3794 25.8971 30.4028 25.8843C30.4328 25.868 30.4725 25.8574 30.5161 25.8501C30.5604 25.8428 30.6117 25.8385 30.6666 25.8364C30.7765 25.8322 30.9038 25.8367 31.0241 25.8444C31.1446 25.8522 31.2589 25.8632 31.3431 25.8723C31.3852 25.8769 31.4197 25.881 31.4438 25.8839C31.4505 25.8847 31.4563 25.8854 31.4613 25.886C31.4653 25.8866 31.4688 25.887 31.4717 25.8874L31.4783 25.8882C31.489 25.8872 31.5101 25.8777 31.5369 25.8504C31.5636 25.8232 31.5901 25.7841 31.6092 25.7389C31.6478 25.6475 31.6527 25.5417 31.5864 25.4607L31.5857 25.4599C31.5093 25.3609 31.3584 25.1278 31.2496 24.9001C31.1952 24.7864 31.1502 24.6717 31.1308 24.5745C31.1212 24.5259 31.1174 24.4795 31.1235 24.4387C31.1296 24.3974 31.1461 24.3594 31.1791 24.3327L31.18 24.3319C31.2109 24.3084 31.2544 24.2953 31.3013 24.2878C31.3492 24.28 31.4056 24.2774 31.4664 24.2783C31.588 24.2799 31.7314 24.2956 31.8678 24.3155C32.0043 24.3354 32.135 24.3597 32.2314 24.379C32.2501 24.3827 32.2675 24.3863 32.2834 24.3896L29.538 20.8721C29.5343 20.8674 29.5318 20.8618 29.5305 20.856L29.5692 20.8478M30.4231 17.6576C30.4231 17.6576 30.4231 17.6576 30.4231 17.6576V17.6576Z" fill="black"/>
<path fill-rule="evenodd" clip-rule="evenodd" d="M29.2618 18.8789C29.2618 18.8789 27.6007 20.707 28.3214 22.1045C28.3566 21.9111 28.339 21.7881 28.3653 21.7969C28.3214 21.7705 28.5675 21.9639 28.5499 21.9287C28.5499 21.8232 28.4796 21.6035 28.4796 21.6035L28.6993 21.665L28.5675 21.4189L28.8927 21.4541C28.8927 21.4541 28.7784 21.1553 28.8136 21.1553L29.0773 21.1729C28.6026 20.3291 29.0509 19.626 29.2618 18.8701V18.8789Z" fill="#9CA69C"/>
<path fill-rule="evenodd" clip-rule="evenodd" d="M29.2672 18.8309C29.2868 18.8336 29.3014 18.8504 29.3014 18.8701V18.8789C29.3014 18.8872 29.2988 18.8953 29.294 18.902C29.2508 19.0535 29.1985 19.203 29.1469 19.3507C29.1361 19.3816 29.1253 19.4124 29.1147 19.4431C29.0504 19.6284 28.9902 19.8115 28.9512 19.9967C28.8735 20.3656 28.8803 20.742 29.1118 21.1535C29.1189 21.1661 29.1185 21.1817 29.1107 21.1939C29.103 21.2062 29.0891 21.2133 29.0747 21.2123L28.8506 21.1974C28.8561 21.2229 28.8661 21.257 28.8776 21.2925C28.8895 21.3293 28.9025 21.3661 28.9126 21.3939C28.9176 21.4078 28.9219 21.4193 28.9249 21.4274L28.9284 21.4368L28.9294 21.4392L28.9296 21.4398L28.9296 21.4399C28.9346 21.4528 28.9325 21.4673 28.924 21.4782C28.9156 21.4892 28.9022 21.4949 28.8885 21.4934L28.6378 21.4663L28.7342 21.6464C28.7417 21.6603 28.7401 21.6774 28.7302 21.6898C28.7203 21.7022 28.704 21.7074 28.6887 21.7031L28.538 21.6609C28.5427 21.6777 28.5479 21.6966 28.5531 21.7167C28.57 21.782 28.5882 21.8644 28.5894 21.9226C28.5898 21.9243 28.5901 21.9263 28.5903 21.9283C28.591 21.9382 28.5882 21.9556 28.5714 21.9662C28.5588 21.9741 28.5464 21.9726 28.5429 21.9721C28.538 21.9714 28.5338 21.97 28.5313 21.9691C28.5219 21.9655 28.5107 21.9588 28.501 21.9525C28.4798 21.9389 28.451 21.9181 28.4239 21.8977C28.4111 21.8879 28.3984 21.8781 28.3867 21.869C28.3865 21.8716 28.3864 21.8744 28.3862 21.8773C28.3861 21.8793 28.3859 21.8812 28.3858 21.8833C28.3825 21.937 28.3777 22.0159 28.3603 22.1116C28.3573 22.1282 28.344 22.1411 28.3273 22.1436C28.3105 22.1461 28.294 22.1377 28.2863 22.1226C27.9166 21.4059 28.1597 20.5838 28.4862 19.9496C28.6501 19.6312 28.8365 19.3571 28.9819 19.1627C29.0546 19.0655 29.1171 18.988 29.1615 18.9348C29.1837 18.9082 29.2014 18.8877 29.2136 18.8738C29.2171 18.8698 29.2201 18.8663 29.2227 18.8634C29.223 18.8621 29.2234 18.8608 29.2238 18.8595C29.2291 18.8404 29.2476 18.8283 29.2672 18.8309ZM29.1635 19.0573C29.1291 19.1002 29.089 19.1515 29.0452 19.2101C28.9017 19.4021 28.7179 19.6724 28.5565 19.9858C28.2517 20.5779 28.0326 21.3131 28.3005 21.9651C28.3036 21.9319 28.3054 21.9027 28.3069 21.878L28.3072 21.8725C28.3088 21.8467 28.3103 21.823 28.3135 21.8064C28.3149 21.7995 28.3175 21.7883 28.324 21.7783C28.3347 21.7538 28.36 21.7547 28.363 21.7549C28.3691 21.7553 28.3737 21.7571 28.3749 21.7575C28.3769 21.7583 28.3786 21.7591 28.3797 21.7596C28.3818 21.7607 28.384 21.7619 28.3857 21.763C28.3921 21.7668 28.397 21.7721 28.4002 21.7782C28.4013 21.7791 28.4023 21.78 28.4035 21.7809C28.4195 21.7943 28.445 21.8145 28.4716 21.8345C28.4823 21.8426 28.493 21.8505 28.5031 21.8579C28.4967 21.8197 28.4869 21.7767 28.4765 21.7364C28.4678 21.703 28.4592 21.6727 28.4527 21.6507C28.4495 21.6398 28.4468 21.6309 28.4449 21.6249L28.4427 21.6179L28.4421 21.6161L28.442 21.6156L28.4796 21.6035M29.0086 21.1286C28.7992 20.7209 28.7972 20.3441 28.8738 19.9804C28.9139 19.7899 28.9756 19.6027 29.0399 19.4172C29.0507 19.3861 29.0616 19.355 29.0724 19.3239C29.1035 19.235 29.1345 19.1463 29.1635 19.0573" fill="#9CA69C"/>
<path fill-rule="evenodd" clip-rule="evenodd" d="M29.8417 17.3057C29.8417 17.3057 29.9296 17.9385 29.578 18.1143C29.5341 18.1582 29.3143 18.2285 29.3495 18.3604C29.3847 18.5361 29.4813 18.501 29.6132 18.4658C29.9735 18.4043 30.3954 17.6396 29.8417 17.3057Z" fill="#9CA69C"/>
<path fill-rule="evenodd" clip-rule="evenodd" d="M29.7856 17.2202L29.8645 17.2678C30.0122 17.3569 30.097 17.4764 30.1328 17.6074C30.1683 17.7374 30.1547 17.8753 30.112 18.0018C30.0692 18.1282 29.9966 18.2455 29.9107 18.3357C29.8259 18.4246 29.7247 18.4905 29.6228 18.5086C29.6176 18.5099 29.6124 18.5113 29.6072 18.5127C29.581 18.5198 29.5544 18.527 29.5298 18.5318C29.4997 18.5377 29.4676 18.5411 29.4368 18.5351C29.4042 18.5287 29.3751 18.5122 29.3523 18.4825C29.3307 18.4545 29.3163 18.4168 29.3068 18.37C29.2822 18.2746 29.3526 18.208 29.4089 18.1682C29.4374 18.1481 29.4681 18.1307 29.4931 18.1166C29.4945 18.1158 29.4959 18.115 29.4973 18.1142C29.5106 18.1067 29.5217 18.1004 29.5309 18.0946C29.5405 18.0886 29.5452 18.0848 29.5471 18.083L29.5521 18.0779L29.5585 18.0747C29.7131 17.9974 29.7766 17.816 29.7982 17.6385C29.8088 17.5515 29.8088 17.4695 29.8062 17.409C29.8048 17.3788 29.8028 17.3542 29.8012 17.3372C29.8003 17.3287 29.7996 17.3222 29.7991 17.3178C29.7988 17.3156 29.7986 17.314 29.7985 17.3129L29.7983 17.3117L29.7983 17.3115L29.7856 17.2202ZM29.8935 17.3956C29.8937 17.3987 29.8938 17.4019 29.894 17.4051C29.8968 17.4688 29.8968 17.5559 29.8854 17.6491C29.8634 17.8302 29.7961 18.0506 29.6035 18.1505C29.5954 18.1574 29.5862 18.1636 29.5777 18.169C29.5665 18.176 29.5536 18.1834 29.5406 18.1907C29.5395 18.1913 29.5384 18.192 29.5373 18.1926C29.5116 18.2071 29.4844 18.2225 29.4596 18.24C29.4041 18.2792 29.3826 18.3132 29.3921 18.3488L29.3925 18.3501L29.3927 18.3515C29.4008 18.392 29.4116 18.4155 29.4219 18.4289C29.4312 18.441 29.4412 18.4464 29.4536 18.4488C29.4679 18.4516 29.4868 18.4506 29.513 18.4455C29.5342 18.4414 29.557 18.4353 29.583 18.4282C29.5891 18.4266 29.5955 18.4249 29.602 18.4231L29.6039 18.4226L29.6059 18.4223C29.6834 18.409 29.7693 18.3566 29.8471 18.275C29.9243 18.194 29.9901 18.0877 30.0287 17.9736C30.0673 17.8595 30.0778 17.7398 30.048 17.6305C30.0247 17.5453 29.9762 17.4643 29.8935 17.3956Z" fill="#9CA69C"/>
<path fill-rule="evenodd" clip-rule="evenodd" d="M29.2266 17.8418C29.2266 17.8768 29.2127 17.9103 29.1879 17.935C29.1632 17.9597 29.1297 17.9736 29.0947 17.9736C29.0598 17.9736 29.0262 17.9597 29.0015 17.935C28.9768 17.9103 28.9629 17.8768 28.9629 17.8418C28.9629 17.8068 28.9768 17.7733 29.0015 17.7486C29.0262 17.7239 29.0598 17.71 29.0947 17.71C29.1297 17.71 29.1632 17.7239 29.1879 17.7486C29.2127 17.7733 29.2266 17.8068 29.2266 17.8418Z" fill="white"/>
<path fill-rule="evenodd" clip-rule="evenodd" d="M28.6902 18.3691C28.6024 18.4482 28.1453 18.9229 28.6024 19.0986C29.0682 18.9756 28.9363 18.8877 29.0418 18.7822C29.0418 18.5625 28.8133 18.5098 28.6902 18.3779V18.3691Z" fill="#DE3108"/>
<path fill-rule="evenodd" clip-rule="evenodd" d="M28.7342 18.36V18.2705L28.6609 18.3365C28.6153 18.3775 28.4738 18.5208 28.4019 18.6796C28.366 18.759 28.3445 18.8488 28.3687 18.9337C28.3936 19.0212 28.4635 19.0924 28.5866 19.1397L28.5999 19.1448L28.6136 19.1412C28.8468 19.0795 28.9439 19.024 28.9922 18.9605C29.013 18.9331 29.0235 18.9054 29.0317 18.8839C29.0328 18.8808 29.034 18.8777 29.0351 18.8749C29.0439 18.8522 29.0528 18.8335 29.0729 18.8133L29.0858 18.8005V18.7823C29.0858 18.6531 29.0168 18.5736 28.9394 18.5126C28.9118 18.4909 28.8815 18.4703 28.8528 18.4507C28.8423 18.4436 28.832 18.4366 28.8222 18.4298C28.7893 18.4069 28.7594 18.3846 28.7342 18.36ZM28.6855 18.4348C28.6283 18.4929 28.5337 18.6016 28.482 18.7158C28.4498 18.7869 28.4373 18.8536 28.4532 18.9096C28.4678 18.9608 28.509 19.0125 28.6051 19.0525C28.8265 18.9927 28.8942 18.9441 28.9223 18.9073C28.9349 18.8907 28.9408 18.8752 28.9491 18.8535C28.9504 18.8502 28.9518 18.8466 28.9532 18.8429C28.9623 18.8196 28.974 18.7932 28.9974 18.7657C28.9921 18.6846 28.9484 18.6316 28.885 18.5817C28.86 18.562 28.8336 18.544 28.8057 18.5251C28.7947 18.5176 28.7835 18.5099 28.772 18.5019C28.7429 18.4817 28.7129 18.4598 28.6855 18.4348Z" fill="black"/>
<path fill-rule="evenodd" clip-rule="evenodd" d="M29.7009 22.8955C29.6746 23.001 29.5691 23.3877 29.7097 23.6865C30.114 23.5107 30.2986 23.5635 30.4304 23.6514C30.1052 23.3877 29.9734 23.2734 29.7009 22.8955Z" fill="#9CA69C"/>
<path fill-rule="evenodd" clip-rule="evenodd" d="M29.733 22.8726C30.0028 23.2467 30.1318 23.3585 30.4553 23.6208C30.4718 23.6341 30.4748 23.658 30.4623 23.675C30.4498 23.692 30.4261 23.6962 30.4085 23.6845C30.3475 23.6438 30.2756 23.6118 30.1715 23.6098C30.066 23.6077 29.9247 23.6364 29.7255 23.723C29.7059 23.7315 29.6831 23.7229 29.6739 23.7035C29.5994 23.5452 29.591 23.3659 29.6033 23.2155C29.6148 23.0751 29.6449 22.9562 29.6596 22.8981C29.6607 22.8938 29.6617 22.8897 29.6626 22.8861L29.7009 22.8957L29.733 22.8726ZM29.7192 22.9878C29.9086 23.2439 30.0339 23.372 30.2255 23.5341C30.2088 23.5322 30.1913 23.5311 30.173 23.5307C30.0594 23.5285 29.9174 23.5574 29.7304 23.6349C29.6781 23.5028 29.6713 23.3542 29.6821 23.2219C29.6896 23.1307 29.7053 23.0489 29.7192 22.9878Z" fill="#9CA69C"/>
<path fill-rule="evenodd" clip-rule="evenodd" d="M30.3867 24.7061L30.4043 25.6025C30.4043 25.6025 30.7207 25.6553 30.8613 25.6025C31.002 25.5498 30.8613 24.9873 30.3867 24.7061Z" fill="white"/>
<path fill-rule="evenodd" clip-rule="evenodd" d="M30.3668 24.6719C30.3792 24.6647 30.3945 24.6647 30.4069 24.672C30.6525 24.8176 30.8115 25.0356 30.8912 25.2246C30.931 25.3189 30.9519 25.4081 30.9528 25.4793C30.9532 25.5147 30.9487 25.5479 30.9373 25.5755C30.9257 25.6036 30.9058 25.6281 30.8752 25.6396C30.8344 25.6549 30.7835 25.6617 30.7326 25.6643C30.681 25.6669 30.6266 25.6651 30.5774 25.6618C30.528 25.6584 30.4833 25.6534 30.4509 25.6492C30.4346 25.6471 30.4215 25.6452 30.4123 25.6438C30.4077 25.6431 30.4041 25.6426 30.4017 25.6422L30.3989 25.6417L30.3981 25.6416L30.3979 25.6416C30.3979 25.6416 30.3978 25.6416 30.4043 25.6025L30.3978 25.6416C30.379 25.6384 30.3651 25.6224 30.3648 25.6033L30.3472 24.7068C30.3469 24.6925 30.3544 24.6791 30.3668 24.6719ZM30.4432 25.5683C30.4486 25.5691 30.4545 25.5699 30.461 25.5707C30.4923 25.5748 30.5354 25.5796 30.5828 25.5829C30.6302 25.5861 30.6813 25.5877 30.7286 25.5853C30.7766 25.5829 30.8179 25.5766 30.8474 25.5655C30.852 25.5638 30.8585 25.5592 30.8642 25.5453C30.8702 25.5309 30.8741 25.5094 30.8737 25.4803C30.873 25.4223 30.8554 25.3434 30.8183 25.2554C30.751 25.0958 30.6223 24.913 30.4277 24.7792L30.4432 25.5683Z" fill="white"/>
<path fill-rule="evenodd" clip-rule="evenodd" d="M32.6368 24.8205C32.6368 24.8205 32.0655 23.4318 30.5978 23.0803C29.13 22.7287 29.3233 21.1643 29.4376 21.0676C29.5079 20.9357 29.5519 20.7248 29.9737 20.927C30.3956 21.1291 32.3468 22.1047 32.628 22.1574C32.9093 22.2102 32.6632 24.8557 32.6456 24.8205H32.6368Z" fill="#9CA69C"/>
<path fill-rule="evenodd" clip-rule="evenodd" d="M29.4982 21.0447C29.4912 21.0591 29.4839 21.0742 29.4764 21.0883L29.4724 21.0957L29.466 21.1012C29.4662 21.101 29.4661 21.101 29.4659 21.1014C29.465 21.1026 29.4613 21.1076 29.456 21.1198C29.4499 21.1338 29.4433 21.1533 29.437 21.1782C29.4245 21.2279 29.4136 21.2956 29.4081 21.3764C29.3971 21.538 29.4079 21.7487 29.4668 21.9669C29.5843 22.4015 29.8925 22.8662 30.608 23.0376C31.3538 23.2162 31.8712 23.6582 32.2014 24.0541C32.3666 24.2521 32.4854 24.439 32.5629 24.5765C32.5858 24.6171 32.6051 24.6534 32.621 24.6845C32.6282 24.6179 32.6369 24.5285 32.646 24.4229C32.6671 24.1795 32.6907 23.8511 32.705 23.5201C32.7192 23.1887 32.7241 22.8561 32.708 22.6035C32.7 22.477 32.6868 22.3728 32.6677 22.2996C32.6581 22.2628 32.6477 22.2364 32.6373 22.2194C32.6322 22.2111 32.6278 22.2062 32.6246 22.2035C32.6216 22.201 32.6201 22.2007 32.6199 22.2007C32.58 22.1932 32.515 22.1705 32.4343 22.1386C32.3524 22.1062 32.2509 22.0626 32.1361 22.0115C31.9065 21.9092 31.6226 21.7758 31.3346 21.6379C31.0466 21.4999 30.7542 21.3573 30.5076 21.2366C30.446 21.2064 30.3873 21.1777 30.3322 21.1507C30.1665 21.0695 30.0337 21.0045 29.9547 20.9666C29.7469 20.867 29.6491 20.8778 29.5966 20.9096C29.5692 20.9263 29.5484 20.9517 29.5296 20.9838C29.5202 20.9998 29.5117 21.0168 29.503 21.0347C29.5014 21.038 29.4998 21.0413 29.4982 21.0447ZM32.5962 24.8373L32.5961 24.8371L32.5959 24.8365L32.5947 24.8338C32.5937 24.8313 32.5921 24.8276 32.5899 24.8227C32.5855 24.8128 32.5788 24.7981 32.5698 24.7791C32.5517 24.7413 32.5241 24.6866 32.4863 24.6197C32.4109 24.4858 32.2951 24.3035 32.134 24.1104C31.8116 23.7241 31.3095 23.296 30.5875 23.123C29.8352 22.9429 29.5062 22.4496 29.382 21.9898C29.3201 21.7609 29.3089 21.5404 29.3204 21.3705C29.3262 21.2855 29.3377 21.2124 29.3518 21.1566C29.3589 21.1288 29.3668 21.1045 29.3754 21.0848C29.382 21.0696 29.3905 21.0535 29.4019 21.0411C29.4074 21.0304 29.4129 21.0192 29.4187 21.0071C29.4204 21.0036 29.4222 20.9999 29.424 20.9962C29.4328 20.9781 29.4426 20.9585 29.4538 20.9394C29.4762 20.9012 29.506 20.8618 29.5511 20.8345C29.6436 20.7784 29.7787 20.7848 29.9927 20.8874C30.0721 20.9254 30.2054 20.9907 30.3712 21.072C30.4262 21.0989 30.4848 21.1276 30.5462 21.1576C30.7928 21.2783 31.0849 21.4208 31.3726 21.5586C31.6603 21.6964 31.9433 21.8294 32.1718 21.9312C32.2861 21.9821 32.3864 22.0251 32.4667 22.0569C32.5482 22.0892 32.6057 22.1086 32.6361 22.1143C32.6713 22.1209 32.6957 22.1465 32.7122 22.1735C32.7291 22.201 32.7422 22.2369 32.7528 22.2774C32.774 22.3588 32.7876 22.4697 32.7958 22.598C32.8121 22.8552 32.8071 23.1916 32.7928 23.5238C32.7785 23.8564 32.7548 24.1861 32.7336 24.4305C32.723 24.5527 32.713 24.6537 32.7051 24.7233C32.7011 24.758 32.6977 24.7854 32.6948 24.8037C32.6935 24.8126 32.692 24.8206 32.6906 24.8266L32.6906 24.8267C32.6901 24.8287 32.6886 24.8347 32.6856 24.8405C32.6847 24.8422 32.6829 24.8455 32.6798 24.8491C32.6773 24.8521 32.6705 24.8594 32.6588 24.8629C32.6525 24.8648 32.6463 24.8652 32.6404 24.8645H32.6074L32.5962 24.8373Z" fill="black"/>
<path fill-rule="evenodd" clip-rule="evenodd" d="M31.248 23.0713C31.2217 23.0889 33.208 24.249 32.6104 25.2422C33.1729 24.8643 32.9971 24.2139 32.9971 24.2139C32.9971 24.2139 33.4541 25.418 32.3291 26.0068C32.4521 26.1123 32.5312 26.0947 32.5312 26.0947L32.3379 26.2793C32.3379 26.2793 32.25 26.4287 33.0059 26.0596C32.8037 26.2266 32.7861 26.3496 32.7861 26.3496C32.7861 26.3496 32.8389 26.5078 33.3311 26.0771C32.9355 26.5078 32.8477 26.7275 32.8477 26.7187C33.9287 26.6309 36.2754 23.1152 32.1094 22.0869L32.2939 22.2803L31.2393 23.0713H31.248Z" fill="#DE3108"/>
<path fill-rule="evenodd" clip-rule="evenodd" d="M32.0752 22.0671C32.084 22.0519 32.1018 22.0443 32.1189 22.0485C33.1658 22.3069 33.8099 22.7232 34.1662 23.2087C34.523 23.6949 34.5872 24.2454 34.485 24.7632C34.3829 25.2802 34.1148 25.7661 33.8042 26.1283C33.6489 26.3095 33.4822 26.4607 33.3192 26.5696C33.1584 26.677 32.9986 26.745 32.8554 26.7578C32.848 26.7593 32.838 26.7592 32.8276 26.7531C32.8143 26.7452 32.8104 26.7328 32.8094 26.7291C32.8082 26.7243 32.8081 26.7204 32.8081 26.7188C32.8081 26.7097 32.8112 26.7013 32.8163 26.6946L32.8172 26.6929C32.8204 26.687 32.8255 26.6771 32.833 26.6636C32.8479 26.6367 32.8717 26.5957 32.9081 26.5409C32.9444 26.4862 32.993 26.4178 33.0574 26.3361C32.9809 26.3831 32.9241 26.4056 32.8815 26.4137C32.8369 26.4222 32.804 26.4158 32.7807 26.4009C32.7694 26.3937 32.7618 26.3853 32.7568 26.378C32.7543 26.3744 32.7525 26.3711 32.7512 26.3684C32.7505 26.3671 32.75 26.3658 32.7496 26.3648L32.749 26.3633L32.7488 26.3627L32.7487 26.3624L32.7487 26.3623C32.7486 26.3622 32.7486 26.3621 32.7861 26.3496C32.747 26.344 32.747 26.344 32.747 26.344L32.747 26.3439L32.747 26.3438L32.7471 26.3435L32.7472 26.3428L32.7475 26.3408C32.7478 26.3393 32.7482 26.3373 32.7488 26.3349C32.75 26.33 32.7518 26.3233 32.7546 26.3151C32.7602 26.2985 32.7698 26.2756 32.7859 26.2475C32.796 26.23 32.8086 26.2105 32.8243 26.1894C32.7323 26.2315 32.6575 26.2631 32.5969 26.2865C32.498 26.3247 32.4344 26.3421 32.3932 26.3471C32.3727 26.3496 32.3546 26.3495 32.3393 26.3452C32.3229 26.3406 32.3074 26.3304 32.2997 26.3126C32.2928 26.2967 32.2954 26.282 32.2975 26.2745C32.2986 26.2703 32.3 26.2669 32.3011 26.2644C32.3017 26.2632 32.3022 26.2621 32.3027 26.2613L32.3033 26.2601L32.3036 26.2596L32.3037 26.2594L32.3037 26.2593C32.3038 26.2593 32.3038 26.2592 32.3379 26.2793L32.3038 26.2592C32.3057 26.2561 32.3079 26.2532 32.3106 26.2507L32.4451 26.1223C32.4064 26.1092 32.3582 26.0839 32.3034 26.0369C32.2934 26.0283 32.2883 26.0154 32.2898 26.0024C32.2913 25.9893 32.2991 25.9779 32.3108 25.9718C32.8587 25.685 33.0199 25.2506 33.0455 24.8868C33.0514 24.8036 33.0501 24.7241 33.0447 24.6509C33.0069 24.8569 32.8992 25.0958 32.6324 25.275C32.617 25.2854 32.5965 25.2836 32.5831 25.2708C32.5697 25.2581 32.5669 25.2377 32.5765 25.2218C32.7179 24.9868 32.7076 24.7417 32.6093 24.5014C32.5105 24.2598 32.3233 24.0256 32.1155 23.8189C31.9082 23.6127 31.6829 23.4364 31.5105 23.3102C31.4331 23.2535 31.3665 23.2071 31.3171 23.1726C31.3114 23.1687 31.3061 23.1649 31.3009 23.1613C31.2757 23.1437 31.2554 23.1295 31.2419 23.1193C31.2374 23.116 31.2331 23.1127 31.2294 23.1096C31.2166 23.1063 31.2061 23.0968 31.2017 23.0838C31.1964 23.0676 31.2019 23.0499 31.2155 23.0397L32.2346 22.2754L32.0808 22.1142C32.0686 22.1015 32.0663 22.0823 32.0752 22.0671ZM31.3077 23.0694C31.3182 23.0769 31.3311 23.0859 31.3462 23.0965C31.3513 23.1 31.3567 23.1038 31.3623 23.1077C31.4118 23.1422 31.479 23.1891 31.5572 23.2463C31.7311 23.3737 31.96 23.5527 32.1713 23.7629C32.3822 23.9726 32.5779 24.2157 32.6825 24.4715C32.7667 24.6772 32.7924 24.8926 32.7188 25.1045C32.8892 24.9402 32.9547 24.7461 32.9754 24.5814C32.9881 24.4803 32.9839 24.3905 32.9765 24.3259C32.9728 24.2937 32.9683 24.2679 32.9647 24.2503C32.963 24.2415 32.9615 24.2348 32.9604 24.2304C32.9599 24.2282 32.9595 24.2265 32.9592 24.2255L32.9589 24.2244L32.9589 24.2242L32.9589 24.2242L32.9589 24.2242C32.9534 24.2038 32.9648 24.1827 32.9849 24.1762C33.0049 24.1697 33.0266 24.1801 33.034 24.1998L32.9971 24.2139C33.034 24.1998 33.0341 24.1999 33.0341 24.1999L33.0341 24.2L33.0342 24.2002L33.0345 24.201L33.0355 24.2039C33.0364 24.2064 33.0377 24.21 33.0393 24.2147C33.0426 24.2241 33.0471 24.2378 33.0524 24.2553C33.063 24.2904 33.0767 24.3408 33.0896 24.4032C33.1154 24.5277 33.1379 24.7004 33.1244 24.8923C33.0982 25.2654 32.9354 25.7103 32.4016 26.0124C32.437 26.036 32.4657 26.0469 32.4859 26.052C32.5003 26.0556 32.5108 26.0563 32.517 26.0563C32.5201 26.0563 32.5222 26.0561 32.5231 26.056C32.5233 26.056 32.5235 26.0559 32.5236 26.0559C32.5406 26.0526 32.5579 26.0607 32.5661 26.0761C32.5745 26.0918 32.5714 26.1111 32.5586 26.1233L32.4115 26.2637C32.4451 26.2563 32.4951 26.2411 32.5684 26.2127C32.665 26.1754 32.8001 26.116 32.9885 26.024C33.0065 26.0152 33.0283 26.0213 33.0391 26.0382C33.05 26.055 33.0465 26.0773 33.0311 26.0901C32.9333 26.1708 32.8816 26.2398 32.8545 26.2869C32.8422 26.3083 32.8349 26.3254 32.8307 26.3371C32.8372 26.3386 32.8484 26.3395 32.8666 26.336C32.9301 26.3239 33.0594 26.2623 33.305 26.0474C33.3208 26.0336 33.3447 26.0345 33.3594 26.0495C33.374 26.0646 33.3744 26.0884 33.3602 26.1039C33.1637 26.3178 33.0442 26.4788 32.974 26.5846C32.9522 26.6175 32.9351 26.6451 32.922 26.6673C33.0296 26.6432 33.1498 26.5876 33.2752 26.5038C33.4312 26.3996 33.5926 26.2536 33.7442 26.0768C34.0475 25.723 34.3084 25.2492 34.4074 24.7478C34.5062 24.2472 34.4435 23.7204 34.1024 23.2555C33.7757 22.8103 33.1901 22.4169 32.2336 22.1598L32.3226 22.253C32.3304 22.2611 32.3343 22.2723 32.3334 22.2835C32.3324 22.2948 32.3267 22.3051 32.3177 22.3119L31.3077 23.0694ZM32.7861 26.3496L32.747 26.344C32.7461 26.3501 32.7467 26.3563 32.7486 26.3621L32.7861 26.3496Z" fill="black"/>
<path fill-rule="evenodd" clip-rule="evenodd" d="M31.3359 22.7283C31.5995 22.9217 31.6962 22.992 31.7314 23.0799C31.4853 23.0271 31.2655 23.0447 31.2655 23.0447C31.2655 23.0447 30.7294 22.535 30.6327 22.491C30.5624 22.491 30.1405 22.2273 30.1405 22.2273C29.9384 22.1219 29.745 21.41 30.5097 21.6121C30.803 21.7651 31.1053 21.9001 31.415 22.0164L32.3554 22.3152L32.9003 22.9217C32.9003 22.9217 31.9335 22.4471 31.8105 22.4383C32.0741 22.6492 32.2236 22.948 32.2236 22.948C31.9159 22.8602 31.6523 22.7723 31.3359 22.7283Z" fill="white"/>
<path fill-rule="evenodd" clip-rule="evenodd" d="M30.0416 22.0423C30.0746 22.1172 30.1198 22.1719 30.1588 22.1923C30.1597 22.1928 30.1606 22.1933 30.1615 22.1938L30.1662 22.1967L30.1796 22.205C30.1912 22.2122 30.2079 22.2224 30.2281 22.2347C30.2686 22.2594 30.3233 22.2922 30.38 22.3249C30.4369 22.3577 30.4955 22.3902 30.5439 22.4144C30.5681 22.4266 30.5892 22.4363 30.6059 22.4429C30.6143 22.4462 30.621 22.4485 30.6262 22.4499C30.631 22.4513 30.633 22.4514 30.633 22.4515C30.633 22.4515 30.6329 22.4515 30.6327 22.4515C30.6384 22.4515 30.644 22.4527 30.6491 22.455C30.6657 22.4626 30.6879 22.4779 30.7116 22.4959C30.7363 22.5147 30.7658 22.5387 30.7979 22.5659C30.8623 22.6203 30.9388 22.6885 31.012 22.7551C31.0853 22.8217 31.1554 22.887 31.2073 22.9355C31.2332 22.9598 31.2546 22.9799 31.2695 22.994L31.2803 23.0042C31.2863 23.0039 31.2937 23.0036 31.3024 23.0033C31.3275 23.0024 31.3635 23.0019 31.4072 23.003C31.4728 23.0047 31.5563 23.0101 31.6472 23.0242C31.6331 23.0091 31.6155 22.9925 31.5936 22.9737C31.5343 22.9229 31.4475 22.8592 31.3182 22.7644L31.3125 22.7602L31.3359 22.7283L31.3413 22.6891C31.6045 22.7257 31.8321 22.7924 32.0747 22.8636C32.0967 22.87 32.1188 22.8765 32.1411 22.883C32.1255 22.8577 32.1063 22.8277 32.0834 22.7949C32.0144 22.6956 31.9136 22.5714 31.7858 22.4692C31.7722 22.4583 31.7673 22.44 31.7736 22.4239C31.7799 22.4077 31.796 22.3976 31.8133 22.3988C31.8351 22.4004 31.8688 22.4109 31.9061 22.4244C31.9452 22.4385 31.9938 22.4581 32.0481 22.4811C32.1567 22.5271 32.2896 22.5875 32.4182 22.6474C32.5342 22.7015 32.6471 22.7553 32.7361 22.7981L32.3332 22.3497L31.403 22.0541C31.4023 22.0539 31.4017 22.0537 31.4011 22.0534C31.0913 21.9371 30.7888 21.8021 30.4953 21.6492C30.3105 21.601 30.1912 21.6099 30.1176 21.644C30.0461 21.6772 30.0114 21.7371 30.0018 21.8096C29.992 21.8835 30.0091 21.9687 30.0416 22.0423ZM32.9003 22.9217C32.8829 22.9572 32.8829 22.9572 32.8829 22.9572L32.872 22.9519C32.865 22.9484 32.8545 22.9433 32.8412 22.9368C32.8146 22.9238 32.7764 22.9053 32.7301 22.883C32.6377 22.8384 32.5132 22.7789 32.3848 22.7191C32.2564 22.6593 32.1245 22.5994 32.0172 22.5539C32.0027 22.5478 31.9886 22.5419 31.9751 22.5363C32.0455 22.6102 32.1036 22.6854 32.1484 22.7497C32.1842 22.8013 32.2117 22.8461 32.2303 22.8782C32.2396 22.8943 32.2467 22.9072 32.2515 22.9161C32.2539 22.9206 32.2557 22.9241 32.2569 22.9265L32.2584 22.9293L32.2588 22.93L32.2589 22.9302L32.2589 22.9303C32.2589 22.9304 32.2589 22.9304 32.2236 22.948L32.2589 22.9303C32.2659 22.9444 32.264 22.9612 32.254 22.9733C32.244 22.9854 32.2278 22.9904 32.2127 22.9861C32.1573 22.9703 32.1035 22.9545 32.0507 22.939C31.8608 22.8833 31.6838 22.8315 31.4924 22.7945C31.556 22.8417 31.606 22.8802 31.645 22.9136C31.7082 22.9678 31.747 23.0124 31.7681 23.0652C31.7735 23.0788 31.771 23.0942 31.7616 23.1054C31.7522 23.1166 31.7374 23.1216 31.7231 23.1186C31.6031 23.0928 31.4892 23.0842 31.4052 23.0821C31.3632 23.081 31.3288 23.0815 31.3051 23.0823C31.2932 23.0827 31.284 23.0832 31.2778 23.0836C31.2747 23.0837 31.2723 23.0839 31.2708 23.084L31.2691 23.0841L31.2688 23.0841C31.2688 23.0841 31.2688 23.0841 31.2688 23.0841M31.2655 23.0447L31.2383 23.0734L31.2323 23.0677L31.2152 23.0515C31.2003 23.0375 31.1791 23.0175 31.1532 22.9933C31.1015 22.9449 31.0317 22.8799 30.9588 22.8136C30.8858 22.7473 30.8102 22.6798 30.7469 22.6263C30.7152 22.5995 30.6869 22.5765 30.6638 22.5589C30.6442 22.5441 30.6302 22.5346 30.6215 22.5297C30.6254 22.5303 30.6291 22.5306 30.6327 22.5306V22.491L30.6164 22.527C30.6178 22.5277 30.6195 22.5286 30.6215 22.5297C30.607 22.5276 30.591 22.522 30.5769 22.5165C30.5571 22.5087 30.5337 22.4978 30.5085 22.4852C30.458 22.4599 30.3979 22.4265 30.3405 22.3934C30.283 22.3603 30.2278 22.3271 30.187 22.3023C30.1666 22.2899 30.1498 22.2796 30.138 22.2723L30.1244 22.2639L30.1208 22.2617C30.0593 22.2289 30.0051 22.1556 29.9692 22.0743C29.9325 21.9911 29.9112 21.8911 29.9234 21.7992C29.9357 21.7057 29.9834 21.619 30.0844 21.5722C30.1827 21.5267 30.3247 21.5223 30.5198 21.5739C30.5226 21.5746 30.5254 21.5757 30.528 21.577C30.8196 21.7291 31.1201 21.8633 31.4279 21.979L32.3674 22.2775C32.3741 22.2797 32.3801 22.2836 32.3848 22.2888L32.9297 22.8952C32.9424 22.9093 32.9433 22.9304 32.9319 22.9455C32.9204 22.9606 32.8999 22.9655 32.8829 22.9572L32.9003 22.9217M31.2688 23.0841C31.2688 23.0841 31.2688 23.0841 31.2688 23.0841C31.2576 23.085 31.2464 23.0811 31.2383 23.0734L31.2655 23.0447" fill="black"/>
<path fill-rule="evenodd" clip-rule="evenodd" d="M27.5837 18.4864C27.5625 18.4917 27.5411 18.4787 27.5358 18.4575C27.5306 18.4363 27.5435 18.4149 27.5647 18.4096L27.5742 18.448C27.5647 18.4096 27.5647 18.4096 27.5647 18.4096L27.5752 18.407C27.582 18.4054 27.592 18.4029 27.6048 18.3998C27.6303 18.3936 27.6669 18.3848 27.7111 18.3744C27.7996 18.3535 27.9188 18.3259 28.0416 18.2995C28.1643 18.2731 28.2912 18.2476 28.3948 18.231C28.4466 18.2227 28.4931 18.2164 28.5308 18.2134C28.5497 18.2119 28.5668 18.2112 28.5816 18.2115C28.5958 18.2118 28.6105 18.213 28.623 18.2169C28.6438 18.2233 28.6556 18.2454 28.6491 18.2663C28.6427 18.2872 28.6206 18.2989 28.5997 18.2925C28.5979 18.2919 28.592 18.2908 28.5801 18.2906C28.5688 18.2904 28.5545 18.2909 28.5371 18.2923C28.5025 18.2951 28.4582 18.3009 28.4074 18.3091C28.3058 18.3254 28.1805 18.3505 28.0583 18.3768C27.9361 18.4031 27.8175 18.4305 27.7293 18.4513C27.6852 18.4618 27.6488 18.4705 27.6234 18.4767C27.6107 18.4798 27.6008 18.4822 27.594 18.4839L27.5837 18.4864Z" fill="white"/>
<path fill-rule="evenodd" clip-rule="evenodd" d="M-3.75 37.5029H63.75V45H-3.75V37.5029Z" fill="#DE3908"/>
</g>
<defs>
<clipPath id="clip0_59_66366">
<rect width="60" height="45" fill="white"/>
</clipPath>
</defs>
</svg>
