<svg width="60" height="45" viewBox="0 0 60 45" fill="none" xmlns="http://www.w3.org/2000/svg">
<g clip-path="url(#clip0_59_67487)">
<path fill-rule="evenodd" clip-rule="evenodd" d="M0 0H60V45H0V0Z" fill="#CE1126"/>
<path fill-rule="evenodd" clip-rule="evenodd" d="M0 0H30V22.5H0V0Z" fill="#002B7F"/>
<path fill-rule="evenodd" clip-rule="evenodd" d="M16.8752 21.4969L14.9346 20.1844L13.0689 21.5062L13.6783 19.1719L11.8971 17.7469L14.1939 17.6062L14.9533 15.3937L15.7783 17.6437L18.0283 17.7094L16.2471 19.2375L16.8752 21.4969ZM16.5377 5.97187L14.9814 4.96875L13.4814 5.94375L13.8939 4.06875L12.5252 2.87812L14.3439 2.72812L15.0189 0.984375L15.7127 2.7375L17.5033 2.89687L16.1252 4.15312L16.5377 5.97187ZM9.69395 11.55L8.19395 10.5187L6.62832 11.55L7.11582 9.73125L5.7002 8.53125L7.5002 8.4375L8.15645 6.65625L8.79395 8.42812L10.6314 8.53125L9.2252 9.70312L9.69395 11.55ZM23.4377 10.3125L21.9939 9.375L20.5877 10.3125L21.0002 8.59687L19.6877 7.49062L21.4033 7.35L21.9939 5.7375L22.6502 7.36875L24.3096 7.4625L23.0252 8.61562L23.4377 10.3125ZM19.3971 14.3812L18.4314 13.7812L17.4658 14.4L17.7189 13.2469L16.8564 12.4687L17.9814 12.375L18.4127 11.2875L18.8721 12.375L19.9877 12.4687L19.1346 13.2469L19.3971 14.3812Z" fill="white"/>
</g>
<defs>
<clipPath id="clip0_59_67487">
<rect width="60" height="45" fill="white"/>
</clipPath>
</defs>
</svg>
