<svg width="60" height="45" viewBox="0 0 60 45" fill="none" xmlns="http://www.w3.org/2000/svg">
<g clip-path="url(#clip0_59_49267)">
<path d="M0 0H60V45H0V0Z" fill="#000066"/>
<path d="M-0.0561523 22.5L59.9438 0V45L-0.0561523 22.5Z" fill="#BD1021"/>
<path d="M5.59668 22.4998L59.9717 2.40918V42.5904" fill="white"/>
<path d="M44.4374 25.3499C44.9155 25.378 44.9062 25.8562 44.9062 25.8562L46.5937 25.8937C46.8093 25.303 47.0437 25.3687 47.4562 25.6687C47.7072 25.8393 47.982 25.972 48.2718 26.0624C48.4312 25.2187 49.6312 25.3874 49.6312 25.3874C50.1562 24.1687 50.1936 24.178 49.8843 24.028C49.7006 23.935 49.5501 23.7877 49.453 23.6062C49.1718 23.2593 49.0218 22.753 48.9843 22.4437C48.9468 22.1343 48.5905 22.5937 48.5155 22.4999C48.4593 22.4062 47.9249 22.4624 47.9249 22.4624C48.0562 22.603 47.6062 22.5187 47.6062 22.5187C47.653 22.5562 47.6062 22.678 47.6062 22.678C47.5687 22.6218 47.2218 22.5655 47.2218 22.5655C47.1956 22.6207 47.1608 22.6714 47.1187 22.7155C46.9312 22.6405 46.5562 22.6499 46.5562 22.6499C46.1974 22.6378 45.8428 22.7289 45.5343 22.9124C45.3843 22.9968 44.8405 23.2687 44.3812 23.7093C43.9405 24.1405 43.6874 24.0843 43.6874 24.0843C43.5562 24.5718 42.4874 25.1624 42.4874 25.1624C42.3187 25.3124 41.7749 25.3874 41.503 25.1624C41.2312 24.9374 41.503 24.5155 41.503 24.5155C41.6155 24.328 41.7093 24.3374 41.7187 23.6718C41.728 23.2312 42.1874 22.8749 42.6562 22.3593C43.2468 21.7218 44.0624 20.6718 44.0624 20.6718C44.0624 20.9905 44.2312 21.0468 44.2312 21.0468C44.3905 20.7187 44.6249 20.4562 44.6249 20.4562C44.6343 20.4843 44.6718 20.4937 44.6718 20.4937C44.8593 20.2499 44.953 20.1562 44.953 20.1562C44.9062 20.128 44.3905 20.1562 43.9218 20.5687C43.453 20.9812 43.1343 20.8499 43.1343 20.8499C42.8062 20.7374 42.778 20.4749 42.778 20.4749C42.5437 19.453 43.4718 18.7218 43.4718 18.7218C42.2155 18.4218 43.1249 16.8187 44.6905 16.1437C46.2468 15.4687 46.228 15.1593 46.228 15.1593C46.2967 15.245 46.3535 15.3396 46.3968 15.4405C46.4062 15.4405 46.528 15.2624 47.428 14.8687C48.328 14.4655 48.7593 14.1187 48.7593 14.1187C48.8718 14.3437 48.853 14.4937 48.853 14.4937C51.3186 13.6405 53.728 11.6624 53.728 11.6624C53.803 11.8218 53.7749 12.0749 53.7749 12.0749C54.1686 11.6999 55.6218 10.8374 55.6218 10.8374C55.6323 10.9936 55.5971 11.1494 55.5205 11.2859C55.4439 11.4224 55.3293 11.5337 55.1905 11.6062C55.2268 11.6736 55.2521 11.7464 55.2655 11.8218C55.7226 11.5357 56.1727 11.2388 56.6155 10.9312C57.0187 11.278 56.653 11.8499 56.653 11.8499C56.803 11.8218 56.8968 11.6999 56.8968 11.6999C57.0093 12.2999 56.3437 12.8249 56.3437 12.8249C56.4655 12.8249 56.653 12.703 56.653 12.703C56.5312 13.3593 55.303 14.0718 55.303 14.0718C55.4812 14.2405 55.303 14.4468 55.153 14.5405C55.0124 14.6343 54.7499 14.8499 54.8343 14.9343C54.9093 15.028 55.4624 14.6343 55.4624 14.6343C55.5561 14.9062 54.853 15.4405 54.853 15.4405C55.3405 15.5062 56.6905 14.8874 56.6905 14.8874C56.5874 15.4124 56.0718 15.8249 55.4437 16.0593C54.8155 16.2937 54.8437 16.3405 54.8437 16.3405C54.9562 16.4155 55.828 16.1718 55.828 16.1718C55.5655 16.753 54.6562 17.1562 54.6562 17.1562C54.9093 17.3718 55.2468 17.1187 55.5937 16.8843C56.0027 16.627 56.444 16.4253 56.9062 16.2843C57.403 16.1062 57.7687 16.2374 57.7687 16.2374C58.1999 16.1062 58.5561 16.2937 58.5561 16.2937C59.3718 16.3593 59.4562 16.6593 59.4562 16.6593C59.5499 16.678 59.6155 16.7155 59.8312 16.8749C60.028 17.0249 60.0187 17.4937 60.0187 17.7374C59.9999 17.9624 59.9343 17.9624 59.8968 18.0187C59.8593 18.0937 59.8499 18.1687 59.8499 18.253C59.8499 18.3468 59.6437 18.8999 58.378 18.8999H56.4749C56.3624 18.8999 56.2405 18.9655 56.2405 18.9655C55.7062 19.228 55.9874 18.778 55.3593 19.303C54.7218 19.8187 54.403 19.7343 54.403 19.7343C54.0489 20.0963 53.663 20.4258 53.2499 20.7187C52.8749 20.9624 52.9405 20.9343 53.278 21.0749C53.6155 21.2155 54.103 21.0749 54.103 21.0749C53.7843 21.2905 54.0093 21.3937 54.0093 21.3937C54.4218 21.1405 54.6843 21.2343 54.6843 21.2343C54.8155 21.5999 54.328 22.1718 54.328 22.1718C54.5155 22.1999 54.8718 22.1718 54.8718 22.1718C54.778 22.4249 54.4405 22.6968 54.178 22.7718C53.9249 22.8655 53.9624 22.8937 54.0468 23.053C54.1124 23.203 54.0561 23.3624 54.0561 23.3624C53.6061 23.053 53.5874 23.3249 53.5874 23.3249C53.5405 23.6999 53.5499 24.2249 53.5499 24.2249C53.2312 24.0655 53.2218 24.2718 53.2218 24.2718C53.128 24.6093 52.7436 24.9937 52.7436 24.9937C52.7249 24.7874 52.5374 24.7312 52.5374 24.7312C52.3312 25.1249 51.9655 25.3593 51.9655 25.3593C51.9187 25.6874 52.0124 26.1655 52.0124 26.1655C51.7687 26.1093 51.6843 26.1093 51.6374 26.1655C51.6093 26.2312 51.6937 26.2593 51.6937 26.2593L54.8249 26.3343C54.8718 26.3343 55.0593 26.3624 55.0593 26.6905C55.0593 27.0374 54.778 27.0562 54.778 27.0562L51.3655 26.9718C51.3655 26.9718 51.3749 27.0655 51.1968 27.1593C51.0186 27.253 51.0843 27.0562 51.0374 27.478C50.9812 27.8905 50.3061 27.4405 50.3061 27.4405C50.1936 27.6093 49.9311 27.8155 49.9311 27.8155C49.7718 27.3468 49.6124 27.2155 49.3686 27.6093C49.1249 28.0124 49.8187 27.9468 49.8187 27.9468C49.8187 27.9468 53.8312 27.3562 54.0468 27.3374C54.2624 27.3093 54.5062 27.328 54.6093 27.628C54.703 27.9374 54.1124 27.9843 54.1124 27.9843L49.9874 28.4343C49.903 28.678 49.5655 28.6593 49.5655 28.6593C49.5937 28.8937 49.3499 29.0343 49.228 29.128C49.0968 29.203 48.703 29.1749 48.703 29.1749C48.2343 29.4937 47.9905 29.2405 47.9905 29.2405C47.6812 29.3718 47.4843 29.3155 47.2312 29.203C46.9687 29.0905 46.9968 28.7812 46.9968 28.7812L44.3905 29.0624C44.3153 29.0866 44.2453 29.1248 44.1843 29.1749C44.278 29.2968 43.9968 29.578 43.9968 29.578C44.0812 29.6249 44.2312 29.7749 44.2499 30.0937C44.2687 30.4405 43.828 30.4968 44.0437 30.7499C44.2593 30.9843 44.6718 30.778 45.1218 30.5624C45.5718 30.3468 46.0124 30.3749 46.1999 30.3749C46.3874 30.3749 46.9312 30.5249 47.2687 30.6374C47.6062 30.7499 47.7187 30.6749 47.7374 30.5062C47.7562 30.3468 47.9155 30.2905 47.9155 30.2905C47.8687 30.4593 47.9624 30.5343 47.9624 30.5343C48.0844 30.5148 48.2019 30.4735 48.3093 30.4124C48.2905 30.5437 48.1218 30.6187 48.1218 30.6187C47.803 30.8343 48.253 30.7593 48.253 30.7593C49.1437 30.5718 49.4718 30.5905 49.6968 30.6187C50.1533 30.7532 50.6011 30.916 51.0374 31.1062C51.0749 30.9937 51.0468 30.7312 51.0468 30.7312C51.328 30.8062 51.4405 30.9655 51.4405 30.9655C51.553 30.853 51.478 30.6468 51.478 30.6468C52.3874 31.1624 51.2905 31.3968 50.9999 31.4905C50.7187 31.5843 50.7187 31.7062 50.7187 31.7062C50.953 31.6312 51.1218 31.603 51.3187 31.5843C51.5249 31.5655 51.4499 31.5843 51.928 31.4905C52.4155 31.3968 52.6593 31.603 52.6593 31.603C52.2562 31.6218 52.1437 31.7437 52.1437 31.7437C52.3874 31.903 52.1437 32.0624 52.1437 32.0624C51.7874 31.5937 51.4687 32.0718 51.4687 32.0718C51.6758 32.0717 51.8805 32.1165 52.0687 32.203L52.5749 32.4562C52.9124 32.6062 52.8468 32.5124 53.0999 32.6062C53.3624 32.6999 53.2593 32.953 53.2593 32.953C53.1561 32.7468 52.9124 32.6718 52.9124 32.6718C52.8937 32.953 52.6218 32.9999 52.6218 32.9999C52.9593 32.6249 52.2374 32.4562 51.8905 32.4655C51.553 32.4655 51.2999 32.6905 51.2999 32.6905C51.9843 33.3374 52.453 33.1218 52.453 33.1218C52.3687 33.3562 51.8061 33.2624 51.8061 33.2624C52.0686 33.4687 52.0405 33.5999 52.0405 33.5999C51.8999 33.4687 51.6655 33.5343 51.178 33.2249C50.6905 32.8968 50.2499 33.0093 50.2499 33.0093C50.7374 33.5062 50.0812 33.8155 50.0812 33.8155C49.8374 33.9655 50.1749 34.1437 50.1749 34.1437C49.8749 34.1999 49.8374 33.8999 49.8374 33.8999C49.678 33.8624 49.4437 34.0499 49.4437 34.0499C49.4624 33.7499 49.8749 33.8999 49.8749 33.5812C49.8937 33.253 49.4999 32.9999 48.3468 33.1593C47.1843 33.3187 46.8468 32.953 46.8468 32.953C46.753 32.953 46.7343 33.0468 46.7343 33.0468C46.9218 33.2343 47.0062 33.3093 46.978 33.4405C46.9405 33.5624 47.0343 33.6093 47.0343 33.6093C46.8187 33.5905 46.8093 33.3468 46.8093 33.3468C46.8093 33.4499 46.7624 33.4593 46.6874 33.5624C46.6124 33.6655 46.6874 33.8155 46.6874 33.8155C46.5937 33.7405 46.4343 33.6468 46.5937 33.4124C46.7062 33.2437 46.3405 33.0187 46.3405 33.0187C46.1999 32.878 45.8155 33.0187 45.8155 33.0187C45.5951 33.0657 45.3666 33.0587 45.1495 32.9983C44.9324 32.9379 44.7331 32.8259 44.5687 32.6718C44.4749 32.6718 44.2968 32.6155 44.2968 32.6155C43.4624 32.9905 42.7312 32.1843 42.7312 32.1843C42.103 32.3062 41.8124 31.9968 41.6249 31.6968C41.5169 31.4923 41.346 31.3279 41.1374 31.228C40.8937 31.078 40.6499 30.6468 40.8937 30.4124C41.0812 30.2155 41.0343 30.1687 41.0343 30.1687C40.7062 29.6155 41.6062 29.4468 41.6249 29.3062C41.653 29.1187 41.8405 28.9968 42.0468 28.9874C42.253 28.9687 42.253 28.9874 42.3937 28.8562C42.5155 28.7155 42.7687 28.8843 42.7687 28.8843C42.8343 28.8468 43.2843 28.4999 43.678 28.678C44.0812 28.8562 44.4187 28.7343 44.4187 28.7343C44.6999 28.6687 47.0437 28.3593 47.0437 28.3593C47.1843 28.1249 47.2968 27.853 47.9437 27.703C48.5905 27.553 49.0687 27.1405 49.0687 27.1405C48.9562 27.028 48.7687 27.028 48.6749 27.0187C48.5718 27.0187 48.3749 26.8312 48.3749 26.8312C48.253 26.8874 48.1874 26.8593 47.3437 27.3749C46.5843 27.8437 46.5655 26.9249 46.5655 26.9249H44.9062C44.878 27.2718 44.6249 27.4124 44.6249 27.4124L44.0155 27.4405C43.678 27.2718 43.678 26.6718 43.678 26.6718C41.8593 26.6999 40.8562 27.3468 40.8562 27.3468C38.7937 26.2968 37.1812 26.053 37.1812 26.053C38.5018 25.9573 39.7959 25.6338 41.0062 25.0968C41.8167 25.5873 42.7328 25.8766 43.678 25.9405C43.7249 25.4343 44.0624 25.3124 44.0624 25.3124L44.4374 25.3499Z" fill="black"/>
<path d="M41.4659 29.4936C40.9502 29.7936 41.044 29.9623 41.0909 30.0561C41.1377 30.1498 41.1377 30.2436 40.9971 30.3936C40.8565 30.5342 40.8659 30.5811 40.8659 30.5811C40.894 31.0873 41.2409 31.1998 41.4002 31.3311C41.5315 31.4248 41.7377 31.753 41.7377 31.753C42.0096 32.1373 42.2909 32.1467 42.4971 32.1467C42.7127 32.1467 42.6846 32.1186 42.5909 32.0248L42.2721 31.7717C42.4809 31.8604 42.6692 31.9913 42.8252 32.1561C43.3502 32.7373 43.8377 32.6623 44.0534 32.6436C44.269 32.6155 44.2409 32.4842 44.2409 32.4842C44.1679 32.4616 44.0922 32.449 44.0159 32.4467C43.219 32.3717 42.9846 31.8467 42.9846 31.8467C43.3894 32.2027 43.9081 32.4022 44.4471 32.4092C44.6721 32.3998 44.6627 32.4655 44.6065 32.4842L44.3815 32.4655C44.2784 32.4655 44.2784 32.4936 44.2971 32.5405C44.3252 32.578 44.4284 32.578 44.5502 32.578C44.6815 32.578 44.5784 32.5873 44.9065 32.8405C45.244 33.103 46.0596 32.8873 46.0596 32.8873C45.5252 32.7655 45.4596 32.5123 45.4596 32.5123C44.7377 32.6061 44.4471 32.1748 44.4471 32.1748C44.2837 32.0479 44.1078 31.938 43.9221 31.8467C43.5284 31.6686 43.4534 31.303 43.4534 31.303C43.5752 31.4717 43.8002 31.6592 44.0815 31.7342C44.3627 31.8092 44.4377 31.8467 44.4377 31.8467C44.3656 31.863 44.2903 31.8564 44.2221 31.828C43.9409 31.7342 44.1002 31.8561 44.1002 31.8561C44.419 32.1092 44.5034 32.0905 44.5034 32.0905C45.3096 32.1748 44.9065 31.8467 44.9065 31.8467C45.4877 31.9873 45.5815 31.7717 45.5815 31.7717C45.7034 32.0248 46.144 31.9311 46.144 31.9311C45.5627 32.2123 46.0034 32.128 46.0034 32.128C46.594 32.0248 46.7159 32.1748 46.7159 32.1748C46.8659 32.3155 47.0346 32.3061 47.0346 32.3061C47.0346 32.3061 47.1471 32.3061 47.3627 32.3436C47.5877 32.3905 47.944 32.578 48.2627 32.5498C48.5909 32.503 48.6377 32.6061 48.6377 32.6061C48.5815 32.578 48.4315 32.5592 48.1877 32.6717C47.9346 32.7936 47.494 32.8217 46.8565 32.6717C46.219 32.5217 46.1627 32.5498 46.1627 32.5498C46.3221 32.653 46.4534 32.8217 46.4815 32.9248C46.5096 33.0373 46.6221 33.0373 46.6221 33.0373C46.669 32.8967 46.8565 32.8405 46.8565 32.8405C47.003 32.9443 47.1601 33.0323 47.3252 33.103C47.3627 33.0373 47.3252 32.9811 47.3252 32.9811C47.569 33.2155 47.8502 33.1405 47.8502 33.1405C47.9252 33.0936 47.9065 32.953 47.9065 32.953C48.0002 32.953 48.019 33.0092 48.094 33.0655C48.1596 33.103 48.3752 33.0748 48.3752 33.0748C48.3002 33.0373 48.2346 32.9155 48.2346 32.9155C48.5627 32.6998 49.2659 32.7936 49.2659 32.7936C49.7627 32.8873 49.7065 33.2155 49.7065 33.2155C49.7949 33.2678 49.874 33.3343 49.9409 33.4123C49.9877 33.2998 49.9409 33.178 49.9409 33.178C50.1846 33.2905 50.2221 33.553 50.2221 33.553C50.5034 33.253 49.969 32.9155 49.969 32.9155C50.2221 32.878 50.5034 32.8967 50.6721 32.9155C50.9007 32.9551 51.1144 33.0555 51.2909 33.2061C51.4877 33.3655 51.844 33.4405 51.844 33.4405C51.8346 33.3748 51.6377 33.253 51.5909 33.2342C51.5534 33.2155 51.5346 33.1498 51.5346 33.1498C51.7127 33.1873 51.8252 33.1686 51.8252 33.1686C51.2252 32.7936 51.0659 32.6155 51.0659 32.6155C51.2909 32.6436 51.4221 32.503 51.4221 32.503C50.944 32.503 50.9159 32.3905 50.9159 32.3905C50.9815 32.3998 51.2065 32.4561 51.4971 32.3998C51.7877 32.3436 52.1721 32.3998 52.1721 32.3998C51.9659 32.0623 51.169 32.1186 50.9065 32.1373C50.644 32.1561 50.5502 32.1186 50.5502 32.1186C50.5877 32.0998 50.6346 32.0623 50.8315 32.053C51.0377 32.053 51.2346 32.0717 51.469 31.903C51.6846 31.753 52.0034 31.8092 52.0034 31.8092C51.9284 31.6592 51.5627 31.603 51.2534 31.8092C50.9252 32.0061 50.644 31.9498 50.644 31.9498C51.1409 31.8748 51.2909 31.6967 51.2909 31.6967C51.1409 31.6592 51.0565 31.7061 50.7471 31.7717C50.4471 31.828 50.3721 31.7248 50.3721 31.7248C50.7002 31.528 50.9346 31.4436 50.9346 31.4436C50.6534 31.3873 50.3909 31.2561 50.3909 31.2561C50.0909 31.5373 49.8659 31.6873 49.294 31.4061C48.7315 31.1061 48.4315 31.1436 48.4315 31.1436C48.9377 30.853 49.444 30.9748 49.819 31.1998C50.194 31.4155 50.2877 31.2373 50.2877 31.2373C50.1752 31.1717 50.194 31.0967 50.194 31.0967C51.094 31.5561 51.4877 31.2842 51.6846 31.1436C51.8815 31.003 51.5909 30.8248 51.5909 30.8248C51.5721 31.1061 51.2159 31.2561 50.9159 31.153C50.6346 31.0592 50.3534 30.928 49.9409 30.7498C49.5284 30.5811 49.0034 30.6748 48.5252 30.7686C48.0377 30.8717 47.9721 30.8248 47.9252 30.7873C47.8784 30.7498 47.8596 30.628 47.6065 30.7311C47.3627 30.8342 46.7815 30.5623 46.4252 30.478C46.069 30.3842 45.4784 30.4311 44.9721 30.7123C44.4659 31.003 44.2034 30.928 44.0534 30.8623C43.9034 30.7873 43.8002 30.5998 43.969 30.4311C44.1377 30.2623 44.1565 30.2155 44.1377 29.9623C44.119 29.7186 43.8752 29.5686 43.8752 29.5686C44.1002 29.3342 44.1565 29.2873 44.0815 29.1936C44.0065 29.0811 44.119 29.0811 44.2502 29.0248C44.3815 28.9686 44.3252 28.9592 44.2971 28.8842C44.2596 28.8092 44.1846 28.828 44.1846 28.828C43.894 28.8373 43.7252 28.753 43.7252 28.753C43.2377 28.528 42.7784 28.9686 42.7784 28.9686C42.4971 28.753 42.4315 28.903 42.3846 28.9498C42.3377 28.9967 42.2346 29.0436 42.1034 29.0436C41.9909 29.0623 41.8127 29.1092 41.7471 29.2217C41.7471 29.2217 41.6909 29.3155 41.7565 29.4092C41.7565 29.4092 41.8315 29.5217 41.7002 29.6623C41.5596 29.803 41.5127 29.8311 41.5596 29.9717C41.5971 30.0936 41.5877 30.1967 41.5315 30.2811C41.5315 30.2811 41.4659 30.2155 41.4846 30.1217C41.5034 30.028 41.5034 29.9717 41.4846 29.9342C41.4846 29.9342 41.344 30.0655 41.3159 30.1592C41.3159 30.1592 41.2596 30.0092 41.4659 29.8123C41.6534 29.6248 41.7471 29.5123 41.6909 29.4373C41.6534 29.3811 41.5034 29.4748 41.4752 29.4936H41.4659Z" fill="#FFC221"/>
<path d="M42.0377 31.6877C42.0377 31.6877 41.7846 31.5002 41.8127 31.2283C41.8408 30.9752 41.8408 30.9471 41.8127 30.8814C41.8127 30.8814 41.7658 30.9096 41.7752 31.0127C41.7752 31.1064 41.7565 31.2096 41.7471 31.2283C41.7471 31.2283 41.6252 31.0127 41.5596 30.9658C41.5596 30.9658 41.6158 30.7408 41.5408 30.6471C41.4752 30.5439 41.4002 30.5346 41.3158 30.5721C41.2033 30.6096 41.119 30.7127 41.5033 31.0221C41.5033 31.0221 41.644 31.1439 41.7377 31.3877C41.8315 31.6314 42.0002 31.6689 42.0283 31.6877H42.0377ZM43.2565 30.9564C43.2565 30.9564 43.2471 30.8158 43.3783 30.5533C43.4247 30.4744 43.4514 30.3856 43.4563 30.2942C43.4612 30.2029 43.4441 30.1117 43.4065 30.0283C43.3783 29.9533 43.3502 29.9814 43.4908 29.8689C43.6502 29.7283 43.4252 29.5502 43.7065 29.3064C43.7065 29.3064 43.8752 29.1564 43.9221 29.0908C43.9221 29.0908 43.6408 29.2408 43.4346 29.3252C43.2471 29.4002 42.5346 29.7564 42.6846 29.9908C42.8533 30.2252 42.8346 30.2439 42.8065 30.3471C42.8065 30.3471 42.3752 30.1127 42.5252 29.7471C42.5252 29.7471 42.6002 29.6064 42.7783 29.4283C42.9471 29.2783 42.8533 29.4658 43.1815 29.2689C43.1815 29.2689 43.4346 29.1189 43.5846 28.9033C43.5846 28.9033 43.3971 29.0158 43.3408 29.0346C43.3408 29.0346 42.9658 29.1096 42.7971 29.2689C42.6471 29.4283 42.319 29.7096 42.4221 30.0189C42.4221 30.0189 42.0471 29.9814 41.9533 29.5783C41.9533 29.5783 41.2408 30.4596 42.7408 30.8721C42.7408 30.8721 43.0221 30.9471 43.2658 30.9658L43.2565 30.9564Z" fill="black"/>
<path d="M49.8376 28.0312C50.4001 27.9374 53.6251 27.4499 53.9251 27.4218C54.2438 27.3937 54.3657 27.3468 54.4782 27.6093C54.6001 27.8905 54.0282 27.8999 54.0282 27.8999L50.1751 28.3405C49.9876 28.3593 49.9407 28.2843 49.9407 28.2843L49.8001 28.0968C49.8001 28.0968 49.7532 28.0405 49.8376 28.0218V28.0312Z" fill="#FFC221"/>
<path d="M41.9342 29.7842C41.9342 29.7842 41.5217 30.6561 43.153 30.8717C43.153 30.8717 43.1624 30.7779 43.228 30.6373C43.303 30.4967 43.4436 30.2154 43.303 30.0373C43.1717 29.8592 43.4155 29.9529 43.4436 29.7186C43.4905 29.4842 43.4249 29.5123 43.5374 29.3623C43.5374 29.3623 43.0311 29.5498 42.8249 29.7842C42.6374 30.0092 43.0967 30.1779 42.8249 30.4311C42.8249 30.4311 42.5905 30.3373 42.4499 30.0936C42.4499 30.0936 42.1405 30.0936 41.9342 29.7842Z" fill="#5A3719"/>
<path d="M43.547 30.8623C43.547 30.8623 43.9501 31.2092 44.4283 31.1998C44.9064 31.1717 45.122 31.0498 45.2439 30.8623C45.2439 30.8623 45.3376 31.0029 45.3376 31.1061C45.3376 31.1061 45.7501 30.7592 46.4626 31.0592C47.1751 31.3592 46.9689 31.2748 47.1283 31.2936C47.1283 31.2936 46.8189 31.2467 46.1251 31.5654C45.4033 31.8936 43.5283 31.7811 43.5376 30.8623H43.547Z" fill="black"/>
<path d="M42.8718 29.3061C42.8718 29.3061 43.0499 29.3342 43.228 29.1279C43.228 29.1279 42.9843 29.1748 42.8718 29.3154V29.3061ZM41.4937 30.9373C41.4937 30.9373 41.1562 30.6748 41.3718 30.6186C41.3718 30.6186 41.5312 30.5904 41.4937 30.9373Z" fill="#5A3719"/>
<path d="M48.8623 32.6064C48.8623 32.6064 49.0498 32.2783 49.5654 32.2783C50.0811 32.2783 50.1373 32.5221 50.7936 32.5596C50.7936 32.5596 50.0061 32.7846 49.4623 32.5877C49.1811 32.4846 48.9186 32.5689 48.8623 32.6064Z" fill="black"/>
<path d="M43.7158 31.0971C43.7158 31.0971 44.5033 31.5659 45.1877 31.0502C45.1877 31.0502 45.2439 31.1065 45.3002 31.2377C45.3002 31.2377 45.8252 30.7315 46.7533 31.2752C46.7533 31.2752 46.6408 31.2658 46.2002 31.444C45.6283 31.6971 44.1939 31.8658 43.7158 31.0877V31.0971Z" fill="#5A3719"/>
<path d="M46.7158 31.5654C46.7158 31.5654 47.4658 31.6592 48.0939 31.6217C48.4783 31.6029 48.9002 31.5279 48.6939 31.6592C48.4783 31.7811 48.5908 31.7998 49.4814 31.7248C50.3627 31.6311 49.4721 31.8842 50.0814 31.9686C50.0814 31.9686 48.5908 32.7186 46.7158 31.5654Z" fill="black"/>
<path d="M48.6748 31.0969C48.6748 31.0969 49.1061 30.9375 49.5186 31.125C49.9217 31.3125 49.8561 31.3312 50.1279 31.3594C50.1279 31.3594 49.9404 31.6312 49.4998 31.4156C49.0498 31.2 48.9373 31.1531 48.6748 31.0969ZM49.1623 32.4375C49.1623 32.4375 49.5936 32.2219 50.0623 32.4375C50.1186 32.475 50.2498 32.5312 50.3717 32.55C50.3717 32.55 50.0154 32.6719 49.6404 32.55C49.4811 32.5031 49.3592 32.4656 49.1623 32.4375ZM47.0342 31.6687C47.0342 31.6687 47.9998 31.7625 48.5154 31.6594C48.5154 31.6594 47.9154 31.9406 49.4248 31.8187C49.4248 31.8187 49.7529 31.7812 49.7061 31.8281C49.6779 31.875 49.6498 31.9219 49.8186 31.9687C49.8186 31.9687 48.6936 32.475 47.0342 31.6687Z" fill="#5A3719"/>
<path d="M42.253 30.8624C42.253 30.8624 42.2717 30.928 42.478 31.0218C42.6936 31.1249 42.8061 31.2937 42.853 31.3874C42.8856 31.4531 42.9317 31.5113 42.9882 31.5581C43.0447 31.605 43.1104 31.6394 43.1811 31.6593C43.1811 31.6593 42.4311 31.8187 42.0936 31.4155C42.0936 31.4155 41.8405 31.1343 42.2436 30.853" fill="black"/>
<path d="M48.1594 32.5873C48.1594 32.5873 47.8688 32.5686 47.4563 32.4279C47.0532 32.2873 46.95 32.4092 46.7157 32.2404C46.4907 32.0623 46.0313 32.1748 45.9469 32.1842C45.8532 32.1936 45.6094 32.1842 45.9188 31.9873C45.9188 31.9873 45.675 31.9873 45.5813 31.8561C45.5813 31.8561 45.4688 31.9686 45.0563 31.9311C45.0563 31.9311 45.2438 32.2123 44.4938 32.1279C44.6196 32.273 44.7858 32.3772 44.9712 32.4273C45.1566 32.4774 45.3527 32.4711 45.5344 32.4092C45.5344 32.4279 45.4875 32.6436 45.8157 32.7373C46.1719 32.8217 46.2375 32.8873 46.4157 32.9529C46.4157 32.9529 46.4438 32.8123 45.9844 32.4842C45.9844 32.4842 46.2282 32.4654 46.5844 32.5498C46.9407 32.6342 47.7282 32.8404 48.1594 32.5873ZM48.3469 32.9342C48.3469 32.9342 48.4219 33.1029 48.6469 33.0654C48.8719 33.0279 49.2469 32.9717 49.6032 33.1404C49.6032 33.1404 49.6688 32.8404 48.9469 32.8217C48.9469 32.8217 48.4969 32.8404 48.3469 32.9342ZM42.2344 30.9654C42.2344 30.9654 41.9532 31.1998 42.2063 31.4342C42.4313 31.6498 42.7875 31.6311 42.9563 31.6217C42.9563 31.6217 42.8625 31.5654 42.7688 31.4342C42.675 31.2936 42.675 31.1998 42.4875 31.1154C42.2907 31.0311 42.2719 31.0123 42.2344 30.9654ZM41.9532 29.7842C41.9532 29.7842 41.5219 30.6561 43.1719 30.8717C43.1719 30.8717 43.1719 30.7779 43.2375 30.6373C43.2938 30.4967 43.4344 30.2154 43.3125 30.0373C43.1625 29.8592 43.4157 29.9529 43.4532 29.7186C43.4907 29.4842 43.425 29.5123 43.5469 29.3623C43.5469 29.3623 43.0313 29.5498 42.825 29.7842C42.6375 30.0092 43.0969 30.1779 42.825 30.4311C42.825 30.4311 42.5907 30.3373 42.45 30.0936C42.45 30.0936 42.1407 30.0936 41.9344 29.7842H41.9532Z" fill="#5A3719"/>
<path d="M46.2471 31.8093C46.2471 31.8093 46.5939 31.7531 47.4658 32.0812C48.3471 32.4 48.7127 32.325 48.8346 32.3156C48.8346 32.3156 48.3471 32.5781 47.5783 32.2406C46.9033 31.9406 46.8658 32.0531 46.2471 31.8093Z" fill="black"/>
<path d="M51.7315 31.6127C51.7315 31.6127 51.919 31.6127 52.0502 31.6596C52.0502 31.6596 52.1158 31.5939 52.3033 31.5658C52.3033 31.5658 52.1815 31.4533 51.7315 31.6127ZM51.1315 31.1252C51.1315 31.1252 51.3283 31.1252 51.394 31.0127C51.394 31.0127 51.2908 30.8908 51.1315 30.8252C51.1315 30.8252 51.169 30.9752 51.1315 31.1252ZM44.4096 28.8939C44.4096 28.8939 44.3627 28.8002 44.5783 28.7627L47.5127 28.3408C47.5127 28.3408 47.6533 28.3408 47.6721 28.4346C47.7002 28.5377 47.6627 28.6127 46.9971 28.6877L44.5971 28.9877C44.5971 28.9877 44.419 29.0158 44.4096 28.8939Z" fill="#FFC221"/>
<path d="M47.0625 28.772C47.0625 28.772 47.0625 29.1564 47.4563 29.2127C47.8313 29.2689 47.9719 29.1939 48.0656 28.997C48.0938 28.9314 48.2156 28.5283 48.0469 28.5002C47.9719 28.4908 47.8594 28.5002 47.775 28.5283C47.6438 28.5939 47.5219 28.6595 47.5594 28.7158C47.6531 28.8658 47.6719 28.9033 47.6531 28.9033C47.5406 28.9314 47.4844 28.847 47.4656 28.7908C47.4375 28.7158 47.5125 28.6783 47.2594 28.7158C47.1469 28.7252 47.0719 28.7252 47.0719 28.772H47.0625ZM48.7031 28.472C48.8906 28.5002 48.8813 28.922 48.6469 29.1189C48.3844 29.3252 48.1406 29.2408 48.1406 29.2408C48.0094 29.1939 48.0281 29.2033 48.1313 29.0533C48.225 28.9127 48.2719 28.7158 48.2156 28.5845C48.1969 28.5377 48.2437 28.5002 48.3094 28.4908C48.3094 28.4908 48.4969 28.4533 48.7031 28.472Z" fill="#FFC221"/>
<path d="M48.872 28.5094C48.872 28.5094 49.022 28.6969 48.8345 29.0251C48.8345 29.0251 48.7595 29.1188 48.9376 29.1094C49.1064 29.0907 49.5095 28.9032 49.472 28.6594C49.472 28.6594 49.4533 28.6032 49.3501 28.6032C49.247 28.6032 49.3314 28.5563 49.3783 28.5282C49.4158 28.5282 49.5564 28.4719 49.2001 28.2469C49.2001 28.2469 49.1439 28.1907 49.0783 28.2188C49.022 28.2376 48.8345 28.3126 48.8345 28.4251C48.8345 28.4719 48.872 28.5188 48.872 28.5188V28.5094Z" fill="#FFC221"/>
<path d="M49.2562 28.2094C49.2562 28.2094 49.5374 28.4062 49.5374 28.4719C49.5374 28.5281 49.5093 28.6125 49.5843 28.5937C49.6593 28.5937 49.9593 28.5281 49.8655 28.3312C49.7905 28.1344 49.7062 28.05 49.5655 28.0125C49.4249 27.9562 49.3874 28.0219 49.2655 28.1156C49.2655 28.1156 49.1812 28.1719 49.2562 28.2094ZM47.7468 28.4906C47.7468 28.4906 47.7937 28.35 47.5405 28.2844C47.5405 28.2844 47.6437 28.1906 47.8593 28.2469C48.0655 28.2844 48.0468 28.4344 48.0468 28.4437C48.0468 28.4437 47.878 28.4437 47.7468 28.4906ZM48.2905 28.4531C48.2905 28.4531 48.5718 28.4062 48.7124 28.4156C48.7124 28.4156 48.5624 28.1062 48.178 28.2C48.178 28.2 48.3186 28.3687 48.2905 28.4531ZM48.7874 28.3781C48.7874 28.3781 48.7874 28.275 49.0312 28.1812C49.0312 28.1812 48.9187 28.0687 48.7499 28.0875C48.5624 28.0875 48.5155 28.1531 48.5155 28.1531C48.5155 28.1531 48.7312 28.2281 48.7874 28.3781ZM48.8812 28.0406C48.8812 28.0406 49.0405 28.0781 49.1343 28.1625C49.1343 28.1625 49.2749 28.0031 49.3968 27.975C49.3968 27.975 49.1624 27.8437 48.8812 28.0406Z" fill="#FFC221"/>
<path d="M40.8562 27.2717C40.8562 27.2717 41.5312 26.6904 41.9062 26.7654C42.2812 26.8404 42.0937 26.7842 42.5062 26.7185C42.9187 26.6623 43.35 26.6154 43.5188 26.6342C43.5188 26.6342 43.0125 26.2779 42.1219 26.2873C42.1219 26.2873 41.5031 26.5029 41.0625 26.7842C41.0625 26.7842 40.2281 26.3248 39.375 26.5967C39.375 26.5967 40.3031 26.9435 40.8562 27.2717Z" fill="#5A3719"/>
<path d="M48.0189 28.2563L48.1314 28.2376C48.1314 28.2376 48.3188 28.472 48.1876 28.472C48.0751 28.472 48.1126 28.4438 48.0938 28.3782C48.0835 28.3302 48.057 28.2873 48.0189 28.2563ZM47.1751 28.2751C47.1751 28.2751 47.1001 28.3688 47.2313 28.3501C47.3907 28.322 47.3626 28.3501 47.522 28.2282C47.522 28.2282 47.6345 28.1251 47.822 28.1907C47.822 28.1907 47.9907 28.247 48.122 28.1813C48.2532 28.1063 48.2813 28.1157 48.3563 28.1251C48.4313 28.1251 48.4313 28.1438 48.5157 28.0688C48.6095 28.0032 48.7782 28.0595 48.8814 27.9751C48.9845 27.8813 49.1157 27.9563 48.8814 27.7876C48.8814 27.7876 48.8345 27.7407 48.8345 27.6938C48.8345 27.6938 48.9282 27.7313 49.0032 27.7876C49.0782 27.8626 49.1907 27.8345 49.2095 27.8251C49.2095 27.8251 49.2282 27.6095 49.4251 27.422C49.6407 27.2345 49.6407 27.2157 49.5189 27.2157C49.397 27.2157 49.1907 27.1595 49.1157 27.2157C49.0407 27.272 48.4407 27.6657 48.0845 27.7313C47.7282 27.797 47.4001 27.9001 47.1751 28.2751ZM37.6782 26.0813C37.6782 26.0813 38.7751 26.3626 39.0188 26.4751C39.0188 26.4751 39.0751 26.297 38.5782 26.1563C38.5782 26.1563 39.7876 26.1188 41.0532 26.7001C41.0532 26.7001 41.672 26.1751 43.6501 26.3345C43.6501 26.3345 43.6501 26.1657 43.6688 26.0251C43.6688 26.0251 42.2813 25.9876 41.0063 25.2095C41.0063 25.2095 39.8532 25.772 37.6782 26.0813ZM43.7438 26.6063C43.6782 25.5001 44.1001 25.3876 44.1001 25.3876C44.1001 25.3876 44.297 25.3876 44.5126 25.4345C44.5126 25.4345 44.1751 25.8376 44.2688 26.6345C44.2688 26.6345 44.3063 26.7563 44.0157 26.7563C43.7251 26.7563 43.7438 26.6157 43.7438 26.6157V26.6063Z" fill="#FFC221"/>
<path d="M44.0439 27.3467C44.0439 27.3467 43.8283 27.1311 43.8096 26.8874C43.8096 26.8874 43.8096 26.8311 44.0158 26.8311C44.2314 26.8311 44.2502 26.8124 44.2971 26.9342C44.3533 27.0561 44.4846 27.3092 44.5127 27.3374L44.0439 27.3467Z" fill="#5A3719"/>
<path d="M44.4843 26.7845C44.4669 26.6446 44.4606 26.5035 44.4656 26.3626C44.475 25.7439 44.5781 25.8001 44.625 25.8751H44.8406C44.8406 25.8751 44.6812 25.1814 44.4937 25.5939C44.3561 25.8992 44.3074 26.2371 44.3531 26.5689C44.3625 26.7564 44.3812 26.8782 44.4093 26.9439L44.4843 26.7845Z" fill="#FFC221"/>
<path d="M46.8939 26.7844C46.8939 26.7844 47.2971 26.8594 46.6783 27C46.6783 27 46.7064 27.7688 47.4471 27.2344C47.4471 27.2344 47.8877 26.9532 48.1971 26.8407C48.1971 26.8407 48.3471 26.7844 48.3283 26.6719C48.3283 26.6719 48.3471 26.5313 48.1877 26.5688C48.1877 26.5688 48.0564 26.5688 47.9721 26.5407C47.9721 26.5407 47.8783 26.4282 47.8221 26.4657C47.7658 26.5125 47.6252 26.4844 47.7377 26.625C47.8502 26.7563 47.8783 26.7188 47.9252 26.6813C47.9814 26.6438 48.2158 26.55 48.0096 26.7469C47.8033 26.9438 47.6158 26.6344 47.5408 26.5782L46.8939 26.7844ZM44.8314 26.8782H44.6439C44.6439 26.8782 44.5502 27.0282 44.4846 26.7844L44.4189 26.9344C44.4189 26.9344 44.6346 27.7594 44.8314 26.8782Z" fill="#5A3719"/>
<path d="M44.5686 25.9311C44.5686 25.9311 44.4749 26.4748 44.5967 26.7936L46.5749 26.8404C46.5749 26.8404 46.5561 26.4654 46.5749 25.9311H46.3124C46.3124 25.9311 46.2655 26.3623 46.3124 26.6342H46.2655C46.2655 26.6342 46.228 26.2592 46.2655 25.9311H46.0311C46.0311 25.9311 45.9936 26.3342 46.0311 26.6342H45.9842C45.9842 26.6342 45.9467 26.2873 45.9842 25.9311H45.7499C45.7499 25.9311 45.703 26.2967 45.7499 26.6342H45.6936C45.6936 26.6342 45.6467 26.2686 45.6936 25.9311H45.4405C45.4405 25.9311 45.3842 26.2686 45.4405 26.6342H45.3936C45.3936 26.6342 45.3374 26.2967 45.3936 25.9311H45.1405C45.1405 25.9311 45.0842 26.3248 45.1405 26.6342H45.0842C45.0842 26.6342 45.0467 26.2592 45.0936 25.9311H44.8592C44.8592 25.9311 44.7936 26.2592 44.8592 26.6342H44.7936C44.7936 26.6342 44.7561 26.3529 44.8124 25.9311H44.5686ZM46.6592 26.9061C46.6592 26.9061 46.6124 25.9498 46.7905 25.6873C46.978 25.4436 47.0249 25.4998 47.3342 25.6873C47.653 25.8936 48.0561 26.1092 48.1311 26.1373C48.1874 26.1654 48.2811 26.1842 48.2811 26.3623C48.2811 26.5404 48.3092 26.5873 48.0374 26.3623C48.0092 26.3342 47.878 26.2217 47.7842 26.1936C47.5405 26.1092 47.8405 26.2404 47.9249 26.3717C47.9999 26.4654 48.0655 26.4654 47.8686 26.5123C47.4615 26.631 47.0582 26.7623 46.6592 26.9061Z" fill="#FFC221"/>
<path d="M47.344 26.2123C47.344 26.2123 47.2034 26.0436 47.3909 25.9967C47.5784 25.9592 47.5877 26.2779 47.6252 26.4748C47.6534 26.6811 47.3909 26.2779 47.3627 26.2217L47.344 26.2123ZM47.0909 27.0561C47.0909 27.0561 46.8752 27.1404 47.0252 27.2061C47.1565 27.2717 47.5409 26.9529 47.419 26.9717C47.269 26.9998 47.0909 27.0654 47.0909 27.0654V27.0561ZM47.3721 26.7748C47.3721 26.7748 47.5596 26.7467 47.5221 26.8217C47.494 26.9154 47.4284 26.8592 47.3909 26.8404C47.3627 26.8217 47.2409 26.7748 47.3815 26.7654L47.3721 26.7748Z" fill="black"/>
<path d="M48.3748 26.5124C48.3748 26.5124 48.4311 26.8874 48.7498 26.9811C48.7498 26.9811 48.9373 27.0186 48.8904 26.8593C48.8904 26.8593 48.8623 26.7186 48.8342 26.6718C48.8061 26.6061 48.6842 26.578 48.6654 26.5686C48.6467 26.5686 48.6373 26.5218 48.7217 26.5499C48.8154 26.578 48.8154 26.5874 48.8154 26.5218C48.8154 26.4561 48.7592 26.4843 48.6842 26.4468C48.6467 26.428 48.6842 26.4093 48.7123 26.4186C48.7498 26.4186 48.8342 26.4468 48.8342 26.3249C48.8342 26.3249 48.8436 26.2499 48.7498 26.2499C48.6467 26.2499 48.6561 26.1936 48.6842 26.1843C48.7123 26.1843 48.8248 26.2593 48.8623 26.128C48.8904 26.0061 48.7123 26.0811 48.7311 26.0155C48.7592 25.9405 48.8904 26.0436 48.8904 25.9686C48.9092 25.8936 49.0123 25.8655 48.8342 25.8374C48.7498 25.828 48.8342 25.7811 48.9279 25.7999C49.0217 25.8093 49.0779 25.6874 49.1436 25.6499C49.1998 25.603 49.5373 25.4061 49.0873 25.4718C48.6467 25.5374 48.5154 25.753 48.4967 25.7999C48.3849 26.0196 48.3424 26.268 48.3748 26.5124Z" fill="#FFC221"/>
<path d="M49.4061 26.7936C49.4718 26.7936 49.5187 26.7936 49.5374 26.8405C49.6124 26.9905 49.4437 26.9343 49.3499 27.0468C49.2562 27.1593 49.2561 27.1405 49.1249 27.0936C48.9936 27.0561 48.9374 26.8593 48.9374 26.8593C48.9374 26.7936 48.9843 26.7843 49.0499 26.803C49.0499 26.803 49.2655 26.8218 49.4155 26.803L49.4061 26.7936ZM48.9374 26.7186C48.9374 26.7186 48.9374 26.7561 49.0218 26.7655C49.0874 26.7655 49.303 26.7936 49.4437 26.7561C49.4437 26.7561 49.4811 26.7468 49.4624 26.6624C49.4624 26.6624 49.4624 26.5968 49.3499 26.6249C49.228 26.6436 49.0687 26.6249 49.003 26.6155C48.9468 26.5968 48.9093 26.6155 48.928 26.7093L48.9374 26.7186ZM48.9186 26.4468C48.9186 26.4468 48.9093 26.5686 49.0218 26.578C49.1437 26.5968 49.2937 26.5968 49.3499 26.578C49.3968 26.578 49.4812 26.5593 49.4905 26.4843C49.4905 26.4186 49.5093 26.3718 49.3686 26.4093C49.228 26.4468 49.0499 26.4093 49.0311 26.4093C49.0218 26.4093 48.9186 26.3811 48.9186 26.4468ZM48.9655 26.2124C48.9655 26.2124 48.9374 26.2686 48.9468 26.3249C48.9468 26.3718 49.0311 26.3905 49.1811 26.3905C49.3311 26.3905 49.4624 26.3718 49.4811 26.3249C49.4905 26.2593 49.528 26.203 49.4155 26.2311C49.2936 26.2405 49.1343 26.2499 49.078 26.2311C49.0218 26.203 48.9749 26.1936 48.9655 26.2124Z" fill="#FFC221"/>
<path d="M54.5721 26.8123C54.5721 26.8123 54.5721 26.9061 54.6564 27.0186L50.4189 26.8967C50.4189 26.8967 50.4752 26.8592 50.4939 26.6904L54.5721 26.8123Z" fill="#5A3719"/>
<path d="M49.003 26.0437C49.003 26.0437 48.9655 26.1469 49.0405 26.175C49.1062 26.1938 49.2468 26.2125 49.4155 26.1844C49.4155 26.1844 49.5093 26.1844 49.5374 26.0906C49.5655 25.9969 49.5655 26.0531 49.3218 26.0156C49.3218 26.0156 49.2468 25.9875 49.4624 25.9875C49.4624 25.9875 49.5937 25.9875 49.603 25.9688C49.6312 25.95 49.7905 25.8094 49.5749 25.8281C49.3593 25.8281 49.4718 25.7812 49.5749 25.7812C49.6874 25.7812 49.7249 25.8094 49.7624 25.7812C49.7999 25.7531 49.7624 25.7625 49.6968 25.7063C49.6312 25.65 49.6874 25.6594 49.7249 25.6969C49.7718 25.725 49.7999 25.7438 49.8468 25.6969C49.8937 25.65 49.8093 25.5844 49.8468 25.6031C49.8749 25.6031 49.903 25.6781 50.0343 25.6031C50.1843 25.5375 50.3624 25.575 50.4093 25.6031C50.4655 25.65 50.6155 25.6969 50.6999 25.6031C50.7937 25.5281 50.5968 25.4437 50.6718 25.4344C50.7655 25.425 50.8218 25.4531 50.8499 25.3875C50.8874 25.3125 50.7187 25.2563 50.878 25.2188C51.028 25.1719 50.8968 24.75 50.8499 24.7031C50.8499 24.7031 50.6718 24.8062 50.4937 25.1062C50.2968 25.4156 50.1843 25.5938 49.9312 25.5C49.5655 25.3594 49.3687 25.5562 49.3218 25.5938C49.228 25.65 49.5093 25.6687 49.3405 25.6781C49.1812 25.6781 49.1812 25.6969 49.1718 25.7156C49.153 25.7437 49.1718 25.7625 49.1999 25.7719C49.228 25.7719 49.2843 25.8281 49.1905 25.8281C49.0968 25.8281 49.0218 25.8 49.0499 25.9125C49.0499 25.9125 49.0499 25.9313 49.1062 25.9406C49.1624 25.9406 49.1812 26.0156 49.078 26.0156C49.003 26.0156 49.003 26.0344 49.003 26.0437ZM49.3874 27.1031C49.3874 27.1031 49.3218 27.15 49.4155 27.1594C49.528 27.1594 49.5749 27.1875 49.6124 27.1312C49.6499 27.075 49.7812 27.0938 49.6874 27.0188C49.5937 26.9438 49.5374 26.9906 49.3874 27.1125V27.1031Z" fill="#FFC221"/>
<path d="M49.8281 25.828C49.8281 25.828 50.1844 25.4999 50.475 25.7155C50.775 25.9499 50.7938 25.978 50.8031 25.9874C50.8031 25.9874 50.8406 26.0155 50.7656 26.0811C50.6812 26.1561 50.7656 26.1561 50.85 26.1092C50.9344 26.0624 50.9437 26.1092 50.9812 26.1561C51.0281 26.203 51.0844 26.2311 50.9531 26.2311H50.5219C50.5219 26.2311 50.325 26.2499 50.4281 26.1655C50.5219 26.0811 50.5031 25.9874 50.4562 25.978C50.4 25.978 50.4563 26.0342 50.4281 26.0717C50.3906 26.1092 50.325 26.1374 50.25 26.1374C50.175 26.1374 50.1187 26.1936 50.2312 26.2311C50.3344 26.2686 50.2125 26.2967 50.1562 26.2967C50.1 26.2967 49.8281 26.3155 50.1094 26.353C50.3906 26.3811 50.0812 26.3811 50.2969 26.4936C50.5219 26.6249 50.3531 26.8967 50.2687 26.9249C50.2687 26.9249 50.175 26.9717 50.2875 26.9624C50.4094 26.9436 50.475 26.9342 50.3813 26.9999C50.3063 27.0561 50.1375 27.2717 49.9125 27.1124C49.9125 27.1124 49.8 27.0561 49.9875 27.0467C50.175 27.0467 49.8375 26.9999 49.7719 26.953C49.725 26.9249 49.4906 26.6999 49.6313 26.7186C49.7813 26.7561 49.725 26.6717 49.6406 26.6436C49.5656 26.6155 49.5469 26.4936 49.6406 26.5124C49.7344 26.5405 49.8281 26.5967 49.9219 26.5874C49.9875 26.5874 49.9687 26.5592 49.8094 26.5124C49.65 26.4561 49.5844 26.4467 49.6219 26.3249C49.6594 26.1842 49.8375 26.3717 49.7906 26.2686C49.7531 26.1749 49.6031 26.2217 49.6781 26.0905C49.7531 25.9592 49.7719 26.0155 49.8188 26.0342C49.8469 26.0436 49.9125 26.0342 49.8094 25.9592C49.7344 25.9124 49.8094 25.8374 49.8281 25.828Z" fill="#FFC221"/>
<path d="M50.0811 25.9217C50.0811 25.9217 50.0811 25.8748 50.1561 25.8842C50.2123 25.8842 50.1936 25.8654 50.2123 25.8467C50.2311 25.8467 50.3904 25.8936 50.2404 25.9404C50.1842 25.9686 50.0904 25.9592 50.0904 25.9217H50.0811Z" fill="black"/>
<path d="M50.4283 26.2969C50.4283 26.2969 50.3065 26.3531 50.4096 26.4844C50.5033 26.5781 50.5033 26.625 50.5033 26.6906C50.494 26.7656 54.5721 26.8125 54.5721 26.8125C54.5721 26.8125 54.5721 26.5406 54.7408 26.3906L50.4283 26.2969Z" fill="#FFC221"/>
<path d="M54.6377 26.7374C54.6377 26.7374 54.6564 26.5124 54.7877 26.4467C54.8533 26.3999 54.9377 26.4186 54.9752 26.5967C55.0314 26.8499 54.8158 27.0749 54.7221 26.9717C54.6283 26.878 54.6471 26.7374 54.6471 26.7374H54.6377Z" fill="#5A3719"/>
<path d="M49.9595 27.6936C49.9595 27.6936 50.2314 27.4592 50.2782 27.3561C50.2782 27.3561 51.0095 27.8811 50.9626 27.3936L50.9814 27.1498C50.9814 27.1498 51.2532 27.178 51.2907 26.9623L50.6064 26.9342C50.6064 26.9342 50.5314 26.9248 50.4189 27.0373C50.3251 27.1498 50.1001 27.2717 49.9032 27.1686C49.9032 27.1686 49.8095 27.0936 49.7251 27.1686C49.6314 27.2155 49.6314 27.2342 49.7064 27.3092C49.7814 27.3842 49.9314 27.5811 49.9595 27.6842V27.6936ZM51.5345 26.2498L51.1314 26.2311C51.1314 26.2311 50.9907 26.0248 50.7001 25.7998C50.7001 25.7998 50.6157 25.7623 50.7751 25.6311C50.9439 25.4998 50.9908 25.3686 50.9908 25.303C50.9908 25.2467 50.9907 25.1436 51.047 25.2092C51.1032 25.2842 51.5157 25.6686 51.5907 25.5561C51.647 25.4436 51.6564 25.3967 51.6564 25.3592C51.6751 25.3217 51.6845 25.2186 51.7501 25.3311C51.8064 25.4342 51.8439 25.4061 51.8532 25.6873C51.8532 25.6873 51.8532 25.9686 51.9001 26.0623C51.9001 26.0623 51.3751 25.903 51.5439 26.2498H51.5345ZM49.7907 25.3873C49.7907 25.3873 50.1001 25.5748 50.2595 25.3311C50.4001 25.0967 50.5032 25.0686 50.3907 24.8342C50.2782 24.6186 50.3908 24.5155 50.4751 24.4217C50.5689 24.328 50.6439 24.3467 50.6439 23.9905C50.6626 23.6248 50.9064 23.5217 51.0189 23.3998C51.1314 23.2873 51.4126 23.1186 50.9814 23.053C50.5689 22.978 49.7251 22.7717 49.5095 22.4436C49.2939 22.1155 49.2001 22.303 49.2001 22.3217C49.2001 22.3405 49.1251 22.5748 49.3407 23.0061C49.5564 23.4373 49.7345 23.7186 49.9501 23.8498C50.1564 23.9905 50.3439 24.0655 50.2314 24.3561C50.1189 24.6467 49.9501 25.1623 49.7907 25.3873Z" fill="#7B3C20"/>
<path d="M50.9252 24.4689C50.9252 24.4689 50.9815 25.2189 51.5159 25.4814C51.5159 25.4814 51.6377 25.2002 51.5909 24.9096C51.5909 24.9096 51.769 24.919 51.8159 25.0033C51.8159 25.0033 51.8159 24.7877 51.5721 24.7033C51.319 24.6377 51.4409 24.1408 51.5346 24.0939C51.619 24.0377 51.5909 23.9346 51.5346 23.8502C51.469 23.7564 51.4596 23.6346 51.6659 23.6908C51.8815 23.7471 51.8534 23.6346 51.7127 23.5314C51.5909 23.4283 51.5909 23.2971 51.7784 23.2971C51.9659 23.2971 52.2471 23.119 52.0784 23.0721C51.8909 23.0158 51.844 22.9502 52.0784 22.8846C52.3315 22.8096 52.4534 22.7252 52.2659 22.6971C52.0784 22.6783 51.9565 22.6127 52.1346 22.5846C52.3127 22.5564 52.1065 22.369 51.9002 22.369C51.6846 22.3502 51.244 22.4346 51.5909 22.1533C51.9471 21.8721 51.0846 22.0783 51.4409 21.8908C51.7971 21.7033 51.319 21.7877 51.2534 21.7877C51.1877 21.7877 51.1877 21.7877 51.2159 21.6939C51.2346 21.6002 51.169 21.5439 51.0565 21.6096C50.9627 21.6658 50.9627 21.6658 50.9627 21.544C50.9627 21.4033 50.8409 21.5065 50.7659 21.544C50.6815 21.5721 50.4846 21.7221 50.4002 21.6377C50.3346 21.5533 50.2877 21.4783 50.044 21.619C49.8002 21.7596 49.8565 21.6377 49.8565 21.5721C49.8565 21.5065 49.9502 21.2533 49.6315 21.5252C49.3127 21.7971 49.5659 21.244 49.3034 21.4315C49.0502 21.619 49.0221 21.6565 48.9752 21.5721C48.9284 21.4783 48.8815 21.4127 48.6002 21.6002C48.3096 21.7783 48.5252 21.4783 48.5534 21.4127C48.6002 21.3564 48.7221 20.944 48.469 21.2627C48.469 21.2627 48.3471 21.4877 48.0752 21.0846C48.0752 21.0846 47.794 21.4877 47.7096 21.3096C47.6346 21.1221 47.569 21.1221 47.4659 21.2346C47.3721 21.3471 47.4471 21.2252 47.4002 21.1221C47.3627 21.0283 47.3346 20.8502 46.8565 21.1971C46.3784 21.5533 47.0252 21.2908 46.6596 21.4502C46.294 21.6096 45.394 22.1064 46.2096 22.0033C47.0252 21.8814 45.8159 22.3127 46.0971 22.3971C46.3784 22.4721 46.2846 22.7252 47.3534 22.4252C48.4034 22.1439 48.2346 22.3877 48.7784 22.1439C49.3221 21.9189 48.6471 22.2283 49.3784 22.2189C50.1002 22.2002 49.5002 22.219 49.6409 22.369C49.7815 22.519 50.3909 22.8658 50.9627 22.9315C51.5346 22.9877 51.6846 22.7721 51.5159 23.0252C51.3471 23.269 51.2909 23.3627 51.1971 23.4564C51.1034 23.5314 50.8221 23.7377 50.8221 24.0752C50.8221 24.4221 50.3721 24.4783 50.5409 24.8533L50.9252 24.4783V24.4689Z" fill="#5A3719"/>
<path d="M51.8719 25.303C51.8719 25.303 51.7406 25.2093 51.7406 25.0405C51.7406 25.0405 51.8344 25.0593 51.8719 25.1155C51.8719 25.1155 52.2 24.7405 51.7969 24.6093C51.4125 24.478 51.6094 24.1124 51.7406 24.1124C51.8719 24.1124 51.9 24.0843 51.7781 23.9249C51.6656 23.7843 51.6844 23.7749 51.9 23.7374C52.1156 23.6999 52.0968 23.6437 51.9937 23.5968C51.9266 23.5568 51.8665 23.5061 51.8156 23.4468C51.8156 23.4468 52.4531 23.1749 52.2469 23.0437C52.0406 22.9218 52.2469 22.9499 52.4344 22.828C52.6219 22.6968 52.6406 22.6687 52.6687 22.6124C52.6687 22.6124 52.4812 22.6405 52.35 22.6124C52.35 22.6124 52.5094 22.528 52.35 22.3968C52.1906 22.2655 52.1344 22.153 51.8812 22.2093C51.6281 22.2749 51.7125 22.1905 51.8062 22.0874C51.9 21.9843 51.8625 21.928 51.6844 21.8999C51.6844 21.8999 51.7031 21.7874 51.8437 21.6655C51.8437 21.6655 51.4969 21.6843 51.375 21.628C51.375 21.628 51.525 21.5343 51.525 21.4124C51.525 21.4124 51.3375 21.478 51.1031 21.4593C51.1031 21.4593 51.2437 21.3374 51.2437 21.2343C51.2437 21.2343 50.8312 21.328 50.6437 21.4687C50.6437 21.4687 50.5969 21.4687 50.5687 21.4124C50.5312 21.3749 50.5125 21.3187 50.0531 21.4687C50.0531 21.4687 50.1 21.2624 50.2125 21.1874C50.325 21.1124 50.3062 20.9437 49.6031 21.3843C49.6031 21.3843 49.5094 21.328 49.425 21.1124C49.425 21.1124 49.2656 21.328 49.1531 21.403C49.1531 21.403 49.0594 21.4499 49.0594 21.3093C49.0781 21.1687 48.9937 21.2624 48.9281 21.3093C48.8531 21.3468 48.8062 21.4499 48.8344 21.1687C48.8625 20.8874 48.7406 20.8312 48.7406 20.8312C48.7406 20.8312 48.525 21.1405 48.3937 21.178C48.3937 21.178 48.1594 20.953 48.075 20.803C48 20.653 48 20.5968 47.9156 20.8593C47.8312 21.1124 47.7281 21.1405 47.7281 21.1405C47.7281 21.1405 47.5875 21.0187 47.5781 20.953C47.5781 20.953 47.55 21.0187 47.5031 21.0468C47.5031 21.0468 47.3812 20.9062 47.3906 20.6999C47.3906 20.6999 46.6219 21.1218 46.5281 21.3749C46.5281 21.3749 45.8062 21.328 45.5156 21.3843C45.5156 21.3843 45.5812 21.1593 45.7687 21.0374C45.7687 21.0374 45.5812 21.0187 45.5812 20.8218C45.5812 20.8218 45.7312 20.8405 45.825 20.8218C45.9187 20.803 45.6937 20.5312 45.9281 20.5218C46.1625 20.5124 46.3219 20.6343 46.2094 20.3155C46.1156 20.0062 46.1531 20.0062 46.1531 20.0062C46.1531 20.0062 46.5656 20.2499 46.6312 20.1843C46.7062 20.128 46.5844 19.9968 46.95 20.053C47.3156 20.1187 47.2125 19.9124 47.3625 19.8937C47.5031 19.8937 47.5781 19.9874 47.4844 19.3218C47.3906 18.6562 47.9344 19.6499 47.5687 18.6468C47.5687 18.6468 47.475 18.3374 47.2594 18.2062C47.2594 18.2062 47.2031 18.4218 46.9594 18.2343C46.7156 18.0468 46.2281 17.9718 46.4344 17.8218C46.6406 17.6624 46.7344 17.4562 46.6781 17.3343C46.6781 17.3343 46.4344 17.578 46.0219 17.3999C45.6844 17.2593 45.6094 17.5218 45.2719 17.4468C45.2719 17.4468 45.2719 17.353 45.5625 17.128C45.8437 16.9124 45.3937 17.203 45.225 17.2499C45.0469 17.2874 45 17.2499 45.3656 16.9593C45.7406 16.678 46.4906 16.1624 46.3969 15.7405C46.3969 15.7405 46.5656 15.9562 47.025 15.7968C47.4937 15.6374 47.8312 15.5812 47.9625 15.328C48.1125 15.0937 48.4687 14.8593 48.5625 14.803C48.6656 14.7562 48.7875 14.7093 48.6469 14.9437C48.4969 15.1687 48.2719 15.5624 47.6344 15.8249C46.9969 16.0874 46.7437 16.2749 46.6312 16.4155C46.5187 16.5562 45.9375 16.8655 46.3219 16.8187C46.6969 16.753 47.3437 16.8187 47.0344 16.7249C46.7344 16.6405 46.3875 16.7812 46.6687 16.528C46.95 16.2749 46.9969 16.1905 47.4094 16.0218C47.8219 15.8437 48.2719 15.4499 48.225 15.8718C48.1781 16.2843 47.4187 16.7249 47.2312 16.8655C47.0437 16.9968 47.1187 16.978 47.1187 17.0343C47.1187 17.0905 47.0812 17.203 47.0062 17.2499C46.9312 17.3062 46.9594 17.3624 46.9781 17.4749C46.9969 17.5968 46.9594 17.6437 47.0156 17.6624C47.0719 17.6718 47.1281 17.6812 47.1469 17.7655C47.1656 17.8593 47.2031 17.8593 47.3156 17.8593C47.4187 17.8405 47.5031 17.8593 47.5031 17.9155C47.5031 17.9812 47.6156 18.0749 47.625 17.878C47.6344 17.6718 47.7187 17.6437 47.5125 17.7374C47.3062 17.8218 47.2687 17.7937 47.2687 17.6999C47.2687 17.6062 47.25 17.6249 47.175 17.6155C47.0812 17.6155 47.0531 17.4937 47.2031 17.4093C47.3531 17.3343 47.3531 17.4093 47.5406 17.2593C47.7281 17.0999 47.7281 17.0718 47.7562 16.978C47.7844 16.9124 47.4844 17.203 47.3437 17.2593C47.2031 17.3343 47.25 17.2124 47.2687 17.0624C47.2969 16.903 47.6437 16.6874 47.8031 16.6874C47.9719 16.6874 48.3281 16.7812 48.1781 16.9968C48.0187 17.2124 47.5781 17.4843 47.7562 17.503C47.9531 17.5218 47.9812 17.4468 48.0937 17.5405C48.2062 17.6343 48.0937 17.8405 48.0562 17.953C48.0059 18.0509 47.9357 18.1371 47.85 18.2062C47.85 18.2062 47.6437 17.8499 47.6531 18.1312C47.6531 18.4218 47.6062 18.5249 47.6531 18.5343C47.7 18.5437 47.9156 18.6937 47.9906 18.6937C48.0656 18.6937 47.6062 18.9093 47.8031 18.928C47.9906 18.9374 48.3 18.8343 48.4031 18.6468C48.4031 18.6468 48.0094 18.553 47.85 18.403C47.85 18.403 48.3094 18.2905 48.1781 17.8593C48.1781 17.8593 48.6375 17.9812 48.4312 18.1874C48.2437 18.3843 48.1218 18.3562 48.2906 18.4124C48.4687 18.4687 48.5437 18.5249 48.5437 18.5249C48.5437 18.5249 48.6656 18.5812 48.5906 18.6749C48.525 18.7687 48.525 18.9187 48.5906 18.9093C48.6375 18.9093 48.8344 18.8155 48.675 18.7218C48.5062 18.628 48.8531 18.6468 48.7125 18.5624C48.5625 18.4687 48.525 18.4593 48.4875 18.4124C48.4406 18.3843 50.3344 17.2687 49.3781 17.6812C49.3781 17.6812 49.575 17.2499 49.8562 17.2499C50.1375 17.2499 50.1562 17.4655 49.9969 17.6437C49.8375 17.803 49.7343 18.0749 49.3687 18.1312C49.3687 18.1312 49.8937 18.3843 49.275 18.8062C49.275 18.8062 49.1343 18.8718 49.1812 18.9187C49.2281 18.9655 49.6031 18.7593 49.65 18.6374C49.6759 18.5743 49.7141 18.5169 49.7624 18.4686C49.8107 18.4203 49.8681 18.3821 49.9312 18.3562C50.0718 18.2905 50.775 17.8124 50.9812 17.4562C51.1969 17.0905 51.2437 17.0812 51.6562 16.753C52.0687 16.4249 51.9937 16.4905 52.05 16.4155C52.0969 16.3312 52.1156 16.1999 52.3031 16.0968C52.4906 15.9843 53.2219 15.5905 53.4562 15.4218C53.6812 15.253 54.15 14.953 54.3562 14.6905C54.5531 14.4374 55.1062 14.1093 55.2375 14.1655C55.3687 14.2312 55.2187 14.428 54.9094 14.6718C54.5812 14.9062 53.7844 15.5437 53.6625 15.6468C53.3445 15.9031 52.9908 16.1116 52.6125 16.2655C52.3594 16.2937 52.3875 16.3874 52.2375 16.5468C52.0875 16.7062 51.7406 17.053 51.6281 17.1468C51.5062 17.2405 51.225 17.428 51.2156 17.5687C51.1969 17.7093 51.2625 17.7187 51.0375 17.9249C50.7042 18.2305 50.3284 18.4863 49.9219 18.6843C49.9219 18.6843 50.3437 18.8343 50.0906 19.1155C49.8469 19.3968 49.8562 19.3593 49.8469 19.378C49.8469 19.378 50.475 19.2843 50.0344 19.7812C50.0344 19.7812 49.9406 19.9218 50.1375 19.7812C50.3531 19.603 50.2687 19.3968 50.2312 19.3593C50.2312 19.3593 50.5781 19.1437 50.9719 19.1437C51.3562 19.1437 51.3469 19.1155 50.9906 19.0124C50.9906 19.0124 51.2437 18.7124 51.4594 18.8624C51.6656 19.003 51.5906 19.0968 51.375 19.2187C51.15 19.3312 50.8312 19.378 50.5781 19.5187C50.5781 19.5187 51.0469 19.6124 51.2906 19.4155C51.5343 19.228 51.5531 19.3218 51.5719 19.3593C51.6187 19.3968 51.6469 19.453 51.5344 19.603C51.4219 19.7624 51.4125 19.7718 51.4219 19.8093C51.4219 19.8468 51.4125 19.9499 51.1875 19.9968C50.9719 20.0249 50.8594 20.1187 50.9437 20.2218C51.0094 20.3343 51.0094 20.5968 50.8312 20.5687C50.6437 20.5405 50.6812 20.3905 50.6156 20.3343C50.5406 20.278 50.4375 20.1937 50.1094 20.353C49.7719 20.5312 49.7531 20.3249 49.7625 20.2124C49.7625 20.2124 49.5468 20.3999 49.3687 20.2312C49.1812 20.053 49.35 19.9874 49.4625 19.903C49.5562 19.8093 49.9781 19.6218 49.725 19.6687C49.4719 19.6968 49.0969 19.7062 49.0125 19.5187C48.9187 19.3218 49.2 19.3405 49.2375 19.3593C49.2844 19.378 49.4531 19.5187 49.4719 19.3312C49.4719 19.1437 49.7531 19.1155 49.6594 19.0874C49.5656 19.0499 49.425 19.1718 49.3875 19.2093C49.3875 19.2093 49.2 18.9374 48.8812 19.0218C48.5625 19.1155 48.975 19.0874 49.0687 19.0968C49.1437 19.1155 49.0969 19.2655 48.8156 19.528C48.5344 19.7812 48.6562 19.6968 48.8625 19.6968C49.0781 19.6968 49.6031 19.6968 49.2937 19.9405C48.9937 20.1937 48.8719 20.3155 48.7312 20.278C48.5625 20.2312 48.7312 20.128 48.8062 20.0812C48.8812 20.0343 48.9187 19.9687 48.7687 20.0249C48.6187 20.0718 48.5719 20.0905 48.45 19.8843C48.3375 19.6687 48.375 19.7343 48.4312 19.5937C48.4875 19.453 48.6 19.3124 48.4687 19.3593C48.3187 19.4155 48.3375 19.4249 48.3469 19.2655C48.3562 19.1062 48.1875 19.0687 48.1875 19.0687C48.1875 19.0687 48.2625 19.228 48.1968 19.3312C48.1406 19.4249 48.1312 19.4624 48.2344 19.4812C48.3281 19.5187 48.4218 19.603 48.2906 19.6968C48.1593 19.7812 48.1781 19.7624 48.2531 19.8187C48.3469 19.8843 48.4687 19.9405 48.3375 20.0718C48.2062 20.203 48.3094 20.1655 48.375 20.1655C48.45 20.1655 48.5906 20.2218 48.5906 20.353C48.5906 20.4655 48.5906 20.4937 48.8062 20.3812C49.0218 20.2593 49.4344 20.278 49.4344 20.4374C49.4344 20.6062 49.3781 20.653 49.6031 20.5124C49.8281 20.3718 49.9312 20.6437 50.0906 20.5124C50.2406 20.3718 50.3344 20.2499 50.5219 20.4749C50.7 20.6999 50.6437 20.7562 50.4281 20.9249C50.2125 21.0843 50.5312 20.9624 50.7 20.878C50.8687 20.7937 51.3281 20.7374 51.5906 20.8593C51.8625 20.9718 51.9375 20.953 52.1344 20.8593C52.3312 20.7843 52.4344 20.7655 52.725 20.9624C53.0344 21.1687 53.2594 21.2062 53.4187 21.1968C53.4187 21.1968 53.0906 21.328 52.7156 21.3468C52.3406 21.3749 52.1531 21.4405 52.0875 21.4968C52.0875 21.4968 52.3031 21.6374 52.35 21.7968C52.35 21.7968 52.5937 21.7687 52.7062 21.8155C52.7062 21.8155 52.65 21.9937 52.8 22.0874C52.95 22.1812 53.0531 22.2187 52.9406 22.3405C52.8281 22.4718 53.1187 22.4155 52.95 22.5937C52.7906 22.7812 52.7531 22.8749 52.7437 23.0155C52.7437 23.1655 52.7812 23.1843 52.6406 23.203C52.4906 23.2124 52.6594 23.3812 52.5937 23.578C52.5281 23.7655 52.125 23.7374 52.1437 24.253C52.1437 24.253 52.2562 23.9999 52.5 23.7843C52.7344 23.5593 52.7437 23.5405 52.7344 23.4093C52.7344 23.278 52.725 23.3062 52.8469 23.203C52.9781 23.1093 52.7906 23.0155 52.9219 22.8655C53.0437 22.7249 52.9406 22.753 53.0906 22.6124C53.2312 22.4624 52.95 22.453 53.1094 22.303C53.25 22.153 52.7344 21.9749 52.8937 21.8812C53.0344 21.7874 53.2969 21.6562 52.425 21.6655C52.425 21.6655 52.6406 21.328 53.3625 21.3937C53.3625 21.3937 53.175 21.5437 53.1562 21.6749L53.3062 21.7218C53.3062 21.7218 53.2687 21.8249 53.1281 21.9374C53.1281 21.9374 53.5219 22.153 53.5875 22.2937C53.5875 22.2937 53.3437 22.3687 53.2781 22.4624C53.2781 22.4624 53.3906 22.5843 53.4281 22.7437C53.4281 22.7437 53.1562 22.7062 53.1281 22.903C53.0906 23.0999 53.0062 22.9687 53.0062 23.0905C53.0062 23.2124 53.0156 23.2499 52.9219 23.278C52.8281 23.278 52.9125 23.3812 52.9219 23.4468C52.9406 23.5124 52.9781 23.6624 52.9594 23.7093C52.9594 23.7093 52.8187 23.7093 52.7625 23.728C52.7625 23.728 52.8 24.0093 52.6406 24.0562C52.4812 24.0937 52.7344 24.1499 52.5562 24.178C52.3875 24.2062 52.4156 24.2249 52.2094 24.5999C52.2094 24.5999 52.3875 24.5062 52.5656 24.3749C52.7531 24.253 52.5469 24.2812 52.8469 23.9999C53.1562 23.6905 53.1 23.6718 53.0719 23.5218C53.0531 23.3718 53.0437 23.2405 53.1562 23.0999C53.2687 22.9593 53.2969 22.7999 53.6906 22.8187C53.6906 22.8187 53.5781 22.5562 53.4375 22.4905C53.4375 22.4905 53.625 22.3687 53.8125 22.3499C53.8125 22.3499 53.6437 22.1343 53.2875 21.9374C53.2875 21.9374 53.5687 21.6937 53.6531 21.5718C53.6531 21.5718 53.5125 21.5999 53.4 21.5718C53.4 21.5718 53.4562 21.4499 53.7187 21.2812C53.7187 21.2812 53.8594 21.4124 53.85 21.553C53.85 21.553 54.3 21.2999 54.5531 21.328C54.5531 21.328 54.6844 21.6468 54.0562 22.2655C54.0562 22.2655 54.45 22.2937 54.6187 22.2655C54.6187 22.2655 54.525 22.5655 54.0562 22.7343C53.5875 22.9218 54.15 23.128 53.6719 23.0905C53.2031 23.053 53.3437 23.2124 53.3531 23.4562C53.3719 23.6999 53.3812 23.953 53.3719 24.0187C53.3719 24.0187 52.9969 23.8968 52.9969 24.2624C53.0062 24.6374 52.8094 24.7124 52.7625 24.7405C52.7625 24.7405 52.65 24.6468 52.4812 24.5812C52.4812 24.5812 52.2469 25.0405 51.8719 25.303Z" fill="#5A3719"/>
<path d="M51.3187 20.6718C51.3187 20.6718 51.45 20.653 51.675 20.7843C51.8906 20.9249 52.1062 20.6437 51.8625 20.5687C51.6187 20.4937 51.8625 20.3999 52.0875 20.5874C52.3125 20.7655 52.3968 20.6718 52.4812 20.6155C52.5562 20.5499 52.6593 20.5124 52.5093 20.4093C52.3593 20.3062 52.6031 20.353 52.725 20.4374C52.8375 20.503 52.7906 20.578 52.7812 20.5968C52.7625 20.6155 52.7531 20.8687 52.9687 20.6437C53.1937 20.4093 53.3156 20.1937 53.3062 20.0812C53.3062 20.0812 53.4281 20.1562 53.4468 20.2968C53.4656 20.4374 53.6343 20.2218 53.6906 20.1468C53.7468 20.0718 53.8406 19.8655 53.8312 19.7343C53.8312 19.7343 53.9812 19.9687 54.2062 19.7343C54.4312 19.4999 54.3375 19.6405 54.6 19.5749C54.907 19.4926 55.1837 19.3233 55.3968 19.0874C55.5843 18.853 55.5937 19.0124 55.8281 18.9562C56.0625 18.8999 56.55 18.5624 56.5968 18.3843C56.6343 18.2062 56.625 18.0937 56.5593 18.1593C56.4937 18.2155 56.5218 18.1593 56.4187 18.103C56.3156 18.0374 56.1656 18.1874 56.1656 18.1874C56.1656 18.1874 56.3156 18.2999 56.1937 18.3468C56.0812 18.403 55.9781 18.5624 55.7625 18.4968C55.5468 18.4405 55.3125 18.703 55.3125 18.703C55.3125 18.703 55.5 18.853 55.2468 18.9562C54.9937 19.0499 55.0312 19.0874 54.8812 18.9749C54.8812 18.9749 54.6093 19.3218 54.45 19.3968C54.45 19.3968 54.3843 19.3968 54.3375 19.3218C54.3375 19.3218 54.15 19.5187 54.075 19.5562C54.075 19.5562 53.9531 19.4624 53.8593 19.4155C53.8593 19.4155 53.6437 19.6874 53.4656 19.7624C53.4656 19.7624 53.4093 19.6687 53.2968 19.603C53.2968 19.603 53.2406 19.9405 52.8656 20.1468C52.8656 20.1468 52.8843 20.053 52.6968 19.9312C52.6968 19.9312 52.2281 20.3343 52.05 20.3718C51.8625 20.4093 52.0312 20.2874 52.05 20.2312C52.0875 20.1843 52.2 20.0155 51.975 19.9499C51.75 19.8843 51.7875 19.9968 51.7406 20.0155C51.6843 20.0343 51.6843 19.978 51.5343 19.9968C51.3843 20.0155 51.4125 20.0812 51.3468 20.1093C51.2718 20.128 51.0093 20.0624 51.0281 20.2405C51.0375 20.4093 51.1687 20.5312 50.9343 20.6343C50.7 20.728 51.0281 20.7093 51.3187 20.6718Z" fill="#7B3C20"/>
<path d="M52.2656 20.1843C52.2656 20.1843 52.3219 19.9499 52.125 19.8562C52.125 19.8562 53.3625 19.6593 52.425 19.1812C52.425 19.1812 53.5406 18.9655 53.2688 18.6093C53.0156 18.253 52.7625 18.328 52.725 18.328C52.6875 18.328 52.9594 18.1312 53.0344 18.1593C53.1 18.1874 53.9906 18.5249 53.7656 18.2249C53.5406 17.9437 53.5594 17.953 53.5219 17.8687C53.5219 17.8687 53.8125 17.8687 54.2625 18.2999C54.2625 18.2999 54.3563 18.2062 54.3469 18.028C54.3469 18.028 54.6562 18.1218 54.7594 18.2155C54.7594 18.2155 54.8156 18.103 54.7875 18.0468C54.7875 18.0468 55.0688 18.1874 55.1625 18.3468C55.1625 18.3468 55.2844 18.2343 55.3031 18.103C55.3031 18.103 55.5844 18.2249 55.65 18.3093C55.65 18.3093 55.7438 18.1874 55.7063 18.028C55.7063 18.028 56.1656 18.1499 56.2219 17.878C56.2219 17.878 56.6813 17.9718 56.3813 18.1499C56.0063 18.3843 56.3437 18.0937 55.95 18.3655C55.65 18.5812 55.4813 18.8249 55.3313 18.778C55.2281 18.7312 55.0969 19.0499 54.9563 18.8999C54.8156 18.7405 54.8156 18.8062 54.7031 18.9655C54.6258 19.0827 54.538 19.1925 54.4406 19.2937C54.4406 19.2937 54.3656 19.2468 54.2906 19.1812C54.2906 19.1812 54.2156 19.3312 54.1031 19.4437C54.1031 19.4437 54.0094 19.3218 53.8594 19.2562C53.8594 19.2562 53.6438 19.5093 53.5031 19.603C53.5031 19.603 53.3719 19.4718 53.2312 19.4249C53.2312 19.4249 53.2125 19.7812 52.9406 19.9593C52.9406 19.9593 52.8844 19.8468 52.6969 19.7718C52.6969 19.7718 52.5656 19.9874 52.2656 20.1749V20.1843Z" fill="#5A3719"/>
<path d="M51.6186 19.6404C51.6186 19.6404 51.4686 19.7529 51.5623 19.8748C51.6561 20.0061 51.6654 19.8561 51.7873 19.8467C51.9092 19.8279 53.4279 19.5654 52.0498 19.1623C52.0498 19.1623 52.1154 19.1061 52.3404 19.0873C52.5842 19.0592 53.4467 18.8342 53.0436 18.5248C52.6404 18.2248 52.3029 18.6279 52.6404 18.2623C52.9217 17.9717 52.6967 17.8311 52.6967 17.8311C52.6967 17.8311 51.8998 18.3561 51.7217 18.4592C51.5529 18.5529 51.2904 18.7404 51.5904 18.8342C51.8998 18.9279 52.0967 18.5154 52.1248 18.6092C52.1529 18.7029 51.5248 19.0592 51.6186 19.2092C51.7029 19.3779 51.6842 19.5186 51.8436 19.4811C51.9936 19.4529 52.4061 19.5561 52.0779 19.5467C51.7311 19.5373 51.6092 19.6404 51.6092 19.6404H51.6186Z" fill="#5A3719"/>
<path d="M52.1624 18.872C52.1624 18.872 52.0218 18.9751 52.2093 18.9282C52.3968 18.8814 52.7624 18.797 52.6968 18.7032C52.6218 18.6095 52.3781 18.722 52.1624 18.872Z" fill="black"/>
<path d="M54.5998 17.297C54.5998 17.297 55.3029 17.2782 55.5842 17.4751C55.8654 17.6626 56.0154 17.7939 56.0998 17.8314C56.0998 17.8314 56.0904 18.0939 55.631 17.897C55.631 17.897 55.6685 18.0282 55.6123 18.1595C55.6123 18.1595 55.4529 18.047 55.256 18.0001C55.256 18.0001 55.2185 18.0939 55.1623 18.1595C55.1623 18.1595 54.9654 17.9532 54.731 17.8876C54.731 17.8876 54.6935 17.9907 54.656 18.0376C54.656 18.0376 54.4123 17.8876 54.2248 17.8876C54.2248 17.8876 54.2623 18.047 54.2248 18.1032C54.2248 18.1032 53.7185 17.7001 53.2592 17.747C53.2592 17.747 53.4748 18.0751 53.6154 18.2251C53.6154 18.2251 52.6967 18.1595 52.8654 17.6626C53.006 17.1657 52.8467 17.2876 53.4467 17.2876H54.5998V17.297Z" fill="#7B3C20"/>
<path d="M50.2783 18.6656C50.2783 18.6656 50.1751 18.7594 50.2783 18.825C50.3814 18.9 50.747 18.6375 50.7939 18.6C50.8501 18.5625 50.9814 18.5625 50.7939 18.7031C50.6064 18.8438 50.4376 18.9844 50.3251 19.1344C50.3251 19.1344 50.9251 18.9656 51.3189 18.6281C51.722 18.2812 51.3095 18.5062 51.9751 18.1781C52.6595 17.85 53.0158 17.325 52.6501 17.3812C52.2939 17.4375 51.9658 17.85 51.6751 18.0094C51.3939 18.1688 51.2345 18.1969 51.2814 18.1031C51.3189 18.0094 51.5345 18.0469 51.9283 17.7281C52.3126 17.4188 52.2283 17.4469 52.2283 17.3344C52.2283 17.2219 52.0876 16.9594 52.6689 16.6406C53.2501 16.3312 55.0689 15.2812 55.2283 14.9062C55.2283 14.9062 54.6939 14.9625 53.9908 15.4781C53.6051 15.8005 53.1836 16.0774 52.7345 16.3031C52.547 16.3781 52.5658 16.3219 52.4439 16.4813C52.1409 16.8003 51.825 17.1068 51.497 17.4C51.3751 17.4938 51.3283 17.55 51.3189 17.7562C51.3189 17.85 50.5314 18.4406 50.2876 18.6656H50.2783Z" fill="#5A3719"/>
<path d="M52.6876 17.2781C52.6876 17.2781 52.547 17.3344 52.4064 17.2781C52.2845 17.2125 52.3314 16.9406 52.6408 16.7625C53.0124 16.5599 53.4098 16.4085 53.822 16.3125C53.822 16.3125 53.7751 16.6688 52.8751 16.9781C52.8751 16.9781 52.9314 17.1656 52.6876 17.2781Z" fill="#5A3719"/>
<path d="M53.0063 17.0436C53.0063 17.0436 53.0345 17.1373 53.0063 17.2123C53.0063 17.2123 54.6845 17.3717 55.547 16.3498C55.547 16.3498 54.3563 16.4623 53.8876 16.7529C53.8876 16.7529 54.1876 16.3779 55.0782 16.0686C55.9688 15.7592 56.3345 15.3748 56.4095 15.1592C56.4095 15.1592 55.2845 15.5623 54.7501 15.5623C54.7501 15.5623 54.6376 15.5623 54.5345 15.6092C54.4313 15.6748 53.7095 16.1904 53.522 16.2842C53.522 16.2842 53.9251 16.2467 54.0751 16.1154C54.0751 16.1154 53.7938 16.8654 53.0063 17.0529V17.0436Z" fill="#AA5323"/>
<path d="M49.7812 17.9998C49.7812 17.9998 49.5656 18.1592 49.6594 18.2248C49.7531 18.3092 49.9031 18.3186 50.2219 18.0467C50.5594 17.7654 51.3563 17.0904 50.8594 17.0623C50.8594 17.0623 50.2031 17.0248 50.2312 17.4186C50.25 17.8123 49.8188 17.9811 49.7812 17.9998ZM48.2906 17.7654C48.2906 17.7654 48.7219 18.0186 48.5531 18.2248C48.5531 18.2248 49.8656 17.1186 49.4906 16.8748C49.1344 16.6311 48.8438 17.0904 48.9281 17.1279C49.0219 17.1842 49.2094 17.0904 49.1438 17.1842C48.8765 17.3976 48.5946 17.5918 48.3 17.7654H48.2906ZM47.9531 17.4092C47.9531 17.4092 48.2344 17.5029 48.2531 17.6248C48.2625 17.7373 49.1156 17.0248 48.8906 16.7154C48.7875 16.5748 48.3281 16.5279 48.2906 16.7904C48.2719 17.0717 48.7219 16.7623 48.5719 16.9592C48.3656 17.2123 48.0187 17.3717 47.9531 17.4092ZM51.0094 16.8092C51.0094 16.8092 50.8312 16.9404 51 17.0248C51.1688 17.0904 51.2625 16.9686 51.3469 16.9029C51.4313 16.8279 51.8438 16.5279 51.9281 16.3404C52.0219 16.1529 52.1625 16.0873 52.3125 15.9936C52.4531 15.8998 53.4938 15.3748 54.1406 14.8029C54.7781 14.2311 54.5156 14.3811 55.1719 14.0154C55.8281 13.6498 56.2688 13.3123 56.4094 12.9092C56.4094 12.9092 56.1 13.0029 55.8281 13.1904C55.499 13.4021 55.1646 13.6053 54.825 13.7998C54.7031 13.8467 54.5437 13.8561 54.45 13.9498C54.3562 14.0436 54.3562 14.1654 54.0469 14.4186C53.7188 14.6904 52.0781 15.8529 51.8719 16.0123C51.5794 16.2725 51.2919 16.5382 51.0094 16.8092Z" fill="#5A3719"/>
<path d="M49.6875 17.1936C49.6875 17.1936 49.875 17.0998 50.2125 17.1186C50.55 17.1373 51.8812 15.8436 52.275 15.5904C52.8739 15.1792 53.4586 14.7477 54.0281 14.2967C54.1969 14.1279 54.2156 13.9592 54.3656 13.8654C54.5063 13.7717 54.6469 13.7811 54.9656 13.5936C55.2937 13.4061 56.8687 12.4686 56.775 11.9248C56.775 11.9248 54.4313 13.3311 53.8969 13.7811C53.1477 14.3652 52.3752 14.9188 51.5813 15.4404C51.3188 15.6186 51.1125 15.9092 50.6531 16.2654C50.2125 16.6311 49.7625 16.9404 49.6875 17.2029V17.1936Z" fill="#AA5323"/>
<path d="M49.2002 16.6874C49.2002 16.6874 49.6314 16.6499 49.6877 16.8655C49.6877 16.8655 50.6252 16.228 50.8314 15.9655C51.0377 15.703 50.7564 15.853 51.2908 15.5062C52.151 14.9329 52.9951 14.3358 53.8221 13.7155C54.0752 13.4999 54.5533 13.1999 54.9377 12.9468C55.3127 12.6843 56.8033 11.953 56.6346 11.353L55.3033 12.2437C55.0502 12.4124 54.9377 12.3187 54.6939 12.5155C54.4502 12.7124 53.8971 13.1062 53.8033 13.228C53.373 13.5968 52.9223 13.9411 52.4533 14.2593C52.0408 14.5405 51.1314 15.0655 50.6814 15.4593C50.1948 15.8802 49.701 16.2927 49.2002 16.6968V16.6874Z" fill="#AA5323"/>
<path d="M47.8501 16.575C47.8501 16.575 48.0657 16.575 48.1407 16.6594C48.1407 16.6594 48.5439 16.2937 48.9751 16.6594C48.9751 16.6594 50.5501 15.5813 50.7095 15.3094C50.8689 15.0469 51.1314 15.0375 51.7407 14.5969C52.3595 14.1469 52.7439 13.95 53.147 13.6406C53.5595 13.3219 53.9063 12.9562 54.197 12.7687C54.4876 12.5812 55.2282 12.0938 55.1157 11.6719C55.1157 11.6719 54.5063 12.0094 54.122 12.4406C53.7282 12.8719 53.7657 12.5062 53.3626 12.8625C52.8996 13.2888 52.3865 13.6571 51.8345 13.9594C51.3189 14.2125 51.6282 14.1844 51.2532 14.4281C50.8876 14.6625 50.9157 14.6156 50.7845 14.6625C50.6004 14.7059 50.4337 14.8039 50.3063 14.9437C50.1563 15.1031 49.8001 15.3187 49.4063 15.5531C48.8569 15.8445 48.3359 16.1866 47.8501 16.575Z" fill="#AA5323"/>
<path d="M48.3282 15.7499C48.3282 15.7499 48.2344 15.5718 48.3938 15.4405C48.5438 15.3187 48.825 14.9905 48.8625 14.7843C48.9094 14.5687 48.8719 14.6062 49.3125 14.428C50.5812 13.895 51.7831 13.2154 52.8938 12.403C53.0625 12.2624 53.4938 11.9718 53.6719 11.8218C53.6719 11.8218 53.7469 12.0562 53.5594 12.2155C52.9156 12.7203 52.2425 13.1868 51.5438 13.6124C51.3375 13.7155 50.8313 13.978 50.6438 14.128C50.4657 14.278 50.4938 14.3155 49.6875 14.7187C48.8907 15.103 48.8438 15.1499 48.8719 15.178C48.9 15.2155 49.2657 15.0562 49.4344 14.953C49.6032 14.8593 50.2594 14.5499 50.4657 14.3905C50.6745 14.2208 50.8936 14.0642 51.1219 13.9218C51.6968 13.592 52.2596 13.2418 52.8094 12.8718C53.1375 12.6187 53.2313 12.5437 53.3063 12.5905C53.3719 12.628 53.4938 12.628 53.3438 12.778C53.1938 12.928 52.7157 13.3405 52.5282 13.4624C52.3407 13.5843 51.7688 13.9312 51.6094 14.0062C51.45 14.0999 51.3844 14.2405 51.2907 14.3062C51.2063 14.3812 50.9438 14.5593 50.6344 14.6343C50.325 14.7093 50.2594 14.9437 50.0438 15.0843C49.8282 15.2155 48.3563 16.0218 48.3094 16.0499C48.3094 16.0499 48.3938 15.9562 48.3282 15.7499Z" fill="#AA5323"/>
<path d="M53.4657 12.4124C53.4657 12.4124 53.3814 12.4874 53.4282 12.5249C53.4845 12.5812 53.6907 12.7312 53.9532 12.4687C54.3198 12.1272 54.7115 11.8138 55.1251 11.5312C55.3407 11.3905 55.4626 11.2687 55.4532 11.0905C55.4532 11.0905 54.3845 11.653 53.4657 12.4124ZM54.9282 12.3187C54.9282 12.3187 55.0876 12.0468 55.4907 11.7843C55.8939 11.5312 56.5032 11.1562 56.5689 11.0718C56.5689 11.0718 56.7189 11.2312 56.4095 11.428C56.0675 11.6398 55.7299 11.8586 55.397 12.0843C55.3314 12.1499 55.2095 12.2343 54.9282 12.3187Z" fill="#AA5323"/>
<path d="M46.7814 15.2812C46.7814 15.2812 46.3314 15.525 46.4907 15.675C46.6501 15.8156 46.8845 15.7688 46.997 15.7313L47.297 15.6375C47.3345 15.6375 47.7189 15.5156 47.822 15.3375C47.9157 15.15 48.1782 14.9438 48.3845 14.7938C48.5907 14.6531 48.6657 14.4938 48.6376 14.3906L46.7814 15.2812ZM44.1189 17.3438C44.1189 17.3438 44.4376 17.1563 44.8689 17.2781C44.8689 17.2781 44.8501 17.175 44.7751 17.1188C44.7751 17.1188 45.3095 16.9781 45.422 16.7438C45.5345 16.5094 45.5626 16.5563 45.6564 16.5C45.7689 16.425 46.472 15.8625 46.3876 15.7406C46.3032 15.6187 46.2939 15.45 46.2282 15.3937C46.2282 15.3937 46.0876 15.5906 45.3845 15.9281C44.7095 16.2656 43.9407 16.5094 43.3782 17.2594C42.8251 18.0094 42.8814 18.4406 43.5657 18.6375C43.5657 18.6375 44.0345 18.3375 45.2157 18.4406C46.3782 18.5437 46.772 18.9844 46.847 19.0594C46.922 19.1438 47.1564 19.4344 46.9314 19.9125C46.9314 19.9125 47.1657 20.0156 47.1751 19.7906C47.2032 19.575 47.2126 19.6219 47.2689 19.65C47.3251 19.6875 47.3907 19.6969 47.3626 19.5187C47.3393 19.281 47.2658 19.051 47.147 18.8438C47.0439 18.7031 47.1657 18.7687 47.2314 18.7875C47.297 18.8156 47.5407 19.0219 47.4001 18.6469C47.2595 18.2906 47.2126 18.4594 47.2126 18.4781C47.2126 18.5063 47.1751 18.5906 46.8564 18.3469C46.6092 18.1596 46.3295 18.0198 46.0314 17.9344C45.8157 17.8781 45.9657 17.8781 46.097 17.8406C46.2282 17.7844 46.3876 17.7656 46.4532 17.6156C46.4532 17.6156 46.322 17.6438 46.097 17.5594C45.9149 17.5059 45.723 17.495 45.5361 17.5275C45.3491 17.56 45.1722 17.6351 45.0189 17.7469C45.0189 17.7469 45.1314 17.325 44.7845 17.3438C44.447 17.3719 44.2032 17.3625 43.847 17.6437C43.847 17.6437 43.8189 17.2125 44.1657 16.9875C44.5126 16.7531 44.4657 16.8938 44.6532 16.8375C44.8407 16.7813 44.8689 16.5844 44.7845 16.5187C44.7845 16.5187 45.2345 16.6031 45.9845 15.975C45.9845 15.975 45.5814 16.5094 45.0939 16.6125C45.0939 16.6125 45.0095 16.8937 44.5595 16.9594C44.1095 17.025 44.1282 17.2781 44.1282 17.3438H44.1189Z" fill="#7B3C20"/>
<path d="M42.8439 19.9404C42.8439 19.9404 43.0502 18.6186 44.2971 18.5248C45.3658 18.4311 45.7127 18.5717 45.9283 18.6467C46.1439 18.7217 46.6783 18.8717 46.4721 19.0404C46.2658 19.2092 46.1439 19.1811 46.1439 19.1811C46.1439 19.1811 46.3783 18.9092 46.1627 18.8717C45.9471 18.8248 45.9377 18.9561 45.9096 19.0592C45.8721 19.1811 45.8627 19.3029 45.7596 19.3967C45.7596 19.3967 45.6471 19.2654 45.4877 19.3779C45.3283 19.4904 45.4689 19.4904 45.5346 19.4717C45.5908 19.4529 45.6752 19.4248 45.6564 19.5186C45.6471 19.6123 45.5627 19.7811 45.3002 19.9123C45.0471 20.0436 45.0564 20.0342 44.7564 20.0904C44.4471 20.1373 44.1658 20.2592 43.7721 20.5873C43.3783 20.9248 42.9564 20.8123 42.8721 20.4467C42.7971 20.1279 42.8346 19.9404 42.8346 19.9404H42.8439Z" fill="#5A3719"/>
<path d="M44.25 19.8937C44.25 19.8937 44.3625 19.6405 44.1562 19.5187C44.1562 19.5187 43.5094 19.6312 43.3125 19.4343C43.3125 19.4343 44.0156 19.3968 44.4563 19.2187C44.8875 19.0593 44.7656 18.9374 44.6156 18.8999C44.4656 18.8718 44.1844 18.9468 44.1562 19.0874C44.1562 19.0874 44.0625 18.9374 44.175 18.8437C44.2969 18.7405 44.4562 18.7218 44.6156 18.7687C44.775 18.8062 44.9062 18.8812 45.4219 18.6187C45.4219 18.6187 45.7125 18.6843 45.7312 18.8812C45.7312 19.0874 45.7031 19.1624 45.675 19.1905C45.6563 19.228 45.6187 19.2843 45.5531 19.2843C45.4969 19.2655 45.4125 19.2562 45.3375 19.3968C45.2719 19.5374 45.2156 19.6499 45.0938 19.7437C45.0938 19.7437 45.2344 19.3124 44.8594 19.2093C44.8594 19.2093 44.55 19.3968 44.3156 19.4062C44.3156 19.4062 44.6156 19.6874 44.2406 19.8937H44.25Z" fill="black"/>
<path d="M44.9342 19.1063C44.9342 19.1063 44.7842 18.9563 44.9717 18.9282C45.1592 18.9188 45.403 19.0594 45.3655 19.1813C45.3092 19.2938 45.0842 19.2844 44.9342 19.1063Z" fill="#5A3719"/>
<path d="M55.5564 17.0249C55.5564 17.0249 55.2095 17.1187 55.5376 17.3343C55.8564 17.5499 56.0064 17.7281 56.2407 17.7843C56.4751 17.8499 56.7095 17.9249 56.7095 18.1593C56.7095 18.3937 56.6626 18.4874 56.5314 18.6468C56.4095 18.8062 56.6064 18.8718 56.7751 18.7874C56.9439 18.6937 57.0845 18.6468 57.197 18.5812C57.3001 18.5156 57.4782 18.5249 57.3282 18.6093C57.1501 18.7031 56.9814 18.7499 57.197 18.7499C57.4126 18.7593 58.7157 18.7874 58.9876 18.6937C59.2689 18.6093 59.6251 18.5812 59.6439 18.2249C59.6439 18.2249 59.6626 18.0749 59.7657 17.9999C59.8595 17.9343 59.9345 17.7843 59.7845 17.8874C59.6439 17.9906 59.5314 18.0468 59.5032 18.0093C59.4751 17.9812 59.4564 17.9531 59.5689 17.9062C59.6814 17.8593 59.7376 17.9062 59.8407 17.7656C59.9345 17.6156 59.9345 17.6343 59.8782 17.5781C59.822 17.5218 59.7095 17.4843 59.7657 17.4093C59.822 17.3343 59.8782 17.1281 59.6345 17.2499C59.4001 17.3718 58.922 17.6999 58.697 17.7468C58.4907 17.7937 58.322 17.8593 58.0314 17.9156C57.7501 17.9812 57.5626 18.0468 57.2345 18.2249C56.9251 18.3937 56.9532 18.1218 57.0001 18.0843C57.0001 18.0843 57.122 18.2999 57.4407 18.0187C57.7595 17.7468 57.6564 18.0093 58.4345 17.7468C59.2126 17.4937 59.0251 17.4562 59.3251 17.2968C59.6345 17.1374 59.9251 17.1281 59.7001 16.9218C59.4939 16.6968 59.4751 16.6874 59.2032 16.9218C58.762 17.2455 58.2459 17.4519 57.7032 17.5218C57.7032 17.5218 59.4657 16.7718 59.2876 16.6593C59.1339 16.5581 58.9666 16.4792 58.7907 16.4249C58.6689 16.3968 58.6314 16.3687 58.3501 16.4999C58.0689 16.6218 58.022 16.6499 57.947 16.6593C57.8532 16.6593 57.6189 16.7156 57.2907 16.8843C56.9532 17.0624 56.7751 17.1281 56.5407 17.2593C56.5407 17.2593 56.7001 16.9499 57.3939 16.7437C58.0876 16.5374 58.4345 16.3499 58.3689 16.3124C58.3032 16.2749 58.1157 16.2374 57.9939 16.2656C57.8532 16.2937 57.9001 16.2562 57.4689 16.4249C57.047 16.5937 57.2251 16.5562 56.8876 16.6312C56.5407 16.6968 56.4095 16.7718 56.2407 16.8468C56.2407 16.8468 56.3157 16.7531 56.5314 16.6687C56.6532 16.6312 56.4095 16.5843 56.7376 16.5749H56.8314C57.1135 16.511 57.3851 16.4068 57.6376 16.2656C57.572 16.2562 57.1595 16.2093 56.747 16.4156C56.3251 16.6031 56.5126 16.5374 56.372 16.5562C56.222 16.5937 55.9032 16.7812 55.8095 16.8749C55.7064 16.9593 55.5564 17.0156 55.5564 17.0156V17.0249Z" fill="white"/>
<path d="M45.2529 18.919C45.2529 18.919 45.4216 18.9659 45.4591 19.0877C45.506 19.2002 45.6091 19.0315 45.6091 18.9846C45.5998 18.9284 45.4966 18.7034 45.3279 18.8065C45.1404 18.9096 45.2341 18.9096 45.2529 18.919Z" fill="#5A3719"/>
<path d="M44.803 21.1876C44.803 21.1876 45.1499 21.0188 45.4499 21.047C45.4499 21.047 45.328 20.6345 45.5343 20.7001C45.7312 20.7751 45.6749 20.7376 45.7218 20.7376C45.7218 20.7376 45.7312 20.4657 45.6749 20.3626C45.6749 20.3626 45.8905 20.4095 46.1062 20.4095C46.1062 20.4095 45.8999 20.0251 46.1249 19.7532C46.1657 19.8301 46.2216 19.898 46.2893 19.9527C46.3569 20.0075 46.435 20.0481 46.5187 20.072V19.8563C46.5187 19.8563 46.678 19.8282 46.7999 19.8938C46.9312 19.9688 47.0343 19.1813 46.6593 19.022C46.6593 19.022 46.5655 19.1626 46.2187 19.2376C45.8718 19.3126 45.8718 19.3782 45.7312 19.6407C45.5905 19.9032 45.4499 19.9126 45.1499 20.1095C44.8687 20.297 44.6812 20.672 44.6812 20.7095C44.6812 20.7095 44.8218 20.897 44.803 21.1876Z" fill="#7B3C20"/>
<path d="M56.5407 16.6686C56.6626 16.6499 56.4095 16.5842 56.7282 16.5749H56.822C57.1074 16.5118 57.3821 16.4076 57.6376 16.2655C57.572 16.2561 57.1595 16.2092 56.747 16.4061C56.3345 16.603 56.5126 16.5374 56.372 16.5655C56.222 16.5936 55.9032 16.7811 55.8095 16.8749C55.7064 16.9592 55.5564 17.0155 55.5564 17.0155C55.5564 17.0155 55.2095 17.1092 55.5376 17.3342C55.8564 17.5499 56.0064 17.728 56.2407 17.7842C56.4751 17.8499 56.7095 17.9249 56.7095 18.1592C56.7145 18.2483 56.7013 18.3375 56.6707 18.4213C56.64 18.5052 56.5926 18.5819 56.5314 18.6467C56.4095 18.8061 56.6064 18.8717 56.7751 18.7874C56.9439 18.6936 57.0845 18.6467 57.197 18.5811C57.3001 18.5155 57.4782 18.5249 57.3189 18.6092C57.1501 18.703 56.9814 18.7499 57.197 18.7499C57.4126 18.7592 58.7157 18.7874 58.9876 18.6936C59.2689 18.6092 59.6251 18.5811 59.6439 18.2249C59.6439 18.2249 59.6626 18.0749 59.7657 17.9999C59.8595 17.9342 59.9345 17.7842 59.7845 17.8874C59.6439 17.9905 59.522 18.0467 59.5032 18.0092C59.4751 17.9811 59.4564 17.953 59.5689 17.9061C59.6814 17.8592 59.7376 17.9061 59.8407 17.7655C59.9345 17.6155 59.9345 17.6342 59.8782 17.578L59.7845 17.4936C59.7845 17.4936 59.7001 17.428 59.6064 17.4842C59.4001 17.5981 59.1794 17.6833 58.9501 17.7374C58.8001 17.7467 58.622 17.8217 58.3407 17.9624C58.0595 18.103 57.572 18.3936 57.497 18.1217L57.2345 18.2155C56.9157 18.3842 56.9532 18.1499 57.0001 18.0842C57.0001 18.0842 56.8314 18.2717 56.8407 18.103C56.8407 17.9342 56.9532 17.9624 57.1501 17.9061C57.3376 17.8499 57.6189 17.7186 57.5064 17.6249C57.3845 17.5311 57.2532 17.7186 57.1126 17.7936C56.9814 17.8592 56.7095 17.9061 56.6626 17.7092C56.6251 17.5124 56.6251 17.3717 56.2595 17.353C55.8845 17.3342 55.8939 17.0999 55.997 16.9967C56.1001 16.903 56.1845 16.7342 56.5314 16.6686H56.5407Z" fill="#999999"/>
<path d="M57.7123 18.4594C57.7123 18.4594 58.2842 18.197 58.8092 18.0751C59.3436 17.9532 58.9217 18.0938 58.8373 18.1126C58.7436 18.1407 57.928 18.4126 57.7311 18.5063C57.5436 18.6001 57.5717 18.5251 57.7123 18.4688V18.4594ZM57.8436 18.5813C57.8436 18.5813 58.4905 18.3657 58.6123 18.4501C58.7342 18.5438 58.6311 18.5063 58.4905 18.5251C58.3405 18.5345 57.9561 18.6001 57.853 18.6001C57.7498 18.6001 57.8436 18.5813 57.8436 18.5813ZM58.8748 18.3469C58.8748 18.3469 59.0061 18.3282 59.0155 18.3845C59.0248 18.422 58.9592 18.4313 58.8936 18.4219C58.828 18.4126 58.7717 18.3751 58.8842 18.3469H58.8748Z" fill="black"/>
<path d="M41.8123 23.9904C41.8123 23.9904 41.7841 23.4092 42.0748 23.1279C42.3654 22.8467 43.7435 21.3936 43.9591 20.9904C43.9591 20.9904 44.1466 21.1123 44.1466 21.3467C44.1466 21.3467 44.381 20.9436 44.5685 20.7842C44.5685 20.7842 44.7279 20.9529 44.7091 21.2904C44.7091 21.2904 45.0373 21.1123 45.5529 21.1123C45.5529 21.1123 45.3654 21.3373 45.356 21.4779C45.356 21.4779 46.0685 21.3842 46.4529 21.4498C46.4529 21.4498 45.4591 22.0123 45.731 22.0592C46.0216 22.1061 46.3123 22.0592 46.3123 22.0592C46.3123 22.0592 45.9935 22.3686 45.4873 22.4342C45.4873 22.4342 46.1341 22.4342 46.256 22.5748C46.256 22.5748 45.6373 22.6686 45.131 23.0436C45.131 23.0436 45.0935 23.0248 45.0935 22.8842C45.0935 22.8842 45.0654 23.0154 44.9248 23.1373C44.7841 23.2498 44.4466 23.5123 44.3154 23.6342C44.1841 23.7561 43.9591 24.0092 43.6966 24.0092C43.6966 24.0092 43.7529 23.8123 43.5654 23.7467C43.468 23.7135 43.3632 23.7091 43.2634 23.7341C43.1636 23.759 43.0732 23.8122 43.0029 23.8873C43.0029 23.8873 42.3466 23.8967 42.1216 23.9342C42.1216 23.9342 42.2716 23.6904 42.4029 23.6904C42.5529 23.6904 43.1154 23.7842 43.1623 23.3904C43.2185 23.0154 42.806 23.1092 42.956 22.8842C43.1154 22.6592 43.0779 22.6779 43.0873 22.6404C43.0873 22.6404 42.956 22.7154 42.881 22.9217C42.82 23.1497 42.6806 23.3488 42.4873 23.4842C42.3027 23.6032 42.1486 23.7637 42.0373 23.9529C42.0373 23.9529 41.9154 23.9529 41.8123 23.9904Z" fill="white"/>
<path d="M42.4502 23.6438C42.4502 23.6438 42.4783 23.5688 42.6658 23.5313C42.8721 23.5032 42.8814 23.4095 42.8533 23.3626C42.8252 23.3251 42.7127 23.3251 42.9002 23.1001C42.9002 23.1001 42.9752 23.1282 43.0127 23.1751C43.0689 23.2313 43.2846 23.6907 42.4502 23.6438Z" fill="white"/>
<path d="M41.9907 23.2404C41.9907 23.6154 42.4876 23.4748 42.4876 23.4748C42.3555 23.5723 42.2358 23.6857 42.1313 23.8123C42.1688 23.6248 41.8501 23.5779 41.8501 23.5779C41.8787 23.4587 41.9262 23.3447 41.9907 23.2404ZM43.8001 21.2248L43.9595 20.9904C43.9595 20.9904 44.147 21.1123 44.147 21.3467C44.147 21.3467 44.3813 20.9436 44.5688 20.7842C44.5688 20.7842 44.7282 20.9529 44.7095 21.2904C44.7095 21.2904 45.0376 21.1123 45.5532 21.1123C45.5532 21.1123 45.3657 21.3373 45.3563 21.4779C45.3563 21.4779 46.0688 21.3842 46.4532 21.4498C46.4532 21.4498 45.4595 22.0123 45.7313 22.0592C46.022 22.1061 46.3126 22.0592 46.3126 22.0592C46.3126 22.0592 45.9938 22.3686 45.4876 22.4342C45.4876 22.4342 46.1345 22.4342 46.2563 22.5748C46.2563 22.5748 46.0688 22.6029 45.8251 22.6873C45.8251 22.6873 45.647 22.5186 45.1126 22.5467C45.1126 22.5467 45.5251 22.3029 45.8626 22.2279C45.8626 22.2279 45.7126 22.0404 45.4876 22.2186C45.4876 22.2186 45.0282 21.9092 45.4126 21.6373C45.4126 21.6373 45.1501 21.5904 44.972 21.7123C44.972 21.7123 44.972 21.4967 45.1688 21.4029C45.1688 21.4029 44.6626 21.3092 44.5407 21.6842C44.5407 21.6842 44.447 21.5436 44.4938 21.3654C44.4938 21.3654 44.1845 21.5436 44.0438 21.7404C44.0438 21.7404 43.997 21.3654 43.8001 21.2248ZM42.8251 23.6248C42.7407 23.6436 42.6095 23.6529 42.4501 23.6436C42.4501 23.6436 42.4688 23.5967 42.572 23.5498C42.572 23.5498 42.6095 23.6248 42.8251 23.6248Z" fill="#999999"/>
<path d="M43.7437 22.1908C43.7437 22.1908 43.978 22.3783 44.053 22.4721C44.053 22.4721 44.2687 22.3408 44.3343 22.2189C44.3343 22.2189 44.5124 22.3221 44.5593 22.4814C44.5593 22.4814 44.6812 22.4064 44.6999 22.2939C44.6999 22.2939 44.9812 22.3502 45.0937 22.4439C45.0937 22.4439 45.1312 22.1627 45.0937 21.9939C45.0937 21.9939 45.2905 22.0127 45.4124 22.0596C45.4124 22.0596 45.2999 21.8721 45.8812 21.6377C45.8812 21.6377 45.4405 21.7408 45.2718 21.9189C45.2718 21.9189 45.0843 21.9377 44.9999 21.8814V22.3033C44.9999 22.3033 44.8874 22.2471 44.6718 22.2002C44.6718 22.2002 44.6155 22.2939 44.578 22.3127C44.578 22.3127 44.4374 22.2002 44.3812 22.0596C44.3812 22.0596 44.1655 22.2564 44.0999 22.3408C44.0999 22.3408 43.8843 22.1908 43.7437 22.1908Z" fill="black"/>
<path d="M42.4219 25.0593C42.4219 25.0593 42.5156 25.0968 42.7312 24.928C42.9469 24.7593 43.5469 24.3749 43.5938 24.0655C43.6594 23.7561 43.4062 23.7468 43.2188 23.8311C43.0125 23.9249 43.0969 24.0843 43.1062 24.1499C43.1062 24.2061 43.125 24.4218 42.7969 24.7124L42.4219 25.0593Z" fill="#FFC221"/>
<path d="M42.3659 25.153C42.3659 25.153 41.8784 24.9467 42.3096 24.7311C42.7409 24.5155 42.9377 24.4592 42.9846 24.2717C43.0409 24.0936 43.0034 24.1311 42.844 24.2061C42.6846 24.2717 42.0752 24.5624 41.9815 24.2999C41.9815 24.2999 42.2346 24.3936 42.544 24.2436C42.8627 24.0842 43.1252 24.0467 42.919 23.9811C42.5748 23.9452 42.2272 23.961 41.8877 24.028C41.7565 24.0655 41.794 24.0561 41.7659 24.178C41.7471 24.2999 41.6159 24.553 41.5596 24.6186C41.5127 24.6936 41.3909 24.9936 41.6159 25.1342C41.73 25.1979 41.8579 25.2329 41.9885 25.2362C42.1192 25.2394 42.2487 25.2109 42.3659 25.153Z" fill="#FFC221"/>
<path d="M42.178 24.0938C42.178 24.0938 42.0562 24.1125 42.0843 24.1594C42.103 24.2063 42.1312 24.1969 42.178 24.1969C42.2062 24.1969 42.2718 24.1781 42.2812 24.15C42.2812 24.1219 42.2062 24.0844 42.178 24.1031V24.0938Z" fill="black"/>
<path d="M42.328 25.0407C42.328 25.0407 42.103 24.9376 42.3655 24.797C42.6187 24.6563 42.8905 24.5157 42.928 24.4595C42.928 24.4595 42.8062 24.6376 42.328 25.0407Z" fill="white"/>
</g>
<defs>
<clipPath id="clip0_59_49267">
<rect width="60" height="45" fill="white"/>
</clipPath>
</defs>
</svg>
